<?xml version="1.0" encoding="UTF-8" standalone="no"?>
<!DOCTYPE svg PUBLIC "-//W3C//DTD SVG 1.1//EN" "http://www.w3.org/Graphics/SVG/1.1/DTD/svg11.dtd">
<svg xmlns="http://www.w3.org/2000/svg" version="1.1" viewBox="0 0 200 200" xmlns:xlink="http://www.w3.org/1999/xlink">
<defs>
<path d="M 0.00 0.00 L 1.06 0.00 C 0.99 5.26 0.87 10.57 1.18 15.80 C 1.04 19.21 0.96 22.61 1.03 26.02 C 1.02 27.34 1.01 28.66 1.01 29.98 C 0.98 32.01 1.00 34.04 1.03 36.07 C 1.00 37.76 0.98 39.45 0.99 41.15 C 0.99 42.74 1.02 44.32 1.06 45.91 L 1.06 47.98 C 0.95 57.26 0.97 66.58 1.06 75.86 C 0.96 87.25 0.98 98.65 1.04 110.04 C 0.96 119.71 0.99 129.38 1.01 139.05 C 1.02 140.34 1.03 141.64 1.04 142.93 C 0.99 145.96 0.99 148.99 1.03 152.03 C 1.01 153.30 1.00 154.57 0.99 155.85 C 0.92 159.64 1.03 163.43 1.15 167.22 C 1.12 168.15 1.09 169.08 1.08 170.01 C 0.93 175.68 0.98 181.36 1.06 187.03 L 1.06 189.01 C 0.99 192.68 1.00 196.34 0.94 200.00 L 0.00 200.00 L 0.00 0.00 Z" id="p0" />
<path d="M 1.06 0.00 L 3.00 0.00 C 3.56 5.98 3.97 11.91 4.23 17.91 C 7.62 18.53 7.58 16.14 8.99 13.86 C 9.04 15.03 9.10 16.20 9.16 17.37 C 8.86 20.65 5.66 21.63 3.60 24.09 C 2.88 21.30 2.08 18.54 1.18 15.80 C 0.87 10.57 0.99 5.26 1.06 0.00 Z" id="p1" />
<path d="M 3.00 0.00 L 7.10 0.00 C 7.96 4.53 9.02 9.27 8.99 13.86 C 7.58 16.14 7.62 18.53 4.23 17.91 C 3.97 11.91 3.56 5.98 3.00 0.00 Z" id="p2" />
<path d="M 7.10 0.00 L 18.23 0.00 C 15.59 1.58 16.02 3.06 16.04 5.81 C 15.93 9.34 16.31 12.68 16.97 16.14 C 14.27 16.11 11.82 17.15 9.16 17.37 C 9.10 16.20 9.04 15.03 8.99 13.86 C 9.02 9.27 7.96 4.53 7.10 0.00 Z" id="p3" />
<path d="M 18.23 0.00 L 30.32 0.00 L 30.36 1.07 C 28.20 2.03 26.36 1.26 24.11 1.21 C 23.10 4.46 28.04 5.70 30.22 6.49 C 27.18 11.32 28.28 10.15 32.36 13.16 C 30.72 13.98 27.73 13.51 28.05 16.02 C 28.27 16.76 28.52 17.50 28.81 18.23 C 29.48 20.34 30.22 21.56 31.83 23.12 L 30.86 23.37 C 26.84 21.15 17.34 21.59 16.97 16.14 C 19.67 12.86 22.34 14.26 26.06 14.50 C 25.34 7.94 16.76 14.35 16.04 5.81 C 16.02 3.06 15.59 1.58 18.23 0.00 Z" id="p4" />
<path d="M 30.32 0.00 L 47.09 0.00 C 45.76 3.78 45.96 5.43 41.79 6.89 C 39.42 9.39 45.98 8.27 47.07 8.99 C 47.81 13.52 49.27 16.75 44.99 20.00 C 40.52 20.74 36.19 21.95 31.83 23.12 C 30.22 21.56 29.48 20.34 28.81 18.23 C 32.38 18.16 40.82 17.75 42.92 14.80 C 43.74 9.20 38.90 12.34 35.88 12.53 C 34.71 12.74 33.53 12.95 32.36 13.16 C 28.28 10.15 27.18 11.32 30.22 6.49 C 36.51 6.34 36.30 0.59 30.36 1.07 L 30.32 0.00 Z" id="p5" />
<path d="M 47.09 0.00 L 49.97 0.00 C 49.81 3.65 50.63 6.86 51.77 10.28 C 50.19 9.89 48.62 9.47 47.07 8.99 C 45.98 8.27 39.42 9.39 41.79 6.89 C 45.96 5.43 45.76 3.78 47.09 0.00 Z" id="p6" />
<path d="M 49.97 0.00 L 57.12 0.00 C 57.01 4.04 56.54 8.35 57.73 12.21 C 57.94 13.08 58.15 13.94 58.35 14.80 C 58.28 15.95 58.19 17.09 58.06 18.22 C 54.34 19.62 53.04 14.45 52.26 11.87 L 51.77 10.28 C 50.63 6.86 49.81 3.65 49.97 0.00 Z" id="p7" />
<path d="M 57.12 0.00 L 58.12 0.00 C 58.04 4.07 57.98 8.15 57.73 12.21 C 56.54 8.35 57.01 4.04 57.12 0.00 Z" id="p8" />
<path d="M 58.12 0.00 L 63.12 0.00 C 61.67 8.84 65.94 17.77 62.93 25.90 C 62.22 28.42 60.38 25.57 59.20 24.97 C 58.82 21.47 59.28 18.25 58.35 14.80 C 58.15 13.94 57.94 13.08 57.73 12.21 C 57.98 8.15 58.04 4.07 58.12 0.00 Z" id="p9" />
<path d="M 63.12 0.00 L 81.12 0.00 C 80.31 11.79 82.83 23.15 82.00 35.00 C 81.97 46.47 83.51 57.69 83.19 69.24 L 81.65 70.18 C 78.76 71.40 73.80 72.31 72.11 75.02 C 71.72 75.71 71.34 76.41 70.97 77.12 C 71.49 72.61 72.66 70.64 67.07 69.90 L 65.95 69.19 C 66.85 69.10 67.73 69.00 68.62 68.87 C 66.29 65.05 68.29 59.63 65.24 57.74 C 65.59 52.59 68.66 45.02 66.05 40.30 C 61.86 44.10 65.37 37.13 64.85 35.09 C 62.79 34.77 61.62 35.96 60.03 36.99 C 60.16 32.85 59.96 29.04 59.20 24.97 C 60.38 25.57 62.22 28.42 62.93 25.90 C 65.94 17.77 61.67 8.84 63.12 0.00 Z" id="p10" />
<path d="M 81.12 0.00 L 124.11 0.00 C 124.18 8.96 123.33 19.56 124.78 28.25 C 127.48 32.73 126.79 30.16 128.69 27.19 C 129.05 31.93 130.61 27.86 132.95 27.06 C 131.30 30.35 129.63 33.64 128.07 36.98 C 123.20 47.74 114.16 40.52 104.95 43.91 C 102.17 44.21 101.55 46.85 102.39 49.10 C 97.83 50.45 93.40 49.79 89.24 47.48 C 95.87 46.85 86.44 41.04 84.14 42.10 C 83.93 46.93 85.14 51.82 85.32 56.69 C 88.89 59.89 91.06 60.53 90.82 65.91 C 88.21 66.89 85.70 68.06 83.19 69.24 C 83.51 57.69 81.97 46.47 82.00 35.00 C 82.83 23.15 80.31 11.79 81.12 0.00 Z" id="p11" />
<path d="M 124.11 0.00 L 138.25 0.00 C 136.86 5.00 136.63 9.88 134.57 14.47 C 133.65 16.68 133.51 18.77 135.83 20.09 C 138.56 15.81 143.52 12.98 148.06 10.97 C 143.16 16.20 137.68 20.61 133.60 26.62 L 132.95 27.06 C 130.61 27.86 129.05 31.93 128.69 27.19 C 126.79 30.16 127.48 32.73 124.78 28.25 C 123.33 19.56 124.18 8.96 124.11 0.00 Z" id="p12" />
<path d="M 138.25 0.00 L 197.11 0.00 C 196.73 8.01 197.40 16.08 196.72 24.07 C 194.97 21.97 194.29 14.29 193.88 21.49 C 190.07 19.00 185.28 20.83 183.62 16.38 C 182.70 13.86 183.14 10.83 182.77 8.17 C 179.21 6.64 182.44 15.94 180.12 15.75 C 179.61 10.47 181.34 6.17 176.82 2.19 C 170.11 5.25 171.52 9.82 172.14 15.98 C 174.57 24.43 171.55 34.46 174.29 42.79 C 178.83 42.35 181.02 39.03 185.20 42.80 C 189.36 45.60 187.97 46.99 186.16 51.03 C 186.08 48.31 185.96 45.83 184.19 43.61 C 179.77 41.64 176.33 44.71 172.11 45.76 C 171.48 37.84 172.84 29.55 171.37 21.75 C 170.89 19.09 170.02 16.55 169.02 14.05 C 168.85 10.57 169.51 8.76 165.94 7.04 C 160.53 3.67 153.01 8.57 148.06 10.97 C 143.52 12.98 138.56 15.81 135.83 20.09 C 133.51 18.77 133.65 16.68 134.57 14.47 C 136.63 9.88 136.86 5.00 138.25 0.00 Z" id="p13" />
<path d="M 197.11 0.00 L 198.10 0.00 C 197.74 13.37 198.11 27.49 200.00 40.60 L 200.00 87.36 C 193.61 88.48 187.27 88.56 181.14 90.91 C 178.84 88.36 177.02 81.52 176.71 77.86 C 179.69 72.98 178.84 68.50 179.13 63.10 C 179.01 60.64 183.81 61.41 184.68 59.67 C 185.20 56.64 184.68 53.86 186.16 51.03 C 187.97 46.99 189.36 45.60 185.20 42.80 C 181.02 39.03 178.83 42.35 174.29 42.79 C 171.55 34.46 174.57 24.43 172.14 15.98 C 171.52 9.82 170.11 5.25 176.82 2.19 C 181.34 6.17 179.61 10.47 180.12 15.75 C 182.44 15.94 179.21 6.64 182.77 8.17 C 183.14 10.83 182.70 13.86 183.62 16.38 C 185.28 20.83 190.07 19.00 193.88 21.49 C 194.29 14.29 194.97 21.97 196.72 24.07 C 197.40 16.08 196.73 8.01 197.11 0.00 Z" id="p14" />
<path d="M 198.10 0.00 L 200.00 0.00 L 200.00 40.60 C 198.11 27.49 197.74 13.37 198.10 0.00 Z" id="p15" />
<path d="M 24.11 1.21 C 26.36 1.26 28.20 2.03 30.36 1.07 C 36.30 0.59 36.51 6.34 30.22 6.49 C 28.04 5.70 23.10 4.46 24.11 1.21 Z" id="p16" />
<path d="M 16.04 5.81 C 16.76 14.35 25.34 7.94 26.06 14.50 C 22.34 14.26 19.67 12.86 16.97 16.14 C 16.31 12.68 15.93 9.34 16.04 5.81 Z" id="p17" />
<path d="M 165.94 7.04 C 166.96 9.38 167.97 11.73 169.02 14.05 C 170.02 16.55 170.89 19.09 171.37 21.75 C 170.11 30.69 172.23 40.27 170.12 48.98 C 168.82 54.43 165.25 51.99 162.72 55.97 C 161.32 49.43 157.01 42.17 150.45 49.38 C 150.48 55.27 145.31 56.15 144.47 61.37 C 144.22 66.67 140.25 66.87 136.95 70.06 C 136.52 69.39 136.13 68.69 135.78 67.98 C 141.74 66.38 136.98 63.13 136.63 59.21 C 134.73 62.32 135.69 64.48 132.35 60.69 C 129.16 55.72 123.24 59.45 122.33 52.65 C 121.97 49.82 125.95 41.90 129.70 45.64 C 130.91 46.80 130.57 50.29 131.23 51.95 C 133.32 50.70 133.20 49.41 132.75 47.18 C 129.64 40.06 135.41 34.33 133.60 26.62 C 137.68 20.61 143.16 16.20 148.06 10.97 C 153.01 8.57 160.53 3.67 165.94 7.04 Z" id="p18" />
<path d="M 165.94 7.04 C 169.51 8.76 168.85 10.57 169.02 14.05 C 167.97 11.73 166.96 9.38 165.94 7.04 Z" id="p19" />
<path d="M 47.07 8.99 C 48.62 9.47 50.19 9.89 51.77 10.28 L 52.26 11.87 C 52.94 16.65 48.87 18.83 44.99 20.00 C 49.27 16.75 47.81 13.52 47.07 8.99 Z" id="p20" />
<path d="M 42.92 14.80 C 40.82 17.75 32.38 18.16 28.81 18.23 C 28.52 17.50 28.27 16.76 28.05 16.02 C 30.01 16.44 42.84 15.75 35.88 12.53 C 38.90 12.34 43.74 9.20 42.92 14.80 Z" id="p21" />
<path d="M 52.26 11.87 C 53.04 14.45 54.34 19.62 58.06 18.22 C 57.97 19.27 57.65 20.19 57.12 20.98 C 48.86 18.68 39.25 25.51 30.86 23.37 L 31.83 23.12 C 36.19 21.95 40.52 20.74 44.99 20.00 C 48.87 18.83 52.94 16.65 52.26 11.87 Z" id="p22" />
<path d="M 32.36 13.16 C 33.53 12.95 34.71 12.74 35.88 12.53 C 42.84 15.75 30.01 16.44 28.05 16.02 C 27.73 13.51 30.72 13.98 32.36 13.16 Z" id="p23" />
<path d="M 58.35 14.80 C 59.28 18.25 58.82 21.47 59.20 24.97 C 59.96 29.04 60.16 32.85 60.03 36.99 C 59.97 41.33 60.01 45.67 59.94 50.01 C 53.25 49.43 45.28 51.22 39.00 49.00 C 45.21 48.88 51.51 49.32 57.69 48.76 C 58.10 46.90 58.39 45.00 58.58 43.11 C 54.16 42.76 50.13 43.52 45.77 42.26 C 50.78 41.34 55.44 44.19 57.43 38.07 C 59.80 35.38 58.60 29.80 54.02 30.87 C 56.63 29.32 57.36 29.49 56.90 26.07 C 55.57 26.66 54.34 27.42 53.05 28.09 C 53.97 26.34 54.89 24.60 55.90 22.90 C 56.32 22.26 56.72 21.62 57.12 20.98 C 57.65 20.19 57.97 19.27 58.06 18.22 C 58.19 17.09 58.28 15.95 58.35 14.80 Z" id="p24" />
<path d="M 1.18 15.80 C 2.08 18.54 2.88 21.30 3.60 24.09 L 4.03 25.90 C 3.03 25.94 2.03 25.98 1.03 26.02 C 0.96 22.61 1.04 19.21 1.18 15.80 Z" id="p25" />
<path d="M 16.97 16.14 C 17.34 21.59 26.84 21.15 30.86 23.37 C 39.25 25.51 48.86 18.68 57.12 20.98 C 56.72 21.62 56.32 22.26 55.90 22.90 C 48.03 25.66 40.29 24.59 32.19 25.37 C 30.50 25.07 28.83 24.71 27.17 24.30 C 22.74 21.59 18.27 24.86 15.77 20.20 C 14.30 15.80 3.99 23.48 9.06 24.95 C 8.31 25.24 7.56 25.54 6.81 25.83 C 5.88 25.86 4.95 25.89 4.03 25.90 L 3.60 24.09 C 5.66 21.63 8.86 20.65 9.16 17.37 C 11.82 17.15 14.27 16.11 16.97 16.14 Z" id="p26" />
<path d="M 15.77 20.20 C 18.27 24.86 22.74 21.59 27.17 24.30 C 21.13 24.83 15.13 25.21 9.06 24.95 C 3.99 23.48 14.30 15.80 15.77 20.20 Z" id="p27" />
<path d="M 171.37 21.75 C 172.84 29.55 171.48 37.84 172.11 45.76 C 176.33 44.71 179.77 41.64 184.19 43.61 C 179.98 43.88 176.24 45.37 172.82 47.78 C 171.11 52.06 170.46 57.19 170.55 61.82 C 171.76 62.03 172.98 62.20 174.21 62.33 C 172.15 62.78 170.14 63.00 168.03 63.07 C 165.48 57.47 170.76 54.90 170.12 48.98 C 172.23 40.27 170.11 30.69 171.37 21.75 Z" id="p28" />
<path d="M 55.90 22.90 C 54.89 24.60 53.97 26.34 53.05 28.09 C 37.36 27.90 21.66 28.04 5.97 28.00 C 3.93 27.85 2.60 28.92 1.01 29.98 C 1.01 28.66 1.02 27.34 1.03 26.02 C 2.03 25.98 3.03 25.94 4.03 25.90 C 4.95 25.89 5.88 25.86 6.81 25.83 C 15.17 25.82 23.92 26.68 32.19 25.37 C 40.29 24.59 48.03 25.66 55.90 22.90 Z" id="p29" />
<path d="M 27.17 24.30 C 28.83 24.71 30.50 25.07 32.19 25.37 C 23.92 26.68 15.17 25.82 6.81 25.83 C 7.56 25.54 8.31 25.24 9.06 24.95 C 15.13 25.21 21.13 24.83 27.17 24.30 Z" id="p30" />
<path d="M 56.90 26.07 C 57.36 29.49 56.63 29.32 54.02 30.87 L 52.84 31.95 C 52.14 35.00 49.39 35.96 49.24 38.98 C 46.46 38.83 45.09 33.52 42.45 37.43 C 40.26 41.99 38.78 37.21 35.68 36.35 C 31.90 35.54 27.71 36.12 23.86 36.18 C 21.64 33.76 20.46 31.13 17.06 30.10 C 17.04 31.54 16.79 33.27 17.38 34.61 C 21.90 39.30 10.04 39.22 9.52 35.39 C 9.76 33.33 9.93 31.26 10.30 29.22 C 16.39 28.76 22.67 28.90 28.77 29.26 C 34.09 29.93 42.23 31.22 47.22 29.32 C 49.16 29.03 51.38 29.13 53.05 28.09 C 54.34 27.42 55.57 26.66 56.90 26.07 Z" id="p31" />
<path d="M 132.95 27.06 L 133.60 26.62 C 135.41 34.33 129.64 40.06 132.75 47.18 C 133.20 49.41 133.32 50.70 131.23 51.95 C 130.57 50.29 130.91 46.80 129.70 45.64 C 125.95 41.90 121.97 49.82 122.33 52.65 C 123.24 59.45 129.16 55.72 132.35 60.69 C 135.69 64.48 134.73 62.32 136.63 59.21 C 136.98 63.13 141.74 66.38 135.78 67.98 C 136.31 64.05 132.05 69.00 132.50 65.01 C 131.81 58.36 124.61 59.21 119.76 58.14 C 116.34 48.08 127.92 45.16 128.07 36.98 C 129.63 33.64 131.30 30.35 132.95 27.06 Z" id="p32" />
<path d="M 5.97 28.00 C 21.66 28.04 37.36 27.90 53.05 28.09 C 51.38 29.13 49.16 29.03 47.22 29.32 C 41.10 28.80 34.91 28.89 28.77 29.26 C 22.67 28.90 16.39 28.76 10.30 29.22 C 9.93 31.26 9.76 33.33 9.52 35.39 C 8.48 33.98 7.53 32.49 6.45 31.11 C 5.52 34.52 5.49 37.67 1.03 36.07 C 1.00 34.04 0.98 32.01 1.01 29.98 C 2.60 28.92 3.93 27.85 5.97 28.00 Z" id="p33" />
<path d="M 28.77 29.26 C 34.91 28.89 41.10 28.80 47.22 29.32 C 42.23 31.22 34.09 29.93 28.77 29.26 Z" id="p34" />
<path d="M 17.06 30.10 C 20.46 31.13 21.64 33.76 23.86 36.18 C 26.44 39.81 31.01 35.73 35.10 38.31 C 37.89 38.94 38.27 39.08 37.13 41.96 C 33.81 41.96 30.33 42.71 27.21 41.83 C 24.95 41.20 22.64 41.03 20.33 40.65 C 19.50 37.90 21.05 35.19 17.38 34.61 C 16.79 33.27 17.04 31.54 17.06 30.10 Z" id="p35" />
<path d="M 6.45 31.11 C 7.53 32.49 8.48 33.98 9.52 35.39 C 10.04 39.22 21.90 39.30 17.38 34.61 C 21.05 35.19 19.50 37.90 20.33 40.65 C 22.64 41.03 24.95 41.20 27.21 41.83 C 18.66 41.68 9.33 42.97 0.99 41.15 C 0.98 39.45 1.00 37.76 1.03 36.07 C 5.49 37.67 5.52 34.52 6.45 31.11 Z" id="p36" />
<path d="M 54.02 30.87 C 58.60 29.80 59.80 35.38 57.43 38.07 C 52.93 36.58 52.93 36.87 52.84 31.95 L 54.02 30.87 Z" id="p37" />
<path d="M 52.84 31.95 C 52.93 36.87 52.93 36.58 57.43 38.07 C 55.44 44.19 50.78 41.34 45.77 42.26 C 42.90 42.00 40.02 41.95 37.13 41.96 C 38.27 39.08 37.89 38.94 35.10 38.31 C 31.01 35.73 26.44 39.81 23.86 36.18 C 27.71 36.12 31.90 35.54 35.68 36.35 C 38.78 37.21 40.26 41.99 42.45 37.43 C 45.09 33.52 46.46 38.83 49.24 38.98 C 49.39 35.96 52.14 35.00 52.84 31.95 Z" id="p38" />
<path d="M 64.85 35.09 C 65.37 37.13 61.86 44.10 66.05 40.30 C 68.66 45.02 65.59 52.59 65.24 57.74 C 68.29 59.63 66.29 65.05 68.62 68.87 C 67.73 69.00 66.85 69.10 65.95 69.19 C 65.03 68.70 64.10 68.22 63.16 67.76 C 62.09 67.20 61.02 66.64 59.94 66.11 C 59.40 65.56 58.86 64.99 58.35 64.42 C 62.88 64.20 60.75 55.68 60.32 52.77 C 60.18 51.85 60.06 50.93 59.94 50.01 C 60.01 45.67 59.97 41.33 60.03 36.99 C 61.62 35.96 62.79 34.77 64.85 35.09 Z" id="p39" />
<path d="M 128.07 36.98 C 127.92 45.16 116.34 48.08 119.76 58.14 L 119.90 58.79 C 119.14 59.37 118.39 59.95 117.64 60.54 C 111.25 61.80 102.29 63.54 96.06 63.23 C 94.41 64.56 92.83 65.28 90.82 65.91 C 91.06 60.53 88.89 59.89 85.32 56.69 C 85.14 51.82 83.93 46.93 84.14 42.10 C 86.44 41.04 95.87 46.85 89.24 47.48 C 93.40 49.79 97.83 50.45 102.39 49.10 C 101.55 46.85 102.17 44.21 104.95 43.91 C 114.16 40.52 123.20 47.74 128.07 36.98 Z" id="p40" />
<path d="M 0.99 41.15 C 9.33 42.97 18.66 41.68 27.21 41.83 C 30.33 42.71 33.81 41.96 37.13 41.96 C 40.02 41.95 42.90 42.00 45.77 42.26 C 50.13 43.52 54.16 42.76 58.58 43.11 C 58.39 45.00 58.10 46.90 57.69 48.76 C 51.51 49.32 45.21 48.88 39.00 49.00 C 33.34 46.72 26.06 48.73 19.99 47.89 C 13.68 46.76 7.34 47.26 1.06 45.91 C 1.02 44.32 0.99 42.74 0.99 41.15 Z" id="p41" />
<path d="M 184.19 43.61 C 185.96 45.83 186.08 48.31 186.16 51.03 C 184.68 53.86 185.20 56.64 184.68 59.67 C 183.81 61.41 179.01 60.64 179.13 63.10 C 178.84 68.50 179.69 72.98 176.71 77.86 C 175.78 79.83 176.10 81.73 176.23 83.83 C 175.74 87.55 174.72 91.27 174.41 95.00 C 175.94 98.89 178.40 102.33 179.87 106.27 C 184.45 109.22 180.73 113.47 179.07 116.98 C 176.35 115.35 176.27 113.85 173.13 115.84 C 173.24 112.66 171.57 108.69 175.53 107.42 C 175.35 106.08 175.45 98.47 173.22 102.16 C 172.11 105.31 168.62 102.95 166.35 102.68 C 166.60 97.63 167.92 92.88 168.99 87.98 C 172.20 80.77 171.79 73.21 175.13 66.11 C 175.39 64.49 177.28 61.72 174.21 62.33 C 172.98 62.20 171.76 62.03 170.55 61.82 C 170.46 57.19 171.11 52.06 172.82 47.78 C 176.24 45.37 179.98 43.88 184.19 43.61 Z" id="p42" />
<path d="M 1.06 45.91 C 7.34 47.26 13.68 46.76 19.99 47.89 C 26.06 48.73 33.34 46.72 39.00 49.00 C 26.19 49.44 13.78 48.57 1.06 47.98 L 1.06 45.91 Z" id="p43" />
<path d="M 162.72 55.97 C 165.25 51.99 168.82 54.43 170.12 48.98 C 170.76 54.90 165.48 57.47 168.03 63.07 L 167.11 62.72 C 164.20 60.46 160.59 66.57 159.24 68.66 C 161.16 69.17 163.09 69.63 165.00 70.15 C 163.95 72.22 164.83 73.92 165.13 76.06 C 163.59 78.15 161.57 79.90 159.86 81.86 L 158.84 82.94 C 158.29 83.50 157.74 84.07 157.21 84.65 C 155.79 86.07 154.47 87.58 153.09 89.05 C 146.69 93.11 144.33 93.69 137.32 90.71 C 136.03 86.28 129.83 89.18 126.19 87.87 C 129.15 84.99 129.79 81.21 131.84 77.80 C 133.25 75.56 134.81 78.72 135.99 79.69 C 134.63 79.60 133.28 79.45 131.93 79.36 C 136.58 81.50 140.25 84.56 144.63 87.11 C 144.13 85.41 143.54 83.75 143.12 82.03 C 144.76 82.89 146.26 83.98 147.89 84.85 C 148.89 82.65 150.01 82.64 146.94 82.32 C 150.17 80.09 150.49 79.26 151.42 75.46 C 153.84 75.02 154.47 76.48 156.13 77.87 C 158.45 77.10 160.44 75.56 161.68 73.46 C 159.85 71.65 155.87 71.16 157.94 67.96 C 159.57 64.71 153.21 59.97 150.21 64.21 C 147.56 66.45 147.25 69.71 145.61 72.64 C 144.63 75.19 140.55 71.68 139.35 74.24 C 139.38 75.49 139.56 76.73 139.66 77.97 C 137.55 75.99 131.60 70.28 135.78 67.98 C 136.13 68.69 136.52 69.39 136.95 70.06 C 140.25 66.87 144.22 66.67 144.47 61.37 C 145.31 56.15 150.48 55.27 150.45 49.38 C 157.01 42.17 161.32 49.43 162.72 55.97 Z" id="p44" />
<path d="M 1.06 47.98 C 13.78 48.57 26.19 49.44 39.00 49.00 C 45.28 51.22 53.25 49.43 59.94 50.01 C 60.06 50.93 60.18 51.85 60.32 52.77 C 59.81 55.76 60.76 60.27 58.91 62.73 C 51.56 60.61 45.38 55.61 37.97 54.02 C 30.62 52.59 21.98 52.08 14.84 54.66 C 7.51 58.37 8.01 65.86 9.11 72.86 C 9.45 82.96 11.45 92.75 11.16 102.90 C 11.27 105.11 11.93 108.95 14.65 105.77 C 14.11 99.07 13.04 92.10 13.77 85.39 L 14.99 84.61 C 18.16 91.06 16.52 97.09 17.17 103.89 C 20.69 104.74 18.75 96.74 19.19 94.94 C 22.22 99.16 25.52 102.64 28.00 107.28 C 27.84 110.53 24.73 107.40 22.93 107.94 C 19.40 109.05 20.03 107.50 18.27 105.10 C 19.20 113.03 12.23 109.24 7.20 109.79 C 5.56 109.41 3.90 109.06 2.27 108.63 C 4.63 102.40 1.65 96.53 2.93 90.00 C 3.53 87.98 0.56 82.77 3.98 82.96 C 9.47 83.10 5.06 74.32 1.06 75.86 C 0.97 66.58 0.95 57.26 1.06 47.98 Z" id="p45" />
<path d="M 37.97 54.02 C 45.38 55.61 51.56 60.61 58.91 62.73 C 60.76 60.27 59.81 55.76 60.32 52.77 C 60.75 55.68 62.88 64.20 58.35 64.42 C 58.86 64.99 59.40 65.56 59.94 66.11 C 51.48 64.05 43.68 56.93 34.84 55.91 C 29.03 53.95 23.99 55.75 18.20 55.79 C 17.09 55.40 15.97 55.02 14.84 54.66 C 21.98 52.08 30.62 52.59 37.97 54.02 Z" id="p46" />
<path d="M 14.84 54.66 C 15.97 55.02 17.09 55.40 18.20 55.79 C 15.40 57.57 12.54 60.08 11.07 63.11 C 10.73 69.00 12.33 75.22 15.82 80.03 C 18.24 86.47 21.34 93.92 25.72 99.22 C 26.88 100.38 28.18 101.36 29.53 102.28 C 30.23 103.45 30.91 104.73 31.80 105.75 C 33.01 107.09 34.22 108.41 35.33 109.82 C 37.06 112.06 39.87 113.63 42.17 115.25 C 36.91 117.65 35.42 113.67 30.91 112.11 C 28.69 111.56 29.26 108.95 28.00 107.28 C 25.52 102.64 22.22 99.16 19.19 94.94 C 18.75 96.74 20.69 104.74 17.17 103.89 C 16.52 97.09 18.16 91.06 14.99 84.61 C 13.57 80.34 11.10 76.84 9.11 72.86 C 8.01 65.86 7.51 58.37 14.84 54.66 Z" id="p47" />
<path d="M 34.84 55.91 C 35.08 61.24 38.30 58.82 41.04 61.94 C 32.95 61.05 26.80 60.46 18.99 63.61 C 26.40 63.25 24.26 69.04 30.14 71.82 C 31.50 72.97 37.95 76.08 32.84 76.67 C 26.54 76.81 26.97 81.79 23.26 84.49 C 16.79 85.46 20.38 81.23 15.82 80.03 C 12.33 75.22 10.73 69.00 11.07 63.11 C 12.54 60.08 15.40 57.57 18.20 55.79 C 23.99 55.75 29.03 53.95 34.84 55.91 Z" id="p48" />
<path d="M 34.84 55.91 C 43.68 56.93 51.48 64.05 59.94 66.11 C 61.02 66.64 62.09 67.20 63.16 67.76 C 59.90 67.14 57.66 67.53 54.58 68.24 C 49.77 65.96 46.87 62.22 41.04 61.94 C 38.30 58.82 35.08 61.24 34.84 55.91 Z" id="p49" />
<path d="M 119.76 58.14 C 124.61 59.21 131.81 58.36 132.50 65.01 C 132.05 69.00 136.31 64.05 135.78 67.98 C 131.60 70.28 137.55 75.99 139.66 77.97 C 139.56 76.73 139.38 75.49 139.35 74.24 C 140.55 71.68 144.63 75.19 145.61 72.64 C 147.25 69.71 147.56 66.45 150.21 64.21 C 153.21 59.97 159.57 64.71 157.94 67.96 C 155.87 71.16 159.85 71.65 161.68 73.46 C 160.44 75.56 158.45 77.10 156.13 77.87 C 154.47 76.48 153.84 75.02 151.42 75.46 C 150.49 79.26 150.17 80.09 146.94 82.32 C 150.01 82.64 148.89 82.65 147.89 84.85 C 146.26 83.98 144.76 82.89 143.12 82.03 C 143.54 83.75 144.13 85.41 144.63 87.11 C 140.25 84.56 136.58 81.50 131.93 79.36 C 133.28 79.45 134.63 79.60 135.99 79.69 C 134.81 78.72 133.25 75.56 131.84 77.80 C 129.79 81.21 129.15 84.99 126.19 87.87 C 129.83 89.18 136.03 86.28 137.32 90.71 C 135.58 90.89 133.84 91.09 132.10 91.21 C 129.78 89.36 126.07 89.78 123.34 90.30 C 121.86 91.30 121.93 94.62 121.01 96.25 C 119.27 96.38 115.68 97.06 116.15 94.21 C 122.47 92.67 127.33 82.82 119.95 78.85 C 120.96 76.50 124.46 78.19 126.01 76.15 C 124.67 74.06 123.10 72.71 123.31 70.03 C 126.27 70.09 129.00 71.04 131.95 71.66 C 130.72 68.60 129.97 66.53 130.38 63.14 C 128.80 60.99 124.51 60.81 122.06 60.05 C 121.34 59.63 120.62 59.21 119.90 58.79 L 119.76 58.14 Z" id="p50" />
<path d="M 119.90 58.79 C 120.62 59.21 121.34 59.63 122.06 60.05 C 121.72 66.54 119.41 68.07 113.32 69.27 C 109.25 67.96 106.88 64.93 103.68 69.57 C 100.19 66.98 97.41 65.18 96.21 70.97 C 88.05 70.31 85.08 75.35 77.62 76.79 C 75.14 78.76 74.15 76.28 72.11 75.02 C 73.80 72.31 78.76 71.40 81.65 70.18 C 86.87 72.34 91.64 67.90 96.33 66.36 C 103.14 66.03 110.21 65.39 117.02 65.62 C 119.81 65.84 122.06 58.81 117.64 60.54 C 118.39 59.95 119.14 59.37 119.90 58.79 Z" id="p51" />
<path d="M 117.02 65.62 C 110.21 65.39 103.14 66.03 96.33 66.36 C 91.64 67.90 86.87 72.34 81.65 70.18 L 83.19 69.24 C 85.70 68.06 88.21 66.89 90.82 65.91 C 92.83 65.28 94.41 64.56 96.06 63.23 C 102.29 63.54 111.25 61.80 117.64 60.54 C 122.06 58.81 119.81 65.84 117.02 65.62 Z" id="p52" />
<path d="M 122.06 60.05 C 124.51 60.81 128.80 60.99 130.38 63.14 C 129.97 66.53 130.72 68.60 131.95 71.66 C 129.00 71.04 126.27 70.09 123.31 70.03 C 123.10 72.71 124.67 74.06 126.01 76.15 C 124.46 78.19 120.96 76.50 119.95 78.85 C 127.33 82.82 122.47 92.67 116.15 94.21 C 116.30 85.85 116.26 84.37 109.45 79.50 C 106.77 75.35 102.56 76.43 98.35 76.43 C 97.78 83.90 93.60 88.12 96.34 95.92 C 98.37 95.78 99.46 93.03 101.01 91.85 C 102.54 92.74 106.10 96.01 101.99 95.94 C 96.23 96.18 99.09 98.90 98.90 102.72 C 95.15 102.76 86.80 99.24 87.80 105.75 C 86.54 106.18 85.27 106.54 84.04 107.04 C 81.40 107.16 78.71 114.16 77.26 111.85 C 78.81 108.94 79.64 104.12 83.32 103.51 C 83.51 101.94 84.32 99.30 82.77 98.26 C 78.74 98.98 73.77 98.64 71.96 103.07 C 69.13 106.11 70.88 109.91 68.82 112.93 C 66.12 111.94 68.69 109.09 66.30 107.73 C 64.71 105.66 61.77 101.99 65.83 100.86 C 65.94 102.59 66.07 104.31 66.27 106.04 C 69.10 101.77 69.28 96.05 75.64 95.54 C 78.02 96.46 84.84 93.26 84.74 97.13 C 83.83 103.30 92.24 101.04 95.71 99.87 C 93.92 97.14 93.15 92.44 89.00 93.37 C 91.27 89.79 89.39 86.17 91.88 82.84 C 93.28 79.74 100.97 73.73 96.21 70.97 C 97.41 65.18 100.19 66.98 103.68 69.57 C 106.88 64.93 109.25 67.96 113.32 69.27 C 119.41 68.07 121.72 66.54 122.06 60.05 Z" id="p53" />
<path d="M 41.04 61.94 C 44.60 64.92 48.54 66.66 51.59 70.42 C 54.88 72.76 50.25 76.12 54.00 78.00 C 61.02 83.33 55.27 89.06 54.59 95.81 C 49.30 96.99 38.65 90.79 35.70 96.87 C 33.45 102.43 29.06 94.03 25.72 99.22 C 21.34 93.92 18.24 86.47 15.82 80.03 C 20.38 81.23 16.79 85.46 23.26 84.49 C 26.97 81.79 26.54 76.81 32.84 76.67 C 37.95 76.08 31.50 72.97 30.14 71.82 C 24.26 69.04 26.40 63.25 18.99 63.61 C 26.80 60.46 32.95 61.05 41.04 61.94 Z" id="p54" />
<path d="M 41.04 61.94 C 46.87 62.22 49.77 65.96 54.58 68.24 C 57.66 67.53 59.90 67.14 63.16 67.76 C 64.10 68.22 65.03 68.70 65.95 69.19 L 67.07 69.90 C 74.28 74.66 63.38 81.41 65.79 88.16 C 66.21 89.87 67.51 97.61 63.90 95.05 C 61.61 93.78 57.22 91.07 56.00 95.04 C 56.52 97.31 58.90 97.52 55.50 98.44 C 50.64 102.07 48.75 96.68 44.14 99.16 C 39.34 102.05 34.28 99.91 29.53 102.28 C 28.18 101.36 26.88 100.38 25.72 99.22 C 29.06 94.03 33.45 102.43 35.70 96.87 C 38.65 90.79 49.30 96.99 54.59 95.81 C 55.27 89.06 61.02 83.33 54.00 78.00 C 50.25 76.12 54.88 72.76 51.59 70.42 C 48.54 66.66 44.60 64.92 41.04 61.94 Z" id="p55" />
<path d="M 167.11 62.72 C 166.66 65.48 167.01 67.88 165.00 70.15 C 163.09 69.63 161.16 69.17 159.24 68.66 C 160.59 66.57 164.20 60.46 167.11 62.72 Z" id="p56" />
<path d="M 174.21 62.33 C 177.28 61.72 175.39 64.49 175.13 66.11 C 171.79 73.21 172.20 80.77 168.99 87.98 C 166.08 90.09 164.13 93.05 160.17 92.64 C 159.87 89.06 159.98 85.45 159.86 81.86 C 161.57 79.90 163.59 78.15 165.13 76.06 C 167.30 72.22 168.05 67.43 168.03 63.07 C 170.14 63.00 172.15 62.78 174.21 62.33 Z" id="p57" />
<path d="M 167.11 62.72 L 168.03 63.07 C 168.05 67.43 167.30 72.22 165.13 76.06 C 164.83 73.92 163.95 72.22 165.00 70.15 C 167.01 67.88 166.66 65.48 167.11 62.72 Z" id="p58" />
<path d="M 67.07 69.90 C 72.66 70.64 71.49 72.61 70.97 77.12 C 69.72 80.89 74.95 82.86 68.41 83.26 C 70.39 86.50 69.47 86.30 67.77 89.25 C 68.92 93.35 67.24 97.06 65.83 100.86 C 61.77 101.99 64.71 105.66 66.30 107.73 C 68.69 109.09 66.12 111.94 68.82 112.93 C 70.88 109.91 69.13 106.11 71.96 103.07 C 73.77 98.64 78.74 98.98 82.77 98.26 C 84.32 99.30 83.51 101.94 83.32 103.51 C 79.64 104.12 78.81 108.94 77.26 111.85 C 78.71 114.16 81.40 107.16 84.04 107.04 C 84.41 108.01 84.77 108.98 85.13 109.95 C 84.07 110.58 83.01 111.22 81.96 111.88 C 79.25 113.71 78.11 116.62 74.95 118.17 C 74.23 122.30 81.48 119.55 78.63 122.62 C 82.42 124.09 78.73 127.53 84.23 127.90 L 85.04 128.07 C 87.37 130.75 88.12 130.43 84.05 130.38 C 84.27 132.74 86.39 134.77 87.43 136.87 C 87.48 138.77 87.08 139.92 86.20 141.57 C 84.15 141.10 80.40 135.67 78.65 137.51 C 77.64 138.57 77.03 141.99 75.09 140.30 C 76.48 137.82 78.49 135.82 75.32 133.69 C 72.70 127.50 67.51 129.58 65.12 122.83 C 64.14 121.61 63.07 120.50 61.98 119.38 C 64.75 119.26 62.71 114.24 62.67 112.53 C 58.16 112.91 61.08 107.34 56.03 106.02 C 58.30 106.07 60.46 105.94 62.53 104.92 C 60.50 101.37 62.98 98.64 63.90 95.05 C 67.51 97.61 66.21 89.87 65.79 88.16 C 63.38 81.41 74.28 74.66 67.07 69.90 Z" id="p59" />
<path d="M 96.21 70.97 C 100.97 73.73 93.28 79.74 91.88 82.84 C 89.39 86.17 91.27 89.79 89.00 93.37 C 93.15 92.44 93.92 97.14 95.71 99.87 C 92.24 101.04 83.83 103.30 84.74 97.13 C 84.84 93.26 78.02 96.46 75.64 95.54 C 69.28 96.05 69.10 101.77 66.27 106.04 C 66.07 104.31 65.94 102.59 65.83 100.86 C 67.24 97.06 68.92 93.35 67.77 89.25 C 69.47 86.30 70.39 86.50 68.41 83.26 C 74.95 82.86 69.72 80.89 70.97 77.12 C 71.34 76.41 71.72 75.71 72.11 75.02 C 74.15 76.28 75.14 78.76 77.62 76.79 C 85.08 75.35 88.05 70.31 96.21 70.97 Z" id="p60" />
<path d="M 9.11 72.86 C 11.10 76.84 13.57 80.34 14.99 84.61 L 13.77 85.39 C 13.04 92.10 14.11 99.07 14.65 105.77 C 11.93 108.95 11.27 105.11 11.16 102.90 C 11.45 92.75 9.45 82.96 9.11 72.86 Z" id="p61" />
<path d="M 1.06 75.86 C 5.06 74.32 9.47 83.10 3.98 82.96 C 0.56 82.77 3.53 87.98 2.93 90.00 C 1.65 96.53 4.63 102.40 2.27 108.63 C 3.90 109.06 5.56 109.41 7.20 109.79 C 5.15 109.86 3.10 109.96 1.04 110.04 C 0.98 98.65 0.96 87.25 1.06 75.86 Z" id="p62" />
<path d="M 98.35 76.43 C 102.56 76.43 106.77 75.35 109.45 79.50 C 107.39 78.95 104.55 77.74 102.45 78.38 C 100.15 81.82 98.72 85.71 96.30 89.09 C 104.11 90.41 107.48 93.97 106.24 102.07 C 105.60 105.77 106.89 102.23 107.75 101.15 C 108.23 104.18 107.96 107.42 111.00 109.16 C 113.61 107.71 113.51 105.49 113.71 102.87 C 115.42 103.99 116.49 105.52 117.75 107.07 C 120.64 110.94 123.19 114.59 123.76 119.54 C 119.52 119.66 114.82 124.52 119.44 127.62 C 121.76 129.92 115.66 130.78 114.24 131.40 C 111.87 129.61 109.37 127.79 107.31 125.66 C 106.53 121.65 111.20 117.10 107.23 113.79 C 106.32 111.66 106.35 108.67 105.03 106.88 C 103.98 108.20 103.11 109.64 102.03 110.94 C 99.43 109.32 96.36 108.51 95.74 105.16 C 94.99 100.62 90.26 105.52 87.80 105.75 C 86.80 99.24 95.15 102.76 98.90 102.72 C 99.09 98.90 96.23 96.18 101.99 95.94 C 106.10 96.01 102.54 92.74 101.01 91.85 C 99.46 93.03 98.37 95.78 96.34 95.92 C 93.60 88.12 97.78 83.90 98.35 76.43 Z" id="p63" />
<path d="M 102.45 78.38 C 104.55 77.74 107.39 78.95 109.45 79.50 C 116.26 84.37 116.30 85.85 116.15 94.21 C 115.68 97.06 119.27 96.38 121.01 96.25 C 119.66 99.82 118.19 103.24 117.75 107.07 C 116.49 105.52 115.42 103.99 113.71 102.87 C 113.51 105.49 113.61 107.71 111.00 109.16 C 107.96 107.42 108.23 104.18 107.75 101.15 C 106.89 102.23 105.60 105.77 106.24 102.07 C 107.48 93.97 104.11 90.41 96.30 89.09 C 98.72 85.71 100.15 81.82 102.45 78.38 Z" id="p64" />
<path d="M 176.71 77.86 C 177.02 81.52 178.84 88.36 181.14 90.91 C 187.27 88.56 193.61 88.48 200.00 87.36 L 200.00 96.41 C 198.97 95.64 197.95 94.83 196.85 94.17 C 191.06 97.01 186.52 92.37 180.29 95.53 C 178.70 91.70 177.76 87.68 176.23 83.83 C 176.10 81.73 175.78 79.83 176.71 77.86 Z" id="p65" />
<path d="M 159.86 81.86 C 159.98 85.45 159.87 89.06 160.17 92.64 C 164.13 93.05 166.08 90.09 168.99 87.98 C 167.92 92.88 166.60 97.63 166.35 102.68 C 168.62 102.95 172.11 105.31 173.22 102.16 C 175.45 98.47 175.35 106.08 175.53 107.42 C 171.57 108.69 173.24 112.66 173.13 115.84 C 176.27 113.85 176.35 115.35 179.07 116.98 C 180.73 113.47 184.45 109.22 179.87 106.27 C 178.40 102.33 175.94 98.89 174.41 95.00 C 174.72 91.27 175.74 87.55 176.23 83.83 C 177.76 87.68 178.70 91.70 180.29 95.53 C 186.52 92.37 191.06 97.01 196.85 94.17 C 197.95 94.83 198.97 95.64 200.00 96.41 L 200.00 143.83 C 196.55 144.18 197.44 144.86 196.65 147.72 C 193.81 146.43 191.23 146.22 191.43 142.47 C 190.03 142.27 188.60 142.21 187.20 142.09 C 187.16 141.15 187.14 140.22 187.12 139.28 C 191.14 135.63 188.34 131.57 186.07 127.94 C 184.57 126.23 186.56 123.18 185.25 121.78 C 182.98 120.64 180.47 119.97 178.11 119.03 C 176.86 118.53 175.71 118.04 174.33 118.16 C 173.12 124.19 171.61 130.68 172.27 136.83 L 172.05 139.04 C 170.25 139.69 169.55 140.60 168.69 138.25 C 169.31 136.26 169.94 134.29 170.36 132.25 C 171.13 128.46 171.68 123.43 170.35 119.80 C 167.24 119.26 164.43 119.61 161.97 117.20 C 162.78 110.97 166.93 117.66 170.33 115.37 C 171.07 111.78 173.51 107.94 169.05 105.95 C 164.41 103.07 162.36 107.30 159.20 109.85 C 157.89 101.14 159.79 91.87 158.84 82.94 L 159.86 81.86 Z" id="p66" />
<path d="M 158.84 82.94 C 159.79 91.87 157.89 101.14 159.20 109.85 C 162.36 107.30 164.41 103.07 169.05 105.95 C 173.51 107.94 171.07 111.78 170.33 115.37 C 166.93 117.66 162.78 110.97 161.97 117.20 C 159.44 118.38 156.91 118.12 154.22 117.84 C 155.42 113.04 155.49 109.85 154.87 104.94 C 157.13 98.57 157.30 91.35 157.21 84.65 C 157.74 84.07 158.29 83.50 158.84 82.94 Z" id="p67" />
<path d="M 157.21 84.65 C 157.30 91.35 157.13 98.57 154.87 104.94 C 153.02 106.98 155.65 115.29 151.61 111.98 C 152.56 104.28 151.24 96.70 153.09 89.05 C 154.47 87.58 155.79 86.07 157.21 84.65 Z" id="p68" />
<path d="M 153.09 89.05 C 151.24 96.70 152.56 104.28 151.61 111.98 C 150.04 117.15 150.01 122.45 148.98 127.69 C 146.30 128.31 147.15 131.07 146.72 133.17 C 146.28 131.74 145.82 130.33 145.25 128.95 C 144.97 131.94 145.05 134.95 144.78 137.94 C 140.76 138.23 142.38 132.55 141.85 130.09 C 141.09 131.36 140.44 132.60 139.60 133.79 C 138.18 132.02 138.76 129.64 136.29 132.10 C 137.60 134.81 139.52 136.61 138.90 139.90 C 135.54 140.49 137.10 134.35 134.14 133.75 C 130.73 132.37 126.99 131.90 123.49 130.67 C 121.46 133.37 120.21 132.25 117.29 132.30 C 115.21 134.17 113.79 136.84 112.11 139.08 C 106.69 133.56 109.54 144.94 103.30 144.50 C 103.59 149.69 104.79 148.86 99.12 149.06 C 97.08 144.25 96.68 139.91 90.92 138.27 C 92.47 137.43 94.00 136.54 95.45 135.53 C 95.70 133.31 94.41 131.48 96.66 130.02 C 100.92 130.47 99.60 131.23 100.34 134.95 C 104.84 131.79 103.68 128.66 103.05 123.94 C 106.80 127.48 106.94 115.52 107.23 113.79 C 111.20 117.10 106.53 121.65 107.31 125.66 C 109.37 127.79 111.87 129.61 114.24 131.40 C 115.66 130.78 121.76 129.92 119.44 127.62 C 114.82 124.52 119.52 119.66 123.76 119.54 C 123.19 114.59 120.64 110.94 117.75 107.07 C 118.19 103.24 119.66 99.82 121.01 96.25 C 121.93 94.62 121.86 91.30 123.34 90.30 C 126.07 89.78 129.78 89.36 132.10 91.21 C 129.55 91.26 126.89 90.88 124.38 91.29 C 121.24 96.07 123.79 103.05 119.40 106.38 C 120.94 109.35 123.30 111.13 125.46 113.47 C 126.78 117.82 127.55 121.57 131.68 124.17 C 130.61 120.74 128.98 117.87 128.97 114.16 C 133.74 116.00 135.70 123.58 140.68 121.77 C 144.27 116.66 144.50 108.13 145.08 101.99 C 146.81 94.67 137.14 92.95 132.10 91.21 C 133.84 91.09 135.58 90.89 137.32 90.71 C 144.33 93.69 146.69 93.11 153.09 89.05 Z" id="p69" />
<path d="M 124.38 91.29 C 126.89 90.88 129.55 91.26 132.10 91.21 C 137.14 92.95 146.81 94.67 145.08 101.99 C 144.50 108.13 144.27 116.66 140.68 121.77 C 135.70 123.58 133.74 116.00 128.97 114.16 C 128.98 117.87 130.61 120.74 131.68 124.17 C 127.55 121.57 126.78 117.82 125.46 113.47 C 123.30 111.13 120.94 109.35 119.40 106.38 C 123.79 103.05 121.24 96.07 124.38 91.29 Z M 127.56 99.16 C 127.32 97.03 129.38 90.04 125.96 94.97 C 122.35 98.59 126.37 99.20 124.18 102.62 C 126.91 102.43 128.72 100.60 126.27 104.23 C 126.59 107.84 132.85 112.84 135.22 115.95 C 140.03 117.47 143.46 107.81 142.90 104.18 C 137.24 105.45 136.94 103.96 139.44 99.47 C 143.65 96.40 137.47 93.98 134.85 94.72 C 131.46 95.02 130.08 97.34 127.56 99.16 Z" id="p70" />
<path d="M 63.90 95.05 C 62.98 98.64 60.50 101.37 62.53 104.92 C 60.46 105.94 58.30 106.07 56.03 106.02 C 53.07 104.21 53.66 106.25 51.98 108.14 C 44.58 110.61 47.39 106.31 47.18 101.18 C 49.64 101.36 56.97 102.98 55.50 98.44 C 58.90 97.52 56.52 97.31 56.00 95.04 C 57.22 91.07 61.61 93.78 63.90 95.05 Z" id="p71" />
<path d="M 127.56 99.16 C 130.08 97.34 131.46 95.02 134.85 94.72 C 137.47 93.98 143.65 96.40 139.44 99.47 C 136.94 103.96 137.24 105.45 142.90 104.18 C 143.46 107.81 140.03 117.47 135.22 115.95 C 132.85 112.84 126.59 107.84 126.27 104.23 C 128.72 100.60 126.91 102.43 124.18 102.62 C 126.37 99.20 122.35 98.59 125.96 94.97 C 129.38 90.04 127.32 97.03 127.56 99.16 Z M 130.17 100.17 C 129.20 105.21 135.22 99.21 130.17 100.17 Z" id="p72" />
<path d="M 55.50 98.44 C 56.97 102.98 49.64 101.36 47.18 101.18 C 47.39 106.31 44.58 110.61 51.98 108.14 C 49.45 114.67 40.01 107.33 42.93 115.03 L 42.17 115.25 C 39.87 113.63 37.06 112.06 35.33 109.82 C 39.23 111.06 42.70 110.56 43.90 106.10 C 41.02 104.54 34.38 103.15 31.80 105.75 C 30.91 104.73 30.23 103.45 29.53 102.28 C 34.28 99.91 39.34 102.05 44.14 99.16 C 48.75 96.68 50.64 102.07 55.50 98.44 Z" id="p73" />
<path d="M 130.17 100.17 C 129.20 105.21 135.22 99.21 130.17 100.17 Z" id="p74" />
<path d="M 95.74 105.16 C 96.36 108.51 99.43 109.32 102.03 110.94 C 103.11 109.64 103.98 108.20 105.03 106.88 C 106.35 108.67 106.32 111.66 107.23 113.79 C 106.94 115.52 106.80 127.48 103.05 123.94 C 101.55 123.58 99.84 121.76 100.47 124.65 C 101.27 127.59 98.30 128.13 96.66 130.02 C 94.41 131.48 95.70 133.31 95.45 135.53 C 94.00 136.54 92.47 137.43 90.92 138.27 C 89.75 137.81 88.59 137.35 87.43 136.87 C 86.39 134.77 84.27 132.74 84.05 130.38 C 88.12 130.43 87.37 130.75 85.04 128.07 C 88.70 128.37 91.02 130.93 94.53 128.97 C 93.07 126.54 93.40 127.46 95.87 126.47 C 94.58 124.86 91.79 126.02 89.95 125.77 C 92.32 124.19 94.65 124.51 97.30 124.17 C 99.15 121.50 96.91 122.98 95.21 122.63 C 95.47 120.76 95.92 118.90 96.36 117.06 C 98.25 121.04 99.69 120.74 103.82 120.85 C 104.01 119.15 104.29 117.08 103.64 115.45 C 96.89 112.85 95.45 105.96 87.07 107.00 C 88.43 107.90 89.81 108.73 91.06 109.78 C 89.09 109.93 87.11 109.96 85.13 109.95 C 84.77 108.98 84.41 108.01 84.04 107.04 C 85.27 106.54 86.54 106.18 87.80 105.75 C 90.26 105.52 94.99 100.62 95.74 105.16 Z" id="p75" />
<path d="M 43.90 106.10 C 42.70 110.56 39.23 111.06 35.33 109.82 C 34.22 108.41 33.01 107.09 31.80 105.75 C 34.38 103.15 41.02 104.54 43.90 106.10 Z" id="p76" />
<path d="M 18.27 105.10 C 20.03 107.50 19.40 109.05 22.93 107.94 C 24.16 110.31 22.75 110.20 21.34 111.75 C 24.08 112.66 26.69 112.83 28.71 115.09 C 25.89 118.41 27.79 121.12 22.83 121.94 C 21.68 126.15 20.20 125.87 16.79 127.77 C 15.35 130.13 16.23 134.46 15.27 137.34 C 11.80 138.73 7.03 137.61 3.26 138.12 C 2.89 140.27 12.15 137.77 11.68 139.80 C 8.35 139.78 3.68 141.47 1.01 139.05 C 0.99 129.38 0.96 119.71 1.04 110.04 C 3.10 109.96 5.15 109.86 7.20 109.79 C 12.23 109.24 19.20 113.03 18.27 105.10 Z" id="p77" />
<path d="M 56.03 106.02 C 61.08 107.34 58.16 112.91 62.67 112.53 C 62.71 114.24 64.75 119.26 61.98 119.38 C 57.96 117.29 54.66 115.55 49.94 115.92 C 47.61 115.36 45.33 115.01 42.93 115.03 C 40.01 107.33 49.45 114.67 51.98 108.14 C 53.66 106.25 53.07 104.21 56.03 106.02 Z" id="p78" />
<path d="M 154.87 104.94 C 155.49 109.85 155.42 113.04 154.22 117.84 C 156.91 118.12 159.44 118.38 161.97 117.20 C 164.43 119.61 167.24 119.26 170.35 119.80 C 171.68 123.43 171.13 128.46 170.36 132.25 C 170.21 130.43 170.04 128.61 169.91 126.79 C 169.95 124.99 170.01 123.16 169.92 121.36 C 165.81 122.90 160.33 122.49 157.66 125.76 C 154.03 125.53 153.26 124.69 150.74 127.82 L 148.98 127.69 C 150.01 122.45 150.04 117.15 151.61 111.98 C 155.65 115.29 153.02 106.98 154.87 104.94 Z" id="p79" />
<path d="M 28.00 107.28 C 29.26 108.95 28.69 111.56 30.91 112.11 C 35.42 113.67 36.91 117.65 42.17 115.25 L 42.93 115.03 C 45.33 115.01 47.61 115.36 49.94 115.92 C 51.52 118.25 54.14 120.01 53.24 123.12 C 50.55 122.06 50.43 118.24 47.17 117.25 C 43.24 119.16 38.66 121.43 36.52 125.45 C 35.20 128.83 29.40 128.87 28.29 133.16 C 27.72 138.08 23.24 142.23 28.76 145.84 C 25.05 145.91 22.03 146.30 19.08 148.71 L 21.13 149.37 C 17.91 150.75 18.23 151.91 16.96 147.93 C 16.52 142.58 4.92 143.53 1.04 142.93 C 1.03 141.64 1.02 140.34 1.01 139.05 C 3.68 141.47 8.35 139.78 11.68 139.80 C 12.15 137.77 2.89 140.27 3.26 138.12 C 7.03 137.61 11.80 138.73 15.27 137.34 C 16.23 134.46 15.35 130.13 16.79 127.77 C 20.20 125.87 21.68 126.15 22.83 121.94 C 27.79 121.12 25.89 118.41 28.71 115.09 C 26.69 112.83 24.08 112.66 21.34 111.75 C 22.75 110.20 24.16 110.31 22.93 107.94 C 24.73 107.40 27.84 110.53 28.00 107.28 Z" id="p80" />
<path d="M 87.07 107.00 C 95.45 105.96 96.89 112.85 103.64 115.45 C 104.29 117.08 104.01 119.15 103.82 120.85 C 99.69 120.74 98.25 121.04 96.36 117.06 C 95.92 118.90 95.47 120.76 95.21 122.63 C 96.91 122.98 99.15 121.50 97.30 124.17 C 94.65 124.51 92.32 124.19 89.95 125.77 C 91.79 126.02 94.58 124.86 95.87 126.47 C 93.40 127.46 93.07 126.54 94.53 128.97 C 91.02 130.93 88.70 128.37 85.04 128.07 L 84.23 127.90 C 85.31 123.80 83.11 118.34 78.06 119.69 C 79.15 117.00 80.72 114.51 81.96 111.88 C 83.01 111.22 84.07 110.58 85.13 109.95 C 87.11 109.96 89.09 109.93 91.06 109.78 C 89.81 108.73 88.43 107.90 87.07 107.00 Z M 88.17 113.17 C 87.20 118.21 93.22 112.21 88.17 113.17 Z" id="p81" />
<path d="M 81.96 111.88 C 80.72 114.51 79.15 117.00 78.06 119.69 C 83.11 118.34 85.31 123.80 84.23 127.90 C 78.73 127.53 82.42 124.09 78.63 122.62 C 81.48 119.55 74.23 122.30 74.95 118.17 C 78.11 116.62 79.25 113.71 81.96 111.88 Z" id="p82" />
<path d="M 88.17 113.17 C 87.20 118.21 93.22 112.21 88.17 113.17 Z" id="p83" />
<path d="M 49.94 115.92 C 54.66 115.55 57.96 117.29 61.98 119.38 C 63.07 120.50 64.14 121.61 65.12 122.83 C 65.02 127.68 65.44 127.96 69.39 130.35 C 66.63 134.89 71.68 136.87 70.92 141.62 C 69.26 141.71 67.52 140.92 66.18 142.10 C 67.06 145.26 69.68 147.01 68.20 150.41 C 66.83 152.77 68.94 154.04 70.09 155.92 C 72.84 158.50 71.19 163.14 72.38 166.65 C 74.38 172.48 75.83 178.42 77.92 184.21 C 78.44 186.94 78.77 187.87 76.99 190.20 C 75.44 188.20 73.88 186.21 72.40 184.16 C 71.92 183.19 71.43 182.23 70.93 181.27 C 73.95 179.71 74.68 178.66 73.72 175.20 C 71.77 171.03 71.02 167.58 70.64 162.99 C 68.19 167.23 67.10 171.24 67.84 176.14 C 66.90 174.59 66.86 172.56 64.81 172.24 L 63.24 171.84 C 65.85 169.78 63.80 168.49 62.70 166.29 C 61.18 165.98 58.57 168.46 57.73 166.68 C 61.59 164.56 65.80 158.62 63.91 154.06 C 62.81 149.78 63.02 145.51 62.88 141.14 C 62.28 141.71 61.69 142.28 61.12 142.87 C 60.78 139.09 57.02 136.36 56.81 132.78 C 59.66 129.10 59.47 128.81 63.68 130.95 C 62.61 128.09 62.49 123.05 59.73 121.38 C 57.93 121.21 55.70 122.95 53.92 123.45 L 53.24 123.12 C 54.14 120.01 51.52 118.25 49.94 115.92 Z" id="p84" />
<path d="M 47.17 117.25 C 50.43 118.24 50.55 122.06 53.24 123.12 L 53.92 123.45 C 52.56 127.30 57.53 128.51 56.81 132.78 C 57.02 136.36 60.78 139.09 61.12 142.87 C 60.45 144.59 59.89 146.34 59.40 148.12 L 58.78 146.14 C 50.25 154.31 44.03 164.44 35.92 172.89 C 34.26 174.93 31.70 172.60 29.73 174.75 C 27.43 174.65 26.75 175.79 27.92 173.02 C 30.80 170.54 36.06 167.44 35.02 163.01 C 34.32 158.74 33.44 152.88 30.25 149.75 C 27.14 147.09 24.57 148.24 21.13 149.37 L 19.08 148.71 C 22.03 146.30 25.05 145.91 28.76 145.84 C 23.24 142.23 27.72 138.08 28.29 133.16 C 29.40 128.87 35.20 128.83 36.52 125.45 C 38.66 121.43 43.24 119.16 47.17 117.25 Z" id="p85" />
<path d="M 174.33 118.16 C 175.71 118.04 176.86 118.53 178.11 119.03 C 177.88 121.67 177.40 124.28 177.19 126.92 C 175.17 134.51 176.42 141.53 175.66 149.24 C 174.38 144.51 176.20 140.61 172.27 136.83 C 171.61 130.68 173.12 124.19 174.33 118.16 Z" id="p86" />
<path d="M 178.11 119.03 C 180.47 119.97 182.98 120.64 185.25 121.78 C 186.56 123.18 184.57 126.23 186.07 127.94 C 188.34 131.57 191.14 135.63 187.12 139.28 L 185.33 139.13 C 187.19 132.81 181.90 129.58 177.19 126.92 C 177.40 124.28 177.88 121.67 178.11 119.03 Z" id="p87" />
<path d="M 59.73 121.38 C 62.49 123.05 62.61 128.09 63.68 130.95 C 59.47 128.81 59.66 129.10 56.81 132.78 C 57.53 128.51 52.56 127.30 53.92 123.45 C 55.70 122.95 57.93 121.21 59.73 121.38 Z" id="p88" />
<path d="M 169.92 121.36 C 170.01 123.16 169.95 124.99 169.91 126.79 C 164.33 127.36 166.54 129.98 166.93 133.91 C 162.03 131.53 163.91 136.11 163.93 138.88 C 161.52 138.05 159.37 137.08 157.84 139.88 C 157.33 141.20 156.95 142.55 156.51 143.90 C 152.14 138.98 158.90 131.55 150.74 127.82 C 153.26 124.69 154.03 125.53 157.66 125.76 C 160.33 122.49 165.81 122.90 169.92 121.36 Z" id="p89" />
<path d="M 65.12 122.83 C 67.51 129.58 72.70 127.50 75.32 133.69 C 78.49 135.82 76.48 137.82 75.09 140.30 C 71.40 137.41 74.48 143.92 70.54 144.65 C 69.87 148.06 72.03 153.89 73.66 157.12 C 73.14 160.54 73.17 162.79 74.44 166.05 C 75.94 171.76 77.59 178.39 77.92 184.21 C 75.83 178.42 74.38 172.48 72.38 166.65 C 71.19 163.14 72.84 158.50 70.09 155.92 C 68.94 154.04 66.83 152.77 68.20 150.41 C 69.68 147.01 67.06 145.26 66.18 142.10 C 67.52 140.92 69.26 141.71 70.92 141.62 C 71.68 136.87 66.63 134.89 69.39 130.35 C 65.44 127.96 65.02 127.68 65.12 122.83 Z" id="p90" />
<path d="M 103.05 123.94 C 103.68 128.66 104.84 131.79 100.34 134.95 C 99.60 131.23 100.92 130.47 96.66 130.02 C 98.30 128.13 101.27 127.59 100.47 124.65 C 99.84 121.76 101.55 123.58 103.05 123.94 Z" id="p91" />
<path d="M 169.91 126.79 C 170.04 128.61 170.21 130.43 170.36 132.25 C 169.94 134.29 169.31 136.26 168.69 138.25 C 167.99 136.85 167.43 135.39 166.93 133.91 C 166.54 129.98 164.33 127.36 169.91 126.79 Z" id="p92" />
<path d="M 177.19 126.92 C 181.90 129.58 187.19 132.81 185.33 139.13 C 183.10 141.81 179.89 144.18 178.35 147.32 C 177.69 152.87 180.15 157.81 179.81 163.26 C 178.05 158.75 176.71 153.97 175.66 149.24 C 176.42 141.53 175.17 134.51 177.19 126.92 Z" id="p93" />
<path d="M 148.98 127.69 L 150.74 127.82 C 158.90 131.55 152.14 138.98 156.51 143.90 C 156.95 142.55 157.33 141.20 157.84 139.88 C 157.61 146.25 158.61 151.86 160.33 157.95 C 154.87 164.41 159.90 149.01 153.78 152.69 C 151.05 149.96 151.17 146.25 147.91 143.96 C 147.52 143.34 145.49 142.35 146.53 141.62 C 149.07 139.08 147.05 136.23 146.72 133.17 C 147.15 131.07 146.30 128.31 148.98 127.69 Z" id="p94" />
<path d="M 145.25 128.95 C 145.82 130.33 146.28 131.74 146.72 133.17 C 147.05 136.23 149.07 139.08 146.53 141.62 C 145.49 142.35 147.52 143.34 147.91 143.96 C 144.32 146.98 147.61 151.06 144.22 154.17 C 144.94 150.61 145.35 147.22 144.23 143.68 C 141.25 141.15 138.69 148.09 137.19 149.84 C 136.24 146.85 136.13 143.82 135.72 140.74 C 131.09 141.73 130.36 130.29 126.87 135.71 C 124.48 137.39 129.68 136.55 128.46 137.86 C 126.70 142.29 120.96 141.44 117.04 142.72 C 115.57 135.99 114.34 142.98 112.11 139.08 C 113.79 136.84 115.21 134.17 117.29 132.30 C 120.21 132.25 121.46 133.37 123.49 130.67 C 126.99 131.90 130.73 132.37 134.14 133.75 C 137.10 134.35 135.54 140.49 138.90 139.90 C 139.52 136.61 137.60 134.81 136.29 132.10 C 138.76 129.64 138.18 132.02 139.60 133.79 C 140.44 132.60 141.09 131.36 141.85 130.09 C 142.38 132.55 140.76 138.23 144.78 137.94 C 145.05 134.95 144.97 131.94 145.25 128.95 Z" id="p95" />
<path d="M 166.93 133.91 C 167.43 135.39 167.99 136.85 168.69 138.25 C 169.55 140.60 170.25 139.69 172.05 139.04 C 171.54 140.69 170.18 141.09 168.99 142.17 C 172.42 150.55 174.15 162.24 171.99 171.07 C 170.26 171.09 168.62 170.69 166.99 170.16 C 167.26 159.71 164.76 149.30 163.93 138.88 C 163.91 136.11 162.03 131.53 166.93 133.91 Z" id="p96" />
<path d="M 135.72 140.74 C 136.13 143.82 136.24 146.85 137.19 149.84 C 138.69 148.09 141.25 141.15 144.23 143.68 C 145.35 147.22 144.94 150.61 144.22 154.17 C 143.44 155.42 142.70 156.69 141.98 157.97 C 136.59 159.90 134.90 164.81 129.07 166.11 C 124.66 165.65 118.66 166.81 114.68 165.29 C 112.43 161.19 116.08 162.45 118.65 161.58 C 120.05 159.31 121.01 156.93 119.93 154.32 C 124.25 157.50 134.53 154.19 134.03 148.51 C 127.24 150.36 125.78 146.74 121.03 143.19 C 119.33 143.71 117.68 144.45 116.02 145.12 L 116.02 144.26 L 117.04 142.72 C 120.96 141.44 126.70 142.29 128.46 137.86 C 129.68 136.55 124.48 137.39 126.87 135.71 C 130.36 130.29 131.09 141.73 135.72 140.74 Z" id="p97" />
<path d="M 78.65 137.51 C 80.40 135.67 84.15 141.10 86.20 141.57 C 88.39 142.44 88.71 142.43 89.16 144.83 C 83.79 141.08 76.81 146.18 72.13 146.27 C 75.00 149.67 75.83 148.63 79.80 148.07 C 82.03 151.57 84.05 151.49 87.83 152.31 C 93.86 153.97 93.95 159.94 99.39 163.59 C 103.73 166.44 107.17 169.66 110.72 173.40 C 111.77 175.28 112.84 177.16 113.75 179.11 C 110.25 178.79 107.23 175.41 105.11 172.86 C 100.49 167.42 94.22 163.74 89.41 158.64 C 86.07 157.76 83.32 157.56 80.41 155.41 C 80.47 157.75 79.52 158.10 77.91 159.53 C 71.70 157.18 78.54 165.86 78.94 168.14 C 77.43 167.47 75.91 166.80 74.44 166.05 C 73.17 162.79 73.14 160.54 73.66 157.12 C 72.03 153.89 69.87 148.06 70.54 144.65 C 74.48 143.92 71.40 137.41 75.09 140.30 C 77.03 141.99 77.64 138.57 78.65 137.51 Z" id="p98" />
<path d="M 87.43 136.87 C 88.59 137.35 89.75 137.81 90.92 138.27 C 96.68 139.91 97.08 144.25 99.12 149.06 C 99.73 150.79 100.28 152.55 100.83 154.30 C 100.24 154.47 99.66 154.65 99.07 154.84 C 94.14 151.42 89.72 152.06 89.16 144.83 C 88.71 142.43 88.39 142.44 86.20 141.57 C 87.08 139.92 87.48 138.77 87.43 136.87 Z" id="p99" />
<path d="M 112.11 139.08 C 114.34 142.98 115.57 135.99 117.04 142.72 L 116.02 144.26 C 112.42 145.66 115.31 139.97 111.75 143.70 C 111.21 146.29 116.72 152.19 118.00 155.11 C 114.44 159.06 115.11 152.58 110.06 154.11 C 110.18 157.66 112.87 157.65 114.96 159.78 C 113.74 160.12 112.51 160.39 111.26 160.64 C 109.05 157.54 107.34 153.46 104.31 151.10 C 103.22 152.13 102.73 155.93 100.83 154.30 C 100.28 152.55 99.73 150.79 99.12 149.06 C 104.79 148.86 103.59 149.69 103.30 144.50 C 109.54 144.94 106.69 133.56 112.11 139.08 Z" id="p100" />
<path d="M 172.27 136.83 C 176.20 140.61 174.38 144.51 175.66 149.24 C 176.71 153.97 178.05 158.75 179.81 163.26 C 180.19 168.80 183.41 173.39 183.51 178.89 C 186.45 179.17 188.22 175.01 188.35 180.09 L 188.09 180.97 C 184.51 181.49 180.89 181.76 177.34 182.40 C 173.08 184.55 175.85 188.16 172.41 191.02 C 173.14 186.24 170.82 182.80 173.54 178.48 C 175.82 175.07 176.16 172.36 175.61 168.38 C 173.91 165.20 174.05 170.65 171.99 171.07 C 174.15 162.24 172.42 150.55 168.99 142.17 C 170.18 141.09 171.54 140.69 172.05 139.04 L 172.27 136.83 Z" id="p101" />
<path d="M 163.93 138.88 C 164.76 149.30 167.26 159.71 166.99 170.16 C 168.70 176.02 169.41 182.76 169.27 188.85 C 169.29 191.19 170.94 196.05 168.35 197.41 C 167.57 196.27 166.80 195.12 166.05 193.96 C 165.43 189.23 163.91 184.69 163.20 179.96 C 163.16 178.94 163.11 177.91 163.06 176.88 C 162.98 174.60 162.77 172.34 162.52 170.07 C 162.06 165.73 159.72 162.64 160.33 157.95 C 158.61 151.86 157.61 146.25 157.84 139.88 C 159.37 137.08 161.52 138.05 163.93 138.88 Z" id="p102" />
<path d="M 185.33 139.13 L 187.12 139.28 C 187.14 140.22 187.16 141.15 187.20 142.09 C 183.26 149.55 182.02 154.60 180.78 162.91 L 179.81 163.26 C 180.15 157.81 177.69 152.87 178.35 147.32 C 179.89 144.18 183.10 141.81 185.33 139.13 Z" id="p103" />
<path d="M 62.88 141.14 C 63.02 145.51 62.81 149.78 63.91 154.06 C 65.80 158.62 61.59 164.56 57.73 166.68 L 57.06 165.99 C 56.89 162.08 56.91 158.10 57.17 154.20 C 58.40 152.27 59.00 150.37 59.40 148.12 C 59.89 146.34 60.45 144.59 61.12 142.87 C 61.69 142.28 62.28 141.71 62.88 141.14 Z" id="p104" />
<path d="M 116.02 144.26 L 116.02 145.12 C 115.26 152.21 117.93 149.24 123.01 150.27 C 121.51 152.69 119.42 151.08 117.06 151.18 C 117.96 152.28 118.94 153.30 119.93 154.32 C 121.01 156.93 120.05 159.31 118.65 161.58 C 116.08 162.45 112.43 161.19 114.68 165.29 C 118.66 166.81 124.66 165.65 129.07 166.11 C 128.44 166.38 127.80 166.64 127.16 166.89 C 125.35 167.04 123.61 167.10 121.95 167.92 C 112.59 168.82 108.31 167.90 101.38 161.62 C 99.24 159.60 98.93 158.79 99.09 155.78 C 98.85 158.95 109.96 163.81 111.26 160.64 C 112.51 160.39 113.74 160.12 114.96 159.78 C 112.87 157.65 110.18 157.66 110.06 154.11 C 115.11 152.58 114.44 159.06 118.00 155.11 C 116.72 152.19 111.21 146.29 111.75 143.70 C 115.31 139.97 112.42 145.66 116.02 144.26 Z" id="p105" />
<path d="M 187.20 142.09 C 188.60 142.21 190.03 142.27 191.43 142.47 C 191.23 146.22 193.81 146.43 196.65 147.72 C 197.44 144.86 196.55 144.18 200.00 143.83 L 200.00 162.20 C 196.85 161.18 193.37 159.98 190.03 159.97 C 182.04 160.08 189.38 164.83 186.77 168.83 C 186.32 168.70 182.74 168.39 183.78 167.49 C 185.63 165.38 181.92 164.30 180.78 162.91 C 182.02 154.60 183.26 149.55 187.20 142.09 Z" id="p106" />
<path d="M 1.04 142.93 C 4.92 143.53 16.52 142.58 16.96 147.93 C 16.31 148.63 15.66 149.32 15.00 150.01 C 10.10 151.76 6.26 152.31 1.03 152.03 C 0.99 148.99 0.99 145.96 1.04 142.93 Z" id="p107" />
<path d="M 89.16 144.83 C 89.72 152.06 94.14 151.42 99.07 154.84 L 99.09 155.78 C 98.93 158.79 99.24 159.60 101.38 161.62 C 108.31 167.90 112.59 168.82 121.95 167.92 C 120.44 169.40 118.69 170.52 117.00 171.78 C 114.53 173.69 113.92 174.32 110.72 173.40 C 107.17 169.66 103.73 166.44 99.39 163.59 C 93.95 159.94 93.86 153.97 87.83 152.31 C 84.05 151.49 82.03 151.57 79.80 148.07 C 75.83 148.63 75.00 149.67 72.13 146.27 C 76.81 146.18 83.79 141.08 89.16 144.83 Z" id="p108" />
<path d="M 121.03 143.19 C 125.78 146.74 127.24 150.36 134.03 148.51 C 134.53 154.19 124.25 157.50 119.93 154.32 C 118.94 153.30 117.96 152.28 117.06 151.18 C 119.42 151.08 121.51 152.69 123.01 150.27 C 117.93 149.24 115.26 152.21 116.02 145.12 C 117.68 144.45 119.33 143.71 121.03 143.19 Z" id="p109" />
<path d="M 147.91 143.96 C 151.17 146.25 151.05 149.96 153.78 152.69 C 148.82 153.36 149.58 156.17 151.07 159.87 C 152.98 164.40 149.64 168.56 154.12 172.10 C 154.44 176.72 151.56 179.63 155.06 183.94 C 155.29 184.45 155.51 184.97 155.70 185.50 C 153.82 185.72 152.61 186.85 151.01 187.73 C 150.04 184.66 152.41 178.70 147.36 178.93 C 148.74 183.25 149.36 187.47 150.82 191.74 C 142.43 194.31 137.81 187.70 135.25 180.69 C 137.69 180.41 137.31 178.77 135.29 178.17 C 133.16 168.43 139.95 166.86 141.98 157.97 C 142.70 156.69 143.44 155.42 144.22 154.17 C 147.61 151.06 144.32 146.98 147.91 143.96 Z" id="p110" />
<path d="M 58.78 146.14 L 59.40 148.12 C 59.00 150.37 58.40 152.27 57.17 154.20 C 50.76 160.08 45.13 167.17 40.58 174.58 C 38.72 175.11 36.71 175.18 34.80 175.38 C 33.11 175.15 31.42 174.94 29.73 174.75 C 31.70 172.60 34.26 174.93 35.92 172.89 C 44.03 164.44 50.25 154.31 58.78 146.14 Z" id="p111" />
<path d="M 16.96 147.93 C 18.23 151.91 17.91 150.75 21.13 149.37 C 24.57 148.24 27.14 147.09 30.25 149.75 C 33.44 152.88 34.32 158.74 35.02 163.01 C 36.06 167.44 30.80 170.54 27.92 173.02 C 23.68 175.82 20.93 176.93 17.64 172.09 C 18.70 171.74 19.76 171.40 20.84 171.09 C 23.51 173.41 27.02 168.67 29.25 167.24 C 34.09 163.59 30.73 156.85 28.24 152.82 C 24.82 151.04 21.69 154.57 19.76 157.07 C 17.53 159.26 17.33 151.15 15.00 150.01 C 15.66 149.32 16.31 148.63 16.96 147.93 Z" id="p112" />
<path d="M 15.00 150.01 C 17.33 151.15 17.53 159.26 19.76 157.07 C 19.31 161.86 20.66 166.19 20.84 171.09 C 19.76 171.40 18.70 171.74 17.64 172.09 C 15.17 172.80 12.66 173.79 10.13 173.95 C 9.29 171.64 11.96 166.41 9.15 165.56 C 7.60 162.80 7.40 160.35 7.31 157.28 C 5.31 155.88 3.43 154.70 0.99 155.85 C 1.00 154.57 1.01 153.30 1.03 152.03 C 6.26 152.31 10.10 151.76 15.00 150.01 Z" id="p113" />
<path d="M 104.31 151.10 C 107.34 153.46 109.05 157.54 111.26 160.64 C 109.96 163.81 98.85 158.95 99.09 155.78 L 99.07 154.84 C 99.66 154.65 100.24 154.47 100.83 154.30 C 102.73 155.93 103.22 152.13 104.31 151.10 Z" id="p114" />
<path d="M 28.24 152.82 C 30.73 156.85 34.09 163.59 29.25 167.24 C 27.02 168.67 23.51 173.41 20.84 171.09 C 20.66 166.19 19.31 161.86 19.76 157.07 C 21.69 154.57 24.82 151.04 28.24 152.82 Z" id="p115" />
<path d="M 160.33 157.95 C 159.72 162.64 162.06 165.73 162.52 170.07 C 159.08 169.97 156.73 169.49 154.12 172.10 C 149.64 168.56 152.98 164.40 151.07 159.87 C 149.58 156.17 148.82 153.36 153.78 152.69 C 159.90 149.01 154.87 164.41 160.33 157.95 Z" id="p116" />
<path d="M 57.17 154.20 C 56.91 158.10 56.89 162.08 57.06 165.99 C 56.39 171.19 62.04 167.99 62.12 172.82 C 61.34 173.85 60.58 174.90 59.83 175.96 C 58.61 176.70 57.37 177.40 56.13 178.12 C 49.22 176.35 41.83 176.54 34.80 175.38 C 36.71 175.18 38.72 175.11 40.58 174.58 C 45.13 167.17 50.76 160.08 57.17 154.20 Z" id="p117" />
<path d="M 7.31 157.28 C 7.40 160.35 7.60 162.80 9.15 165.56 C 8.52 166.71 7.93 167.88 7.26 169.01 C 6.86 166.54 5.72 164.71 4.10 162.87 C 3.08 164.29 2.15 165.78 1.15 167.22 C 1.03 163.43 0.92 159.64 0.99 155.85 C 3.43 154.70 5.31 155.88 7.31 157.28 Z" id="p118" />
<path d="M 80.41 155.41 C 83.32 157.56 86.07 157.76 89.41 158.64 C 94.22 163.74 100.49 167.42 105.11 172.86 C 107.23 175.41 110.25 178.79 113.75 179.11 C 112.84 177.16 111.77 175.28 110.72 173.40 C 113.92 174.32 114.53 173.69 117.00 171.78 C 122.10 171.62 118.45 176.34 121.34 178.66 C 124.70 181.72 126.99 185.23 128.63 189.45 C 132.49 191.59 137.49 195.35 138.23 200.00 L 122.39 200.00 C 119.32 196.43 115.92 194.27 114.48 189.49 C 113.00 190.09 107.43 188.04 109.92 187.25 C 118.70 190.52 104.12 174.53 106.58 184.01 C 105.94 185.12 100.11 185.07 98.19 186.44 C 94.08 182.09 86.37 178.70 83.06 173.09 C 83.52 171.06 88.02 173.08 86.46 170.03 C 84.32 166.07 81.25 162.53 77.91 159.53 C 79.52 158.10 80.47 157.75 80.41 155.41 Z" id="p119" />
<path d="M 141.98 157.97 C 139.95 166.86 133.16 168.43 135.29 178.17 C 137.31 178.77 137.69 180.41 135.25 180.69 C 137.81 187.70 142.43 194.31 150.82 191.74 C 149.36 187.47 148.74 183.25 147.36 178.93 C 152.41 178.70 150.04 184.66 151.01 187.73 C 152.61 186.85 153.82 185.72 155.70 185.50 C 153.43 190.40 153.01 195.52 149.62 200.00 L 140.13 200.00 C 139.63 190.08 130.73 187.87 130.05 177.94 C 128.65 170.90 126.61 186.05 126.03 179.05 C 124.59 174.20 128.80 171.10 127.16 166.89 C 127.80 166.64 128.44 166.38 129.07 166.11 C 134.90 164.81 136.59 159.90 141.98 157.97 Z" id="p120" />
<path d="M 77.91 159.53 C 81.25 162.53 84.32 166.07 86.46 170.03 C 83.41 172.04 81.63 169.42 78.94 168.14 C 78.54 165.86 71.70 157.18 77.91 159.53 Z" id="p121" />
<path d="M 190.03 159.97 C 189.39 165.32 190.28 170.61 189.68 175.93 C 189.24 177.32 188.80 178.70 188.35 180.09 C 188.22 175.01 186.45 179.17 183.51 178.89 C 183.41 173.39 180.19 168.80 179.81 163.26 L 180.78 162.91 C 181.92 164.30 185.63 165.38 183.78 167.49 C 182.74 168.39 186.32 168.70 186.77 168.83 C 189.38 164.83 182.04 160.08 190.03 159.97 Z" id="p122" />
<path d="M 190.03 159.97 C 193.37 159.98 196.85 161.18 200.00 162.20 L 200.00 181.26 C 197.04 177.08 192.57 179.82 189.68 175.93 C 190.28 170.61 189.39 165.32 190.03 159.97 Z" id="p123" />
<path d="M 4.10 162.87 C 5.72 164.71 6.86 166.54 7.26 169.01 C 5.56 172.05 3.69 170.56 1.08 170.01 C 1.09 169.08 1.12 168.15 1.15 167.22 C 2.15 165.78 3.08 164.29 4.10 162.87 Z" id="p124" />
<path d="M 70.64 162.99 C 71.02 167.58 71.77 171.03 73.72 175.20 C 74.68 178.66 73.95 179.71 70.93 181.27 C 69.78 179.61 68.63 178.01 67.84 176.14 C 67.10 171.24 68.19 167.23 70.64 162.99 Z" id="p125" />
<path d="M 9.15 165.56 C 11.96 166.41 9.29 171.64 10.13 173.95 C 12.66 173.79 15.17 172.80 17.64 172.09 C 20.93 176.93 23.68 175.82 27.92 173.02 C 26.75 175.79 27.43 174.65 29.73 174.75 C 31.42 174.94 33.11 175.15 34.80 175.38 C 41.83 176.54 49.22 176.35 56.13 178.12 C 53.92 179.84 51.72 181.21 49.03 182.09 C 47.40 182.67 45.84 183.40 44.28 184.17 C 38.90 181.73 29.66 179.90 23.74 180.17 C 20.44 179.87 19.22 182.89 16.35 184.35 C 11.48 187.01 6.47 187.16 1.06 187.03 C 0.98 181.36 0.93 175.68 1.08 170.01 C 3.69 170.56 5.56 172.05 7.26 169.01 C 7.93 167.88 8.52 166.71 9.15 165.56 Z" id="p126" />
<path d="M 57.06 165.99 L 57.73 166.68 C 58.57 168.46 61.18 165.98 62.70 166.29 C 63.80 168.49 65.85 169.78 63.24 171.84 L 62.12 172.82 C 62.04 167.99 56.39 171.19 57.06 165.99 Z" id="p127" />
<path d="M 74.44 166.05 C 75.91 166.80 77.43 167.47 78.94 168.14 C 81.63 169.42 83.41 172.04 86.46 170.03 C 88.02 173.08 83.52 171.06 83.06 173.09 C 86.37 178.70 94.08 182.09 98.19 186.44 C 97.69 191.70 90.62 190.37 87.07 189.89 C 83.21 187.75 80.81 188.64 76.99 190.20 C 78.77 187.87 78.44 186.94 77.92 184.21 C 77.59 178.39 75.94 171.76 74.44 166.05 Z" id="p128" />
<path d="M 127.16 166.89 C 128.80 171.10 124.59 174.20 126.03 179.05 C 126.61 186.05 128.65 170.90 130.05 177.94 C 130.73 187.87 139.63 190.08 140.13 200.00 L 138.23 200.00 C 137.49 195.35 132.49 191.59 128.63 189.45 C 126.99 185.23 124.70 181.72 121.34 178.66 C 118.45 176.34 122.10 171.62 117.00 171.78 C 118.69 170.52 120.44 169.40 121.95 167.92 C 123.61 167.10 125.35 167.04 127.16 166.89 Z" id="p129" />
<path d="M 175.61 168.38 C 176.16 172.36 175.82 175.07 173.54 178.48 C 170.82 182.80 173.14 186.24 172.41 191.02 C 175.85 188.16 173.08 184.55 177.34 182.40 C 180.89 181.76 184.51 181.49 188.09 180.97 C 187.77 182.11 187.43 183.24 187.06 184.37 C 182.78 184.75 180.12 182.46 176.84 184.69 C 175.92 190.11 173.27 194.39 173.13 200.00 L 168.16 200.00 C 168.24 199.14 168.30 198.28 168.35 197.41 C 170.94 196.05 169.29 191.19 169.27 188.85 C 169.41 182.76 168.70 176.02 166.99 170.16 C 168.62 170.69 170.26 171.09 171.99 171.07 C 174.05 170.65 173.91 165.20 175.61 168.38 Z" id="p130" />
<path d="M 162.52 170.07 C 162.77 172.34 162.98 174.60 163.06 176.88 C 160.49 175.94 157.92 175.66 155.22 176.24 C 154.27 178.83 154.68 181.28 155.06 183.94 C 151.56 179.63 154.44 176.72 154.12 172.10 C 156.73 169.49 159.08 169.97 162.52 170.07 Z" id="p131" />
<path d="M 63.24 171.84 L 64.81 172.24 C 65.52 176.93 65.88 181.07 64.86 185.76 C 62.93 183.56 60.99 181.39 59.32 178.98 C 59.46 177.96 59.63 176.96 59.83 175.96 C 60.58 174.90 61.34 173.85 62.12 172.82 L 63.24 171.84 Z" id="p132" />
<path d="M 64.81 172.24 C 66.86 172.56 66.90 174.59 67.84 176.14 C 68.63 178.01 69.78 179.61 70.93 181.27 C 71.43 182.23 71.92 183.19 72.40 184.16 C 70.64 185.04 69.40 181.94 68.13 181.04 C 67.80 183.85 71.15 188.73 66.21 185.31 C 67.52 189.88 64.35 187.30 65.28 193.19 C 62.95 189.84 61.79 185.83 59.11 182.77 C 59.10 181.50 59.17 180.23 59.32 178.98 C 60.99 181.39 62.93 183.56 64.86 185.76 C 65.88 181.07 65.52 176.93 64.81 172.24 Z" id="p133" />
<path d="M 59.83 175.96 C 59.63 176.96 59.46 177.96 59.32 178.98 C 59.17 180.23 59.10 181.50 59.11 182.77 C 58.83 186.14 60.08 188.97 61.37 191.98 C 60.45 193.35 59.43 194.65 58.33 195.89 C 58.59 191.70 55.73 191.66 55.73 187.77 C 55.05 180.56 52.78 186.44 50.94 189.17 C 50.07 187.27 49.39 185.34 48.14 183.64 C 48.43 183.12 48.73 182.60 49.03 182.09 C 51.72 181.21 53.92 179.84 56.13 178.12 C 57.37 177.40 58.61 176.70 59.83 175.96 Z" id="p134" />
<path d="M 155.22 176.24 C 157.92 175.66 160.49 175.94 163.06 176.88 C 163.11 177.91 163.16 178.94 163.20 179.96 C 161.39 181.83 158.66 181.48 156.82 183.02 C 161.34 186.40 163.20 189.20 166.05 193.96 C 166.80 195.12 167.57 196.27 168.35 197.41 C 168.30 198.28 168.24 199.14 168.16 200.00 L 166.21 200.00 C 164.93 197.70 164.80 193.31 161.53 193.33 C 160.53 190.76 161.01 190.21 157.92 189.82 C 154.36 187.77 155.06 198.37 151.80 200.00 L 149.62 200.00 C 153.01 195.52 153.43 190.40 155.70 185.50 C 155.51 184.97 155.29 184.45 155.06 183.94 C 154.68 181.28 154.27 178.83 155.22 176.24 Z" id="p135" />
<path d="M 189.68 175.93 C 192.57 179.82 197.04 177.08 200.00 181.26 L 200.00 193.44 C 195.81 195.02 192.68 191.36 188.81 192.94 C 187.96 190.16 187.52 187.24 187.06 184.37 C 187.43 183.24 187.77 182.11 188.09 180.97 L 188.35 180.09 C 188.80 178.70 189.24 177.32 189.68 175.93 Z" id="p136" />
<path d="M 23.74 180.17 C 25.20 180.47 34.13 181.82 28.01 182.91 C 21.42 181.95 19.60 186.19 14.18 188.04 C 11.72 188.16 9.28 188.40 6.86 188.94 C 4.93 188.99 2.99 189.00 1.06 189.01 L 1.06 187.03 C 6.47 187.16 11.48 187.01 16.35 184.35 C 19.22 182.89 20.44 179.87 23.74 180.17 Z" id="p137" />
<path d="M 23.74 180.17 C 29.66 179.90 38.90 181.73 44.28 184.17 C 41.64 186.31 38.80 188.13 36.05 190.12 C 29.41 192.88 22.55 193.82 15.62 195.61 C 13.24 196.28 11.31 195.30 9.05 194.67 C 12.22 192.50 16.57 193.24 14.18 188.04 C 19.60 186.19 21.42 181.95 28.01 182.91 C 34.13 181.82 25.20 180.47 23.74 180.17 Z" id="p138" />
<path d="M 163.20 179.96 C 163.91 184.69 165.43 189.23 166.05 193.96 C 163.20 189.20 161.34 186.40 156.82 183.02 C 158.66 181.48 161.39 181.83 163.20 179.96 Z" id="p139" />
<path d="M 68.13 181.04 C 69.40 181.94 70.64 185.04 72.40 184.16 C 73.88 186.21 75.44 188.20 76.99 190.20 L 77.06 192.10 L 77.12 194.14 L 77.19 196.03 C 75.71 197.41 74.15 198.71 72.58 200.00 L 68.88 200.00 C 67.45 197.82 66.28 195.60 65.28 193.19 C 64.35 187.30 67.52 189.88 66.21 185.31 C 71.15 188.73 67.80 183.85 68.13 181.04 Z" id="p140" />
<path d="M 109.92 187.25 C 107.43 188.04 113.00 190.09 114.48 189.49 C 115.92 194.27 119.32 196.43 122.39 200.00 L 100.03 200.00 C 97.69 192.91 92.25 193.52 87.07 189.89 C 90.62 190.37 97.69 191.70 98.19 186.44 C 100.11 185.07 105.94 185.12 106.58 184.01 C 104.12 174.53 118.70 190.52 109.92 187.25 Z" id="p141" />
<path d="M 49.03 182.09 C 48.73 182.60 48.43 183.12 48.14 183.64 C 47.70 184.39 47.26 185.15 46.83 185.91 C 43.18 187.80 39.75 190.01 36.19 192.06 L 36.05 190.12 C 38.80 188.13 41.64 186.31 44.28 184.17 C 45.84 183.40 47.40 182.67 49.03 182.09 Z" id="p142" />
<path d="M 59.11 182.77 C 61.79 185.83 62.95 189.84 65.28 193.19 C 66.28 195.60 67.45 197.82 68.88 200.00 L 65.96 200.00 C 64.24 197.44 62.79 194.72 61.37 191.98 C 60.08 188.97 58.83 186.14 59.11 182.77 Z" id="p143" />
<path d="M 187.06 184.37 C 187.52 187.24 187.96 190.16 188.81 192.94 C 189.00 197.41 196.08 196.25 199.15 197.38 C 194.10 198.75 189.89 196.71 185.46 200.00 L 173.13 200.00 C 173.27 194.39 175.92 190.11 176.84 184.69 C 180.12 182.46 182.78 184.75 187.06 184.37 Z" id="p144" />
<path d="M 48.14 183.64 C 49.39 185.34 50.07 187.27 50.94 189.17 C 52.78 186.44 55.05 180.56 55.73 187.77 C 52.85 188.57 54.81 191.94 54.71 194.01 C 53.15 193.63 53.21 192.56 52.57 191.32 C 50.09 194.78 49.65 195.75 50.84 200.00 L 49.03 200.00 C 47.23 195.20 46.73 191.04 46.83 185.91 C 47.26 185.15 47.70 184.39 48.14 183.64 Z" id="p145" />
<path d="M 46.83 185.91 C 46.73 191.04 47.23 195.20 49.03 200.00 L 32.47 200.00 C 33.63 197.31 35.00 194.73 36.19 192.06 C 39.75 190.01 43.18 187.80 46.83 185.91 Z" id="p146" />
<path d="M 14.18 188.04 C 16.57 193.24 12.22 192.50 9.05 194.67 C 11.31 195.30 13.24 196.28 15.62 195.61 C 22.55 193.82 29.41 192.88 36.05 190.12 L 36.19 192.06 C 32.23 193.17 27.51 196.46 25.36 200.00 L 5.87 200.00 C 10.06 196.61 7.04 193.40 6.86 188.94 C 9.28 188.40 11.72 188.16 14.18 188.04 Z" id="p147" />
<path d="M 55.73 187.77 C 55.73 191.66 58.59 191.70 58.33 195.89 C 59.43 194.65 60.45 193.35 61.37 191.98 C 62.79 194.72 64.24 197.44 65.96 200.00 L 50.84 200.00 C 49.65 195.75 50.09 194.78 52.57 191.32 C 53.21 192.56 53.15 193.63 54.71 194.01 C 54.81 191.94 52.85 188.57 55.73 187.77 Z" id="p148" />
<path d="M 87.07 189.89 C 92.25 193.52 97.69 192.91 100.03 200.00 L 96.26 200.00 C 90.88 195.28 84.83 188.70 77.06 192.10 L 76.99 190.20 C 80.81 188.64 83.21 187.75 87.07 189.89 Z" id="p149" />
<path d="M 1.06 189.01 C 2.99 189.00 4.93 188.99 6.86 188.94 C 7.04 193.40 10.06 196.61 5.87 200.00 L 0.94 200.00 C 1.00 196.34 0.99 192.68 1.06 189.01 Z" id="p150" />
<path d="M 157.92 189.82 C 159.33 193.56 161.75 196.69 164.06 200.00 L 151.80 200.00 C 155.06 198.37 154.36 187.77 157.92 189.82 Z" id="p151" />
<path d="M 157.92 189.82 C 161.01 190.21 160.53 190.76 161.53 193.33 C 164.80 193.31 164.93 197.70 166.21 200.00 L 164.06 200.00 C 161.75 196.69 159.33 193.56 157.92 189.82 Z" id="p152" />
<path d="M 96.26 200.00 L 72.58 200.00 C 74.15 198.71 75.71 197.41 77.19 196.03 C 79.10 196.34 80.92 196.74 82.85 196.90 C 83.61 194.35 78.73 195.00 77.12 194.14 L 77.06 192.10 C 84.83 188.70 90.88 195.28 96.26 200.00 Z" id="p153" />
<path d="M 36.19 192.06 C 35.00 194.73 33.63 197.31 32.47 200.00 L 25.36 200.00 C 27.51 196.46 32.23 193.17 36.19 192.06 Z" id="p154" />
<path d="M 200.00 193.44 L 200.00 197.25 L 199.15 197.38 C 196.08 196.25 189.00 197.41 188.81 192.94 C 192.68 191.36 195.81 195.02 200.00 193.44 Z" id="p155" />
<path d="M 77.12 194.14 C 78.73 195.00 83.61 194.35 82.85 196.90 C 80.92 196.74 79.10 196.34 77.19 196.03 L 77.12 194.14 Z" id="p156" />
<path d="M 199.15 197.38 L 200.00 197.25 L 200.00 200.00 L 185.46 200.00 C 189.89 196.71 194.10 198.75 199.15 197.38 Z" id="p157" />
</defs>
<g stroke-width="10pt">
<use stroke="#fdfbf7" xlink:href="#p0" />
<use stroke="#aa9c93" xlink:href="#p1" />
<use stroke="#9e7e67" xlink:href="#p2" />
<use stroke="#222f46" xlink:href="#p3" />
<use stroke="#83b9da" xlink:href="#p4" />
<use stroke="#a7a595" xlink:href="#p5" />
<use stroke="#47453d" xlink:href="#p6" />
<use stroke="#15171c" xlink:href="#p7" />
<use stroke="#655748" xlink:href="#p8" />
<use stroke="#bf8d58" xlink:href="#p9" />
<use stroke="#a37139" xlink:href="#p10" />
<use stroke="#b79977" xlink:href="#p11" />
<use stroke="#af9b84" xlink:href="#p12" />
<use stroke="#afa8a4" xlink:href="#p13" />
<use stroke="#adafb7" xlink:href="#p14" />
<use stroke="#a9a9ac" xlink:href="#p15" />
<use stroke="#2a617e" xlink:href="#p16" />
<use stroke="#3e77a2" xlink:href="#p17" />
<use stroke="#5f2c19" xlink:href="#p18" />
<use stroke="#83685c" xlink:href="#p19" />
<use stroke="#767b76" xlink:href="#p20" />
<use stroke="#6e6c65" xlink:href="#p21" />
<use stroke="#285563" xlink:href="#p22" />
<use stroke="#3b3a34" xlink:href="#p23" />
<use stroke="#7d5a3e" xlink:href="#p24" />
<use stroke="#6b7377" xlink:href="#p25" />
<use stroke="#3786a9" xlink:href="#p26" />
<use stroke="#1a97c9" xlink:href="#p27" />
<use stroke="#a27555" xlink:href="#p28" />
<use stroke="#b1c5de" xlink:href="#p29" />
<use stroke="#67b3df" xlink:href="#p30" />
<use stroke="#252b35" xlink:href="#p31" />
<use stroke="#804020" xlink:href="#p32" />
<use stroke="#918d8d" xlink:href="#p33" />
<use stroke="#4c5a63" xlink:href="#p34" />
<use stroke="#797f99" xlink:href="#p35" />
<use stroke="#765848" xlink:href="#p36" />
<use stroke="#a99383" xlink:href="#p37" />
<use stroke="#414c62" xlink:href="#p38" />
<use stroke="#b57d45" xlink:href="#p39" />
<use stroke="#b3875f" xlink:href="#p40" />
<use stroke="#bd9062" xlink:href="#p41" />
<use stroke="#895533" xlink:href="#p42" />
<use stroke="#8d6947" xlink:href="#p43" />
<use stroke="#89461f" xlink:href="#p44" />
<use stroke="#321e1e" xlink:href="#p45" />
<use stroke="#905b43" xlink:href="#p46" />
<use stroke="#9a6d5b" xlink:href="#p47" />
<use stroke="#6a3122" xlink:href="#p48" />
<use stroke="#894221" xlink:href="#p49" />
<use stroke="#aa622b" xlink:href="#p50" />
<use stroke="#d09765" xlink:href="#p51" />
<use stroke="#ddb9a1" xlink:href="#p52" />
<use stroke="#bf712d" xlink:href="#p53" />
<use stroke="#5b2921" xlink:href="#p54" />
<use stroke="#70301b" xlink:href="#p55" />
<use stroke="#63270e" xlink:href="#p56" />
<use stroke="#baafae" xlink:href="#p57" />
<use stroke="#97735c" xlink:href="#p58" />
<use stroke="#a55c25" xlink:href="#p59" />
<use stroke="#ce802f" xlink:href="#p60" />
<use stroke="#59272f" xlink:href="#p61" />
<use stroke="#43393e" xlink:href="#p62" />
<use stroke="#a75a26" xlink:href="#p63" />
<use stroke="#a24e14" xlink:href="#p64" />
<use stroke="#a89a8e" xlink:href="#p65" />
<use stroke="#ab8f73" xlink:href="#p66" />
<use stroke="#86583a" xlink:href="#p67" />
<use stroke="#b58668" xlink:href="#p68" />
<use stroke="#81482c" xlink:href="#p69" />
<use stroke="#573121" xlink:href="#p70" />
<use stroke="#b76f37" xlink:href="#p71" />
<use stroke="#2d1e1b" xlink:href="#p72" />
<use stroke="#8e4c2f" xlink:href="#p73" />
<use stroke="#83797b" xlink:href="#p74" />
<use stroke="#713d23" xlink:href="#p75" />
<use stroke="#6e2d10" xlink:href="#p76" />
<use stroke="#625e67" xlink:href="#p77" />
<use stroke="#7e3618" xlink:href="#p78" />
<use stroke="#a66e44" xlink:href="#p79" />
<use stroke="#595155" xlink:href="#p80" />
<use stroke="#3e241e" xlink:href="#p81" />
<use stroke="#78432b" xlink:href="#p82" />
<use stroke="#867b7b" xlink:href="#p83" />
<use stroke="#ba917d" xlink:href="#p84" />
<use stroke="#4d413e" xlink:href="#p85" />
<use stroke="#725241" xlink:href="#p86" />
<use stroke="#90745a" xlink:href="#p87" />
<use stroke="#9b826f" xlink:href="#p88" />
<use stroke="#774630" xlink:href="#p89" />
<use stroke="#ab734f" xlink:href="#p90" />
<use stroke="#a06543" xlink:href="#p91" />
<use stroke="#4b2929" xlink:href="#p92" />
<use stroke="#736264" xlink:href="#p93" />
<use stroke="#7e635b" xlink:href="#p94" />
<use stroke="#57382c" xlink:href="#p95" />
<use stroke="#746a73" xlink:href="#p96" />
<use stroke="#342623" xlink:href="#p97" />
<use stroke="#934e28" xlink:href="#p98" />
<use stroke="#a86d3c" xlink:href="#p99" />
<use stroke="#7a5847" xlink:href="#p100" />
<use stroke="#603426" xlink:href="#p101" />
<use stroke="#ad7446" xlink:href="#p102" />
<use stroke="#847c84" xlink:href="#p103" />
<use stroke="#bfa39a" xlink:href="#p104" />
<use stroke="#533c36" xlink:href="#p105" />
<use stroke="#a99585" xlink:href="#p106" />
<use stroke="#cadae3" xlink:href="#p107" />
<use stroke="#6d321c" xlink:href="#p108" />
<use stroke="#1c1716" xlink:href="#p109" />
<use stroke="#9b6a41" xlink:href="#p110" />
<use stroke="#2f2421" xlink:href="#p111" />
<use stroke="#c7c3bc" xlink:href="#p112" />
<use stroke="#839996" xlink:href="#p113" />
<use stroke="#70666a" xlink:href="#p114" />
<use stroke="#4a4446" xlink:href="#p115" />
<use stroke="#997b6b" xlink:href="#p116" />
<use stroke="#483936" xlink:href="#p117" />
<use stroke="#7f8063" xlink:href="#p118" />
<use stroke="#803917" xlink:href="#p119" />
<use stroke="#8d5735" xlink:href="#p120" />
<use stroke="#ab7b6b" xlink:href="#p121" />
<use stroke="#8b5a46" xlink:href="#p122" />
<use stroke="#b07a50" xlink:href="#p123" />
<use stroke="#93573b" xlink:href="#p124" />
<use stroke="#d0ac9c" xlink:href="#p125" />
<use stroke="#b4a48e" xlink:href="#p126" />
<use stroke="#8c6b6b" xlink:href="#p127" />
<use stroke="#b46f2d" xlink:href="#p128" />
<use stroke="#824628" xlink:href="#p129" />
<use stroke="#905532" xlink:href="#p130" />
<use stroke="#6f4838" xlink:href="#p131" />
<use stroke="#c984c6" xlink:href="#p132" />
<use stroke="#b3629d" xlink:href="#p133" />
<use stroke="#afdcea" xlink:href="#p134" />
<use stroke="#533322" xlink:href="#p135" />
<use stroke="#c85d36" xlink:href="#p136" />
<use stroke="#8a673f" xlink:href="#p137" />
<use stroke="#b68549" xlink:href="#p138" />
<use stroke="#775039" xlink:href="#p139" />
<use stroke="#b73f7c" xlink:href="#p140" />
<use stroke="#985022" xlink:href="#p141" />
<use stroke="#6eb0a2" xlink:href="#p142" />
<use stroke="#613b5e" xlink:href="#p143" />
<use stroke="#a77345" xlink:href="#p144" />
<use stroke="#81e3f1" xlink:href="#p145" />
<use stroke="#15bff1" xlink:href="#p146" />
<use stroke="#baa485" xlink:href="#p147" />
<use stroke="#8ebfcc" xlink:href="#p148" />
<use stroke="#6d3921" xlink:href="#p149" />
<use stroke="#c3b5a8" xlink:href="#p150" />
<use stroke="#170d0a" xlink:href="#p151" />
<use stroke="#84776b" xlink:href="#p152" />
<use stroke="#321d1c" xlink:href="#p153" />
<use stroke="#6e98cc" xlink:href="#p154" />
<use stroke="#cc7d60" xlink:href="#p155" />
<use stroke="#6c6266" xlink:href="#p156" />
<use stroke="#664335" xlink:href="#p157" />
</g>
<g>
<use fill="#fdfbf7" xlink:href="#p0" />
<use fill="#aa9c93" xlink:href="#p1" />
<use fill="#9e7e67" xlink:href="#p2" />
<use fill="#222f46" xlink:href="#p3" />
<use fill="#83b9da" xlink:href="#p4" />
<use fill="#a7a595" xlink:href="#p5" />
<use fill="#47453d" xlink:href="#p6" />
<use fill="#15171c" xlink:href="#p7" />
<use fill="#655748" xlink:href="#p8" />
<use fill="#bf8d58" xlink:href="#p9" />
<use fill="#a37139" xlink:href="#p10" />
<use fill="#b79977" xlink:href="#p11" />
<use fill="#af9b84" xlink:href="#p12" />
<use fill="#afa8a4" xlink:href="#p13" />
<use fill="#adafb7" xlink:href="#p14" />
<use fill="#a9a9ac" xlink:href="#p15" />
<use fill="#2a617e" xlink:href="#p16" />
<use fill="#3e77a2" xlink:href="#p17" />
<use fill="#5f2c19" xlink:href="#p18" />
<use fill="#83685c" xlink:href="#p19" />
<use fill="#767b76" xlink:href="#p20" />
<use fill="#6e6c65" xlink:href="#p21" />
<use fill="#285563" xlink:href="#p22" />
<use fill="#3b3a34" xlink:href="#p23" />
<use fill="#7d5a3e" xlink:href="#p24" />
<use fill="#6b7377" xlink:href="#p25" />
<use fill="#3786a9" xlink:href="#p26" />
<use fill="#1a97c9" xlink:href="#p27" />
<use fill="#a27555" xlink:href="#p28" />
<use fill="#b1c5de" xlink:href="#p29" />
<use fill="#67b3df" xlink:href="#p30" />
<use fill="#252b35" xlink:href="#p31" />
<use fill="#804020" xlink:href="#p32" />
<use fill="#918d8d" xlink:href="#p33" />
<use fill="#4c5a63" xlink:href="#p34" />
<use fill="#797f99" xlink:href="#p35" />
<use fill="#765848" xlink:href="#p36" />
<use fill="#a99383" xlink:href="#p37" />
<use fill="#414c62" xlink:href="#p38" />
<use fill="#b57d45" xlink:href="#p39" />
<use fill="#b3875f" xlink:href="#p40" />
<use fill="#bd9062" xlink:href="#p41" />
<use fill="#895533" xlink:href="#p42" />
<use fill="#8d6947" xlink:href="#p43" />
<use fill="#89461f" xlink:href="#p44" />
<use fill="#321e1e" xlink:href="#p45" />
<use fill="#905b43" xlink:href="#p46" />
<use fill="#9a6d5b" xlink:href="#p47" />
<use fill="#6a3122" xlink:href="#p48" />
<use fill="#894221" xlink:href="#p49" />
<use fill="#aa622b" xlink:href="#p50" />
<use fill="#d09765" xlink:href="#p51" />
<use fill="#ddb9a1" xlink:href="#p52" />
<use fill="#bf712d" xlink:href="#p53" />
<use fill="#5b2921" xlink:href="#p54" />
<use fill="#70301b" xlink:href="#p55" />
<use fill="#63270e" xlink:href="#p56" />
<use fill="#baafae" xlink:href="#p57" />
<use fill="#97735c" xlink:href="#p58" />
<use fill="#a55c25" xlink:href="#p59" />
<use fill="#ce802f" xlink:href="#p60" />
<use fill="#59272f" xlink:href="#p61" />
<use fill="#43393e" xlink:href="#p62" />
<use fill="#a75a26" xlink:href="#p63" />
<use fill="#a24e14" xlink:href="#p64" />
<use fill="#a89a8e" xlink:href="#p65" />
<use fill="#ab8f73" xlink:href="#p66" />
<use fill="#86583a" xlink:href="#p67" />
<use fill="#b58668" xlink:href="#p68" />
<use fill="#81482c" xlink:href="#p69" />
<use fill="#573121" xlink:href="#p70" />
<use fill="#b76f37" xlink:href="#p71" />
<use fill="#2d1e1b" xlink:href="#p72" />
<use fill="#8e4c2f" xlink:href="#p73" />
<use fill="#83797b" xlink:href="#p74" />
<use fill="#713d23" xlink:href="#p75" />
<use fill="#6e2d10" xlink:href="#p76" />
<use fill="#625e67" xlink:href="#p77" />
<use fill="#7e3618" xlink:href="#p78" />
<use fill="#a66e44" xlink:href="#p79" />
<use fill="#595155" xlink:href="#p80" />
<use fill="#3e241e" xlink:href="#p81" />
<use fill="#78432b" xlink:href="#p82" />
<use fill="#867b7b" xlink:href="#p83" />
<use fill="#ba917d" xlink:href="#p84" />
<use fill="#4d413e" xlink:href="#p85" />
<use fill="#725241" xlink:href="#p86" />
<use fill="#90745a" xlink:href="#p87" />
<use fill="#9b826f" xlink:href="#p88" />
<use fill="#774630" xlink:href="#p89" />
<use fill="#ab734f" xlink:href="#p90" />
<use fill="#a06543" xlink:href="#p91" />
<use fill="#4b2929" xlink:href="#p92" />
<use fill="#736264" xlink:href="#p93" />
<use fill="#7e635b" xlink:href="#p94" />
<use fill="#57382c" xlink:href="#p95" />
<use fill="#746a73" xlink:href="#p96" />
<use fill="#342623" xlink:href="#p97" />
<use fill="#934e28" xlink:href="#p98" />
<use fill="#a86d3c" xlink:href="#p99" />
<use fill="#7a5847" xlink:href="#p100" />
<use fill="#603426" xlink:href="#p101" />
<use fill="#ad7446" xlink:href="#p102" />
<use fill="#847c84" xlink:href="#p103" />
<use fill="#bfa39a" xlink:href="#p104" />
<use fill="#533c36" xlink:href="#p105" />
<use fill="#a99585" xlink:href="#p106" />
<use fill="#cadae3" xlink:href="#p107" />
<use fill="#6d321c" xlink:href="#p108" />
<use fill="#1c1716" xlink:href="#p109" />
<use fill="#9b6a41" xlink:href="#p110" />
<use fill="#2f2421" xlink:href="#p111" />
<use fill="#c7c3bc" xlink:href="#p112" />
<use fill="#839996" xlink:href="#p113" />
<use fill="#70666a" xlink:href="#p114" />
<use fill="#4a4446" xlink:href="#p115" />
<use fill="#997b6b" xlink:href="#p116" />
<use fill="#483936" xlink:href="#p117" />
<use fill="#7f8063" xlink:href="#p118" />
<use fill="#803917" xlink:href="#p119" />
<use fill="#8d5735" xlink:href="#p120" />
<use fill="#ab7b6b" xlink:href="#p121" />
<use fill="#8b5a46" xlink:href="#p122" />
<use fill="#b07a50" xlink:href="#p123" />
<use fill="#93573b" xlink:href="#p124" />
<use fill="#d0ac9c" xlink:href="#p125" />
<use fill="#b4a48e" xlink:href="#p126" />
<use fill="#8c6b6b" xlink:href="#p127" />
<use fill="#b46f2d" xlink:href="#p128" />
<use fill="#824628" xlink:href="#p129" />
<use fill="#905532" xlink:href="#p130" />
<use fill="#6f4838" xlink:href="#p131" />
<use fill="#c984c6" xlink:href="#p132" />
<use fill="#b3629d" xlink:href="#p133" />
<use fill="#afdcea" xlink:href="#p134" />
<use fill="#533322" xlink:href="#p135" />
<use fill="#c85d36" xlink:href="#p136" />
<use fill="#8a673f" xlink:href="#p137" />
<use fill="#b68549" xlink:href="#p138" />
<use fill="#775039" xlink:href="#p139" />
<use fill="#b73f7c" xlink:href="#p140" />
<use fill="#985022" xlink:href="#p141" />
<use fill="#6eb0a2" xlink:href="#p142" />
<use fill="#613b5e" xlink:href="#p143" />
<use fill="#a77345" xlink:href="#p144" />
<use fill="#81e3f1" xlink:href="#p145" />
<use fill="#15bff1" xlink:href="#p146" />
<use fill="#baa485" xlink:href="#p147" />
<use fill="#8ebfcc" xlink:href="#p148" />
<use fill="#6d3921" xlink:href="#p149" />
<use fill="#c3b5a8" xlink:href="#p150" />
<use fill="#170d0a" xlink:href="#p151" />
<use fill="#84776b" xlink:href="#p152" />
<use fill="#321d1c" xlink:href="#p153" />
<use fill="#6e98cc" xlink:href="#p154" />
<use fill="#cc7d60" xlink:href="#p155" />
<use fill="#6c6266" xlink:href="#p156" />
<use fill="#664335" xlink:href="#p157" />
</g>
</svg>