<?xml version="1.0" encoding="UTF-8" standalone="no"?>
<!DOCTYPE svg PUBLIC "-//W3C//DTD SVG 1.1//EN" "http://www.w3.org/Graphics/SVG/1.1/DTD/svg11.dtd">
<svg xmlns="http://www.w3.org/2000/svg" version="1.1" viewBox="0 0 200 200" xmlns:xlink="http://www.w3.org/1999/xlink">
<defs>
<path d="M 0.00 0.00 L 25.52 0.00 C 18.88 9.40 13.10 18.20 11.92 30.01 C 9.41 34.87 8.91 40.70 6.60 45.79 C 3.36 56.29 0.70 69.62 6.12 79.77 C 2.02 86.13 -0.09 91.88 4.22 98.75 C 1.38 101.41 4.04 103.92 0.00 105.41 L 0.00 0.00 Z" id="p0" />
<path d="M 25.52 0.00 L 45.60 0.00 C 43.53 5.54 32.79 6.68 28.85 12.86 C 21.99 18.27 15.63 21.48 11.92 30.01 C 13.10 18.20 18.88 9.40 25.52 0.00 Z" id="p1" />
<path d="M 45.60 0.00 L 109.28 0.00 C 109.51 4.86 107.78 6.26 104.33 9.10 C 103.85 6.26 107.32 1.68 102.50 2.81 C 99.78 4.14 101.65 15.53 97.77 7.81 C 90.40 12.02 82.20 3.63 82.59 16.07 C 81.42 11.62 78.41 6.20 76.36 13.88 C 77.07 6.62 68.14 13.41 64.59 13.19 C 60.24 12.95 62.01 13.91 60.75 16.87 C 59.08 11.91 49.56 14.45 51.69 21.00 C 52.04 11.44 42.09 20.47 37.43 21.73 C 36.64 27.42 36.50 28.56 35.63 22.04 C 21.13 28.72 13.25 33.96 8.08 48.60 C 14.60 45.64 10.66 49.98 8.10 52.00 C 6.97 50.05 6.85 47.98 6.60 45.79 C 8.91 40.70 9.41 34.87 11.92 30.01 C 15.63 21.48 21.99 18.27 28.85 12.86 C 32.79 6.68 43.53 5.54 45.60 0.00 Z" id="p2" />
<path d="M 109.28 0.00 L 155.11 0.00 C 155.09 4.66 154.15 10.02 156.83 14.10 C 157.89 11.23 154.90 5.63 157.71 4.06 C 160.11 7.23 157.39 17.49 160.60 17.97 C 160.64 14.25 159.76 10.65 160.14 6.91 C 163.95 14.86 162.40 25.85 164.47 32.82 C 166.39 26.89 165.34 34.36 168.48 35.20 C 166.92 38.79 179.47 40.71 175.69 44.65 C 172.37 51.21 182.77 39.50 179.01 46.10 C 175.37 51.66 178.98 49.10 181.59 46.82 C 181.07 49.94 178.54 52.15 183.47 50.76 C 184.93 52.23 186.10 59.92 184.11 61.91 C 180.45 54.17 177.02 49.87 168.21 46.76 C 165.14 42.20 157.60 38.00 152.28 37.53 C 148.88 39.19 136.93 29.89 138.46 38.28 C 126.37 34.15 114.33 34.42 102.03 31.99 C 87.32 31.19 74.51 35.86 60.37 38.48 C 54.02 40.44 64.46 39.78 66.24 40.68 C 62.48 41.00 58.74 41.20 54.98 40.81 C 59.59 34.43 72.10 35.78 77.81 32.02 C 75.96 29.08 62.61 37.14 65.80 29.03 C 65.38 25.34 61.85 31.35 60.64 30.10 C 58.27 27.36 52.77 30.62 54.76 33.84 C 50.42 32.17 50.38 28.90 50.26 35.08 C 50.20 33.62 35.46 31.85 40.53 36.94 C 33.81 34.55 32.76 42.94 29.09 37.26 C 32.06 43.57 20.16 39.29 23.36 45.61 C 14.98 48.13 18.67 54.07 14.10 59.04 C 10.03 62.98 13.88 66.64 9.33 71.06 C 10.45 66.54 6.85 63.24 9.67 59.61 C 12.32 57.58 6.19 53.98 7.11 57.99 C 7.37 62.63 0.36 77.45 9.97 75.67 C 10.37 79.51 6.85 75.02 6.81 80.01 L 6.12 79.77 C 0.70 69.62 3.36 56.29 6.60 45.79 C 6.85 47.98 6.97 50.05 8.10 52.00 C 10.66 49.98 14.60 45.64 8.08 48.60 C 13.25 33.96 21.13 28.72 35.63 22.04 C 36.50 28.56 36.64 27.42 37.43 21.73 C 42.09 20.47 52.04 11.44 51.69 21.00 C 49.56 14.45 59.08 11.91 60.75 16.87 C 62.01 13.91 60.24 12.95 64.59 13.19 C 68.14 13.41 77.07 6.62 76.36 13.88 C 78.41 6.20 81.42 11.62 82.59 16.07 C 82.20 3.63 90.40 12.02 97.77 7.81 C 101.65 15.53 99.78 4.14 102.50 2.81 C 107.32 1.68 103.85 6.26 104.33 9.10 C 107.78 6.26 109.51 4.86 109.28 0.00 Z M 134.86 21.13 C 135.59 24.22 133.43 27.92 138.24 26.88 C 138.52 22.78 140.81 27.62 142.76 27.97 C 142.98 25.68 142.98 23.39 143.16 21.11 C 145.13 22.36 142.93 30.64 147.14 28.19 C 152.40 27.43 151.60 23.17 149.80 19.45 C 144.72 21.40 140.34 14.89 135.20 17.05 C 133.48 18.43 132.01 13.24 131.40 16.37 C 130.08 19.28 132.02 28.14 134.86 21.13 Z" id="p3" />
<path d="M 155.11 0.00 L 171.00 0.00 C 178.65 10.05 180.96 22.30 181.40 34.65 C 186.22 46.70 191.57 56.76 187.02 70.02 C 183.11 83.14 174.99 93.63 165.52 103.25 L 163.79 102.94 C 174.37 93.02 183.39 76.36 184.11 61.91 C 186.10 59.92 184.93 52.23 183.47 50.76 C 178.54 52.15 181.07 49.94 181.59 46.82 C 178.98 49.10 175.37 51.66 179.01 46.10 C 182.77 39.50 172.37 51.21 175.69 44.65 C 179.47 40.71 166.92 38.79 168.48 35.20 C 165.34 34.36 166.39 26.89 164.47 32.82 C 162.40 25.85 163.95 14.86 160.14 6.91 C 159.76 10.65 160.64 14.25 160.60 17.97 C 157.39 17.49 160.11 7.23 157.71 4.06 C 154.90 5.63 157.89 11.23 156.83 14.10 C 154.15 10.02 155.09 4.66 155.11 0.00 Z" id="p4" />
<path d="M 171.00 0.00 L 200.00 0.00 L 200.00 200.00 L 198.94 200.00 C 198.87 192.42 201.03 188.95 192.20 186.79 C 189.32 181.80 189.57 176.66 184.23 172.41 C 193.03 170.38 200.76 165.23 199.04 155.00 C 198.92 147.38 199.12 139.77 198.91 132.16 C 198.66 126.92 199.78 120.45 198.46 115.50 C 193.66 110.08 185.83 103.68 178.07 106.03 C 185.19 100.91 172.92 101.55 170.12 104.24 C 168.58 103.95 167.05 103.61 165.52 103.25 C 174.99 93.63 183.11 83.14 187.02 70.02 C 191.57 56.76 186.22 46.70 181.40 34.65 C 180.96 22.30 178.65 10.05 171.00 0.00 Z" id="p5" />
<path d="M 135.20 17.05 C 140.34 14.89 144.72 21.40 149.80 19.45 C 151.60 23.17 152.40 27.43 147.14 28.19 C 142.93 30.64 145.13 22.36 143.16 21.11 C 142.98 23.39 142.98 25.68 142.76 27.97 C 140.81 27.62 138.52 22.78 138.24 26.88 C 133.43 27.92 135.59 24.22 134.86 21.13 C 132.02 28.14 130.08 19.28 131.40 16.37 C 132.01 13.24 133.48 18.43 135.20 17.05 Z" id="p6" />
<path d="M 60.64 30.10 C 61.85 31.35 65.38 25.34 65.80 29.03 C 62.61 37.14 75.96 29.08 77.81 32.02 C 72.10 35.78 59.59 34.43 54.98 40.81 C 58.74 41.20 62.48 41.00 66.24 40.68 C 83.62 41.69 99.34 48.06 117.00 47.04 C 123.93 48.05 137.16 42.14 142.65 46.23 C 153.35 48.77 171.93 44.93 172.85 61.04 C 174.38 51.22 170.73 48.98 161.95 47.07 C 152.61 46.70 147.09 40.43 138.46 38.28 C 136.93 29.89 148.88 39.19 152.28 37.53 C 157.60 38.00 165.14 42.20 168.21 46.76 C 177.02 49.87 180.45 54.17 184.11 61.91 C 183.39 76.36 174.37 93.02 163.79 102.94 C 159.21 101.99 167.59 90.45 164.83 86.07 C 158.14 89.14 151.47 91.58 144.06 92.22 C 143.37 91.81 142.68 91.39 142.00 90.97 C 138.59 87.82 133.15 89.33 130.02 86.99 C 138.64 87.51 151.17 90.02 158.62 85.14 C 154.10 78.44 161.65 79.63 157.72 72.17 C 155.45 58.87 136.20 60.36 126.14 56.21 C 126.33 58.72 127.34 60.68 125.94 63.02 C 121.10 60.11 126.29 54.15 121.10 53.98 C 113.84 56.08 120.84 69.79 119.90 75.07 C 116.25 69.51 117.17 63.03 114.70 57.35 C 111.65 55.34 114.44 63.82 114.00 65.13 C 111.98 59.03 110.66 56.09 104.00 59.85 C 103.32 53.38 99.83 48.80 92.44 47.41 C 90.14 45.55 77.68 43.51 86.74 46.50 C 83.15 53.07 89.15 48.58 92.86 49.16 C 95.60 50.53 98.81 52.72 99.84 55.76 C 95.47 56.75 97.72 58.56 97.69 61.97 C 94.30 59.86 94.57 57.68 93.76 54.22 C 85.28 54.40 80.54 53.60 82.89 63.82 C 74.79 65.69 85.26 59.12 78.72 56.54 C 71.53 57.70 77.59 51.80 70.67 55.64 C 67.65 53.80 58.42 55.90 64.69 50.97 C 58.21 49.81 52.57 47.75 46.59 51.56 C 43.31 53.01 37.92 49.80 43.16 47.16 C 53.62 42.09 63.19 44.03 74.09 43.76 C 67.26 41.11 57.33 41.89 50.01 42.72 C 42.86 41.09 62.38 37.38 53.16 36.77 C 41.67 39.46 37.48 41.87 26.78 47.76 C 21.98 52.67 20.48 61.08 17.94 67.06 C 16.11 70.54 10.67 64.74 14.12 69.94 C 17.15 71.33 14.35 82.20 13.24 75.91 C 8.32 78.65 12.51 80.04 15.86 79.22 C 14.68 80.72 13.37 82.14 12.23 83.66 C 17.05 83.17 13.92 87.87 16.94 92.10 C 12.58 88.73 10.12 84.28 6.81 80.01 C 6.85 75.02 10.37 79.51 9.97 75.67 C 0.36 77.45 7.37 62.63 7.11 57.99 C 6.19 53.98 12.32 57.58 9.67 59.61 C 6.85 63.24 10.45 66.54 9.33 71.06 C 13.88 66.64 10.03 62.98 14.10 59.04 C 18.67 54.07 14.98 48.13 23.36 45.61 C 20.16 39.29 32.06 43.57 29.09 37.26 C 32.76 42.94 33.81 34.55 40.53 36.94 C 35.46 31.85 50.20 33.62 50.26 35.08 C 50.38 28.90 50.42 32.17 54.76 33.84 C 52.77 30.62 58.27 27.36 60.64 30.10 Z M 159.63 54.40 C 161.46 53.85 172.78 59.38 169.23 54.73 C 164.14 48.57 142.50 45.65 136.05 49.57 C 143.84 52.33 151.32 54.18 159.63 54.40 Z" id="p7" />
<path d="M 102.03 31.99 C 114.33 34.42 126.37 34.15 138.46 38.28 C 147.09 40.43 152.61 46.70 161.95 47.07 C 170.73 48.98 174.38 51.22 172.85 61.04 C 171.93 44.93 153.35 48.77 142.65 46.23 C 137.16 42.14 123.93 48.05 117.00 47.04 C 99.34 48.06 83.62 41.69 66.24 40.68 C 64.46 39.78 54.02 40.44 60.37 38.48 C 74.51 35.86 87.32 31.19 102.03 31.99 Z" id="p8" />
<path d="M 53.16 36.77 C 62.38 37.38 42.86 41.09 50.01 42.72 C 57.33 41.89 67.26 41.11 74.09 43.76 C 63.19 44.03 53.62 42.09 43.16 47.16 C 37.92 49.80 43.31 53.01 46.59 51.56 C 52.57 47.75 58.21 49.81 64.69 50.97 C 58.42 55.90 67.65 53.80 70.67 55.64 C 77.59 51.80 71.53 57.70 78.72 56.54 C 85.26 59.12 74.79 65.69 82.89 63.82 C 80.54 53.60 85.28 54.40 93.76 54.22 C 94.57 57.68 94.30 59.86 97.69 61.97 C 97.72 58.56 95.47 56.75 99.84 55.76 C 98.81 52.72 95.60 50.53 92.86 49.16 C 89.15 48.58 83.15 53.07 86.74 46.50 C 77.68 43.51 90.14 45.55 92.44 47.41 C 99.83 48.80 103.32 53.38 104.00 59.85 C 101.79 69.53 97.83 77.71 91.16 85.12 C 83.44 90.38 70.78 86.85 61.75 88.28 C 53.06 87.00 45.09 84.64 38.94 78.00 C 38.61 76.92 38.29 75.83 37.97 74.75 C 36.84 70.24 36.68 65.67 35.66 61.14 C 29.75 62.09 31.56 74.13 29.36 78.86 C 31.44 84.31 34.27 96.26 24.98 95.64 C 25.68 101.24 26.75 110.02 33.02 111.91 C 33.16 116.84 32.34 121.30 33.94 125.96 C 34.43 139.50 44.45 153.05 48.67 164.55 C 52.86 171.56 40.05 172.79 43.67 180.34 C 48.82 186.18 49.99 193.12 53.17 200.00 L 0.00 200.00 L 0.00 164.01 C 3.14 161.17 6.45 160.46 10.21 159.00 C 7.25 155.79 4.08 155.88 0.00 155.79 L 0.00 108.12 C 2.26 104.19 13.81 101.50 8.11 96.68 C 10.99 94.18 15.41 96.01 16.94 92.10 C 13.92 87.87 17.05 83.17 12.23 83.66 C 13.37 82.14 14.68 80.72 15.86 79.22 C 12.51 80.04 8.32 78.65 13.24 75.91 C 14.35 82.20 17.15 71.33 14.12 69.94 C 10.67 64.74 16.11 70.54 17.94 67.06 C 20.48 61.08 21.98 52.67 26.78 47.76 C 37.48 41.87 41.67 39.46 53.16 36.77 Z M 75.94 72.40 C 73.39 74.84 70.38 78.93 71.24 82.65 C 75.45 84.31 83.93 86.06 86.89 81.92 C 84.44 77.53 86.01 67.94 78.97 69.94 C 76.43 70.02 76.69 70.28 75.94 72.40 Z" id="p9" />
<path d="M 169.23 54.73 C 172.78 59.38 161.46 53.85 159.63 54.40 C 151.32 54.18 143.84 52.33 136.05 49.57 C 142.50 45.65 164.14 48.57 169.23 54.73 Z" id="p10" />
<path d="M 121.10 53.98 C 126.29 54.15 121.10 60.11 125.94 63.02 C 127.34 60.68 126.33 58.72 126.14 56.21 C 136.20 60.36 155.45 58.87 157.72 72.17 C 161.65 79.63 154.10 78.44 158.62 85.14 C 151.17 90.02 138.64 87.51 130.02 86.99 C 133.15 89.33 138.59 87.82 142.00 90.97 C 135.62 91.14 128.75 90.39 122.73 88.24 C 118.55 83.56 117.01 75.97 114.88 70.15 C 114.59 68.48 114.29 66.80 114.00 65.13 C 114.44 63.82 111.65 55.34 114.70 57.35 C 117.17 63.03 116.25 69.51 119.90 75.07 C 120.84 69.79 113.84 56.08 121.10 53.98 Z" id="p11" />
<path d="M 114.00 65.13 C 114.29 66.80 114.59 68.48 114.88 70.15 C 112.46 67.34 110.83 57.98 105.77 61.74 C 102.48 70.11 101.70 78.09 94.15 84.17 C 91.31 86.97 90.80 90.69 88.68 93.81 C 81.09 89.49 71.40 91.06 61.75 88.28 C 70.78 86.85 83.44 90.38 91.16 85.12 C 97.83 77.71 101.79 69.53 104.00 59.85 C 110.66 56.09 111.98 59.03 114.00 65.13 Z" id="p12" />
<path d="M 35.66 61.14 C 36.68 65.67 36.84 70.24 37.97 74.75 C 28.85 71.67 32.10 82.33 33.08 87.33 C 33.12 95.34 32.87 103.70 33.02 111.91 C 26.75 110.02 25.68 101.24 24.98 95.64 C 34.27 96.26 31.44 84.31 29.36 78.86 C 31.56 74.13 29.75 62.09 35.66 61.14 Z" id="p13" />
<path d="M 114.88 70.15 C 117.01 75.97 118.55 83.56 122.73 88.24 C 128.75 90.39 135.62 91.14 142.00 90.97 C 142.68 91.39 143.37 91.81 144.06 92.22 C 135.54 96.03 147.70 105.94 148.77 111.17 C 152.19 119.53 152.81 124.79 149.50 133.40 C 149.39 135.53 153.01 138.49 154.03 140.54 L 153.70 141.39 C 152.01 143.78 150.32 146.18 148.68 148.61 C 145.76 152.71 143.11 157.00 140.12 161.06 C 140.18 159.11 141.49 156.58 139.63 155.17 C 138.22 159.38 134.96 158.94 134.55 154.51 C 130.85 155.11 123.82 152.74 126.86 147.87 C 131.89 140.89 127.88 129.43 118.37 131.12 C 109.52 125.91 101.47 132.80 92.02 125.21 C 99.22 126.72 102.79 119.72 107.99 124.73 C 107.81 118.79 110.91 117.25 113.33 112.32 C 117.20 111.74 123.11 112.39 123.97 107.25 C 111.00 108.67 102.54 97.11 91.41 103.47 C 88.27 104.87 85.56 104.86 82.24 104.36 C 83.08 108.16 81.78 111.17 86.86 111.36 C 80.35 114.82 78.16 114.23 72.00 110.98 C 66.32 110.63 76.19 105.59 72.87 104.39 C 66.75 106.74 57.98 109.76 53.98 115.05 C 56.70 118.59 56.41 126.76 60.98 127.58 C 71.51 126.35 80.21 131.43 91.01 129.99 C 100.96 131.11 108.20 132.48 118.37 131.12 C 113.68 132.54 108.97 133.04 104.09 133.17 C 109.31 135.57 111.36 139.96 115.01 144.90 C 111.15 149.40 107.85 155.45 102.14 157.21 C 94.61 159.44 103.91 172.56 107.62 168.56 C 110.68 176.38 115.65 174.80 121.82 179.37 C 126.94 175.47 127.17 174.21 125.59 181.20 C 124.53 182.81 123.35 184.07 121.82 185.24 C 119.98 181.32 119.04 178.25 118.49 185.69 C 113.18 187.49 110.35 187.01 116.08 182.68 C 109.31 183.86 110.73 173.72 103.46 177.33 C 101.48 172.82 96.17 177.64 92.17 172.91 C 88.89 173.53 81.86 169.64 87.52 167.58 C 85.29 165.26 83.51 165.73 85.57 162.29 C 82.16 162.87 82.08 162.36 79.79 159.96 C 78.54 161.75 76.90 169.65 77.04 162.98 C 77.44 156.24 72.84 166.46 69.93 160.74 C 72.30 155.32 60.39 151.89 61.76 144.04 C 60.30 151.00 57.57 140.56 55.57 138.90 C 58.59 128.94 49.00 127.65 46.28 118.84 C 45.96 113.57 45.01 108.43 45.33 103.16 C 40.45 98.85 40.72 110.56 38.93 112.08 C 31.79 104.73 39.23 88.35 37.26 78.84 C 36.80 76.29 37.37 77.62 38.94 78.00 C 45.09 84.64 53.06 87.00 61.75 88.28 C 71.40 91.06 81.09 89.49 88.68 93.81 C 90.80 90.69 91.31 86.97 94.15 84.17 C 101.70 78.09 102.48 70.11 105.77 61.74 C 110.83 57.98 112.46 67.34 114.88 70.15 Z M 120.88 93.21 C 117.82 85.59 116.45 73.79 110.47 68.14 C 107.40 76.56 107.44 85.30 104.94 93.98 C 107.51 101.00 120.30 105.42 127.00 107.60 C 130.08 103.97 122.56 96.57 120.88 93.21 Z" id="p14" />
<path d="M 110.47 68.14 C 116.45 73.79 117.82 85.59 120.88 93.21 C 122.56 96.57 130.08 103.97 127.00 107.60 C 120.30 105.42 107.51 101.00 104.94 93.98 C 107.44 85.30 107.40 76.56 110.47 68.14 Z" id="p15" />
<path d="M 78.97 69.94 C 86.01 67.94 84.44 77.53 86.89 81.92 C 83.93 86.06 75.45 84.31 71.24 82.65 C 70.38 78.93 73.39 74.84 75.94 72.40 C 76.69 70.28 76.43 70.02 78.97 69.94 Z" id="p16" />
<path d="M 37.97 74.75 C 38.29 75.83 38.61 76.92 38.94 78.00 C 37.37 77.62 36.80 76.29 37.26 78.84 C 39.23 88.35 31.79 104.73 38.93 112.08 C 40.72 110.56 40.45 98.85 45.33 103.16 C 45.01 108.43 45.96 113.57 46.28 118.84 C 49.00 127.65 58.59 128.94 55.57 138.90 C 57.57 140.56 60.30 151.00 61.76 144.04 C 60.39 151.89 72.30 155.32 69.93 160.74 C 72.84 166.46 77.44 156.24 77.04 162.98 C 76.90 169.65 78.54 161.75 79.79 159.96 C 82.08 162.36 82.16 162.87 85.57 162.29 C 83.51 165.73 85.29 165.26 87.52 167.58 C 81.86 169.64 88.89 173.53 92.17 172.91 C 96.17 177.64 101.48 172.82 103.46 177.33 C 110.73 173.72 109.31 183.86 116.08 182.68 C 110.35 187.01 113.18 187.49 118.49 185.69 C 119.04 178.25 119.98 181.32 121.82 185.24 C 117.15 189.59 113.40 188.54 107.58 187.66 C 107.93 183.09 104.02 184.06 100.73 182.90 C 95.06 184.94 90.55 179.20 84.24 180.53 C 81.81 178.06 79.60 175.47 75.53 175.35 C 74.47 172.58 73.44 170.20 71.19 168.17 C 68.79 171.85 69.87 181.93 65.24 173.22 C 63.57 180.79 55.11 173.46 55.22 168.85 C 57.35 151.98 37.49 142.61 33.94 125.96 C 32.34 121.30 33.16 116.84 33.02 111.91 C 32.87 103.70 33.12 95.34 33.08 87.33 C 32.10 82.33 28.85 71.67 37.97 74.75 Z" id="p17" />
<path d="M 6.12 79.77 L 6.81 80.01 C 10.12 84.28 12.58 88.73 16.94 92.10 C 15.41 96.01 10.99 94.18 8.11 96.68 C 13.81 101.50 2.26 104.19 0.00 108.12 L 0.00 105.41 C 4.04 103.92 1.38 101.41 4.22 98.75 C -0.09 91.88 2.02 86.13 6.12 79.77 Z" id="p18" />
<path d="M 164.83 86.07 C 167.59 90.45 159.21 101.99 163.79 102.94 L 165.52 103.25 C 167.05 103.61 168.58 103.95 170.12 104.24 C 169.04 104.64 167.94 105.00 166.82 105.31 C 161.80 103.73 162.18 110.42 160.60 113.60 C 159.41 123.12 158.75 131.90 154.03 140.54 C 153.01 138.49 149.39 135.53 149.50 133.40 C 152.81 124.79 152.19 119.53 148.77 111.17 C 147.70 105.94 135.54 96.03 144.06 92.22 C 151.47 91.58 158.14 89.14 164.83 86.07 Z" id="p19" />
<path d="M 123.97 107.25 C 123.11 112.39 117.20 111.74 113.33 112.32 C 110.91 117.25 107.81 118.79 107.99 124.73 C 102.79 119.72 99.22 126.72 92.02 125.21 C 101.47 132.80 109.52 125.91 118.37 131.12 C 108.20 132.48 100.96 131.11 91.01 129.99 C 80.21 131.43 71.51 126.35 60.98 127.58 C 56.41 126.76 56.70 118.59 53.98 115.05 C 57.98 109.76 66.75 106.74 72.87 104.39 C 76.19 105.59 66.32 110.63 72.00 110.98 C 78.16 114.23 80.35 114.82 86.86 111.36 C 81.78 111.17 83.08 108.16 82.24 104.36 C 85.56 104.86 88.27 104.87 91.41 103.47 C 102.54 97.11 111.00 108.67 123.97 107.25 Z" id="p20" />
<path d="M 178.07 106.03 C 185.83 103.68 193.66 110.08 198.46 115.50 C 199.78 120.45 198.66 126.92 198.91 132.16 C 194.64 127.77 192.10 123.03 186.12 120.83 C 181.78 116.55 182.58 117.58 181.46 112.22 C 183.96 112.40 186.43 112.66 188.93 112.70 C 185.12 107.38 172.98 106.93 166.82 105.31 C 167.94 105.00 169.04 104.64 170.12 104.24 C 172.92 101.55 185.19 100.91 178.07 106.03 Z" id="p21" />
<path d="M 166.82 105.31 C 172.98 106.93 185.12 107.38 188.93 112.70 C 186.43 112.66 183.96 112.40 181.46 112.22 C 182.58 117.58 181.78 116.55 186.12 120.83 C 176.85 117.89 188.63 125.64 189.17 128.91 C 194.20 141.81 196.04 159.37 184.90 169.36 C 175.81 166.69 179.54 172.80 180.92 178.04 C 182.14 185.92 176.87 189.57 173.99 195.86 C 181.02 191.83 185.08 197.10 191.17 200.00 L 170.06 200.00 C 166.52 195.40 165.80 190.74 159.21 194.97 C 162.86 190.50 161.01 191.09 157.03 188.39 C 153.95 189.05 148.41 191.28 151.69 185.83 C 146.31 184.02 146.71 180.96 147.14 175.95 C 148.52 178.90 148.77 182.95 152.66 183.54 C 154.95 183.01 152.34 189.41 155.17 187.31 C 156.08 185.02 152.97 172.55 152.70 181.94 C 147.43 172.89 150.52 173.92 157.04 167.92 C 155.09 163.05 150.52 173.56 147.22 170.78 C 145.69 179.24 141.14 173.36 142.82 180.82 C 135.44 181.81 134.70 194.98 127.46 200.00 L 125.69 200.00 C 129.03 195.38 127.94 189.56 131.92 185.64 C 125.18 184.86 128.55 179.40 131.07 175.95 C 134.34 171.10 137.53 166.32 140.12 161.06 C 143.11 157.00 145.76 152.71 148.68 148.61 C 154.22 147.22 150.54 149.18 149.22 151.73 C 154.93 150.15 149.52 154.97 149.12 157.46 C 153.29 157.91 154.85 159.37 158.18 155.81 C 163.38 157.93 170.94 151.45 165.03 146.23 C 162.85 142.61 162.06 146.42 159.85 147.81 C 160.20 141.74 167.41 138.65 170.87 133.90 C 164.53 134.73 159.42 140.73 153.70 141.39 L 154.03 140.54 C 158.75 131.90 159.41 123.12 160.60 113.60 C 162.18 110.42 161.80 103.73 166.82 105.31 Z M 175.60 142.89 C 170.62 148.33 176.62 153.04 174.43 160.16 C 174.96 162.69 176.79 170.43 180.33 166.40 C 187.15 165.39 186.50 155.34 186.15 149.97 C 186.06 140.67 179.75 127.41 170.13 125.04 C 172.58 130.87 173.24 137.03 175.60 142.89 Z M 167.59 160.98 C 161.63 161.78 168.60 164.69 170.66 165.40 C 170.43 168.00 169.50 175.47 166.69 169.34 C 164.41 164.35 162.07 169.63 158.21 167.57 C 157.97 172.26 163.27 188.23 169.33 179.33 C 171.94 175.77 171.53 168.58 171.93 164.16 C 167.18 160.86 173.63 158.15 168.17 157.35 C 165.33 158.83 166.13 158.62 167.59 160.98 Z" id="p22" />
<path d="M 186.12 120.83 C 192.10 123.03 194.64 127.77 198.91 132.16 C 199.12 139.77 198.92 147.38 199.04 155.00 C 200.76 165.23 193.03 170.38 184.23 172.41 C 189.57 176.66 189.32 181.80 192.20 186.79 C 201.03 188.95 198.87 192.42 198.94 200.00 L 191.17 200.00 C 185.08 197.10 181.02 191.83 173.99 195.86 C 176.87 189.57 182.14 185.92 180.92 178.04 C 179.54 172.80 175.81 166.69 184.90 169.36 C 196.04 159.37 194.20 141.81 189.17 128.91 C 188.63 125.64 176.85 117.89 186.12 120.83 Z" id="p23" />
<path d="M 170.13 125.04 C 179.75 127.41 186.06 140.67 186.15 149.97 C 186.50 155.34 187.15 165.39 180.33 166.40 C 176.79 170.43 174.96 162.69 174.43 160.16 C 176.62 153.04 170.62 148.33 175.60 142.89 C 173.24 137.03 172.58 130.87 170.13 125.04 Z" id="p24" />
<path d="M 33.94 125.96 C 37.49 142.61 57.35 151.98 55.22 168.85 C 55.11 173.46 63.57 180.79 65.24 173.22 C 69.87 181.93 68.79 171.85 71.19 168.17 C 73.44 170.20 74.47 172.58 75.53 175.35 C 79.60 175.47 81.81 178.06 84.24 180.53 C 90.55 179.20 95.06 184.94 100.73 182.90 C 104.02 184.06 107.93 183.09 107.58 187.66 C 113.40 188.54 117.15 189.59 121.82 185.24 C 123.35 184.07 124.53 182.81 125.59 181.20 C 127.24 179.21 129.02 177.53 131.07 175.95 C 128.55 179.40 125.18 184.86 131.92 185.64 C 127.94 189.56 129.03 195.38 125.69 200.00 L 53.17 200.00 C 49.99 193.12 48.82 186.18 43.67 180.34 C 40.05 172.79 52.86 171.56 48.67 164.55 C 44.45 153.05 34.43 139.50 33.94 125.96 Z" id="p25" />
<path d="M 118.37 131.12 C 127.88 129.43 131.89 140.89 126.86 147.87 C 123.82 152.74 130.85 155.11 134.55 154.51 C 134.96 158.94 138.22 159.38 139.63 155.17 C 141.49 156.58 140.18 159.11 140.12 161.06 C 137.53 166.32 134.34 171.10 131.07 175.95 C 129.02 177.53 127.24 179.21 125.59 181.20 C 127.17 174.21 126.94 175.47 121.82 179.37 C 115.65 174.80 110.68 176.38 107.62 168.56 C 103.91 172.56 94.61 159.44 102.14 157.21 C 107.85 155.45 111.15 149.40 115.01 144.90 C 111.36 139.96 109.31 135.57 104.09 133.17 C 108.97 133.04 113.68 132.54 118.37 131.12 Z" id="p26" />
<path d="M 170.87 133.90 C 167.41 138.65 160.20 141.74 159.85 147.81 C 162.06 146.42 162.85 142.61 165.03 146.23 C 170.94 151.45 163.38 157.93 158.18 155.81 C 154.85 159.37 153.29 157.91 149.12 157.46 C 149.52 154.97 154.93 150.15 149.22 151.73 C 150.54 149.18 154.22 147.22 148.68 148.61 C 150.32 146.18 152.01 143.78 153.70 141.39 C 159.42 140.73 164.53 134.73 170.87 133.90 Z" id="p27" />
<path d="M 0.00 155.79 C 4.08 155.88 7.25 155.79 10.21 159.00 C 6.45 160.46 3.14 161.17 0.00 164.01 L 0.00 155.79 Z" id="p28" />
<path d="M 168.17 157.35 C 173.63 158.15 167.18 160.86 171.93 164.16 C 171.53 168.58 171.94 175.77 169.33 179.33 C 163.27 188.23 157.97 172.26 158.21 167.57 C 162.07 169.63 164.41 164.35 166.69 169.34 C 169.50 175.47 170.43 168.00 170.66 165.40 C 168.60 164.69 161.63 161.78 167.59 160.98 C 166.13 158.62 165.33 158.83 168.17 157.35 Z" id="p29" />
<path d="M 157.04 167.92 C 150.52 173.92 147.43 172.89 152.70 181.94 C 152.97 172.55 156.08 185.02 155.17 187.31 C 152.34 189.41 154.95 183.01 152.66 183.54 C 148.77 182.95 148.52 178.90 147.14 175.95 C 146.71 180.96 146.31 184.02 151.69 185.83 C 148.41 191.28 153.95 189.05 157.03 188.39 C 161.01 191.09 162.86 190.50 159.21 194.97 C 165.80 190.74 166.52 195.40 170.06 200.00 L 127.46 200.00 C 134.70 194.98 135.44 181.81 142.82 180.82 C 141.14 173.36 145.69 179.24 147.22 170.78 C 150.52 173.56 155.09 163.05 157.04 167.92 Z" id="p30" />
</defs>
<g stroke-width="10pt">
<use stroke="#cdd7e1" xlink:href="#p0" />
<use stroke="#5f7092" xlink:href="#p1" />
<use stroke="#2b375d" xlink:href="#p2" />
<use stroke="#555f7c" xlink:href="#p3" />
<use stroke="#8b91a2" xlink:href="#p4" />
<use stroke="#d6d8da" xlink:href="#p5" />
<use stroke="#8f929b" xlink:href="#p6" />
<use stroke="#333644" xlink:href="#p7" />
<use stroke="#968285" xlink:href="#p8" />
<use stroke="#212024" xlink:href="#p9" />
<use stroke="#74777c" xlink:href="#p10" />
<use stroke="#1b1a1e" xlink:href="#p11" />
<use stroke="#73575c" xlink:href="#p12" />
<use stroke="#5d4f52" xlink:href="#p13" />
<use stroke="#a88786" xlink:href="#p14" />
<use stroke="#eac0bb" xlink:href="#p15" />
<use stroke="#515257" xlink:href="#p16" />
<use stroke="#8b7a78" xlink:href="#p17" />
<use stroke="#959899" xlink:href="#p18" />
<use stroke="#d3b7ac" xlink:href="#p19" />
<use stroke="#8c6868" xlink:href="#p20" />
<use stroke="#9c948f" xlink:href="#p21" />
<use stroke="#483732" xlink:href="#p22" />
<use stroke="#766a65" xlink:href="#p23" />
<use stroke="#837671" xlink:href="#p24" />
<use stroke="#6f615e" xlink:href="#p25" />
<use stroke="#cfb0a5" xlink:href="#p26" />
<use stroke="#715b52" xlink:href="#p27" />
<use stroke="#8f8e8f" xlink:href="#p28" />
<use stroke="#7c716b" xlink:href="#p29" />
<use stroke="#272121" xlink:href="#p30" />
</g>
<g>
<use fill="#cdd7e1" xlink:href="#p0" />
<use fill="#5f7092" xlink:href="#p1" />
<use fill="#2b375d" xlink:href="#p2" />
<use fill="#555f7c" xlink:href="#p3" />
<use fill="#8b91a2" xlink:href="#p4" />
<use fill="#d6d8da" xlink:href="#p5" />
<use fill="#8f929b" xlink:href="#p6" />
<use fill="#333644" xlink:href="#p7" />
<use fill="#968285" xlink:href="#p8" />
<use fill="#212024" xlink:href="#p9" />
<use fill="#74777c" xlink:href="#p10" />
<use fill="#1b1a1e" xlink:href="#p11" />
<use fill="#73575c" xlink:href="#p12" />
<use fill="#5d4f52" xlink:href="#p13" />
<use fill="#a88786" xlink:href="#p14" />
<use fill="#eac0bb" xlink:href="#p15" />
<use fill="#515257" xlink:href="#p16" />
<use fill="#8b7a78" xlink:href="#p17" />
<use fill="#959899" xlink:href="#p18" />
<use fill="#d3b7ac" xlink:href="#p19" />
<use fill="#8c6868" xlink:href="#p20" />
<use fill="#9c948f" xlink:href="#p21" />
<use fill="#483732" xlink:href="#p22" />
<use fill="#766a65" xlink:href="#p23" />
<use fill="#837671" xlink:href="#p24" />
<use fill="#6f615e" xlink:href="#p25" />
<use fill="#cfb0a5" xlink:href="#p26" />
<use fill="#715b52" xlink:href="#p27" />
<use fill="#8f8e8f" xlink:href="#p28" />
<use fill="#7c716b" xlink:href="#p29" />
<use fill="#272121" xlink:href="#p30" />
</g>
</svg>