<?xml version="1.0" encoding="UTF-8" standalone="no"?>
<!DOCTYPE svg PUBLIC "-//W3C//DTD SVG 1.1//EN" "http://www.w3.org/Graphics/SVG/1.1/DTD/svg11.dtd">
<svg xmlns="http://www.w3.org/2000/svg" version="1.1" viewBox="0 0 300 300" xmlns:xlink="http://www.w3.org/1999/xlink">
<defs>
<path d="M 0.00 0.00 L 40.27 0.00 C 27.90 14.06 22.32 30.01 17.78 47.85 C 16.72 55.98 12.97 63.02 10.77 70.87 C 5.97 85.42 3.29 103.53 9.87 117.96 C 10.83 127.44 0.79 129.92 4.71 141.19 C 9.47 148.74 2.66 147.13 5.96 154.90 C 2.54 161.84 1.84 152.79 0.00 159.22 L 0.00 0.00 Z" id="p0" />
<path d="M 40.27 0.00 L 64.24 0.00 C 63.47 2.44 64.13 10.41 60.21 9.94 C 61.09 8.59 59.94 0.55 59.11 5.97 C 60.35 8.48 54.61 15.57 55.69 9.81 C 54.97 3.09 53.70 19.08 51.37 13.81 C 50.23 8.11 48.90 22.71 46.61 15.71 C 44.02 23.20 27.45 28.17 22.52 39.37 C 21.72 43.67 21.02 44.99 17.78 47.85 C 22.32 30.01 27.90 14.06 40.27 0.00 Z" id="p1" />
<path d="M 64.24 0.00 L 177.22 0.00 C 180.51 7.40 176.91 6.13 171.52 4.61 C 172.00 9.63 169.27 11.28 166.82 15.08 C 166.52 15.65 166.22 16.22 165.92 16.79 L 165.09 17.09 C 167.06 7.81 162.38 19.37 157.96 14.03 C 154.50 11.63 161.37 10.04 159.00 7.50 C 158.04 3.54 156.11 10.05 155.19 11.01 C 155.52 8.31 155.91 5.65 155.87 2.93 C 152.36 7.22 155.19 12.44 150.51 16.49 C 147.18 17.75 149.75 6.44 147.33 11.21 C 146.60 16.25 144.18 12.49 140.40 15.92 C 140.27 13.73 138.61 7.27 138.48 13.71 C 134.70 15.34 132.17 14.94 127.98 15.04 C 124.03 10.50 127.24 21.14 124.92 21.81 C 120.60 20.81 126.91 14.22 121.01 15.33 C 115.63 14.55 118.11 16.37 117.50 20.10 C 113.66 16.50 114.22 16.08 108.30 15.95 C 112.47 18.59 104.77 22.67 106.60 16.99 C 103.42 19.59 106.03 19.70 101.62 18.05 C 101.26 21.62 99.64 25.52 98.29 19.35 C 90.04 18.24 96.38 20.90 91.49 22.67 C 90.33 18.45 84.29 21.72 85.76 26.06 C 83.23 21.73 86.01 21.57 79.67 23.29 C 79.32 27.26 78.51 32.56 77.65 24.24 C 72.20 25.53 65.29 27.02 61.29 31.01 C 54.37 30.37 56.89 34.84 55.81 39.64 C 53.39 39.46 57.27 31.16 52.30 33.23 C 50.07 35.03 51.56 40.53 50.16 43.35 C 49.60 40.56 49.95 37.84 49.84 35.02 C 43.85 35.39 48.08 43.08 45.14 45.97 C 44.80 41.29 45.84 31.92 41.91 41.85 C 36.46 39.97 30.70 48.58 25.59 51.57 C 21.87 52.45 23.95 63.06 21.39 56.14 C 18.75 59.45 23.68 65.22 17.15 61.12 C 16.88 67.14 15.66 71.08 21.97 73.74 C 13.05 73.27 18.32 79.31 12.24 78.53 C 11.27 76.07 10.95 73.51 10.77 70.87 C 12.97 63.02 16.72 55.98 17.78 47.85 C 21.02 44.99 21.72 43.67 22.52 39.37 C 27.45 28.17 44.02 23.20 46.61 15.71 C 48.90 22.71 50.23 8.11 51.37 13.81 C 53.70 19.08 54.97 3.09 55.69 9.81 C 54.61 15.57 60.35 8.48 59.11 5.97 C 59.94 0.55 61.09 8.59 60.21 9.94 C 64.13 10.41 63.47 2.44 64.24 0.00 Z" id="p2" />
<path d="M 177.22 0.00 L 205.12 0.00 C 201.45 1.75 202.94 19.18 199.48 9.29 C 197.30 10.96 196.73 16.33 195.10 10.99 C 195.00 13.30 194.96 15.62 195.04 17.93 C 198.98 11.07 194.48 21.62 199.91 15.05 C 200.03 18.10 200.00 21.07 199.42 24.07 C 197.33 22.98 195.92 20.70 194.10 19.17 C 191.05 23.16 191.74 29.75 190.89 34.59 C 193.69 31.64 195.51 38.28 198.49 36.89 C 202.55 35.81 195.08 44.31 199.79 40.77 C 203.52 40.72 202.01 34.19 204.05 38.89 C 205.80 45.70 213.05 35.15 213.85 42.90 C 218.17 43.42 213.71 32.70 216.83 37.15 C 217.33 40.68 221.99 46.73 216.54 48.31 C 211.67 44.07 212.66 57.23 217.35 51.41 C 220.41 45.25 217.54 56.74 222.28 53.28 C 225.30 51.41 224.91 50.08 225.13 54.47 C 223.33 55.61 216.40 57.05 217.71 60.04 C 202.56 53.07 187.52 50.07 171.00 49.00 C 150.18 46.00 132.58 47.05 111.94 51.07 C 113.27 50.19 114.67 49.95 114.98 48.17 C 109.96 49.17 105.62 47.76 101.11 50.70 C 96.15 46.43 100.14 54.20 96.93 49.14 C 96.30 47.88 92.33 51.28 91.12 51.61 C 91.93 47.03 90.80 45.49 86.98 43.05 C 86.76 46.93 90.88 46.86 89.88 50.78 C 85.79 49.82 83.21 51.93 81.15 55.02 C 80.60 52.74 80.14 48.33 77.19 47.99 C 78.09 51.56 79.91 53.01 76.40 55.81 C 77.50 52.71 69.85 46.70 73.70 52.28 C 78.53 56.85 63.26 48.50 68.63 53.42 C 71.25 54.78 68.75 57.71 67.23 57.58 C 63.51 55.30 68.83 48.62 62.10 52.92 C 62.92 49.62 58.79 51.87 62.10 52.92 C 64.16 57.56 60.83 55.90 57.89 55.28 C 53.85 51.93 57.49 62.62 55.34 61.47 C 54.10 54.53 55.24 63.30 51.13 56.00 C 49.44 54.62 45.37 51.32 47.74 49.03 C 50.99 48.23 49.71 46.00 50.16 43.35 C 51.56 40.53 50.07 35.03 52.30 33.23 C 57.27 31.16 53.39 39.46 55.81 39.64 C 56.89 34.84 54.37 30.37 61.29 31.01 C 65.29 27.02 72.20 25.53 77.65 24.24 C 78.51 32.56 79.32 27.26 79.67 23.29 C 86.01 21.57 83.23 21.73 85.76 26.06 C 89.19 28.78 85.80 32.54 85.05 35.78 C 91.94 33.87 92.29 26.28 97.88 35.92 C 87.78 30.74 95.56 40.30 99.92 39.92 C 99.54 34.85 94.04 25.81 104.37 30.30 C 108.99 30.39 103.30 17.73 109.05 21.93 C 113.15 23.59 102.69 30.92 109.13 30.50 C 112.86 32.37 116.37 22.73 115.33 29.96 C 118.86 28.28 116.87 24.13 120.89 28.92 C 120.29 25.93 118.74 23.56 120.29 20.62 C 120.75 21.40 124.76 32.17 119.03 32.00 C 115.25 29.44 112.96 33.74 108.61 32.11 C 110.30 36.54 106.37 41.03 114.21 40.52 C 116.61 40.07 119.01 39.76 121.42 39.37 C 123.17 36.80 119.34 31.51 124.03 32.08 C 128.28 31.04 122.53 34.95 124.34 37.07 C 121.60 44.79 133.92 31.99 131.21 39.53 C 138.18 37.00 145.87 40.85 152.06 37.22 C 154.31 41.20 154.05 40.66 158.47 40.00 C 155.99 38.57 161.82 32.38 160.62 36.80 C 157.35 42.51 176.01 43.88 173.06 35.98 C 173.50 30.51 170.90 36.91 168.35 32.24 C 167.47 34.41 167.20 41.37 165.22 35.28 C 159.97 38.64 161.49 30.23 155.30 31.92 C 153.94 36.05 151.45 35.60 147.89 36.51 C 147.79 33.23 151.35 32.55 153.41 30.68 C 152.08 26.73 152.13 25.85 154.30 22.19 C 156.30 23.11 156.24 27.01 157.24 28.88 C 162.50 26.05 160.56 20.76 165.09 17.09 L 165.92 16.79 C 165.24 19.29 164.09 21.60 163.25 24.05 C 163.49 28.09 168.10 25.78 168.81 29.74 C 170.54 33.38 170.34 27.16 173.39 28.64 C 177.66 29.90 173.39 25.32 176.73 23.86 C 180.21 20.16 175.18 33.59 178.54 28.55 C 179.65 24.56 182.76 35.78 182.51 30.41 C 180.36 26.55 189.77 13.76 181.26 20.87 C 183.00 12.85 176.67 25.67 177.59 18.75 C 175.45 18.50 172.98 16.16 172.65 19.57 C 170.61 17.74 168.08 17.53 166.82 15.08 C 169.27 11.28 172.00 9.63 171.52 4.61 C 176.91 6.13 180.51 7.40 177.22 0.00 Z M 59.10 49.27 C 57.63 52.54 62.54 49.57 59.10 49.27 Z" id="p3" />
<path d="M 205.12 0.00 L 233.93 0.00 C 233.71 10.62 239.08 4.09 243.34 12.26 C 243.17 25.48 250.30 34.47 245.46 47.86 C 249.24 53.23 248.21 45.24 250.79 43.98 C 250.75 47.49 250.00 50.22 252.81 52.95 C 253.87 50.37 253.98 47.72 254.34 44.99 C 259.05 46.72 249.78 58.72 256.64 56.74 C 259.70 48.34 259.89 44.03 256.31 35.79 C 263.57 40.50 258.65 54.28 258.01 60.93 C 263.58 59.55 261.15 53.00 264.63 50.81 C 265.48 55.59 257.44 64.05 266.25 62.69 C 267.08 67.44 270.14 69.37 269.69 63.18 C 272.94 50.82 270.89 67.47 271.15 69.95 C 275.22 70.43 272.86 62.56 274.93 62.27 C 276.78 69.24 272.34 71.26 272.10 76.89 C 275.65 77.53 276.52 70.27 277.79 67.96 C 277.28 74.43 279.05 77.58 282.46 82.55 C 283.66 97.31 281.14 95.59 279.40 110.20 C 273.81 109.40 276.35 116.78 276.01 119.92 C 268.81 130.17 261.42 145.12 250.79 152.24 C 251.55 148.31 258.01 144.63 259.21 139.40 C 266.60 132.21 264.54 126.62 270.84 117.92 C 275.20 106.29 274.80 105.01 276.98 92.97 C 274.83 88.69 275.60 81.93 269.15 82.79 C 279.33 76.13 259.80 83.47 268.79 76.05 C 259.17 78.56 267.77 72.24 260.07 73.72 C 259.52 72.44 265.91 64.32 261.26 68.20 C 257.90 74.19 251.13 67.50 248.79 64.05 C 251.18 60.29 242.76 58.29 243.76 61.63 C 239.14 55.38 236.35 65.10 235.89 53.38 C 231.40 58.85 229.32 51.01 228.54 57.53 C 227.47 58.74 227.01 54.54 225.13 54.47 C 224.91 50.08 225.30 51.41 222.28 53.28 C 217.54 56.74 220.41 45.25 217.35 51.41 C 212.66 57.23 211.67 44.07 216.54 48.31 C 221.99 46.73 217.33 40.68 216.83 37.15 C 213.71 32.70 218.17 43.42 213.85 42.90 C 213.05 35.15 205.80 45.70 204.05 38.89 C 202.01 34.19 203.52 40.72 199.79 40.77 C 195.08 44.31 202.55 35.81 198.49 36.89 C 195.51 38.28 193.69 31.64 190.89 34.59 C 191.74 29.75 191.05 23.16 194.10 19.17 C 195.92 20.70 197.33 22.98 199.42 24.07 C 200.00 21.07 200.03 18.10 199.91 15.05 C 194.48 21.62 198.98 11.07 195.04 17.93 C 194.96 15.62 195.00 13.30 195.10 10.99 C 196.73 16.33 197.30 10.96 199.48 9.29 C 202.94 19.18 201.45 1.75 205.12 0.00 Z" id="p4" />
<path d="M 233.93 0.00 L 257.62 0.00 C 264.61 5.73 264.78 13.48 269.61 20.43 C 274.54 32.36 272.17 46.45 275.97 58.12 C 288.50 78.22 288.36 99.84 276.01 119.92 C 276.35 116.78 273.81 109.40 279.40 110.20 C 281.14 95.59 283.66 97.31 282.46 82.55 C 279.05 77.58 277.28 74.43 277.79 67.96 C 276.52 70.27 275.65 77.53 272.10 76.89 C 272.34 71.26 276.78 69.24 274.93 62.27 C 272.86 62.56 275.22 70.43 271.15 69.95 C 270.89 67.47 272.94 50.82 269.69 63.18 C 269.28 61.04 266.45 55.54 269.40 54.37 C 270.92 56.25 272.39 58.14 274.08 59.87 C 272.98 49.81 264.92 39.49 260.75 30.22 C 257.22 21.94 244.87 17.16 245.76 8.05 C 245.09 9.60 244.66 11.11 243.34 12.26 C 239.08 4.09 233.71 10.62 233.93 0.00 Z" id="p5" />
<path d="M 257.62 0.00 L 300.00 0.00 L 300.00 174.41 C 290.71 165.24 281.90 157.84 267.98 158.87 C 262.55 159.88 273.00 156.11 266.97 156.01 C 262.81 156.11 268.14 154.14 268.95 153.03 C 263.27 153.36 258.73 156.70 253.10 157.15 C 251.55 155.74 250.19 155.18 250.41 152.82 L 250.79 152.24 C 261.42 145.12 268.81 130.17 276.01 119.92 C 288.36 99.84 288.50 78.22 275.97 58.12 C 272.17 46.45 274.54 32.36 269.61 20.43 C 264.78 13.48 264.61 5.73 257.62 0.00 Z" id="p6" />
<path d="M 155.87 2.93 C 155.91 5.65 155.52 8.31 155.19 11.01 C 156.11 10.05 158.04 3.54 159.00 7.50 C 161.37 10.04 154.50 11.63 157.96 14.03 C 162.38 19.37 167.06 7.81 165.09 17.09 C 160.56 20.76 162.50 26.05 157.24 28.88 C 156.24 27.01 156.30 23.11 154.30 22.19 C 152.13 25.85 152.08 26.73 153.41 30.68 C 151.35 32.55 147.79 33.23 147.89 36.51 C 151.45 35.60 153.94 36.05 155.30 31.92 C 161.49 30.23 159.97 38.64 165.22 35.28 C 167.20 41.37 167.47 34.41 168.35 32.24 C 170.90 36.91 173.50 30.51 173.06 35.98 C 176.01 43.88 157.35 42.51 160.62 36.80 C 161.82 32.38 155.99 38.57 158.47 40.00 C 154.05 40.66 154.31 41.20 152.06 37.22 C 145.87 40.85 138.18 37.00 131.21 39.53 C 133.92 31.99 121.60 44.79 124.34 37.07 C 122.53 34.95 128.28 31.04 124.03 32.08 C 119.34 31.51 123.17 36.80 121.42 39.37 C 119.01 39.76 116.61 40.07 114.21 40.52 C 106.37 41.03 110.30 36.54 108.61 32.11 C 112.96 33.74 115.25 29.44 119.03 32.00 C 124.76 32.17 120.75 21.40 120.29 20.62 C 118.74 23.56 120.29 25.93 120.89 28.92 C 116.87 24.13 118.86 28.28 115.33 29.96 C 116.37 22.73 112.86 32.37 109.13 30.50 C 102.69 30.92 113.15 23.59 109.05 21.93 C 103.30 17.73 108.99 30.39 104.37 30.30 C 94.04 25.81 99.54 34.85 99.92 39.92 C 95.56 40.30 87.78 30.74 97.88 35.92 C 92.29 26.28 91.94 33.87 85.05 35.78 C 85.80 32.54 89.19 28.78 85.76 26.06 C 84.29 21.72 90.33 18.45 91.49 22.67 C 96.38 20.90 90.04 18.24 98.29 19.35 C 99.64 25.52 101.26 21.62 101.62 18.05 C 106.03 19.70 103.42 19.59 106.60 16.99 C 104.77 22.67 112.47 18.59 108.30 15.95 C 114.22 16.08 113.66 16.50 117.50 20.10 C 118.11 16.37 115.63 14.55 121.01 15.33 C 126.91 14.22 120.60 20.81 124.92 21.81 C 127.24 21.14 124.03 10.50 127.98 15.04 C 132.17 14.94 134.70 15.34 138.48 13.71 C 138.61 7.27 140.27 13.73 140.40 15.92 C 144.18 12.49 146.60 16.25 147.33 11.21 C 149.75 6.44 147.18 17.75 150.51 16.49 C 155.19 12.44 152.36 7.22 155.87 2.93 Z" id="p7" />
<path d="M 245.76 8.05 C 244.87 17.16 257.22 21.94 260.75 30.22 C 264.92 39.49 272.98 49.81 274.08 59.87 C 272.39 58.14 270.92 56.25 269.40 54.37 C 266.45 55.54 269.28 61.04 269.69 63.18 C 270.14 69.37 267.08 67.44 266.25 62.69 C 257.44 64.05 265.48 55.59 264.63 50.81 C 261.15 53.00 263.58 59.55 258.01 60.93 C 258.65 54.28 263.57 40.50 256.31 35.79 C 259.89 44.03 259.70 48.34 256.64 56.74 C 249.78 58.72 259.05 46.72 254.34 44.99 C 253.98 47.72 253.87 50.37 252.81 52.95 C 250.00 50.22 250.75 47.49 250.79 43.98 C 248.21 45.24 249.24 53.23 245.46 47.86 C 250.30 34.47 243.17 25.48 243.34 12.26 C 244.66 11.11 245.09 9.60 245.76 8.05 Z" id="p8" />
<path d="M 166.82 15.08 C 168.08 17.53 170.61 17.74 172.65 19.57 C 172.98 16.16 175.45 18.50 177.59 18.75 C 176.67 25.67 183.00 12.85 181.26 20.87 C 189.77 13.76 180.36 26.55 182.51 30.41 C 182.76 35.78 179.65 24.56 178.54 28.55 C 175.18 33.59 180.21 20.16 176.73 23.86 C 173.39 25.32 177.66 29.90 173.39 28.64 C 170.34 27.16 170.54 33.38 168.81 29.74 C 168.10 25.78 163.49 28.09 163.25 24.05 C 164.09 21.60 165.24 19.29 165.92 16.79 C 166.22 16.22 166.52 15.65 166.82 15.08 Z" id="p9" />
<path d="M 49.84 35.02 C 49.95 37.84 49.60 40.56 50.16 43.35 C 49.71 46.00 50.99 48.23 47.74 49.03 C 45.37 51.32 49.44 54.62 51.13 56.00 C 52.07 60.18 52.44 61.06 47.91 58.98 C 46.91 55.25 43.28 54.87 45.80 50.86 C 47.41 45.51 41.07 56.34 42.05 51.02 C 41.20 43.51 40.83 53.08 40.82 54.92 C 34.79 53.30 38.56 46.63 36.10 44.23 C 35.88 47.77 36.12 51.35 35.87 54.90 C 32.19 53.87 33.65 51.77 32.32 48.99 C 31.26 51.26 33.29 57.06 29.31 54.78 C 28.20 57.34 26.10 58.82 27.42 61.67 C 20.44 59.88 25.26 72.56 28.00 65.95 C 27.33 60.32 35.49 76.52 28.82 71.14 C 23.04 68.12 33.53 77.83 27.46 75.70 C 22.20 77.70 25.71 81.58 27.99 84.71 C 18.10 83.22 25.38 86.01 21.15 91.18 C 19.12 88.35 16.46 85.93 17.05 82.15 C 20.01 85.97 26.20 77.65 20.43 78.13 C 14.39 75.40 16.66 90.61 12.17 81.06 C 11.33 86.92 12.97 94.55 8.54 99.53 C 6.80 105.16 11.63 112.91 10.86 117.94 L 9.87 117.96 C 3.29 103.53 5.97 85.42 10.77 70.87 C 10.95 73.51 11.27 76.07 12.24 78.53 C 18.32 79.31 13.05 73.27 21.97 73.74 C 15.66 71.08 16.88 67.14 17.15 61.12 C 23.68 65.22 18.75 59.45 21.39 56.14 C 23.95 63.06 21.87 52.45 25.59 51.57 C 30.70 48.58 36.46 39.97 41.91 41.85 C 45.84 31.92 44.80 41.29 45.14 45.97 C 48.08 43.08 43.85 35.39 49.84 35.02 Z" id="p10" />
<path d="M 86.98 43.05 C 90.80 45.49 91.93 47.03 91.12 51.61 C 92.33 51.28 96.30 47.88 96.93 49.14 C 100.14 54.20 96.15 46.43 101.11 50.70 C 105.62 47.76 109.96 49.17 114.98 48.17 C 114.67 49.95 113.27 50.19 111.94 51.07 C 102.58 52.97 88.89 54.84 82.00 61.81 C 93.30 61.65 103.69 60.97 115.07 62.75 C 129.86 64.66 145.24 70.32 160.19 69.89 C 180.92 74.23 197.85 65.92 219.10 68.07 C 217.59 69.20 212.30 68.45 212.23 69.93 C 225.75 70.09 240.85 71.16 253.37 76.62 C 262.08 80.29 258.57 94.74 258.02 101.99 C 258.28 108.11 259.92 97.03 259.89 95.98 C 262.61 87.28 263.40 78.84 254.37 73.63 C 241.14 69.75 229.77 67.49 217.71 60.04 C 216.40 57.05 223.33 55.61 225.13 54.47 C 227.01 54.54 227.47 58.74 228.54 57.53 C 229.32 51.01 231.40 58.85 235.89 53.38 C 236.35 65.10 239.14 55.38 243.76 61.63 C 242.76 58.29 251.18 60.29 248.79 64.05 C 251.13 67.50 257.90 74.19 261.26 68.20 C 265.91 64.32 259.52 72.44 260.07 73.72 C 267.77 72.24 259.17 78.56 268.79 76.05 C 259.80 83.47 279.33 76.13 269.15 82.79 C 275.60 81.93 274.83 88.69 276.98 92.97 C 274.80 105.01 275.20 106.29 270.84 117.92 C 264.54 126.62 266.60 132.21 259.21 139.40 C 258.04 135.91 258.12 135.80 260.52 133.08 C 257.10 130.00 255.81 120.49 253.47 129.97 C 253.23 124.98 250.70 125.58 248.13 128.61 C 245.55 130.28 242.82 131.62 240.11 133.03 C 236.43 133.95 232.82 135.11 229.18 136.20 C 213.50 136.63 198.80 136.30 184.19 129.78 C 181.06 126.99 180.80 122.19 177.97 118.94 C 176.84 116.05 175.81 113.13 174.90 110.16 C 174.62 107.62 174.09 105.37 172.96 103.06 C 171.41 97.12 172.39 86.80 164.00 86.26 C 153.22 87.34 156.81 102.22 151.08 108.12 C 151.66 106.01 152.21 103.92 152.61 101.76 C 150.15 103.60 149.45 106.16 148.41 108.90 C 145.57 104.92 150.83 101.14 151.06 97.03 C 151.60 90.95 155.42 83.27 152.24 77.74 C 146.50 72.73 137.66 70.56 130.37 68.89 C 132.93 71.77 130.56 72.33 129.18 74.95 C 137.07 75.86 139.19 69.89 146.85 76.13 C 150.93 78.85 153.49 82.62 151.02 87.53 C 143.98 83.42 149.42 91.39 149.88 94.03 C 149.84 97.38 136.50 83.22 144.07 86.50 C 143.31 78.94 131.21 83.00 126.69 83.73 C 121.57 90.39 129.46 91.54 134.39 92.63 C 134.97 96.04 133.04 96.76 131.37 93.72 C 128.94 92.17 121.31 98.41 120.39 95.23 C 126.76 89.72 122.35 85.31 115.39 85.56 C 107.06 81.57 104.06 87.83 95.86 82.12 C 90.12 79.35 91.73 79.20 96.03 76.32 C 91.22 76.04 86.64 75.00 81.93 74.09 C 77.57 73.13 73.49 78.78 69.05 78.01 C 65.56 77.00 59.37 75.57 64.23 71.23 C 73.46 66.07 86.54 65.26 97.00 64.93 C 101.45 64.42 110.76 67.66 113.78 65.23 C 97.93 63.45 79.40 62.36 64.30 68.27 C 57.92 70.20 59.93 75.21 56.13 79.02 C 56.26 76.02 56.94 73.14 56.94 70.13 C 52.46 71.05 48.91 71.55 46.78 76.09 C 42.74 70.06 53.44 70.28 56.60 66.57 C 67.94 63.26 78.17 62.80 87.23 54.37 C 86.09 54.27 81.00 56.77 81.15 55.02 C 83.21 51.93 85.79 49.82 89.88 50.78 C 90.88 46.86 86.76 46.93 86.98 43.05 Z M 238.02 80.55 C 243.63 82.03 249.36 83.64 255.05 84.87 C 258.94 85.92 255.63 81.56 254.49 80.53 C 240.55 70.89 220.16 70.58 204.06 73.33 C 213.39 77.95 227.46 82.03 238.02 80.55 Z M 221.24 132.29 C 219.80 132.99 214.21 132.48 214.26 133.91 C 225.07 134.37 240.97 133.12 249.01 125.04 C 246.57 125.68 244.37 126.79 242.10 127.85 C 231.49 124.11 237.90 120.84 237.50 113.30 C 235.10 109.00 234.18 106.36 233.52 101.45 C 229.83 98.58 226.04 96.91 222.74 93.27 C 211.13 92.22 204.47 87.26 192.30 87.86 C 185.52 85.71 199.33 103.26 190.69 96.32 C 190.49 93.67 181.42 85.33 187.99 87.42 C 187.38 82.13 182.95 80.53 179.31 84.30 C 174.84 89.07 183.93 94.26 180.12 100.07 C 182.09 109.01 183.15 124.22 193.02 127.96 C 202.29 132.12 211.34 132.02 221.24 132.29 Z" id="p11" />
<path d="M 36.10 44.23 C 38.56 46.63 34.79 53.30 40.82 54.92 C 40.83 53.08 41.20 43.51 42.05 51.02 C 41.07 56.34 47.41 45.51 45.80 50.86 C 43.28 54.87 46.91 55.25 47.91 58.98 C 44.99 58.86 47.37 60.74 47.72 62.20 C 48.55 66.26 55.97 60.20 54.93 65.25 C 44.42 67.95 35.67 74.25 33.32 85.37 C 33.76 91.89 26.02 93.40 30.05 100.46 C 27.42 100.65 25.63 98.77 25.10 102.31 C 23.17 102.14 22.33 98.74 19.50 98.74 C 20.45 101.76 21.54 104.67 16.98 104.46 C 19.16 105.63 21.44 105.61 23.79 106.16 C 23.90 108.61 19.08 106.65 17.60 106.96 C 19.02 111.04 15.88 112.78 20.59 115.65 C 14.20 116.97 18.41 121.91 22.85 121.22 C 13.40 126.60 31.59 136.17 26.26 140.91 C 22.51 132.83 14.16 126.84 10.86 117.94 C 11.63 112.91 6.80 105.16 8.54 99.53 C 12.97 94.55 11.33 86.92 12.17 81.06 C 16.66 90.61 14.39 75.40 20.43 78.13 C 26.20 77.65 20.01 85.97 17.05 82.15 C 16.46 85.93 19.12 88.35 21.15 91.18 C 25.38 86.01 18.10 83.22 27.99 84.71 C 25.71 81.58 22.20 77.70 27.46 75.70 C 33.53 77.83 23.04 68.12 28.82 71.14 C 35.49 76.52 27.33 60.32 28.00 65.95 C 25.26 72.56 20.44 59.88 27.42 61.67 C 26.10 58.82 28.20 57.34 29.31 54.78 C 33.29 57.06 31.26 51.26 32.32 48.99 C 33.65 51.77 32.19 53.87 35.87 54.90 C 36.12 51.35 35.88 47.77 36.10 44.23 Z" id="p12" />
<path d="M 171.00 49.00 C 187.52 50.07 202.56 53.07 217.71 60.04 C 229.77 67.49 241.14 69.75 254.37 73.63 C 263.40 78.84 262.61 87.28 259.89 95.98 C 259.92 97.03 258.28 108.11 258.02 101.99 C 258.57 94.74 262.08 80.29 253.37 76.62 C 240.85 71.16 225.75 70.09 212.23 69.93 C 212.30 68.45 217.59 69.20 219.10 68.07 C 220.23 67.50 227.67 67.86 223.60 65.47 C 204.10 58.02 185.97 52.40 164.81 51.35 C 152.29 48.12 140.99 49.87 128.51 51.01 C 121.87 52.06 116.19 52.86 111.15 57.77 C 117.46 59.60 122.83 62.71 128.99 63.16 C 139.91 67.60 149.86 63.40 160.19 69.89 C 145.24 70.32 129.86 64.66 115.07 62.75 C 103.69 60.97 93.30 61.65 82.00 61.81 C 88.89 54.84 102.58 52.97 111.94 51.07 C 132.58 47.05 150.18 46.00 171.00 49.00 Z" id="p13" />
<path d="M 77.19 47.99 C 80.14 48.33 80.60 52.74 81.15 55.02 C 81.00 56.77 86.09 54.27 87.23 54.37 C 78.17 62.80 67.94 63.26 56.60 66.57 C 53.44 70.28 42.74 70.06 46.78 76.09 C 48.91 71.55 52.46 71.05 56.94 70.13 C 56.94 73.14 56.26 76.02 56.13 79.02 C 59.93 75.21 57.92 70.20 64.30 68.27 C 79.40 62.36 97.93 63.45 113.78 65.23 C 110.76 67.66 101.45 64.42 97.00 64.93 C 86.54 65.26 73.46 66.07 64.23 71.23 C 59.37 75.57 65.56 77.00 69.05 78.01 C 73.49 78.78 77.57 73.13 81.93 74.09 C 86.64 75.00 91.22 76.04 96.03 76.32 C 91.73 79.20 90.12 79.35 95.86 82.12 C 104.06 87.83 107.06 81.57 115.39 85.56 C 122.35 85.31 126.76 89.72 120.39 95.23 C 121.31 98.41 128.94 92.17 131.37 93.72 C 133.04 96.76 134.97 96.04 134.39 92.63 C 129.46 91.54 121.57 90.39 126.69 83.73 C 131.21 83.00 143.31 78.94 144.07 86.50 C 136.50 83.22 149.84 97.38 149.88 94.03 C 149.42 91.39 143.98 83.42 151.02 87.53 C 153.49 82.62 150.93 78.85 146.85 76.13 C 139.19 69.89 137.07 75.86 129.18 74.95 C 130.56 72.33 132.93 71.77 130.37 68.89 C 137.66 70.56 146.50 72.73 152.24 77.74 C 155.42 83.27 151.60 90.95 151.06 97.03 C 150.83 101.14 145.57 104.92 148.41 108.90 C 149.45 106.16 150.15 103.60 152.61 101.76 C 152.21 103.92 151.66 106.01 151.08 108.12 C 146.85 115.29 142.85 126.06 134.34 129.32 C 120.66 133.55 108.63 131.31 94.77 132.24 C 82.64 129.85 60.89 125.37 57.82 110.92 C 57.07 106.44 56.16 102.21 55.92 97.77 C 56.01 94.11 55.10 85.49 51.11 93.10 C 48.69 103.36 42.91 118.09 44.81 128.02 C 51.87 125.14 46.34 148.97 43.69 136.23 C 41.57 136.85 39.86 140.61 39.78 136.29 C 32.64 142.40 41.11 148.35 41.36 156.25 C 40.65 158.77 45.12 163.03 40.38 161.41 C 36.53 149.36 34.46 141.61 31.16 130.13 C 32.06 140.26 22.72 153.27 33.10 160.94 C 35.13 162.67 42.56 170.58 41.43 162.97 C 45.61 170.36 41.80 162.73 47.06 165.27 C 51.57 164.95 49.38 172.27 50.66 175.23 C 50.81 176.99 50.96 178.75 51.14 180.51 C 51.71 186.01 44.95 189.15 51.59 192.46 C 54.05 207.29 59.64 222.36 67.37 235.22 C 60.76 241.53 76.52 246.29 72.82 253.96 C 71.13 252.18 69.97 249.98 68.35 248.12 C 68.13 257.82 59.46 257.76 61.62 267.77 C 61.94 273.35 65.20 272.70 68.25 276.01 C 66.81 279.35 69.67 282.43 72.05 284.46 C 75.95 281.66 72.52 286.87 74.31 288.61 C 76.55 292.43 79.10 296.03 81.10 300.00 L 0.00 300.00 L 0.00 260.90 C 6.16 258.54 12.16 257.14 16.92 252.24 C 17.18 254.64 17.23 257.05 17.32 259.46 C 20.05 258.36 20.70 258.27 23.47 259.35 C 29.39 259.23 30.02 244.40 36.55 249.83 C 39.60 250.31 47.09 256.05 45.10 249.99 C 46.62 247.28 35.17 242.66 33.27 240.69 C 34.16 234.67 28.60 227.43 38.06 228.70 C 35.22 227.19 31.79 227.67 29.01 226.29 C 29.94 225.83 34.14 226.46 33.80 225.03 C 28.67 224.51 24.08 226.55 18.94 225.28 C 8.80 224.69 21.47 224.29 9.96 220.31 C 14.36 219.07 18.11 219.95 22.37 221.15 C 19.74 229.24 29.82 220.84 30.79 218.40 C 23.72 217.64 37.20 214.80 27.05 215.79 C 32.43 206.72 33.29 219.10 39.32 220.69 C 45.77 225.52 48.13 225.12 45.19 234.05 C 49.38 228.66 45.43 226.46 54.16 227.45 C 48.33 218.78 38.88 215.35 34.93 206.09 C 30.95 200.02 19.88 200.34 22.49 191.68 C 20.35 191.69 16.41 195.46 18.74 198.03 C 15.98 197.13 10.02 190.02 9.97 187.09 C 16.50 194.75 14.53 177.57 13.32 176.64 C 6.70 180.32 9.18 174.82 7.61 170.93 C 4.23 170.05 6.40 162.56 9.78 165.36 C 10.23 161.92 15.08 154.49 19.18 156.66 C 23.69 156.67 18.26 152.35 16.06 152.26 C 17.23 147.67 19.14 147.64 13.17 146.63 C 16.74 138.72 20.65 145.32 26.26 140.91 C 31.59 136.17 13.40 126.60 22.85 121.22 C 18.41 121.91 14.20 116.97 20.59 115.65 C 15.88 112.78 19.02 111.04 17.60 106.96 C 19.08 106.65 23.90 108.61 23.79 106.16 C 21.44 105.61 19.16 105.63 16.98 104.46 C 21.54 104.67 20.45 101.76 19.50 98.74 C 22.33 98.74 23.17 102.14 25.10 102.31 C 25.63 98.77 27.42 100.65 30.05 100.46 C 26.02 93.40 33.76 91.89 33.32 85.37 C 35.67 74.25 44.42 67.95 54.93 65.25 C 55.97 60.20 48.55 66.26 47.72 62.20 C 47.37 60.74 44.99 58.86 47.91 58.98 C 52.44 61.06 52.07 60.18 51.13 56.00 C 55.24 63.30 54.10 54.53 55.34 61.47 C 57.49 62.62 53.85 51.93 57.89 55.28 C 60.83 55.90 64.16 57.56 62.10 52.92 C 68.83 48.62 63.51 55.30 67.23 57.58 C 68.75 57.71 71.25 54.78 68.63 53.42 C 63.26 48.50 78.53 56.85 73.70 52.28 C 69.85 46.70 77.50 52.71 76.40 55.81 C 79.91 53.01 78.09 51.56 77.19 47.99 Z M 129.16 113.83 C 128.29 110.79 128.15 107.62 127.39 104.56 C 124.30 103.58 117.80 104.81 114.79 105.82 C 112.66 110.24 106.55 118.57 108.75 123.27 C 113.80 129.31 126.22 126.39 132.82 124.66 C 132.22 120.95 130.11 117.51 129.16 113.83 Z" id="p14" />
<path d="M 59.10 49.27 C 57.63 52.54 62.54 49.57 59.10 49.27 Z" id="p15" />
<path d="M 164.81 51.35 C 185.97 52.40 204.10 58.02 223.60 65.47 C 227.67 67.86 220.23 67.50 219.10 68.07 C 197.85 65.92 180.92 74.23 160.19 69.89 C 149.86 63.40 139.91 67.60 128.99 63.16 C 122.83 62.71 117.46 59.60 111.15 57.77 C 116.19 52.86 121.87 52.06 128.51 51.01 C 140.99 49.87 152.29 48.12 164.81 51.35 Z" id="p16" />
<path d="M 62.10 52.92 C 62.92 49.62 58.79 51.87 62.10 52.92 Z" id="p17" />
<path d="M 254.49 80.53 C 255.63 81.56 258.94 85.92 255.05 84.87 C 249.36 83.64 243.63 82.03 238.02 80.55 C 227.46 82.03 213.39 77.95 204.06 73.33 C 220.16 70.58 240.55 70.89 254.49 80.53 Z" id="p18" />
<path d="M 187.99 87.42 C 181.42 85.33 190.49 93.67 190.69 96.32 C 199.33 103.26 185.52 85.71 192.30 87.86 C 204.47 87.26 211.13 92.22 222.74 93.27 C 226.04 96.91 229.83 98.58 233.52 101.45 C 234.18 106.36 235.10 109.00 237.50 113.30 C 237.90 120.84 231.49 124.11 242.10 127.85 C 235.52 131.04 228.48 132.06 221.24 132.29 C 211.34 132.02 202.29 132.12 193.02 127.96 C 183.15 124.22 182.09 109.01 180.12 100.07 C 183.93 94.26 174.84 89.07 179.31 84.30 C 182.95 80.53 187.38 82.13 187.99 87.42 Z" id="p19" />
<path d="M 164.00 86.26 C 172.39 86.80 171.41 97.12 172.96 103.06 C 169.52 98.40 168.07 86.17 159.74 91.70 C 156.30 105.25 151.90 116.70 141.55 126.47 C 136.12 138.61 125.21 136.61 114.23 135.56 C 107.78 134.09 101.26 133.40 94.77 132.24 C 108.63 131.31 120.66 133.55 134.34 129.32 C 142.85 126.06 146.85 115.29 151.08 108.12 C 156.81 102.22 153.22 87.34 164.00 86.26 Z" id="p20" />
<path d="M 55.92 97.77 C 53.53 98.32 51.56 99.00 50.43 101.35 C 48.53 112.31 47.21 122.31 50.95 133.06 C 48.73 146.91 52.24 161.55 50.66 175.23 C 49.38 172.27 51.57 164.95 47.06 165.27 C 41.80 162.73 45.61 170.36 41.43 162.97 C 42.56 170.58 35.13 162.67 33.10 160.94 C 22.72 153.27 32.06 140.26 31.16 130.13 C 34.46 141.61 36.53 149.36 40.38 161.41 C 45.12 163.03 40.65 158.77 41.36 156.25 C 41.11 148.35 32.64 142.40 39.78 136.29 C 39.86 140.61 41.57 136.85 43.69 136.23 C 46.34 148.97 51.87 125.14 44.81 128.02 C 42.91 118.09 48.69 103.36 51.11 93.10 C 55.10 85.49 56.01 94.11 55.92 97.77 Z" id="p21" />
<path d="M 172.96 103.06 C 174.09 105.37 174.62 107.62 174.90 110.16 C 171.64 106.44 168.75 91.66 161.98 96.97 C 154.24 105.97 162.67 107.95 158.67 117.62 C 155.75 129.66 155.76 142.41 142.28 147.29 C 146.41 150.24 172.09 153.61 175.23 160.70 C 167.10 155.90 159.98 155.51 151.22 152.71 C 142.59 153.52 134.91 157.22 126.20 158.30 C 126.57 168.45 129.69 162.59 132.84 167.57 C 128.60 166.52 124.87 172.39 123.12 171.90 C 117.13 166.55 118.03 177.76 115.20 170.16 C 109.15 171.12 116.50 172.81 111.45 173.44 C 108.12 174.99 113.52 166.64 109.24 167.34 C 99.25 166.23 116.17 158.74 110.98 155.23 C 102.85 161.74 89.89 163.77 83.16 171.24 C 77.84 175.79 88.90 176.06 86.63 181.62 C 85.68 191.08 98.76 192.71 105.41 190.79 C 121.22 195.63 137.50 193.21 153.23 196.99 C 152.20 197.88 151.72 201.22 150.76 198.34 C 142.36 193.27 140.39 199.31 131.83 197.26 C 127.32 196.00 125.46 198.98 122.99 202.07 C 125.22 204.10 126.49 211.78 130.44 206.70 C 137.55 209.44 143.73 209.07 151.26 208.45 C 152.52 211.43 153.71 212.77 156.57 214.45 C 156.35 209.88 166.41 215.59 161.00 216.20 C 157.97 216.36 169.22 222.97 163.29 221.66 C 156.62 217.83 160.07 225.11 153.27 226.30 C 161.79 231.43 145.71 229.62 143.53 232.51 C 144.92 227.44 145.90 224.35 140.26 221.72 C 138.31 216.18 126.23 216.20 127.49 222.57 C 120.58 221.41 122.63 223.64 119.53 228.01 C 118.80 216.55 114.86 232.62 118.05 232.72 C 122.92 229.92 124.56 233.72 125.03 237.16 C 131.05 241.45 130.73 237.84 132.66 232.98 C 131.65 241.32 138.57 237.93 138.88 243.88 C 131.80 240.47 132.45 247.00 138.81 247.18 C 146.98 249.79 140.62 252.71 143.57 255.67 C 146.28 248.95 146.49 255.79 150.00 257.62 C 154.22 255.63 157.78 256.83 157.95 261.87 C 162.84 263.49 167.60 262.85 170.76 268.03 C 175.05 268.77 176.03 269.48 178.94 272.49 C 182.53 272.18 184.18 268.96 187.96 269.32 C 188.25 273.80 182.57 273.81 184.88 277.32 L 184.00 278.07 C 178.31 277.96 168.78 283.38 163.47 279.90 C 163.06 278.38 171.61 278.79 170.72 275.43 C 166.98 275.42 163.01 260.65 163.67 271.98 C 157.79 264.06 161.45 274.55 158.32 268.22 C 157.81 271.28 157.62 271.96 154.55 272.49 C 154.07 269.41 154.47 266.70 155.53 263.80 C 152.10 264.92 152.87 268.05 152.54 270.89 C 151.00 270.09 147.18 263.11 145.96 265.96 C 143.77 269.15 143.24 265.02 140.51 266.11 C 136.80 267.90 144.72 259.31 140.12 262.09 C 135.41 266.49 132.84 264.30 132.40 258.52 C 126.70 251.03 130.60 257.07 123.24 256.37 C 119.02 248.55 126.07 254.84 122.36 248.68 C 119.14 242.49 119.47 255.75 118.29 254.41 C 116.22 253.28 119.17 247.00 116.43 250.40 C 112.71 255.25 106.93 249.44 107.81 245.20 C 97.77 241.58 110.44 234.56 99.64 233.60 C 97.11 229.09 101.03 227.08 93.64 227.53 C 94.75 223.55 94.14 225.53 91.46 223.69 C 93.51 217.99 83.69 221.54 87.61 215.01 C 85.10 215.33 76.51 201.50 82.61 203.16 C 81.08 200.77 81.79 199.66 78.92 201.58 C 80.72 195.32 78.27 195.52 78.41 190.31 C 64.94 183.96 71.09 169.88 68.15 157.66 C 64.93 153.28 63.08 163.56 64.38 165.88 C 63.02 171.75 63.20 172.66 67.03 177.53 C 68.43 187.01 72.27 195.38 73.26 204.72 C 76.04 207.80 80.60 217.61 77.03 221.04 C 70.92 219.72 77.07 212.44 74.62 210.22 C 72.47 214.29 73.31 213.26 71.21 210.14 C 70.47 219.27 69.55 207.68 65.12 207.67 C 62.70 205.93 58.34 200.74 60.76 197.68 C 52.97 196.45 59.35 190.44 54.16 187.84 C 52.90 184.63 52.43 184.16 55.47 182.68 C 50.42 179.48 54.74 174.50 53.92 169.48 C 51.82 164.06 55.94 159.69 53.61 154.23 C 52.21 151.02 52.90 147.87 53.68 144.59 C 58.18 143.09 51.77 143.01 52.57 139.82 C 52.41 136.40 57.32 127.23 52.61 128.31 C 55.67 123.87 49.47 117.33 52.26 112.27 C 55.71 113.20 55.43 114.16 57.82 110.92 C 60.89 125.37 82.64 129.85 94.77 132.24 C 101.26 133.40 107.78 134.09 114.23 135.56 C 125.21 136.61 136.12 138.61 141.55 126.47 C 151.90 116.70 156.30 105.25 159.74 91.70 C 168.07 86.17 169.52 98.40 172.96 103.06 Z M 62.04 145.19 C 61.50 148.13 60.65 151.02 60.19 153.98 C 63.13 154.10 62.79 149.24 66.05 149.17 C 68.23 149.86 69.47 150.39 71.73 149.72 C 73.50 153.98 74.99 156.03 80.01 155.49 C 83.72 155.10 81.10 156.75 80.65 158.72 C 90.80 163.99 97.07 155.79 105.35 153.17 C 107.00 148.19 110.38 150.52 108.91 145.13 C 114.59 145.02 109.63 140.06 107.60 137.95 C 104.98 135.26 103.07 134.88 99.39 134.52 C 89.35 133.42 79.25 130.91 69.24 130.12 C 65.53 133.12 66.95 133.73 64.56 129.16 C 62.81 132.58 52.36 138.37 61.79 139.43 C 59.92 143.15 54.14 153.43 62.04 145.19 Z" id="p22" />
<path d="M 174.90 110.16 C 175.81 113.13 176.84 116.05 177.97 118.94 C 179.36 124.53 182.20 132.72 186.31 136.66 C 199.89 139.84 215.44 138.11 229.18 136.20 C 232.82 135.11 236.43 133.95 240.11 133.03 C 236.87 140.65 224.03 137.27 217.35 139.32 C 213.05 140.37 213.96 147.90 218.78 147.30 C 213.29 147.50 221.26 155.32 222.52 157.21 C 222.55 159.89 223.34 159.96 225.26 161.50 C 224.80 169.47 231.42 179.35 229.55 188.25 C 228.86 192.95 227.18 197.32 226.19 201.93 C 232.67 204.33 228.79 192.04 232.84 192.26 C 233.59 197.82 229.66 203.78 232.09 208.75 C 232.81 208.24 233.50 207.71 234.18 207.15 C 233.47 208.90 232.61 210.57 231.70 212.22 C 229.30 216.13 226.28 219.27 224.72 223.44 C 212.05 237.06 206.46 256.83 192.73 270.18 C 190.14 272.60 187.68 275.12 184.88 277.32 C 182.57 273.81 188.25 273.80 187.96 269.32 C 184.18 268.96 182.53 272.18 178.94 272.49 C 176.03 269.48 175.05 268.77 170.76 268.03 C 167.60 262.85 162.84 263.49 157.95 261.87 C 157.78 256.83 154.22 255.63 150.00 257.62 C 146.49 255.79 146.28 248.95 143.57 255.67 C 140.62 252.71 146.98 249.79 138.81 247.18 C 132.45 247.00 131.80 240.47 138.88 243.88 C 138.57 237.93 131.65 241.32 132.66 232.98 C 130.73 237.84 131.05 241.45 125.03 237.16 C 124.56 233.72 122.92 229.92 118.05 232.72 C 114.86 232.62 118.80 216.55 119.53 228.01 C 122.63 223.64 120.58 221.41 127.49 222.57 C 126.23 216.20 138.31 216.18 140.26 221.72 C 145.90 224.35 144.92 227.44 143.53 232.51 C 145.71 229.62 161.79 231.43 153.27 226.30 C 160.07 225.11 156.62 217.83 163.29 221.66 C 169.22 222.97 157.97 216.36 161.00 216.20 C 166.41 215.59 156.35 209.88 156.57 214.45 C 153.71 212.77 152.52 211.43 151.26 208.45 C 143.73 209.07 137.55 209.44 130.44 206.70 C 126.49 211.78 125.22 204.10 122.99 202.07 C 125.46 198.98 127.32 196.00 131.83 197.26 C 140.39 199.31 142.36 193.27 150.76 198.34 C 151.72 201.22 152.20 197.88 153.23 196.99 C 167.28 199.66 182.47 193.54 196.55 195.58 C 199.23 198.90 200.98 198.92 204.89 199.50 C 202.90 202.22 203.10 207.12 201.24 208.14 C 206.20 215.30 203.64 204.29 206.89 211.66 C 198.12 212.17 204.05 214.52 208.08 212.07 C 212.13 209.60 211.11 204.31 214.78 202.03 C 211.21 196.35 216.14 192.91 216.98 186.96 C 216.99 181.41 224.96 188.21 225.68 182.61 C 224.88 176.14 217.18 168.55 211.57 164.45 C 209.20 162.19 199.22 154.39 201.08 162.87 C 201.73 166.59 208.56 169.75 202.31 172.30 C 194.92 174.47 204.92 182.65 197.25 182.37 C 199.39 187.00 199.29 186.00 195.00 184.38 C 198.40 195.10 187.46 191.75 181.19 194.22 C 176.10 195.68 174.84 195.24 170.71 192.25 C 164.94 191.85 155.22 197.75 151.79 190.76 C 146.11 194.04 151.53 187.59 153.47 186.63 C 157.66 185.59 161.42 188.49 165.02 185.06 C 166.50 183.71 163.77 176.80 166.66 176.34 C 168.30 178.49 171.57 182.89 171.02 177.00 C 169.62 169.76 175.59 177.12 174.67 169.84 C 177.53 168.01 186.69 166.75 188.73 163.21 C 187.36 157.65 179.26 160.60 175.23 160.70 C 172.09 153.61 146.41 150.24 142.28 147.29 C 155.76 142.41 155.75 129.66 158.67 117.62 C 162.67 107.95 154.24 105.97 161.98 96.97 C 168.75 91.66 171.64 106.44 174.90 110.16 Z M 167.27 107.77 C 160.71 114.10 165.78 127.20 160.74 135.75 C 155.95 144.75 167.02 148.16 172.06 152.94 C 178.44 156.11 185.83 158.21 192.00 161.59 C 195.34 154.54 185.97 144.44 181.43 139.63 C 180.44 129.08 174.96 119.72 172.80 109.28 C 172.86 106.39 166.17 103.03 167.27 107.77 Z M 157.84 243.14 C 148.13 249.46 161.86 248.43 164.75 252.20 C 166.35 253.33 168.55 265.13 169.23 258.23 C 171.27 264.59 176.55 258.22 177.50 263.40 C 178.56 269.94 179.89 262.15 183.93 268.73 C 187.84 264.48 190.96 262.76 196.36 262.80 C 191.17 262.07 201.05 257.28 202.43 253.90 C 197.59 252.65 206.94 250.27 208.00 245.64 C 203.24 245.31 208.56 244.47 209.18 242.79 C 209.19 240.13 207.79 239.49 210.92 237.98 C 204.62 237.62 202.81 241.17 203.62 233.26 C 197.52 234.32 189.06 233.52 190.43 225.23 C 190.49 222.68 189.89 220.36 189.54 217.83 C 193.56 218.78 195.33 207.42 190.35 206.60 C 191.00 195.02 177.45 196.19 169.38 199.36 C 163.05 203.32 171.10 211.63 174.59 214.69 C 176.44 217.26 172.92 222.17 171.63 224.35 C 172.20 230.28 164.20 226.62 163.38 232.09 C 163.99 238.49 155.01 234.02 154.69 240.57 C 146.10 239.84 154.04 244.17 157.84 243.14 Z" id="p23" />
<path d="M 55.92 97.77 C 56.16 102.21 57.07 106.44 57.82 110.92 C 55.43 114.16 55.71 113.20 52.26 112.27 C 49.47 117.33 55.67 123.87 52.61 128.31 C 57.32 127.23 52.41 136.40 52.57 139.82 C 51.77 143.01 58.18 143.09 53.68 144.59 C 52.90 147.87 52.21 151.02 53.61 154.23 C 55.94 159.69 51.82 164.06 53.92 169.48 C 54.74 174.50 50.42 179.48 55.47 182.68 C 52.43 184.16 52.90 184.63 54.16 187.84 C 59.35 190.44 52.97 196.45 60.76 197.68 C 58.34 200.74 62.70 205.93 65.12 207.67 C 69.55 207.68 70.47 219.27 71.21 210.14 C 73.31 213.26 72.47 214.29 74.62 210.22 C 77.07 212.44 70.92 219.72 77.03 221.04 C 80.60 217.61 76.04 207.80 73.26 204.72 C 72.27 195.38 68.43 187.01 67.03 177.53 C 63.20 172.66 63.02 171.75 64.38 165.88 C 63.08 163.56 64.93 153.28 68.15 157.66 C 71.09 169.88 64.94 183.96 78.41 190.31 C 78.27 195.52 80.72 195.32 78.92 201.58 C 81.79 199.66 81.08 200.77 82.61 203.16 C 76.51 201.50 85.10 215.33 87.61 215.01 C 83.69 221.54 93.51 217.99 91.46 223.69 C 94.14 225.53 94.75 223.55 93.64 227.53 C 101.03 227.08 97.11 229.09 99.64 233.60 C 110.44 234.56 97.77 241.58 107.81 245.20 C 106.93 249.44 112.71 255.25 116.43 250.40 C 119.17 247.00 116.22 253.28 118.29 254.41 C 119.47 255.75 119.14 242.49 122.36 248.68 C 126.07 254.84 119.02 248.55 123.24 256.37 C 130.60 257.07 126.70 251.03 132.40 258.52 C 132.84 264.30 135.41 266.49 140.12 262.09 C 144.72 259.31 136.80 267.90 140.51 266.11 C 143.24 265.02 143.77 269.15 145.96 265.96 C 147.18 263.11 151.00 270.09 152.54 270.89 C 152.87 268.05 152.10 264.92 155.53 263.80 C 154.47 266.70 154.07 269.41 154.55 272.49 C 157.62 271.96 157.81 271.28 158.32 268.22 C 161.45 274.55 157.79 264.06 163.67 271.98 C 163.01 260.65 166.98 275.42 170.72 275.43 C 171.61 278.79 163.06 278.38 163.47 279.90 C 168.78 283.38 178.31 277.96 184.00 278.07 C 176.41 286.67 171.27 282.50 161.72 282.18 C 156.59 279.79 154.29 284.14 149.69 280.12 C 145.82 278.84 150.31 278.33 151.10 276.37 C 145.32 278.20 143.79 272.83 138.24 273.50 C 135.39 273.69 134.55 269.82 131.90 270.45 C 129.47 272.20 129.05 274.64 127.48 277.01 C 126.85 273.00 125.78 270.40 123.36 267.18 C 122.99 272.24 121.19 266.77 118.47 267.20 C 117.86 269.24 117.46 271.25 116.25 273.05 C 115.77 270.79 118.68 263.38 114.14 264.32 C 110.66 265.79 110.98 255.89 109.76 262.80 C 106.12 254.45 106.91 264.47 104.86 267.49 C 101.06 266.38 100.08 263.82 97.29 261.82 C 97.96 264.59 99.05 267.15 99.98 269.82 C 93.01 265.35 86.19 264.49 83.56 254.95 C 79.96 250.97 85.23 249.10 78.71 246.23 C 72.68 243.52 84.87 244.25 79.01 243.01 C 73.73 242.27 77.84 238.51 80.78 240.58 C 84.78 238.58 75.92 231.51 75.33 228.86 C 65.01 219.15 61.85 209.58 54.25 197.62 C 52.77 191.98 52.33 186.20 51.14 180.51 C 50.96 178.75 50.81 176.99 50.66 175.23 C 52.24 161.55 48.73 146.91 50.95 133.06 C 47.21 122.31 48.53 112.31 50.43 101.35 C 51.56 99.00 53.53 98.32 55.92 97.77 Z" id="p24" />
<path d="M 127.39 104.56 C 128.15 107.62 128.29 110.79 129.16 113.83 C 130.11 117.51 132.22 120.95 132.82 124.66 C 126.22 126.39 113.80 129.31 108.75 123.27 C 106.55 118.57 112.66 110.24 114.79 105.82 C 117.80 104.81 124.30 103.58 127.39 104.56 Z" id="p25" />
<path d="M 172.80 109.28 C 174.96 119.72 180.44 129.08 181.43 139.63 C 185.97 144.44 195.34 154.54 192.00 161.59 C 185.83 158.21 178.44 156.11 172.06 152.94 C 167.02 148.16 155.95 144.75 160.74 135.75 C 165.78 127.20 160.71 114.10 167.27 107.77 C 166.17 103.03 172.86 106.39 172.80 109.28 Z" id="p26" />
<path d="M 9.87 117.96 L 10.86 117.94 C 14.16 126.84 22.51 132.83 26.26 140.91 C 20.65 145.32 16.74 138.72 13.17 146.63 C 19.14 147.64 17.23 147.67 16.06 152.26 C 8.90 152.98 6.37 159.05 0.00 163.07 L 0.00 159.22 C 1.84 152.79 2.54 161.84 5.96 154.90 C 2.66 147.13 9.47 148.74 4.71 141.19 C 0.79 129.92 10.83 127.44 9.87 117.96 Z" id="p27" />
<path d="M 177.97 118.94 C 180.80 122.19 181.06 126.99 184.19 129.78 C 198.80 136.30 213.50 136.63 229.18 136.20 C 215.44 138.11 199.89 139.84 186.31 136.66 C 182.20 132.72 179.36 124.53 177.97 118.94 Z" id="p28" />
<path d="M 249.01 125.04 C 240.97 133.12 225.07 134.37 214.26 133.91 C 214.21 132.48 219.80 132.99 221.24 132.29 C 228.48 132.06 235.52 131.04 242.10 127.85 C 244.37 126.79 246.57 125.68 249.01 125.04 Z" id="p29" />
<path d="M 260.52 133.08 C 258.12 135.80 258.04 135.91 259.21 139.40 C 258.01 144.63 251.55 148.31 250.79 152.24 L 250.41 152.82 C 248.65 153.84 246.88 154.86 245.03 155.69 C 243.83 147.27 250.27 137.21 248.13 128.61 C 250.70 125.58 253.23 124.98 253.47 129.97 C 255.81 120.49 257.10 130.00 260.52 133.08 Z" id="p30" />
<path d="M 64.56 129.16 C 66.95 133.73 65.53 133.12 69.24 130.12 C 79.25 130.91 89.35 133.42 99.39 134.52 C 103.07 134.88 104.98 135.26 107.60 137.95 C 109.63 140.06 114.59 145.02 108.91 145.13 C 110.38 150.52 107.00 148.19 105.35 153.17 C 97.07 155.79 90.80 163.99 80.65 158.72 C 81.10 156.75 83.72 155.10 80.01 155.49 C 74.99 156.03 73.50 153.98 71.73 149.72 C 69.47 150.39 68.23 149.86 66.05 149.17 C 62.79 149.24 63.13 154.10 60.19 153.98 C 60.65 151.02 61.50 148.13 62.04 145.19 C 54.14 153.43 59.92 143.15 61.79 139.43 C 52.36 138.37 62.81 132.58 64.56 129.16 Z" id="p31" />
<path d="M 248.13 128.61 C 250.27 137.21 243.83 147.27 245.03 155.69 C 246.88 154.86 248.65 153.84 250.41 152.82 C 250.19 155.18 251.55 155.74 253.10 157.15 C 252.34 157.28 251.57 157.41 250.80 157.55 C 244.88 156.37 244.20 166.83 242.06 170.97 C 240.97 183.58 240.09 195.68 234.18 207.15 C 233.50 207.71 232.81 208.24 232.09 208.75 C 229.66 203.78 233.59 197.82 232.84 192.26 C 228.79 192.04 232.67 204.33 226.19 201.93 C 227.18 197.32 228.86 192.95 229.55 188.25 C 231.42 179.35 224.80 169.47 225.26 161.50 C 223.34 159.96 222.55 159.89 222.52 157.21 C 221.26 155.32 213.29 147.50 218.78 147.30 C 213.96 147.90 213.05 140.37 217.35 139.32 C 224.03 137.27 236.87 140.65 240.11 133.03 C 242.82 131.62 245.55 130.28 248.13 128.61 Z" id="p32" />
<path d="M 16.06 152.26 C 18.26 152.35 23.69 156.67 19.18 156.66 C 15.08 154.49 10.23 161.92 9.78 165.36 C 6.40 162.56 4.23 170.05 7.61 170.93 C 9.18 174.82 6.70 180.32 13.32 176.64 C 14.53 177.57 16.50 194.75 9.97 187.09 C 10.02 190.02 15.98 197.13 18.74 198.03 C 16.41 195.46 20.35 191.69 22.49 191.68 C 19.88 200.34 30.95 200.02 34.93 206.09 C 38.88 215.35 48.33 218.78 54.16 227.45 C 45.43 226.46 49.38 228.66 45.19 234.05 C 48.13 225.12 45.77 225.52 39.32 220.69 C 33.29 219.10 32.43 206.72 27.05 215.79 C 37.20 214.80 23.72 217.64 30.79 218.40 C 29.82 220.84 19.74 229.24 22.37 221.15 C 18.11 219.95 14.36 219.07 9.96 220.31 C 21.47 224.29 8.80 224.69 18.94 225.28 C 24.08 226.55 28.67 224.51 33.80 225.03 C 34.14 226.46 29.94 225.83 29.01 226.29 C 31.79 227.67 35.22 227.19 38.06 228.70 C 28.60 227.43 34.16 234.67 33.27 240.69 C 35.17 242.66 46.62 247.28 45.10 249.99 C 47.09 256.05 39.60 250.31 36.55 249.83 C 30.02 244.40 29.39 259.23 23.47 259.35 C 20.70 258.27 20.05 258.36 17.32 259.46 C 17.23 257.05 17.18 254.64 16.92 252.24 C 12.16 257.14 6.16 258.54 0.00 260.90 L 0.00 246.32 C 5.46 243.13 9.15 238.92 15.94 238.61 C 13.58 233.74 3.73 238.50 0.00 239.93 L 0.00 238.04 C 3.10 236.03 9.02 236.89 11.01 234.17 C 7.28 233.70 3.65 234.00 0.00 234.86 L 0.00 226.96 C 2.31 226.99 4.60 227.04 6.91 226.83 C 4.71 222.40 3.15 212.92 0.00 223.24 L 0.00 163.07 C 6.37 159.05 8.90 152.98 16.06 152.26 Z" id="p33" />
<path d="M 151.22 152.71 C 159.98 155.51 167.10 155.90 175.23 160.70 C 179.26 160.60 187.36 157.65 188.73 163.21 C 186.69 166.75 177.53 168.01 174.67 169.84 C 175.59 177.12 169.62 169.76 171.02 177.00 C 171.57 182.89 168.30 178.49 166.66 176.34 C 163.77 176.80 166.50 183.71 165.02 185.06 C 161.42 188.49 157.66 185.59 153.47 186.63 C 151.53 187.59 146.11 194.04 151.79 190.76 C 155.22 197.75 164.94 191.85 170.71 192.25 C 174.84 195.24 176.10 195.68 181.19 194.22 C 187.46 191.75 198.40 195.10 195.00 184.38 C 199.29 186.00 199.39 187.00 197.25 182.37 C 204.92 182.65 194.92 174.47 202.31 172.30 C 208.56 169.75 201.73 166.59 201.08 162.87 C 199.22 154.39 209.20 162.19 211.57 164.45 C 217.18 168.55 224.88 176.14 225.68 182.61 C 224.96 188.21 216.99 181.41 216.98 186.96 C 216.14 192.91 211.21 196.35 214.78 202.03 C 211.11 204.31 212.13 209.60 208.08 212.07 C 204.05 214.52 198.12 212.17 206.89 211.66 C 203.64 204.29 206.20 215.30 201.24 208.14 C 203.10 207.12 202.90 202.22 204.89 199.50 C 200.98 198.92 199.23 198.90 196.55 195.58 C 182.47 193.54 167.28 199.66 153.23 196.99 C 137.50 193.21 121.22 195.63 105.41 190.79 C 98.76 192.71 85.68 191.08 86.63 181.62 C 88.90 176.06 77.84 175.79 83.16 171.24 C 89.89 163.77 102.85 161.74 110.98 155.23 C 116.17 158.74 99.25 166.23 109.24 167.34 C 113.52 166.64 108.12 174.99 111.45 173.44 C 116.50 172.81 109.15 171.12 115.20 170.16 C 118.03 177.76 117.13 166.55 123.12 171.90 C 124.87 172.39 128.60 166.52 132.84 167.57 C 129.69 162.59 126.57 168.45 126.20 158.30 C 134.91 157.22 142.59 153.52 151.22 152.71 Z" id="p34" />
<path d="M 268.95 153.03 C 268.14 154.14 262.81 156.11 266.97 156.01 C 273.00 156.11 262.55 159.88 267.98 158.87 C 281.90 157.84 290.71 165.24 300.00 174.41 L 300.00 183.35 C 293.57 177.82 292.06 173.49 283.09 172.06 C 282.63 174.63 296.58 178.95 293.81 181.55 C 288.10 180.05 284.10 174.42 277.80 173.28 C 274.09 171.69 279.54 176.26 278.21 178.12 C 274.42 176.04 270.07 174.18 266.93 171.16 C 271.45 170.62 271.83 170.79 274.62 174.14 C 274.95 171.43 273.77 169.94 272.33 167.82 C 276.80 167.91 279.25 171.69 282.61 167.40 C 271.98 163.37 261.74 160.25 250.80 157.55 C 251.57 157.41 252.34 157.28 253.10 157.15 C 258.73 156.70 263.27 153.36 268.95 153.03 Z" id="p35" />
<path d="M 250.80 157.55 C 261.74 160.25 271.98 163.37 282.61 167.40 C 279.25 171.69 276.80 167.91 272.33 167.82 C 273.77 169.94 274.95 171.43 274.62 174.14 C 271.83 170.79 271.45 170.62 266.93 171.16 C 270.07 174.18 274.42 176.04 278.21 178.12 C 279.60 179.40 280.97 180.67 282.33 181.97 C 279.46 184.48 272.00 174.13 272.65 180.60 C 282.45 186.72 287.91 195.43 289.30 206.87 C 287.53 210.57 295.55 222.54 290.88 224.52 C 288.58 223.25 286.70 221.47 284.59 219.93 C 283.58 222.88 285.62 228.78 280.96 228.05 C 281.99 209.94 272.71 193.62 255.87 186.39 C 256.22 187.83 256.63 189.24 257.05 190.66 C 255.65 193.59 255.81 199.06 252.67 200.65 C 241.98 197.14 243.50 212.96 231.70 212.22 C 232.61 210.57 233.47 208.90 234.18 207.15 C 240.09 195.68 240.97 183.58 242.06 170.97 C 244.20 166.83 244.88 156.37 250.80 157.55 Z" id="p36" />
<path d="M 283.09 172.06 C 292.06 173.49 293.57 177.82 300.00 183.35 L 300.00 190.92 C 294.99 198.08 289.85 181.87 282.33 181.97 C 280.97 180.67 279.60 179.40 278.21 178.12 C 279.54 176.26 274.09 171.69 277.80 173.28 C 284.10 174.42 288.10 180.05 293.81 181.55 C 296.58 178.95 282.63 174.63 283.09 172.06 Z" id="p37" />
<path d="M 282.33 181.97 C 289.85 181.87 294.99 198.08 300.00 190.92 L 300.00 243.74 C 293.41 252.60 287.67 256.10 277.16 259.24 C 285.88 263.63 286.21 271.12 288.48 279.61 C 291.90 282.01 297.56 281.69 300.00 285.19 L 300.00 300.00 L 291.19 300.00 C 288.50 299.20 287.97 293.79 285.53 296.18 C 280.08 295.99 275.41 281.47 271.91 290.98 C 265.51 289.94 273.50 283.26 276.53 286.54 C 276.17 282.84 281.72 282.42 278.66 279.38 C 276.85 276.62 276.95 280.10 275.79 281.37 C 273.46 280.07 274.40 280.76 273.52 282.88 C 268.11 278.74 277.39 273.13 273.21 266.70 C 271.38 263.89 268.52 250.72 274.54 259.05 C 272.28 254.40 283.84 257.22 281.82 252.13 C 288.65 246.60 291.83 237.17 291.61 227.15 C 295.77 226.69 292.24 225.90 290.88 224.52 C 295.55 222.54 287.53 210.57 289.30 206.87 C 287.91 195.43 282.45 186.72 272.65 180.60 C 272.00 174.13 279.46 184.48 282.33 181.97 Z" id="p38" />
<path d="M 51.14 180.51 C 52.33 186.20 52.77 191.98 54.25 197.62 C 55.35 203.62 57.75 210.31 60.08 215.94 C 63.34 219.49 64.70 221.14 64.76 226.19 C 71.02 235.45 76.69 246.32 79.40 255.53 C 86.38 259.37 78.64 255.90 80.32 262.25 C 78.16 259.91 78.48 257.26 74.97 255.99 C 72.54 258.19 69.15 261.60 69.44 265.15 C 65.68 266.78 66.61 271.13 71.21 270.66 C 75.97 270.37 76.91 274.95 71.34 273.29 C 71.20 279.52 75.83 280.10 76.40 285.67 C 80.35 289.20 79.46 294.86 82.01 300.00 L 81.10 300.00 C 79.10 296.03 76.55 292.43 74.31 288.61 C 72.52 286.87 75.95 281.66 72.05 284.46 C 69.67 282.43 66.81 279.35 68.25 276.01 C 65.20 272.70 61.94 273.35 61.62 267.77 C 59.46 257.76 68.13 257.82 68.35 248.12 C 69.97 249.98 71.13 252.18 72.82 253.96 C 76.52 246.29 60.76 241.53 67.37 235.22 C 59.64 222.36 54.05 207.29 51.59 192.46 C 44.95 189.15 51.71 186.01 51.14 180.51 Z" id="p39" />
<path d="M 255.87 186.39 C 272.71 193.62 281.99 209.94 280.96 228.05 C 279.86 231.65 283.16 232.03 280.04 236.10 C 278.25 230.46 279.68 224.73 277.86 219.17 C 270.57 223.73 279.64 232.54 275.59 238.61 C 274.23 241.79 269.15 242.33 268.06 245.12 C 266.95 249.51 271.42 247.56 274.09 248.16 C 271.95 249.21 269.64 250.29 267.20 250.24 C 260.97 240.36 265.67 232.82 262.32 222.67 C 255.59 218.46 269.47 215.33 270.52 215.19 C 258.79 215.44 263.23 194.98 257.05 190.66 C 256.63 189.24 256.22 187.83 255.87 186.39 Z" id="p40" />
<path d="M 257.05 190.66 C 263.23 194.98 258.79 215.44 270.52 215.19 C 269.47 215.33 255.59 218.46 262.32 222.67 C 265.67 232.82 260.97 240.36 267.20 250.24 C 269.64 250.29 271.95 249.21 274.09 248.16 C 278.21 245.55 278.67 240.34 280.04 236.10 C 283.16 232.03 279.86 231.65 280.96 228.05 C 285.62 228.78 283.58 222.88 284.59 219.93 C 286.70 221.47 288.58 223.25 290.88 224.52 C 292.24 225.90 295.77 226.69 291.61 227.15 C 291.83 237.17 288.65 246.60 281.82 252.13 C 283.84 257.22 272.28 254.40 274.54 259.05 C 268.52 250.72 271.38 263.89 273.21 266.70 C 277.39 273.13 268.11 278.74 273.52 282.88 C 274.40 280.76 273.46 280.07 275.79 281.37 C 276.95 280.10 276.85 276.62 278.66 279.38 C 281.72 282.42 276.17 282.84 276.53 286.54 C 273.50 283.26 265.51 289.94 271.91 290.98 C 275.41 281.47 280.08 295.99 285.53 296.18 C 287.97 293.79 288.50 299.20 291.19 300.00 L 254.52 300.00 C 261.33 299.37 253.20 294.19 251.96 291.44 C 254.57 290.85 267.90 292.59 261.72 289.32 C 267.60 287.07 264.25 282.10 262.50 278.09 C 260.92 284.54 259.67 277.52 260.42 275.08 C 255.72 275.36 254.14 278.21 257.69 281.80 C 252.80 283.59 254.43 285.72 253.68 290.05 C 252.10 287.27 253.58 283.25 250.04 282.02 C 246.39 283.11 247.52 283.75 247.68 286.90 C 245.00 284.58 243.48 282.15 239.58 282.17 C 238.99 280.45 237.62 267.31 235.30 274.94 C 236.04 270.23 230.50 266.92 233.35 263.29 C 237.22 265.77 233.46 270.08 237.99 269.98 C 241.10 270.92 238.89 266.61 239.23 264.97 C 241.04 268.39 243.88 275.99 247.90 276.81 C 247.34 272.68 243.33 270.90 244.00 265.88 C 245.41 268.45 248.27 274.57 251.79 270.79 C 258.39 264.91 245.81 264.25 243.13 259.91 C 239.01 256.97 242.50 262.46 243.04 263.96 C 236.43 268.93 239.15 256.60 238.86 253.74 C 233.65 253.77 244.09 246.58 239.21 245.07 C 235.12 243.66 236.43 240.64 235.74 237.13 C 233.18 237.63 228.28 244.40 229.63 238.11 C 224.87 239.68 221.09 240.02 220.53 245.91 C 216.85 239.07 225.24 237.53 223.39 230.84 C 221.95 228.06 229.59 223.95 224.72 223.44 C 226.28 219.27 229.30 216.13 231.70 212.22 C 243.50 212.96 241.98 197.14 252.67 200.65 C 255.81 199.06 255.65 193.59 257.05 190.66 Z" id="p41" />
<path d="M 190.35 206.60 C 195.33 207.42 193.56 218.78 189.54 217.83 C 189.89 220.36 190.49 222.68 190.43 225.23 C 189.06 233.52 197.52 234.32 203.62 233.26 C 202.81 241.17 204.62 237.62 210.92 237.98 C 207.79 239.49 209.19 240.13 209.18 242.79 C 208.56 244.47 203.24 245.31 208.00 245.64 C 206.94 250.27 197.59 252.65 202.43 253.90 C 201.05 257.28 191.17 262.07 196.36 262.80 C 190.96 262.76 187.84 264.48 183.93 268.73 C 179.89 262.15 178.56 269.94 177.50 263.40 C 176.55 258.22 171.27 264.59 169.23 258.23 C 168.55 265.13 166.35 253.33 164.75 252.20 C 161.86 248.43 148.13 249.46 157.84 243.14 C 154.04 244.17 146.10 239.84 154.69 240.57 C 155.01 234.02 163.99 238.49 163.38 232.09 C 164.20 226.62 172.20 230.28 171.63 224.35 C 172.92 222.17 176.44 217.26 174.59 214.69 C 171.10 211.63 163.05 203.32 169.38 199.36 C 177.45 196.19 191.00 195.02 190.35 206.60 Z" id="p42" />
<path d="M 54.25 197.62 C 61.85 209.58 65.01 219.15 75.33 228.86 C 75.92 231.51 84.78 238.58 80.78 240.58 C 77.84 238.51 73.73 242.27 79.01 243.01 C 84.87 244.25 72.68 243.52 78.71 246.23 C 85.23 249.10 79.96 250.97 83.56 254.95 C 86.19 264.49 93.01 265.35 99.98 269.82 C 99.05 267.15 97.96 264.59 97.29 261.82 C 100.08 263.82 101.06 266.38 104.86 267.49 C 106.91 264.47 106.12 254.45 109.76 262.80 C 110.98 255.89 110.66 265.79 114.14 264.32 C 118.68 263.38 115.77 270.79 116.25 273.05 C 117.46 271.25 117.86 269.24 118.47 267.20 C 121.19 266.77 122.99 272.24 123.36 267.18 C 125.78 270.40 126.85 273.00 127.48 277.01 C 129.05 274.64 129.47 272.20 131.90 270.45 C 134.55 269.82 135.39 273.69 138.24 273.50 C 143.79 272.83 145.32 278.20 151.10 276.37 C 150.31 278.33 145.82 278.84 149.69 280.12 C 154.29 284.14 156.59 279.79 161.72 282.18 C 171.27 282.50 176.41 286.67 184.00 278.07 L 184.88 277.32 C 187.68 275.12 190.14 272.60 192.73 270.18 C 199.51 273.07 194.69 270.98 197.69 276.85 C 200.08 273.69 204.06 278.32 200.25 279.46 C 196.13 286.30 196.04 293.95 190.58 300.00 L 183.82 300.00 C 190.41 294.26 188.91 288.52 190.89 281.14 C 190.18 275.96 187.63 279.67 184.75 280.73 C 177.85 286.21 170.71 289.66 163.99 295.43 C 156.22 298.86 145.02 297.25 137.62 300.00 L 137.11 300.00 C 136.36 296.67 128.75 298.47 125.89 296.07 C 118.95 291.56 111.73 294.79 106.69 288.39 C 103.14 286.61 99.21 286.30 104.84 283.08 C 100.18 281.20 96.54 284.89 92.84 281.94 C 89.20 283.55 86.88 274.45 84.32 272.74 C 79.59 269.62 77.75 279.50 78.42 282.64 C 80.91 288.80 86.56 293.20 88.28 300.00 L 82.01 300.00 C 79.46 294.86 80.35 289.20 76.40 285.67 C 75.83 280.10 71.20 279.52 71.34 273.29 C 76.91 274.95 75.97 270.37 71.21 270.66 C 66.61 271.13 65.68 266.78 69.44 265.15 C 69.15 261.60 72.54 258.19 74.97 255.99 C 78.48 257.26 78.16 259.91 80.32 262.25 C 78.64 255.90 86.38 259.37 79.40 255.53 C 76.69 246.32 71.02 235.45 64.76 226.19 C 64.70 221.14 63.34 219.49 60.08 215.94 C 57.75 210.31 55.35 203.62 54.25 197.62 Z" id="p43" />
<path d="M 6.91 226.83 C 4.60 227.04 2.31 226.99 0.00 226.96 L 0.00 223.24 C 3.15 212.92 4.71 222.40 6.91 226.83 Z" id="p44" />
<path d="M 277.86 219.17 C 279.68 224.73 278.25 230.46 280.04 236.10 C 278.67 240.34 278.21 245.55 274.09 248.16 C 271.42 247.56 266.95 249.51 268.06 245.12 C 269.15 242.33 274.23 241.79 275.59 238.61 C 279.64 232.54 270.57 223.73 277.86 219.17 Z" id="p45" />
<path d="M 224.72 223.44 C 229.59 223.95 221.95 228.06 223.39 230.84 C 225.24 237.53 216.85 239.07 220.53 245.91 C 221.09 240.02 224.87 239.68 229.63 238.11 C 228.28 244.40 233.18 237.63 235.74 237.13 C 236.43 240.64 235.12 243.66 239.21 245.07 C 244.09 246.58 233.65 253.77 238.86 253.74 C 239.15 256.60 236.43 268.93 243.04 263.96 C 243.37 264.59 243.69 265.23 244.00 265.88 C 243.33 270.90 247.34 272.68 247.90 276.81 C 243.88 275.99 241.04 268.39 239.23 264.97 C 238.89 266.61 241.10 270.92 237.99 269.98 C 233.46 270.08 237.22 265.77 233.35 263.29 C 230.50 266.92 236.04 270.23 235.30 274.94 C 237.62 267.31 238.99 280.45 239.58 282.17 C 243.48 282.15 245.00 284.58 247.68 286.90 C 247.52 283.75 246.39 283.11 250.04 282.02 C 253.58 283.25 252.10 287.27 253.68 290.05 C 254.43 285.72 252.80 283.59 257.69 281.80 C 254.14 278.21 255.72 275.36 260.42 275.08 C 259.67 277.52 260.92 284.54 262.50 278.09 C 264.25 282.10 267.60 287.07 261.72 289.32 C 267.90 292.59 254.57 290.85 251.96 291.44 C 244.25 288.66 245.61 290.22 241.24 295.88 C 241.42 289.12 237.76 288.15 232.20 290.13 C 229.52 290.63 228.22 288.39 225.19 290.17 C 220.07 292.02 218.97 285.60 213.38 287.97 C 218.35 282.66 205.45 284.14 210.69 277.87 C 204.63 278.23 209.66 282.01 204.95 284.57 C 201.50 291.25 198.60 296.49 191.54 300.00 L 190.58 300.00 C 196.04 293.95 196.13 286.30 200.25 279.46 C 204.06 278.32 200.08 273.69 197.69 276.85 C 194.69 270.98 199.51 273.07 192.73 270.18 C 206.46 256.83 212.05 237.06 224.72 223.44 Z" id="p46" />
<path d="M 11.01 234.17 C 9.02 236.89 3.10 236.03 0.00 238.04 L 0.00 234.86 C 3.65 234.00 7.28 233.70 11.01 234.17 Z" id="p47" />
<path d="M 15.94 238.61 C 9.15 238.92 5.46 243.13 0.00 246.32 L 0.00 239.93 C 3.73 238.50 13.58 233.74 15.94 238.61 Z" id="p48" />
<path d="M 300.00 243.74 L 300.00 285.19 C 297.56 281.69 291.90 282.01 288.48 279.61 C 286.21 271.12 285.88 263.63 277.16 259.24 C 287.67 256.10 293.41 252.60 300.00 243.74 Z" id="p49" />
<path d="M 243.13 259.91 C 245.81 264.25 258.39 264.91 251.79 270.79 C 248.27 274.57 245.41 268.45 244.00 265.88 C 243.69 265.23 243.37 264.59 243.04 263.96 C 242.50 262.46 239.01 256.97 243.13 259.91 Z" id="p50" />
<path d="M 84.32 272.74 C 86.88 274.45 89.20 283.55 92.84 281.94 C 96.54 284.89 100.18 281.20 104.84 283.08 C 99.21 286.30 103.14 286.61 106.69 288.39 C 111.73 294.79 118.95 291.56 125.89 296.07 C 128.75 298.47 136.36 296.67 137.11 300.00 L 88.28 300.00 C 86.56 293.20 80.91 288.80 78.42 282.64 C 77.75 279.50 79.59 269.62 84.32 272.74 Z" id="p51" />
<path d="M 190.89 281.14 C 188.91 288.52 190.41 294.26 183.82 300.00 L 137.62 300.00 C 145.02 297.25 156.22 298.86 163.99 295.43 C 170.71 289.66 177.85 286.21 184.75 280.73 C 187.63 279.67 190.18 275.96 190.89 281.14 Z" id="p52" />
<path d="M 210.69 277.87 C 205.45 284.14 218.35 282.66 213.38 287.97 C 218.97 285.60 220.07 292.02 225.19 290.17 C 228.22 288.39 229.52 290.63 232.20 290.13 C 237.76 288.15 241.42 289.12 241.24 295.88 C 245.61 290.22 244.25 288.66 251.96 291.44 C 253.20 294.19 261.33 299.37 254.52 300.00 L 191.54 300.00 C 198.60 296.49 201.50 291.25 204.95 284.57 C 209.66 282.01 204.63 278.23 210.69 277.87 Z" id="p53" />
</defs>
<g stroke-width="10pt">
<use stroke="#ced8e1" xlink:href="#p0" />
<use stroke="#5f7195" xlink:href="#p1" />
<use stroke="#2c385d" xlink:href="#p2" />
<use stroke="#495270" xlink:href="#p3" />
<use stroke="#687088" xlink:href="#p4" />
<use stroke="#9fa5b0" xlink:href="#p5" />
<use stroke="#d3d5d8" xlink:href="#p6" />
<use stroke="#606b87" xlink:href="#p7" />
<use stroke="#7f899e" xlink:href="#p8" />
<use stroke="#767a87" xlink:href="#p9" />
<use stroke="#5b6a88" xlink:href="#p10" />
<use stroke="#2e313d" xlink:href="#p11" />
<use stroke="#343f5f" xlink:href="#p12" />
<use stroke="#7f7174" xlink:href="#p13" />
<use stroke="#1b1c20" xlink:href="#p14" />
<use stroke="#1b2847" xlink:href="#p15" />
<use stroke="#9f8688" xlink:href="#p16" />
<use stroke="#1f2b48" xlink:href="#p17" />
<use stroke="#74787d" xlink:href="#p18" />
<use stroke="#16171b" xlink:href="#p19" />
<use stroke="#714f52" xlink:href="#p20" />
<use stroke="#534245" xlink:href="#p21" />
<use stroke="#9c8181" xlink:href="#p22" />
<use stroke="#b3908c" xlink:href="#p23" />
<use stroke="#837372" xlink:href="#p24" />
<use stroke="#515257" xlink:href="#p25" />
<use stroke="#ecc4bf" xlink:href="#p26" />
<use stroke="#989a9b" xlink:href="#p27" />
<use stroke="#805152" xlink:href="#p28" />
<use stroke="#78787a" xlink:href="#p29" />
<use stroke="#5f524e" xlink:href="#p30" />
<use stroke="#b29499" xlink:href="#p31" />
<use stroke="#d8bcb0" xlink:href="#p32" />
<use stroke="#333030" xlink:href="#p33" />
<use stroke="#8f6a68" xlink:href="#p34" />
<use stroke="#8a7e77" xlink:href="#p35" />
<use stroke="#3c2c29" xlink:href="#p36" />
<use stroke="#b2b0ad" xlink:href="#p37" />
<use stroke="#7b6d66" xlink:href="#p38" />
<use stroke="#423a3a" xlink:href="#p39" />
<use stroke="#7e716a" xlink:href="#p40" />
<use stroke="#5b4a43" xlink:href="#p41" />
<use stroke="#d3b4a9" xlink:href="#p42" />
<use stroke="#675956" xlink:href="#p43" />
<use stroke="#828385" xlink:href="#p44" />
<use stroke="#a8a5a4" xlink:href="#p45" />
<use stroke="#3d2e2b" xlink:href="#p46" />
<use stroke="#9e9d9b" xlink:href="#p47" />
<use stroke="#adadae" xlink:href="#p48" />
<use stroke="#ced1d4" xlink:href="#p49" />
<use stroke="#b2b1b1" xlink:href="#p50" />
<use stroke="#817475" xlink:href="#p51" />
<use stroke="#8a7570" xlink:href="#p52" />
<use stroke="#1e1c1e" xlink:href="#p53" />
</g>
<g>
<use fill="#ced8e1" xlink:href="#p0" />
<use fill="#5f7195" xlink:href="#p1" />
<use fill="#2c385d" xlink:href="#p2" />
<use fill="#495270" xlink:href="#p3" />
<use fill="#687088" xlink:href="#p4" />
<use fill="#9fa5b0" xlink:href="#p5" />
<use fill="#d3d5d8" xlink:href="#p6" />
<use fill="#606b87" xlink:href="#p7" />
<use fill="#7f899e" xlink:href="#p8" />
<use fill="#767a87" xlink:href="#p9" />
<use fill="#5b6a88" xlink:href="#p10" />
<use fill="#2e313d" xlink:href="#p11" />
<use fill="#343f5f" xlink:href="#p12" />
<use fill="#7f7174" xlink:href="#p13" />
<use fill="#1b1c20" xlink:href="#p14" />
<use fill="#1b2847" xlink:href="#p15" />
<use fill="#9f8688" xlink:href="#p16" />
<use fill="#1f2b48" xlink:href="#p17" />
<use fill="#74787d" xlink:href="#p18" />
<use fill="#16171b" xlink:href="#p19" />
<use fill="#714f52" xlink:href="#p20" />
<use fill="#534245" xlink:href="#p21" />
<use fill="#9c8181" xlink:href="#p22" />
<use fill="#b3908c" xlink:href="#p23" />
<use fill="#837372" xlink:href="#p24" />
<use fill="#515257" xlink:href="#p25" />
<use fill="#ecc4bf" xlink:href="#p26" />
<use fill="#989a9b" xlink:href="#p27" />
<use fill="#805152" xlink:href="#p28" />
<use fill="#78787a" xlink:href="#p29" />
<use fill="#5f524e" xlink:href="#p30" />
<use fill="#b29499" xlink:href="#p31" />
<use fill="#d8bcb0" xlink:href="#p32" />
<use fill="#333030" xlink:href="#p33" />
<use fill="#8f6a68" xlink:href="#p34" />
<use fill="#8a7e77" xlink:href="#p35" />
<use fill="#3c2c29" xlink:href="#p36" />
<use fill="#b2b0ad" xlink:href="#p37" />
<use fill="#7b6d66" xlink:href="#p38" />
<use fill="#423a3a" xlink:href="#p39" />
<use fill="#7e716a" xlink:href="#p40" />
<use fill="#5b4a43" xlink:href="#p41" />
<use fill="#d3b4a9" xlink:href="#p42" />
<use fill="#675956" xlink:href="#p43" />
<use fill="#828385" xlink:href="#p44" />
<use fill="#a8a5a4" xlink:href="#p45" />
<use fill="#3d2e2b" xlink:href="#p46" />
<use fill="#9e9d9b" xlink:href="#p47" />
<use fill="#adadae" xlink:href="#p48" />
<use fill="#ced1d4" xlink:href="#p49" />
<use fill="#b2b1b1" xlink:href="#p50" />
<use fill="#817475" xlink:href="#p51" />
<use fill="#8a7570" xlink:href="#p52" />
<use fill="#1e1c1e" xlink:href="#p53" />
</g>
</svg>