<?xml version="1.0" encoding="UTF-8" standalone="no"?>
<!DOCTYPE svg PUBLIC "-//W3C//DTD SVG 1.1//EN" "http://www.w3.org/Graphics/SVG/1.1/DTD/svg11.dtd">
<svg xmlns="http://www.w3.org/2000/svg" version="1.1" viewBox="0 0 275 183" width="275.0pt" height="183.0pt" xmlns:xlink="http://www.w3.org/1999/xlink">
<defs>
<path d="M 0.00 0.00 L 25.68 0.00 C 33.57 2.86 40.82 1.87 49.00 1.96 C 64.62 2.86 80.36 5.02 96.00 4.91 C 104.82 4.84 113.11 7.55 122.00 7.02 C 129.32 6.54 136.36 7.87 143.62 8.46 C 151.70 10.01 160.30 7.84 168.23 9.75 C 150.47 10.69 134.20 9.18 116.99 10.06 C 112.64 10.41 109.35 7.59 105.01 7.91 C 99.99 7.41 96.20 9.88 91.59 7.48 C 89.49 6.43 86.22 7.34 86.14 10.02 C 80.64 10.88 75.91 6.48 69.81 9.72 C 68.95 10.01 68.09 10.31 67.23 10.60 C 65.17 8.47 62.44 8.71 59.77 8.92 C 48.14 9.25 34.70 8.32 23.22 8.72 C 18.89 10.63 15.21 11.80 10.83 9.20 C 6.32 6.47 1.69 8.17 0.00 13.13 L 0.00 0.00 Z" id="p0" />
<path d="M 25.68 0.00 L 56.66 0.00 C 69.18 1.88 83.20 2.60 96.00 3.01 L 96.00 4.91 C 80.36 5.02 64.62 2.86 49.00 1.96 C 40.82 1.87 33.57 2.86 25.68 0.00 Z" id="p1" />
<path d="M 56.66 0.00 L 249.57 0.00 C 242.43 2.88 235.54 0.73 228.00 3.03 C 217.53 -0.49 210.19 6.84 199.96 4.21 C 192.33 3.53 184.31 4.22 176.66 4.73 C 171.22 5.58 166.09 3.68 160.66 4.71 C 155.21 5.74 150.39 3.71 145.00 3.93 C 139.22 4.16 133.37 4.71 127.58 4.44 C 117.02 3.73 106.59 4.09 96.00 3.01 C 83.20 2.60 69.18 1.88 56.66 0.00 Z" id="p2" />
<path d="M 249.57 0.00 L 275.00 0.00 L 275.00 4.11 C 259.16 3.60 244.11 5.59 228.00 4.99 C 218.80 4.32 210.37 7.18 201.17 5.67 C 199.45 5.58 190.82 3.40 192.18 6.74 C 204.17 8.74 215.99 7.29 227.96 8.72 C 243.59 8.74 259.48 9.73 275.00 9.06 L 275.00 15.97 C 273.41 16.23 271.83 16.52 270.25 16.81 C 268.44 10.43 260.58 17.69 255.20 15.06 C 251.59 11.78 247.53 13.60 242.63 12.44 C 228.85 11.26 215.30 10.90 201.63 9.44 C 181.24 8.55 159.35 8.29 139.01 5.99 C 135.67 5.47 129.86 7.35 127.58 4.44 C 133.37 4.71 139.22 4.16 145.00 3.93 C 150.39 3.71 155.21 5.74 160.66 4.71 C 166.09 3.68 171.22 5.58 176.66 4.73 C 184.31 4.22 192.33 3.53 199.96 4.21 C 210.19 6.84 217.53 -0.49 228.00 3.03 C 235.54 0.73 242.43 2.88 249.57 0.00 Z" id="p3" />
<path d="M 96.00 3.01 C 106.59 4.09 117.02 3.73 127.58 4.44 C 129.86 7.35 135.67 5.47 139.01 5.99 C 159.35 8.29 181.24 8.55 201.63 9.44 C 215.30 10.90 228.85 11.26 242.63 12.44 C 247.53 13.60 251.59 11.78 255.20 15.06 C 251.69 15.12 248.26 14.98 244.81 14.28 C 241.07 13.41 239.10 17.05 235.02 15.62 C 228.21 11.99 219.46 13.18 212.00 13.00 C 204.15 13.20 196.72 12.40 188.99 13.77 C 186.37 13.25 184.16 11.82 181.34 11.76 C 177.09 8.98 173.07 10.36 168.23 9.75 C 160.30 7.84 151.70 10.01 143.62 8.46 C 136.36 7.87 129.32 6.54 122.00 7.02 C 113.11 7.55 104.82 4.84 96.00 4.91 L 96.00 3.01 Z" id="p4" />
<path d="M 275.00 4.11 L 275.00 9.06 C 259.48 9.73 243.59 8.74 227.96 8.72 C 215.99 7.29 204.17 8.74 192.18 6.74 C 190.82 3.40 199.45 5.58 201.17 5.67 C 210.37 7.18 218.80 4.32 228.00 4.99 C 244.11 5.59 259.16 3.60 275.00 4.11 Z" id="p5" />
<path d="M 91.59 7.48 C 96.20 9.88 99.99 7.41 105.01 7.91 C 109.35 7.59 112.64 10.41 116.99 10.06 C 134.20 9.18 150.47 10.69 168.23 9.75 C 173.07 10.36 177.09 8.98 181.34 11.76 L 181.40 12.83 C 177.25 15.51 172.95 15.98 168.14 16.24 C 164.67 18.18 162.82 20.48 158.39 20.15 C 152.44 16.62 148.60 22.96 143.15 20.89 C 136.80 18.16 131.61 21.34 126.14 16.91 C 122.29 14.49 115.26 19.06 111.47 18.51 C 105.81 13.35 101.68 18.70 95.40 17.71 L 94.74 18.92 C 92.17 20.74 93.70 18.58 93.49 16.96 C 91.92 17.26 91.39 16.92 90.95 18.73 L 90.09 17.76 C 89.50 16.52 88.90 15.28 88.24 14.07 C 87.54 12.72 86.86 11.36 86.14 10.02 C 86.22 7.34 89.49 6.43 91.59 7.48 Z" id="p6" />
<path d="M 10.83 9.20 C 15.21 11.80 18.89 10.63 23.22 8.72 C 34.70 8.32 48.14 9.25 59.77 8.92 C 62.44 8.71 65.17 8.47 67.23 10.60 C 63.10 12.38 61.90 15.86 59.15 19.02 C 58.80 15.67 57.40 14.07 54.86 11.99 C 49.78 12.21 54.54 16.94 50.69 18.66 C 48.12 19.25 44.85 16.25 47.88 13.75 C 44.01 9.67 40.49 15.17 36.54 11.45 C 33.42 9.52 25.85 8.96 23.96 13.06 C 25.00 15.38 26.72 16.26 24.95 18.86 C 23.27 24.73 16.46 23.05 12.03 22.03 C 8.93 19.31 12.03 10.25 6.09 9.91 C 4.37 11.61 2.45 13.30 4.06 15.80 C 5.27 18.62 2.19 22.60 0.00 24.24 L 0.00 13.13 C 1.69 8.17 6.32 6.47 10.83 9.20 Z" id="p7" />
<path d="M 86.14 10.02 C 86.86 11.36 87.54 12.72 88.24 14.07 C 85.46 14.44 80.35 13.38 78.85 11.36 C 74.73 12.59 72.06 15.14 69.81 9.72 C 75.91 6.48 80.64 10.88 86.14 10.02 Z" id="p8" />
<path d="M 6.09 9.91 C 12.03 10.25 8.93 19.31 12.03 22.03 C 16.46 23.05 23.27 24.73 24.95 18.86 C 26.72 16.26 25.00 15.38 23.96 13.06 C 25.85 8.96 33.42 9.52 36.54 11.45 C 40.49 15.17 44.01 9.67 47.88 13.75 C 44.85 16.25 48.12 19.25 50.69 18.66 C 54.54 16.94 49.78 12.21 54.86 11.99 C 57.40 14.07 58.80 15.67 59.15 19.02 C 57.47 23.37 55.66 27.36 55.80 32.14 C 54.87 26.03 52.42 28.75 48.02 28.58 C 49.90 25.09 48.53 21.23 45.90 19.04 C 39.84 17.91 43.40 25.01 43.89 27.92 C 41.49 32.34 37.53 33.55 42.91 37.90 C 40.23 40.11 36.94 38.48 34.04 37.66 C 35.52 36.29 37.18 35.39 38.83 34.26 C 35.17 32.89 32.01 34.22 31.54 29.27 C 27.51 28.38 24.86 29.54 23.87 33.59 C 21.28 32.17 19.94 32.15 17.05 32.49 C 14.55 30.52 12.37 28.89 8.99 28.95 C 5.35 28.62 3.83 32.38 0.00 32.14 L 0.00 24.24 C 2.19 22.60 5.27 18.62 4.06 15.80 C 2.45 13.30 4.37 11.61 6.09 9.91 Z" id="p9" />
<path d="M 69.81 9.72 C 72.06 15.14 74.73 12.59 78.85 11.36 C 80.35 13.38 85.46 14.44 88.24 14.07 C 88.90 15.28 89.50 16.52 90.09 17.76 L 88.14 17.56 C 84.80 17.14 81.69 17.68 78.38 18.12 C 80.18 20.13 82.52 24.93 81.48 27.38 C 71.87 30.46 80.56 48.28 88.03 41.84 C 90.10 41.96 92.10 42.25 94.08 42.85 C 94.10 44.81 93.91 46.74 93.74 48.69 C 93.36 51.17 94.22 53.47 94.19 56.07 C 92.15 57.60 91.64 61.52 89.91 62.46 C 84.57 60.88 88.68 72.40 90.81 70.03 C 90.97 71.75 91.14 73.47 91.26 75.19 C 91.16 76.54 90.41 77.10 89.00 76.87 C 88.12 72.71 89.34 71.90 85.75 75.52 C 83.36 72.92 83.85 73.55 80.79 74.71 C 78.87 68.68 78.07 75.86 78.78 78.17 L 78.89 79.79 C 76.27 79.09 73.69 83.29 71.91 84.82 C 68.21 85.35 71.33 91.54 70.94 93.99 C 71.47 95.75 70.13 98.47 72.93 97.94 C 74.03 97.42 75.05 96.79 76.05 96.12 L 77.26 95.29 C 81.15 91.39 87.80 91.95 87.36 85.98 C 88.37 89.05 87.32 90.90 91.32 88.82 C 94.21 91.65 91.52 94.43 92.02 98.20 C 92.05 99.17 92.09 100.15 92.15 101.12 C 92.01 102.87 91.71 104.44 91.06 106.07 C 91.36 104.64 90.84 103.39 90.44 102.05 C 89.53 97.95 91.13 95.71 85.90 98.02 C 85.19 98.30 84.49 98.59 83.78 98.87 C 81.05 99.26 82.97 101.18 83.07 102.95 C 82.64 104.62 82.49 105.84 83.91 107.06 C 83.98 111.13 83.88 115.13 84.35 119.19 C 84.03 120.89 89.19 118.31 90.18 118.24 L 91.08 117.95 L 92.40 119.29 C 92.32 120.19 92.25 121.08 92.19 121.98 C 91.64 124.20 91.38 126.03 92.77 128.01 C 92.70 133.42 93.32 136.36 95.89 141.06 C 96.06 142.79 96.13 144.43 96.66 146.10 C 98.04 149.77 99.46 153.39 100.37 157.22 C 92.19 157.07 89.18 152.03 83.42 147.66 C 80.21 144.69 76.78 142.00 73.37 139.26 C 69.02 133.25 64.49 126.48 58.71 121.79 C 55.12 116.66 58.27 108.82 56.39 102.78 C 56.11 99.84 55.80 96.97 54.82 94.16 C 54.91 90.58 54.72 87.07 55.96 83.69 C 57.02 89.50 60.20 87.78 64.84 88.48 C 68.38 85.37 67.45 82.46 67.52 78.32 C 73.49 79.33 65.57 75.98 65.72 73.24 C 67.20 73.34 70.34 72.69 68.14 70.84 C 65.89 69.27 65.78 71.53 65.72 73.24 C 62.15 66.33 57.76 60.87 51.32 56.35 C 50.32 53.75 47.76 54.17 46.47 51.83 C 54.73 48.12 59.40 56.90 64.93 61.36 C 68.43 64.47 73.47 67.06 77.90 68.65 C 79.27 67.15 79.82 65.31 80.11 63.34 C 78.73 63.75 76.68 65.39 75.30 64.71 C 73.77 62.63 75.23 61.56 75.73 59.47 C 72.79 58.78 71.18 57.85 68.93 55.89 C 65.31 46.31 72.46 43.31 73.83 34.86 C 74.29 31.54 70.59 30.40 68.16 29.38 C 62.58 31.08 68.15 38.71 62.51 40.69 C 61.27 37.19 60.33 37.00 57.00 35.84 C 56.58 34.62 56.17 33.39 55.80 32.14 C 55.66 27.36 57.47 23.37 59.15 19.02 C 61.90 15.86 63.10 12.38 67.23 10.60 C 68.09 10.31 68.95 10.01 69.81 9.72 Z" id="p10" />
<path d="M 181.34 11.76 C 184.16 11.82 186.37 13.25 188.99 13.77 C 196.72 12.40 204.15 13.20 212.00 13.00 C 219.46 13.18 228.21 11.99 235.02 15.62 C 231.14 22.31 240.93 19.32 244.03 19.17 C 242.87 20.45 241.41 21.15 239.91 21.95 C 235.44 26.24 230.75 25.53 225.99 28.72 C 228.39 29.00 230.81 29.17 233.23 29.31 C 229.43 30.43 225.02 29.96 221.07 30.02 C 216.75 29.29 212.57 28.32 208.15 28.60 C 207.47 26.23 212.73 27.39 214.16 26.20 C 217.72 23.66 221.26 20.71 224.95 25.07 C 225.65 27.23 232.78 24.31 228.25 23.68 C 223.07 23.61 225.38 16.97 226.67 14.10 C 218.70 14.36 209.39 12.58 202.10 15.98 C 194.63 17.86 188.88 20.69 180.66 18.30 C 176.62 14.01 189.29 14.97 181.40 12.83 L 181.34 11.76 Z" id="p11" />
<path d="M 181.40 12.83 C 189.29 14.97 176.62 14.01 180.66 18.30 C 188.88 20.69 194.63 17.86 202.10 15.98 C 195.85 18.25 200.61 21.34 197.22 23.96 C 192.53 18.48 179.88 18.58 176.15 24.89 C 188.98 24.50 201.37 26.21 214.16 26.20 C 212.73 27.39 207.47 26.23 208.15 28.60 C 212.57 28.32 216.75 29.29 221.07 30.02 L 220.87 30.87 C 219.60 31.35 218.39 33.30 217.15 31.87 C 214.40 29.25 211.44 30.20 207.99 29.85 C 198.86 29.37 189.93 28.39 180.76 29.33 C 179.30 29.12 177.83 28.93 176.37 28.70 C 170.42 27.28 163.91 28.16 158.00 27.03 C 155.83 25.78 151.10 26.97 152.17 23.38 C 155.14 22.71 157.07 23.47 158.39 20.15 C 162.82 20.48 164.67 18.18 168.14 16.24 C 172.95 15.98 177.25 15.51 181.40 12.83 Z" id="p12" />
<path d="M 226.67 14.10 C 225.38 16.97 223.07 23.61 228.25 23.68 C 232.78 24.31 225.65 27.23 224.95 25.07 C 221.26 20.71 217.72 23.66 214.16 26.20 C 201.37 26.21 188.98 24.50 176.15 24.89 C 179.88 18.58 192.53 18.48 197.22 23.96 C 200.61 21.34 195.85 18.25 202.10 15.98 C 209.39 12.58 218.70 14.36 226.67 14.10 Z" id="p13" />
<path d="M 244.81 14.28 C 248.26 14.98 251.69 15.12 255.20 15.06 C 251.03 18.38 245.51 22.44 239.91 21.95 C 241.41 21.15 242.87 20.45 244.03 19.17 C 240.93 19.32 231.14 22.31 235.02 15.62 C 239.10 17.05 241.07 13.41 244.81 14.28 Z" id="p14" />
<path d="M 270.25 16.81 C 260.28 20.00 249.31 21.61 239.89 26.19 C 237.53 24.55 239.19 24.02 239.91 21.95 C 245.51 22.44 251.03 18.38 255.20 15.06 C 260.58 17.69 268.44 10.43 270.25 16.81 Z" id="p15" />
<path d="M 111.47 18.51 C 115.26 19.06 122.29 14.49 126.14 16.91 C 131.61 21.34 136.80 18.16 143.15 20.89 C 148.60 22.96 152.44 16.62 158.39 20.15 C 157.07 23.47 155.14 22.71 152.17 23.38 C 151.10 26.97 155.83 25.78 158.00 27.03 C 163.91 28.16 170.42 27.28 176.37 28.70 C 175.70 31.06 176.88 34.05 173.78 34.58 C 169.56 34.67 172.34 28.69 168.01 29.00 C 165.30 29.19 161.10 27.73 160.65 31.54 C 158.36 29.60 154.68 25.98 151.91 28.96 C 150.59 31.82 149.55 32.81 146.29 31.67 C 140.89 27.87 135.30 32.29 130.14 27.85 C 130.88 26.49 132.66 25.69 133.80 24.66 C 129.56 18.48 117.22 17.69 112.47 23.66 C 111.01 18.91 106.86 16.41 102.33 19.34 C 98.85 21.48 98.11 20.59 94.74 18.92 L 95.40 17.71 C 101.68 18.70 105.81 13.35 111.47 18.51 Z" id="p16" />
<path d="M 275.00 15.97 L 275.00 25.21 C 264.89 23.42 253.49 20.70 244.07 26.14 C 241.95 27.37 240.42 27.96 237.91 28.01 C 238.57 27.41 239.23 26.80 239.89 26.19 C 249.31 21.61 260.28 20.00 270.25 16.81 C 271.83 16.52 273.41 16.23 275.00 15.97 Z" id="p17" />
<path d="M 88.14 17.56 C 84.22 19.54 87.98 23.02 90.69 23.78 C 91.05 22.50 91.36 21.21 91.67 19.91 C 94.09 24.40 95.23 29.60 92.00 34.05 C 88.24 37.18 84.82 37.77 80.06 38.29 C 82.07 39.10 84.06 39.98 86.08 40.75 C 88.13 39.28 88.95 37.68 91.83 37.93 C 90.57 39.24 89.24 40.48 88.03 41.84 C 80.56 48.28 71.87 30.46 81.48 27.38 C 82.52 24.93 80.18 20.13 78.38 18.12 C 81.69 17.68 84.80 17.14 88.14 17.56 Z" id="p18" />
<path d="M 93.49 16.96 C 93.70 18.58 92.17 20.74 94.74 18.92 C 98.11 20.59 98.85 21.48 102.33 19.34 C 106.86 16.41 111.01 18.91 112.47 23.66 C 117.22 17.69 129.56 18.48 133.80 24.66 C 132.66 25.69 130.88 26.49 130.14 27.85 C 135.30 32.29 140.89 27.87 146.29 31.67 C 149.55 32.81 150.59 31.82 151.91 28.96 C 151.68 32.86 152.03 34.65 154.03 37.94 C 150.59 40.20 149.21 42.06 148.20 46.09 C 148.89 48.54 149.68 49.45 148.47 51.94 C 151.35 51.40 154.12 51.04 157.06 50.97 C 150.71 52.93 144.53 55.18 138.20 57.16 C 135.30 54.75 137.13 55.33 138.94 53.21 C 134.10 53.06 126.06 52.67 123.01 48.25 C 128.10 48.30 132.18 47.17 136.92 45.52 C 134.44 43.00 130.25 43.35 133.37 39.18 C 129.06 35.88 132.09 35.30 134.05 31.88 C 129.45 27.82 125.15 30.52 120.60 29.31 C 116.86 26.57 117.80 33.62 113.23 31.90 C 109.70 28.05 106.12 26.52 101.22 29.30 C 100.90 34.23 104.03 38.35 99.78 42.70 C 97.71 43.01 94.25 40.39 95.71 44.19 C 95.88 48.67 98.88 44.51 100.79 47.45 C 99.12 48.30 97.45 49.15 95.83 50.11 C 95.13 49.64 94.43 49.16 93.74 48.69 C 93.91 46.74 94.10 44.81 94.08 42.85 C 93.95 39.69 92.84 37.06 92.00 34.05 C 95.23 29.60 94.09 24.40 91.67 19.91 L 90.95 18.73 C 91.39 16.92 91.92 17.26 93.49 16.96 Z" id="p19" />
<path d="M 88.14 17.56 L 90.09 17.76 L 90.95 18.73 L 91.67 19.91 C 91.36 21.21 91.05 22.50 90.69 23.78 C 87.98 23.02 84.22 19.54 88.14 17.56 Z" id="p20" />
<path d="M 45.90 19.04 C 48.53 21.23 49.90 25.09 48.02 28.58 C 52.42 28.75 54.87 26.03 55.80 32.14 C 56.17 33.39 56.58 34.62 57.00 35.84 C 57.38 39.63 60.92 38.00 60.98 41.72 C 59.50 44.29 58.71 49.00 54.98 48.91 C 51.97 49.52 48.48 49.13 46.47 51.83 C 44.60 53.57 42.55 55.08 40.78 56.94 C 39.61 57.87 38.38 59.47 36.89 59.79 C 25.54 58.83 11.85 58.12 0.00 56.74 L 0.00 32.14 C 3.83 32.38 5.35 28.62 8.99 28.95 C 12.37 28.89 14.55 30.52 17.05 32.49 C 19.94 32.15 21.28 32.17 23.87 33.59 C 24.86 29.54 27.51 28.38 31.54 29.27 C 32.01 34.22 35.17 32.89 38.83 34.26 C 37.18 35.39 35.52 36.29 34.04 37.66 C 36.94 38.48 40.23 40.11 42.91 37.90 C 37.53 33.55 41.49 32.34 43.89 27.92 C 43.40 25.01 39.84 17.91 45.90 19.04 Z" id="p21" />
<path d="M 239.91 21.95 C 239.19 24.02 237.53 24.55 239.89 26.19 C 239.23 26.80 238.57 27.41 237.91 28.01 C 236.34 28.44 234.80 28.91 233.23 29.31 C 230.81 29.17 228.39 29.00 225.99 28.72 C 230.75 25.53 235.44 26.24 239.91 21.95 Z" id="p22" />
<path d="M 275.00 25.21 L 275.00 51.45 C 268.05 50.58 276.67 46.09 272.97 42.00 C 270.09 37.88 272.73 34.70 271.75 30.29 C 266.95 27.17 264.34 30.61 265.89 35.31 C 268.29 39.87 262.67 42.84 266.88 46.11 C 268.94 47.49 266.19 50.66 267.72 52.27 C 269.26 54.60 272.54 53.83 275.00 54.26 L 275.00 61.22 C 268.98 59.13 262.84 60.77 256.83 58.98 C 251.72 57.02 245.55 58.57 240.05 57.81 C 240.21 55.70 243.25 49.64 245.02 53.98 C 246.49 58.11 251.88 53.33 254.17 52.18 C 256.72 50.64 249.72 47.39 253.42 46.54 C 256.66 45.58 256.02 42.93 256.61 40.20 C 253.02 39.33 250.14 41.68 251.17 36.34 C 257.67 36.12 255.96 34.58 255.82 29.21 C 252.03 28.84 248.07 28.76 244.29 29.25 C 243.10 31.56 241.36 34.35 243.12 36.81 C 244.63 38.90 239.32 41.83 239.25 37.96 C 240.40 34.50 239.12 28.71 234.39 30.40 C 229.80 31.77 225.54 31.16 220.87 30.87 L 221.07 30.02 C 225.02 29.96 229.43 30.43 233.23 29.31 C 234.80 28.91 236.34 28.44 237.91 28.01 C 240.42 27.96 241.95 27.37 244.07 26.14 C 253.49 20.70 264.89 23.42 275.00 25.21 Z" id="p23" />
<path d="M 113.23 31.90 C 117.80 33.62 116.86 26.57 120.60 29.31 C 125.15 30.52 129.45 27.82 134.05 31.88 C 132.09 35.30 129.06 35.88 133.37 39.18 C 130.25 43.35 134.44 43.00 136.92 45.52 C 132.18 47.17 128.10 48.30 123.01 48.25 C 126.06 52.67 134.10 53.06 138.94 53.21 C 137.13 55.33 135.30 54.75 138.20 57.16 C 132.25 60.95 122.10 59.95 120.07 67.11 C 118.21 68.13 110.54 73.27 117.99 71.29 L 118.79 71.29 C 132.49 73.22 146.51 74.36 160.30 74.77 C 155.84 77.09 150.21 75.36 145.15 76.32 C 141.37 77.18 138.07 76.10 134.72 74.40 C 120.64 72.71 106.14 72.47 92.19 71.20 C 97.15 67.09 109.32 74.46 111.97 65.19 C 107.50 64.49 95.00 65.89 92.71 62.03 C 93.21 61.07 93.72 60.12 94.24 59.17 C 96.40 56.26 95.61 53.43 95.83 50.11 C 97.45 49.15 99.12 48.30 100.79 47.45 C 98.88 44.51 95.88 48.67 95.71 44.19 C 94.25 40.39 97.71 43.01 99.78 42.70 C 104.03 38.35 100.90 34.23 101.22 29.30 C 106.12 26.52 109.70 28.05 113.23 31.90 Z" id="p24" />
<path d="M 160.65 31.54 C 161.10 27.73 165.30 29.19 168.01 29.00 C 172.34 28.69 169.56 34.67 173.78 34.58 C 176.88 34.05 175.70 31.06 176.37 28.70 C 177.83 28.93 179.30 29.12 180.76 29.33 C 185.04 31.43 193.29 27.04 192.29 34.12 C 190.88 35.19 188.74 35.99 188.48 37.94 C 187.74 42.05 187.05 40.30 184.22 39.74 C 181.40 43.41 182.73 46.50 187.29 45.97 C 187.22 46.94 187.18 47.91 187.14 48.88 L 187.11 49.81 C 186.98 52.54 186.92 55.29 187.02 58.02 L 187.07 58.95 C 187.09 62.18 189.22 65.27 190.44 68.26 C 188.51 71.81 179.55 68.59 176.06 69.23 C 169.73 70.10 163.41 68.05 157.00 68.94 C 148.57 65.47 138.30 67.62 129.58 66.37 C 126.42 65.80 129.78 64.75 130.75 63.83 C 147.48 58.95 163.09 51.44 179.85 46.54 C 176.39 40.95 171.88 46.29 167.62 47.59 C 164.10 48.90 160.41 49.13 157.06 50.97 C 154.12 51.04 151.35 51.40 148.47 51.94 C 149.68 49.45 148.89 48.54 148.20 46.09 C 149.21 42.06 150.59 40.20 154.03 37.94 C 152.03 34.65 151.68 32.86 151.91 28.96 C 154.68 25.98 158.36 29.60 160.65 31.54 Z M 159.41 45.36 C 162.59 45.26 165.53 46.42 168.77 45.43 C 170.91 44.63 174.63 43.00 171.30 40.76 C 166.79 38.93 160.52 40.11 155.60 39.73 C 151.13 40.93 153.35 45.37 155.04 47.97 C 156.07 51.06 158.10 46.10 159.41 45.36 Z" id="p25" />
<path d="M 68.16 29.38 C 70.59 30.40 74.29 31.54 73.83 34.86 C 72.46 43.31 65.31 46.31 68.93 55.89 L 67.14 56.33 C 63.81 56.04 65.71 53.11 65.54 50.90 C 64.37 47.02 65.13 43.89 60.98 41.72 C 60.92 38.00 57.38 39.63 57.00 35.84 C 60.33 37.00 61.27 37.19 62.51 40.69 C 68.15 38.71 62.58 31.08 68.16 29.38 Z" id="p26" />
<path d="M 180.76 29.33 C 189.93 28.39 198.86 29.37 207.99 29.85 C 211.44 30.20 214.40 29.25 217.15 31.87 C 218.39 33.30 219.60 31.35 220.87 30.87 C 225.54 31.16 229.80 31.77 234.39 30.40 C 239.12 28.71 240.40 34.50 239.25 37.96 C 239.32 41.83 244.63 38.90 243.12 36.81 C 241.36 34.35 243.10 31.56 244.29 29.25 C 248.07 28.76 252.03 28.84 255.82 29.21 C 255.96 34.58 257.67 36.12 251.17 36.34 C 250.14 41.68 253.02 39.33 256.61 40.20 C 256.02 42.93 256.66 45.58 253.42 46.54 C 249.72 47.39 256.72 50.64 254.17 52.18 C 251.88 53.33 246.49 58.11 245.02 53.98 C 243.25 49.64 240.21 55.70 240.05 57.81 C 245.55 58.57 251.72 57.02 256.83 58.98 C 262.84 60.77 268.98 59.13 275.00 61.22 L 275.00 63.92 C 268.15 66.86 261.12 69.20 254.40 72.51 C 249.69 74.83 256.87 75.42 250.19 77.23 C 245.79 72.18 237.18 74.41 230.88 72.56 C 229.89 72.49 228.91 72.49 227.93 72.65 L 225.98 72.91 C 224.08 72.02 222.17 71.30 220.09 70.94 C 214.31 70.89 215.95 64.73 215.82 60.69 C 219.86 56.15 218.79 53.97 216.38 48.96 L 216.05 48.12 C 215.65 44.61 215.45 41.07 214.94 37.57 C 215.06 33.59 209.23 33.22 206.39 32.49 C 201.24 31.15 197.08 32.41 192.29 34.12 C 193.29 27.04 185.04 31.43 180.76 29.33 Z" id="p27" />
<path d="M 271.75 30.29 C 272.73 34.70 270.09 37.88 272.97 42.00 C 276.67 46.09 268.05 50.58 275.00 51.45 L 275.00 54.26 C 272.54 53.83 269.26 54.60 267.72 52.27 C 266.19 50.66 268.94 47.49 266.88 46.11 C 262.67 42.84 268.29 39.87 265.89 35.31 C 264.34 30.61 266.95 27.17 271.75 30.29 Z" id="p28" />
<path d="M 206.39 32.49 C 209.23 33.22 215.06 33.59 214.94 37.57 C 215.45 41.07 215.65 44.61 216.05 48.12 C 213.60 43.41 212.69 41.98 207.07 41.56 C 200.66 39.50 195.33 41.83 188.95 41.85 C 188.81 40.54 188.64 39.24 188.48 37.94 C 188.74 35.99 190.88 35.19 192.29 34.12 C 197.08 32.41 201.24 31.15 206.39 32.49 Z" id="p29" />
<path d="M 92.00 34.05 C 92.84 37.06 93.95 39.69 94.08 42.85 C 92.10 42.25 90.10 41.96 88.03 41.84 C 89.24 40.48 90.57 39.24 91.83 37.93 C 88.95 37.68 88.13 39.28 86.08 40.75 C 84.06 39.98 82.07 39.10 80.06 38.29 C 84.82 37.77 88.24 37.18 92.00 34.05 Z" id="p30" />
<path d="M 188.48 37.94 C 188.64 39.24 188.81 40.54 188.95 41.85 C 188.37 43.21 187.83 44.59 187.29 45.97 C 182.73 46.50 181.40 43.41 184.22 39.74 C 187.05 40.30 187.74 42.05 188.48 37.94 Z" id="p31" />
<path d="M 171.30 40.76 C 174.63 43.00 170.91 44.63 168.77 45.43 C 165.53 46.42 162.59 45.26 159.41 45.36 C 158.10 46.10 156.07 51.06 155.04 47.97 C 153.35 45.37 151.13 40.93 155.60 39.73 C 160.52 40.11 166.79 38.93 171.30 40.76 Z" id="p32" />
<path d="M 207.07 41.56 C 201.74 42.88 203.30 44.53 205.75 47.79 C 196.06 47.11 213.23 53.36 206.01 56.14 C 203.56 56.46 201.25 56.95 198.76 56.84 C 200.38 54.48 202.15 53.65 204.93 53.44 C 202.03 50.74 197.85 51.34 197.69 55.93 C 193.15 53.15 198.05 47.82 200.99 45.89 C 201.01 41.41 193.76 44.93 192.78 47.99 C 191.62 50.66 189.43 48.84 187.14 48.88 C 187.18 47.91 187.22 46.94 187.29 45.97 C 187.83 44.59 188.37 43.21 188.95 41.85 C 195.33 41.83 200.66 39.50 207.07 41.56 Z" id="p33" />
<path d="M 60.98 41.72 C 65.13 43.89 64.37 47.02 65.54 50.90 C 65.71 53.11 63.81 56.04 67.14 56.33 C 60.14 57.24 70.07 60.48 64.93 61.36 C 59.40 56.90 54.73 48.12 46.47 51.83 C 48.48 49.13 51.97 49.52 54.98 48.91 C 58.71 49.00 59.50 44.29 60.98 41.72 Z" id="p34" />
<path d="M 207.07 41.56 C 210.16 45.50 208.55 49.00 210.44 52.85 C 211.35 47.56 215.36 53.32 216.38 48.96 C 218.79 53.97 219.86 56.15 215.82 60.69 C 215.95 64.73 214.31 70.89 220.09 70.94 C 220.96 73.59 221.57 76.28 222.17 79.00 C 220.80 78.75 219.43 78.47 218.08 78.12 C 217.96 75.39 218.11 73.10 216.19 70.94 C 216.88 76.78 215.97 87.50 210.74 91.01 C 210.56 87.89 208.90 89.63 206.73 89.53 C 204.75 88.93 203.25 89.01 202.28 86.92 C 201.64 85.45 196.89 85.81 198.96 83.85 C 202.25 83.52 205.73 83.05 208.81 81.83 C 203.13 76.18 212.94 74.73 212.63 67.90 C 211.08 61.90 217.13 60.50 212.57 55.33 C 208.08 57.20 208.45 63.46 201.87 63.18 C 201.29 58.77 210.47 58.21 206.01 56.14 C 213.23 53.36 196.06 47.11 205.75 47.79 C 203.30 44.53 201.74 42.88 207.07 41.56 Z" id="p35" />
<path d="M 207.07 41.56 C 212.69 41.98 213.60 43.41 216.05 48.12 L 216.38 48.96 C 215.36 53.32 211.35 47.56 210.44 52.85 C 208.55 49.00 210.16 45.50 207.07 41.56 Z" id="p36" />
<path d="M 179.85 46.54 C 163.09 51.44 147.48 58.95 130.75 63.83 C 129.78 64.75 126.42 65.80 129.58 66.37 C 138.30 67.62 148.57 65.47 157.00 68.94 C 155.27 69.00 153.55 69.12 151.81 69.20 C 143.51 68.19 135.49 68.04 127.19 67.69 C 123.15 64.78 120.76 68.60 117.99 71.29 C 110.54 73.27 118.21 68.13 120.07 67.11 C 122.10 59.95 132.25 60.95 138.20 57.16 C 144.53 55.18 150.71 52.93 157.06 50.97 C 160.41 49.13 164.10 48.90 167.62 47.59 C 171.88 46.29 176.39 40.95 179.85 46.54 Z" id="p37" />
<path d="M 200.99 45.89 C 198.05 47.82 193.15 53.15 197.69 55.93 L 198.76 56.84 C 201.25 56.95 203.56 56.46 206.01 56.14 C 210.47 58.21 201.29 58.77 201.87 63.18 C 199.57 63.94 197.54 64.16 195.12 63.99 C 196.33 61.60 200.54 64.77 200.02 60.41 C 194.94 60.47 190.53 64.17 187.07 58.95 L 187.02 58.02 C 189.29 58.02 191.62 58.06 193.87 57.81 C 193.74 56.07 194.99 52.72 192.20 53.04 L 191.27 52.88 C 192.55 50.02 188.83 50.65 187.11 49.81 L 187.14 48.88 C 189.43 48.84 191.62 50.66 192.78 47.99 C 193.76 44.93 201.01 41.41 200.99 45.89 Z" id="p38" />
<path d="M 93.74 48.69 C 94.43 49.16 95.13 49.64 95.83 50.11 C 95.61 53.43 96.40 56.26 94.24 59.17 C 94.23 58.14 94.21 57.10 94.19 56.07 C 94.22 53.47 93.36 51.17 93.74 48.69 Z" id="p39" />
<path d="M 187.11 49.81 C 188.83 50.65 192.55 50.02 191.27 52.88 C 187.30 53.12 188.18 53.25 187.99 56.75 C 189.94 55.79 190.98 54.86 192.20 53.04 C 194.99 52.72 193.74 56.07 193.87 57.81 C 191.62 58.06 189.29 58.02 187.02 58.02 C 186.92 55.29 186.98 52.54 187.11 49.81 Z" id="p40" />
<path d="M 46.47 51.83 C 47.76 54.17 50.32 53.75 51.32 56.35 C 48.91 56.92 47.48 54.19 46.11 56.96 C 44.43 57.36 42.72 57.64 41.01 57.93 L 40.78 56.94 C 42.55 55.08 44.60 53.57 46.47 51.83 Z" id="p41" />
<path d="M 204.93 53.44 C 202.15 53.65 200.38 54.48 198.76 56.84 L 197.69 55.93 C 197.85 51.34 202.03 50.74 204.93 53.44 Z" id="p42" />
<path d="M 191.27 52.88 L 192.20 53.04 C 190.98 54.86 189.94 55.79 187.99 56.75 C 188.18 53.25 187.30 53.12 191.27 52.88 Z" id="p43" />
<path d="M 51.32 56.35 C 57.76 60.87 62.15 66.33 65.72 73.24 C 65.57 75.98 73.49 79.33 67.52 78.32 C 67.45 82.46 68.38 85.37 64.84 88.48 C 60.20 87.78 57.02 89.50 55.96 83.69 C 56.52 81.66 57.62 80.14 59.89 80.04 C 60.03 81.70 56.67 85.83 59.63 85.87 C 63.38 88.33 64.25 82.44 63.64 79.89 C 63.56 71.72 57.52 61.83 50.12 58.33 C 48.80 57.82 47.46 57.37 46.11 56.96 C 47.48 54.19 48.91 56.92 51.32 56.35 Z" id="p44" />
<path d="M 212.57 55.33 C 217.13 60.50 211.08 61.90 212.63 67.90 C 212.94 74.73 203.13 76.18 208.81 81.83 C 205.73 83.05 202.25 83.52 198.96 83.85 C 196.90 81.59 194.08 79.76 192.54 77.11 C 197.39 76.12 202.10 82.75 204.68 77.68 C 205.87 75.97 206.05 74.15 205.99 72.12 C 201.31 75.34 197.85 75.76 192.54 77.11 C 191.72 75.39 191.69 73.67 191.58 71.81 L 191.54 71.04 C 191.36 69.89 191.14 68.75 190.87 67.62 C 191.85 68.03 192.82 68.44 193.80 68.85 C 192.07 72.62 196.96 72.62 198.99 70.98 C 201.97 69.69 198.04 69.15 196.97 68.25 C 203.22 66.98 197.27 67.00 194.78 66.66 C 196.41 65.23 207.56 65.64 201.87 63.18 C 208.45 63.46 208.08 57.20 212.57 55.33 Z" id="p45" />
<path d="M 67.14 56.33 L 68.93 55.89 C 71.18 57.85 72.79 58.78 75.73 59.47 C 75.23 61.56 73.77 62.63 75.30 64.71 C 76.68 65.39 78.73 63.75 80.11 63.34 C 79.82 65.31 79.27 67.15 77.90 68.65 C 73.47 67.06 68.43 64.47 64.93 61.36 C 70.07 60.48 60.14 57.24 67.14 56.33 Z" id="p46" />
<path d="M 94.19 56.07 C 94.21 57.10 94.23 58.14 94.24 59.17 C 93.72 60.12 93.21 61.07 92.71 62.03 C 92.11 63.12 92.01 64.21 92.06 65.43 C 96.93 65.93 101.86 65.76 106.71 66.29 C 108.12 67.29 108.26 67.76 106.70 68.69 C 101.52 69.70 96.35 68.55 91.38 68.55 L 90.81 70.03 C 88.68 72.40 84.57 60.88 89.91 62.46 C 91.64 61.52 92.15 57.60 94.19 56.07 Z" id="p47" />
<path d="M 0.00 56.74 C 11.85 58.12 25.54 58.83 36.89 59.79 C 38.38 59.47 39.61 57.87 40.78 56.94 L 41.01 57.93 L 41.41 59.75 C 41.69 62.89 36.76 65.62 34.33 67.03 C 30.72 63.70 24.63 65.34 20.00 65.01 C 13.19 65.54 6.75 64.08 0.00 63.79 L 0.00 61.73 C 10.85 63.70 22.25 63.72 33.27 64.36 C 35.16 64.43 37.10 63.31 36.94 61.19 C 24.62 60.95 12.30 59.36 0.00 58.85 L 0.00 56.74 Z" id="p48" />
<path d="M 46.11 56.96 C 47.46 57.37 48.80 57.82 50.12 58.33 C 46.83 61.84 45.31 59.47 41.41 59.75 L 41.01 57.93 C 42.72 57.64 44.43 57.36 46.11 56.96 Z" id="p49" />
<path d="M 50.12 58.33 C 57.52 61.83 63.56 71.72 63.64 79.89 C 58.41 86.50 64.35 75.27 59.26 75.58 C 56.02 74.94 54.55 75.25 52.92 71.93 C 49.95 75.00 48.38 78.74 46.85 82.65 C 47.59 82.20 48.33 81.75 49.07 81.31 C 49.41 85.51 47.74 87.98 45.45 91.22 C 45.77 92.78 47.50 94.32 48.53 95.54 C 50.41 93.17 52.00 90.60 53.67 88.09 C 53.97 90.14 54.18 92.18 54.82 94.16 C 55.80 96.97 56.11 99.84 56.39 102.78 C 56.22 104.43 56.06 106.08 55.84 107.72 C 53.11 106.08 51.71 105.02 48.38 105.61 C 50.23 98.04 42.35 103.84 39.29 98.44 C 37.58 104.11 38.85 96.63 36.05 96.01 C 36.54 99.80 38.21 102.74 37.07 106.65 C 41.02 102.43 38.83 112.49 38.45 114.01 C 37.93 113.43 37.40 112.87 36.86 112.31 L 36.28 111.71 C 35.99 110.04 35.72 108.36 35.44 106.68 C 35.90 98.67 30.59 103.81 25.76 103.76 C 27.76 101.49 33.20 101.61 33.91 98.90 C 33.07 94.04 32.85 89.75 33.03 84.81 C 32.97 83.81 32.72 82.91 32.28 82.11 C 31.95 81.44 31.61 80.77 31.26 80.11 C 31.43 79.35 31.58 78.59 31.72 77.82 C 32.28 74.12 32.83 70.50 34.33 67.03 C 36.76 65.62 41.69 62.89 41.41 59.75 C 45.31 59.47 46.83 61.84 50.12 58.33 Z M 52.20 62.17 C 49.44 65.77 54.54 70.86 56.07 74.23 C 59.49 69.61 56.60 64.53 52.20 62.17 Z M 43.85 74.76 C 51.36 79.91 49.86 63.83 45.03 63.92 C 43.03 65.56 38.02 65.64 38.30 68.73 C 36.98 72.75 40.59 74.26 43.85 74.76 Z" id="p50" />
<path d="M 0.00 58.85 C 12.30 59.36 24.62 60.95 36.94 61.19 C 37.10 63.31 35.16 64.43 33.27 64.36 C 22.25 63.72 10.85 63.70 0.00 61.73 L 0.00 58.85 Z" id="p51" />
<path d="M 187.07 58.95 C 190.53 64.17 194.94 60.47 200.02 60.41 C 200.54 64.77 196.33 61.60 195.12 63.99 C 197.54 64.16 199.57 63.94 201.87 63.18 C 207.56 65.64 196.41 65.23 194.78 66.66 C 193.45 66.90 191.43 65.94 190.87 67.62 L 190.44 68.26 C 189.22 65.27 187.09 62.18 187.07 58.95 Z" id="p52" />
<path d="M 52.20 62.17 C 56.60 64.53 59.49 69.61 56.07 74.23 C 54.54 70.86 49.44 65.77 52.20 62.17 Z" id="p53" />
<path d="M 92.71 62.03 C 95.00 65.89 107.50 64.49 111.97 65.19 C 109.32 74.46 97.15 67.09 92.19 71.20 C 91.89 72.53 91.63 73.87 91.26 75.19 C 91.14 73.47 90.97 71.75 90.81 70.03 L 91.38 68.55 C 96.35 68.55 101.52 69.70 106.70 68.69 C 108.26 67.76 108.12 67.29 106.71 66.29 C 101.86 65.76 96.93 65.93 92.06 65.43 C 92.01 64.21 92.11 63.12 92.71 62.03 Z" id="p54" />
<path d="M 43.85 74.76 C 40.59 74.26 36.98 72.75 38.30 68.73 C 38.02 65.64 43.03 65.56 45.03 63.92 C 49.86 63.83 51.36 79.91 43.85 74.76 Z" id="p55" />
<path d="M 0.00 63.79 C 6.75 64.08 13.19 65.54 20.00 65.01 C 24.63 65.34 30.72 63.70 34.33 67.03 C 32.83 70.50 32.28 74.12 31.72 77.82 C 21.07 79.43 10.61 83.40 0.00 85.05 L 0.00 82.87 C 3.63 81.51 9.86 80.84 11.91 77.22 C 8.22 75.42 4.13 76.11 0.00 75.87 L 0.00 63.79 Z" id="p56" />
<path d="M 275.00 63.92 L 275.00 70.19 C 267.48 69.22 263.58 69.05 257.99 74.73 C 264.10 76.71 266.41 72.17 271.19 77.89 C 267.19 77.99 256.21 74.27 254.04 78.68 C 252.32 78.83 250.60 78.93 248.88 78.96 C 249.32 78.39 249.75 77.81 250.19 77.23 C 256.87 75.42 249.69 74.83 254.40 72.51 C 261.12 69.20 268.15 66.86 275.00 63.92 Z" id="p57" />
<path d="M 127.19 67.69 C 135.49 68.04 143.51 68.19 151.81 69.20 C 153.32 69.94 156.14 69.55 155.90 71.83 C 151.87 72.12 147.81 71.95 143.77 72.25 C 135.28 72.22 127.32 70.10 118.79 71.29 L 117.99 71.29 C 120.76 68.60 123.15 64.78 127.19 67.69 Z" id="p58" />
<path d="M 194.78 66.66 C 197.27 67.00 203.22 66.98 196.97 68.25 C 195.91 68.43 194.86 68.63 193.80 68.85 C 192.82 68.44 191.85 68.03 190.87 67.62 C 191.43 65.94 193.45 66.90 194.78 66.66 Z" id="p59" />
<path d="M 176.06 69.23 C 179.55 68.59 188.51 71.81 190.44 68.26 L 190.87 67.62 C 191.14 68.75 191.36 69.89 191.54 71.04 C 181.52 71.79 171.14 69.97 160.96 69.99 C 159.41 70.09 158.34 69.64 157.00 68.94 C 163.41 68.05 169.73 70.10 176.06 69.23 Z" id="p60" />
<path d="M 196.97 68.25 C 198.04 69.15 201.97 69.69 198.99 70.98 C 196.96 72.62 192.07 72.62 193.80 68.85 C 194.86 68.63 195.91 68.43 196.97 68.25 Z" id="p61" />
<path d="M 151.81 69.20 C 153.55 69.12 155.27 69.00 157.00 68.94 C 158.34 69.64 159.41 70.09 160.96 69.99 C 171.14 69.97 181.52 71.79 191.54 71.04 L 191.58 71.81 C 189.26 73.10 185.63 72.67 186.49 76.30 L 185.73 76.10 L 184.31 75.68 C 183.54 75.15 182.75 74.67 181.92 74.26 C 174.08 75.38 165.90 72.72 158.00 72.96 C 153.33 72.88 148.21 73.57 143.77 72.25 C 147.81 71.95 151.87 72.12 155.90 71.83 C 156.14 69.55 153.32 69.94 151.81 69.20 Z" id="p62" />
<path d="M 275.00 70.19 L 275.00 78.20 C 273.73 78.10 272.46 78.00 271.19 77.89 C 266.41 72.17 264.10 76.71 257.99 74.73 C 263.58 69.05 267.48 69.22 275.00 70.19 Z" id="p63" />
<path d="M 68.14 70.84 C 70.34 72.69 67.20 73.34 65.72 73.24 C 65.78 71.53 65.89 69.27 68.14 70.84 Z" id="p64" />
<path d="M 92.19 71.20 C 106.14 72.47 120.64 72.71 134.72 74.40 C 138.07 76.10 141.37 77.18 145.15 76.32 C 150.21 75.36 155.84 77.09 160.30 74.77 C 166.31 76.09 175.21 74.27 180.17 77.85 C 178.42 78.63 176.36 79.25 174.97 80.57 C 172.88 82.03 177.00 83.34 177.86 84.53 C 169.41 85.58 161.33 87.41 153.96 91.89 C 148.59 93.80 142.09 95.97 137.97 100.00 C 134.74 100.47 131.94 101.26 130.06 104.14 C 129.43 104.47 128.80 104.80 128.16 105.12 C 119.85 107.28 109.39 112.53 101.85 116.89 C 101.15 117.34 100.45 117.79 99.74 118.23 C 98.76 118.52 95.61 117.52 97.89 119.17 C 104.11 121.57 113.55 121.11 120.24 120.76 C 121.09 120.79 121.95 120.80 122.81 120.79 C 125.97 120.63 131.06 120.82 133.10 117.99 C 140.60 115.19 148.62 113.88 155.96 110.75 C 158.76 110.90 157.90 115.86 158.72 117.93 L 157.89 118.03 C 151.61 118.68 146.59 121.38 140.99 123.94 C 125.73 128.88 110.73 135.00 95.89 141.06 C 93.32 136.36 92.70 133.42 92.77 128.01 C 93.36 125.79 93.66 123.93 92.19 121.98 C 92.25 121.08 92.32 120.19 92.40 119.29 C 93.06 116.78 93.14 115.15 92.24 112.67 C 90.27 105.55 97.81 107.62 102.09 105.17 C 105.28 104.21 109.97 103.82 112.02 100.95 C 116.60 100.29 121.17 98.61 124.99 95.98 C 129.32 96.32 132.53 94.24 135.99 91.98 C 138.69 91.56 141.29 90.80 143.88 89.94 C 146.18 89.60 148.56 89.26 150.81 88.69 C 152.16 84.33 145.49 85.12 143.00 85.00 C 137.74 85.69 134.18 82.46 129.86 85.79 C 127.85 86.76 125.85 87.74 124.02 89.03 C 116.87 89.97 105.70 93.73 99.98 98.08 C 97.34 98.16 94.67 98.33 92.02 98.20 C 91.52 94.43 94.21 91.65 91.32 88.82 L 90.71 87.26 C 94.35 87.86 98.45 85.80 101.02 83.32 C 95.22 82.71 92.90 80.36 90.71 87.26 C 89.93 85.24 89.24 83.10 88.39 81.08 C 88.00 82.44 87.64 83.80 87.27 85.17 C 85.99 81.74 87.29 77.30 82.13 80.20 C 83.76 82.22 85.69 83.99 87.36 85.98 C 87.80 91.95 81.15 91.39 77.26 95.29 C 77.42 93.62 77.00 92.35 76.07 90.99 C 77.28 84.71 72.43 87.68 76.07 90.99 C 75.90 92.71 75.73 94.39 76.05 96.12 C 75.00 94.47 74.08 92.76 73.13 91.05 C 73.02 93.35 72.99 95.64 72.93 97.94 C 70.13 98.47 71.47 95.75 70.94 93.99 C 71.33 91.54 68.21 85.35 71.91 84.82 C 70.77 91.24 75.45 88.49 71.91 84.82 C 73.69 83.29 76.27 79.09 78.89 79.79 C 79.23 81.60 79.75 83.34 80.36 85.07 C 80.54 86.92 80.28 88.72 80.12 90.55 C 81.55 90.01 82.96 89.42 84.28 88.64 C 86.80 87.61 85.50 85.90 84.05 84.62 C 82.56 82.96 82.53 83.77 80.82 84.55 C 80.57 82.25 80.45 80.03 80.61 77.72 C 83.42 76.86 86.11 77.03 89.00 76.87 C 90.41 77.10 91.16 76.54 91.26 75.19 C 91.63 73.87 91.89 72.53 92.19 71.20 Z" id="p65" />
<path d="M 118.79 71.29 C 127.32 70.10 135.28 72.22 143.77 72.25 C 148.21 73.57 153.33 72.88 158.00 72.96 C 165.90 72.72 174.08 75.38 181.92 74.26 C 182.75 74.67 183.54 75.15 184.31 75.68 C 182.95 76.43 181.58 77.17 180.17 77.85 C 175.21 74.27 166.31 76.09 160.30 74.77 C 146.51 74.36 132.49 73.22 118.79 71.29 Z" id="p66" />
<path d="M 216.19 70.94 C 218.11 73.10 217.96 75.39 218.08 78.12 C 218.11 79.05 218.14 79.98 218.17 80.91 C 218.03 86.06 214.62 92.26 209.10 93.04 C 208.01 92.12 206.42 91.17 206.73 89.53 C 208.90 89.63 210.56 87.89 210.74 91.01 C 215.97 87.50 216.88 76.78 216.19 70.94 Z" id="p67" />
<path d="M 220.09 70.94 C 222.17 71.30 224.08 72.02 225.98 72.91 C 226.13 74.98 226.71 83.45 230.50 79.93 C 230.80 80.63 231.08 81.33 231.35 82.04 C 225.36 85.28 233.51 95.54 234.23 100.42 C 238.73 96.79 235.88 106.05 236.79 108.04 C 236.54 108.87 236.28 109.69 236.03 110.52 C 235.61 111.64 235.23 112.77 234.86 113.91 L 234.05 113.91 C 233.73 110.15 235.25 107.29 230.84 105.70 C 230.06 105.26 229.18 105.01 228.19 104.96 C 226.72 104.96 225.25 105.00 223.78 105.07 L 223.07 104.82 C 221.41 103.76 218.52 102.71 217.40 105.01 L 217.08 105.53 L 216.32 105.58 C 209.60 104.05 211.32 105.40 210.78 111.06 C 209.92 109.45 210.71 104.26 208.11 105.14 C 207.98 107.03 208.12 108.90 208.33 110.78 C 207.94 111.59 207.54 112.39 207.15 113.20 C 206.73 110.99 208.12 105.47 204.18 106.39 L 203.43 106.46 C 201.00 106.62 199.51 107.10 197.75 108.86 L 197.06 108.70 C 194.44 107.18 195.23 113.79 194.70 115.00 C 193.37 113.35 194.84 109.82 191.99 110.12 L 191.47 110.03 C 190.94 103.69 189.13 109.36 189.27 112.16 C 186.69 106.23 185.92 112.41 184.74 115.21 C 181.66 114.70 182.07 116.77 181.77 112.33 L 182.04 111.42 C 182.42 110.66 182.79 109.89 183.17 109.12 C 183.83 108.04 184.51 106.98 185.18 105.90 C 187.53 105.02 189.11 107.95 189.44 104.44 C 192.98 92.70 185.21 87.03 180.17 77.85 C 181.58 77.17 182.95 76.43 184.31 75.68 L 185.73 76.10 C 186.20 78.89 186.37 81.34 188.86 83.11 C 193.05 86.48 195.00 91.05 200.37 93.06 C 197.46 94.45 194.89 97.07 191.91 94.37 C 190.73 102.07 198.92 94.86 202.02 93.99 C 207.26 97.15 214.91 99.00 218.85 92.83 C 222.19 89.04 224.15 83.95 222.17 79.00 C 221.57 76.28 220.96 73.59 220.09 70.94 Z" id="p68" />
<path d="M 52.92 71.93 C 54.55 75.25 56.02 74.94 59.26 75.58 C 64.35 75.27 58.41 86.50 63.64 79.89 C 64.25 82.44 63.38 88.33 59.63 85.87 C 56.67 85.83 60.03 81.70 59.89 80.04 C 57.62 80.14 56.52 81.66 55.96 83.69 C 54.72 87.07 54.91 90.58 54.82 94.16 C 54.18 92.18 53.97 90.14 53.67 88.09 C 52.00 90.60 50.41 93.17 48.53 95.54 C 47.50 94.32 45.77 92.78 45.45 91.22 C 47.74 87.98 49.41 85.51 49.07 81.31 C 48.33 81.75 47.59 82.20 46.85 82.65 C 48.38 78.74 49.95 75.00 52.92 71.93 Z" id="p69" />
<path d="M 80.79 74.71 C 83.85 73.55 83.36 72.92 85.75 75.52 C 89.34 71.90 88.12 72.71 89.00 76.87 C 86.11 77.03 83.42 76.86 80.61 77.72 L 78.78 78.17 C 78.07 75.86 78.87 68.68 80.79 74.71 Z" id="p70" />
<path d="M 191.58 71.81 C 191.69 73.67 191.72 75.39 192.54 77.11 C 194.08 79.76 196.90 81.59 198.96 83.85 C 196.89 85.81 201.64 85.45 202.28 86.92 C 203.25 89.01 204.75 88.93 206.73 89.53 C 206.42 91.17 208.01 92.12 209.10 93.04 C 214.62 92.26 218.03 86.06 218.17 80.91 C 224.38 80.19 221.64 84.82 220.20 88.22 C 218.50 91.09 215.51 95.13 212.04 95.73 C 201.51 94.04 192.02 85.03 186.49 76.30 C 185.63 72.67 189.26 73.10 191.58 71.81 Z" id="p71" />
<path d="M 205.99 72.12 C 206.05 74.15 205.87 75.97 204.68 77.68 C 202.10 82.75 197.39 76.12 192.54 77.11 C 197.85 75.76 201.31 75.34 205.99 72.12 Z" id="p72" />
<path d="M 230.88 72.56 C 228.26 76.44 236.68 74.77 238.81 75.98 C 239.74 80.60 244.00 87.43 241.81 91.87 C 239.93 86.90 236.61 89.05 234.00 92.02 C 232.92 88.74 232.30 85.35 231.35 82.04 C 231.08 81.33 230.80 80.63 230.50 79.93 C 229.48 77.53 228.63 75.15 227.93 72.65 C 228.91 72.49 229.89 72.49 230.88 72.56 Z" id="p73" />
<path d="M 250.19 77.23 C 249.75 77.81 249.32 78.39 248.88 78.96 C 246.95 79.02 245.03 78.95 243.10 78.84 C 241.77 76.58 241.58 76.20 238.81 75.98 C 236.68 74.77 228.26 76.44 230.88 72.56 C 237.18 74.41 245.79 72.18 250.19 77.23 Z" id="p74" />
<path d="M 225.98 72.91 L 227.93 72.65 C 228.63 75.15 229.48 77.53 230.50 79.93 C 226.71 83.45 226.13 74.98 225.98 72.91 Z" id="p75" />
<path d="M 0.00 75.87 C 4.13 76.11 8.22 75.42 11.91 77.22 C 9.86 80.84 3.63 81.51 0.00 82.87 L 0.00 81.14 C 2.72 80.60 5.38 79.90 7.90 78.72 C 6.76 76.07 2.38 77.26 0.00 76.83 L 0.00 75.87 Z" id="p76" />
<path d="M 185.73 76.10 L 186.49 76.30 C 192.02 85.03 201.51 94.04 212.04 95.73 C 215.51 95.13 218.50 91.09 220.20 88.22 C 221.64 84.82 224.38 80.19 218.17 80.91 C 218.14 79.98 218.11 79.05 218.08 78.12 C 219.43 78.47 220.80 78.75 222.17 79.00 C 224.15 83.95 222.19 89.04 218.85 92.83 C 214.91 99.00 207.26 97.15 202.02 93.99 C 201.47 93.66 200.92 93.35 200.37 93.06 C 195.00 91.05 193.05 86.48 188.86 83.11 C 186.37 81.34 186.20 78.89 185.73 76.10 Z" id="p77" />
<path d="M 238.81 75.98 C 241.58 76.20 241.77 76.58 243.10 78.84 C 237.90 79.30 247.46 84.69 245.72 87.77 C 244.66 96.94 256.06 91.05 261.23 93.71 C 256.54 94.19 251.83 93.76 247.15 94.21 C 246.66 95.29 248.41 96.12 249.00 96.85 C 247.51 97.92 246.02 97.77 246.47 100.01 C 246.55 101.96 246.67 103.91 246.91 105.85 C 244.65 106.61 242.39 107.35 240.10 108.03 C 236.17 103.39 241.12 98.80 237.60 94.41 C 236.33 93.59 234.14 93.84 234.00 92.02 C 236.61 89.05 239.93 86.90 241.81 91.87 C 244.00 87.43 239.74 80.60 238.81 75.98 Z" id="p78" />
<path d="M 271.19 77.89 C 272.46 78.00 273.73 78.10 275.00 78.20 L 275.00 81.24 C 264.72 77.47 256.72 83.52 246.96 85.66 C 246.17 81.42 256.17 83.96 254.04 78.68 C 256.21 74.27 267.19 77.99 271.19 77.89 Z" id="p79" />
<path d="M 0.00 76.83 C 2.38 77.26 6.76 76.07 7.90 78.72 C 5.38 79.90 2.72 80.60 0.00 81.14 L 0.00 76.83 Z" id="p80" />
<path d="M 31.72 77.82 C 31.58 78.59 31.43 79.35 31.26 80.11 C 20.82 80.39 10.23 84.56 0.00 86.80 L 0.00 85.05 C 10.61 83.40 21.07 79.43 31.72 77.82 Z" id="p81" />
<path d="M 78.78 78.17 L 80.61 77.72 C 80.45 80.03 80.57 82.25 80.82 84.55 L 80.36 85.07 C 79.75 83.34 79.23 81.60 78.89 79.79 L 78.78 78.17 Z" id="p82" />
<path d="M 180.17 77.85 C 185.21 87.03 192.98 92.70 189.44 104.44 C 189.11 107.95 187.53 105.02 185.18 105.90 C 190.26 97.07 183.56 84.12 174.97 80.57 C 176.36 79.25 178.42 78.63 180.17 77.85 Z" id="p83" />
<path d="M 87.27 85.17 L 87.36 85.98 C 85.69 83.99 83.76 82.22 82.13 80.20 C 87.29 77.30 85.99 81.74 87.27 85.17 Z" id="p84" />
<path d="M 243.10 78.84 C 245.03 78.95 246.95 79.02 248.88 78.96 C 250.60 78.93 252.32 78.83 254.04 78.68 C 256.17 83.96 246.17 81.42 246.96 85.66 C 256.72 83.52 264.72 77.47 275.00 81.24 L 275.00 101.87 C 268.18 103.53 257.44 105.75 257.95 114.86 C 254.43 110.03 261.91 103.07 266.68 102.55 C 268.58 97.93 261.74 102.16 259.29 99.76 C 255.66 99.65 249.82 99.22 246.47 100.01 C 246.02 97.77 247.51 97.92 249.00 96.85 C 257.74 96.80 263.97 100.92 271.96 95.32 C 268.46 94.05 264.90 93.95 261.23 93.71 C 256.06 91.05 244.66 96.94 245.72 87.77 C 247.46 84.69 237.90 79.30 243.10 78.84 Z" id="p85" />
<path d="M 31.26 80.11 C 31.61 80.77 31.95 81.44 32.28 82.11 C 21.80 85.22 10.69 87.86 0.00 90.07 L 0.00 86.80 C 10.23 84.56 20.82 80.39 31.26 80.11 Z" id="p86" />
<path d="M 88.39 81.08 C 89.24 83.10 89.93 85.24 90.71 87.26 L 91.32 88.82 C 87.32 90.90 88.37 89.05 87.36 85.98 L 87.27 85.17 C 87.64 83.80 88.00 82.44 88.39 81.08 Z" id="p87" />
<path d="M 174.97 80.57 C 183.56 84.12 190.26 97.07 185.18 105.90 C 184.51 106.98 183.83 108.04 183.17 109.12 C 183.36 107.74 183.58 106.35 183.70 104.96 C 183.82 102.06 182.34 99.11 181.58 96.34 C 176.66 98.59 168.88 94.86 166.56 90.39 C 162.56 92.93 167.13 93.77 164.09 96.06 C 162.67 98.13 162.12 95.65 160.85 94.78 C 161.49 93.23 162.16 91.69 162.74 90.12 C 159.82 90.78 156.94 91.52 153.96 91.89 C 161.33 87.41 169.41 85.58 177.86 84.53 C 177.00 83.34 172.88 82.03 174.97 80.57 Z" id="p88" />
<path d="M 32.28 82.11 C 32.72 82.91 32.97 83.81 33.03 84.81 C 23.24 84.51 9.88 89.85 0.00 91.97 L 0.00 90.07 C 10.69 87.86 21.80 85.22 32.28 82.11 Z" id="p89" />
<path d="M 101.02 83.32 C 98.45 85.80 94.35 87.86 90.71 87.26 C 92.90 80.36 95.22 82.71 101.02 83.32 Z" id="p90" />
<path d="M 231.35 82.04 C 232.30 85.35 232.92 88.74 234.00 92.02 C 234.14 93.84 236.33 93.59 237.60 94.41 C 241.12 98.80 236.17 103.39 240.10 108.03 C 239.00 108.03 237.89 108.04 236.79 108.04 C 235.88 106.05 238.73 96.79 234.23 100.42 C 233.51 95.54 225.36 85.28 231.35 82.04 Z" id="p91" />
<path d="M 84.05 84.62 C 82.57 86.00 82.82 87.36 84.28 88.64 C 82.96 89.42 81.55 90.01 80.12 90.55 C 80.28 88.72 80.54 86.92 80.36 85.07 L 80.82 84.55 C 82.53 83.77 82.56 82.96 84.05 84.62 Z" id="p92" />
<path d="M 33.03 84.81 C 32.85 89.75 33.07 94.04 33.91 98.90 C 33.20 101.61 27.76 101.49 25.76 103.76 L 24.17 104.15 C 20.13 104.49 16.27 105.63 12.93 107.97 C 12.01 108.37 11.10 108.75 10.17 109.12 C 6.60 109.13 3.42 110.32 0.00 111.14 L 0.00 91.97 C 9.88 89.85 23.24 84.51 33.03 84.81 Z" id="p93" />
<path d="M 143.00 85.00 C 145.49 85.12 152.16 84.33 150.81 88.69 C 148.56 89.26 146.18 89.60 143.88 89.94 C 145.00 88.77 149.40 88.06 146.72 86.27 C 141.16 85.58 135.46 86.30 129.86 85.79 C 134.18 82.46 137.74 85.69 143.00 85.00 Z" id="p94" />
<path d="M 71.91 84.82 C 70.77 91.24 75.45 88.49 71.91 84.82 Z" id="p95" />
<path d="M 84.05 84.62 C 85.50 85.90 86.80 87.61 84.28 88.64 C 82.82 87.36 82.57 86.00 84.05 84.62 Z" id="p96" />
<path d="M 129.86 85.79 C 135.46 86.30 141.16 85.58 146.72 86.27 C 149.40 88.06 145.00 88.77 143.88 89.94 C 141.29 90.80 138.69 91.56 135.99 91.98 C 138.53 90.10 142.00 89.59 144.05 87.23 C 136.83 86.22 130.91 87.32 124.02 89.03 C 125.85 87.74 127.85 86.76 129.86 85.79 Z" id="p97" />
<path d="M 76.07 90.99 C 77.28 84.71 72.43 87.68 76.07 90.99 Z" id="p98" />
<path d="M 144.05 87.23 C 142.00 89.59 138.53 90.10 135.99 91.98 C 131.99 92.53 128.47 94.00 124.99 95.98 C 120.41 96.74 115.92 98.42 112.02 100.95 C 108.39 101.74 104.91 102.60 102.09 105.17 C 97.81 107.62 90.27 105.55 92.24 112.67 L 91.10 114.15 C 91.03 111.46 90.98 108.76 91.06 106.07 C 91.71 104.44 92.01 102.87 92.15 101.12 C 94.83 100.28 97.47 99.36 99.98 98.08 C 107.82 95.14 116.68 92.85 124.02 89.03 C 130.91 87.32 136.83 86.22 144.05 87.23 Z" id="p99" />
<path d="M 124.02 89.03 C 116.68 92.85 107.82 95.14 99.98 98.08 C 105.70 93.73 116.87 89.97 124.02 89.03 Z" id="p100" />
<path d="M 162.74 90.12 C 162.16 91.69 161.49 93.23 160.85 94.78 C 160.04 96.44 159.17 98.07 158.23 99.67 C 149.33 103.65 140.58 107.16 131.65 111.08 C 130.02 111.92 125.25 112.41 128.22 114.79 C 131.25 114.50 134.29 113.35 137.18 112.41 C 143.50 110.33 149.80 108.14 156.07 105.94 C 160.75 105.44 159.58 110.10 155.96 110.75 C 148.62 113.88 140.60 115.19 133.10 117.99 C 129.46 118.48 126.19 119.33 122.81 120.79 C 121.95 120.80 121.09 120.79 120.24 120.76 C 113.39 119.09 106.57 121.02 99.74 118.23 C 100.45 117.79 101.15 117.34 101.85 116.89 C 110.62 114.34 120.13 109.54 128.16 105.12 C 128.80 104.80 129.43 104.47 130.06 104.14 C 132.93 103.14 135.56 101.88 137.97 100.00 C 143.35 98.14 149.72 95.76 153.96 91.89 C 156.94 91.52 159.82 90.78 162.74 90.12 Z" id="p101" />
<path d="M 166.56 90.39 C 168.88 94.86 176.66 98.59 181.58 96.34 C 182.34 99.11 183.82 102.06 183.70 104.96 C 181.64 99.54 178.47 100.27 175.54 104.44 C 173.90 110.73 168.21 108.29 167.08 115.46 C 163.02 117.23 168.41 118.19 168.21 120.96 C 164.95 120.25 161.81 119.17 158.72 117.93 C 157.90 115.86 158.76 110.90 155.96 110.75 C 159.58 110.10 160.75 105.44 156.07 105.94 C 158.86 103.73 159.70 103.37 158.23 99.67 C 159.17 98.07 160.04 96.44 160.85 94.78 C 162.12 95.65 162.67 98.13 164.09 96.06 C 167.13 93.77 162.56 92.93 166.56 90.39 Z" id="p102" />
<path d="M 73.13 91.05 C 74.08 92.76 75.00 94.47 76.05 96.12 C 75.05 96.79 74.03 97.42 72.93 97.94 C 72.99 95.64 73.02 93.35 73.13 91.05 Z" id="p103" />
<path d="M 76.07 90.99 C 77.00 92.35 77.42 93.62 77.26 95.29 L 76.05 96.12 C 75.73 94.39 75.90 92.71 76.07 90.99 Z" id="p104" />
<path d="M 135.99 91.98 C 132.53 94.24 129.32 96.32 124.99 95.98 C 128.47 94.00 131.99 92.53 135.99 91.98 Z" id="p105" />
<path d="M 153.96 91.89 C 149.72 95.76 143.35 98.14 137.97 100.00 C 142.09 95.97 148.59 93.80 153.96 91.89 Z" id="p106" />
<path d="M 200.37 93.06 C 200.92 93.35 201.47 93.66 202.02 93.99 C 198.92 94.86 190.73 102.07 191.91 94.37 C 194.89 97.07 197.46 94.45 200.37 93.06 Z" id="p107" />
<path d="M 247.15 94.21 C 251.83 93.76 256.54 94.19 261.23 93.71 C 264.90 93.95 268.46 94.05 271.96 95.32 C 263.97 100.92 257.74 96.80 249.00 96.85 C 248.41 96.12 246.66 95.29 247.15 94.21 Z" id="p108" />
<path d="M 36.05 96.01 C 38.85 96.63 37.58 104.11 39.29 98.44 C 42.35 103.84 50.23 98.04 48.38 105.61 C 51.71 105.02 53.11 106.08 55.84 107.72 C 56.06 106.08 56.22 104.43 56.39 102.78 C 58.27 108.82 55.12 116.66 58.71 121.79 C 57.06 122.37 57.84 123.49 57.59 124.87 C 52.28 122.01 50.86 117.61 49.63 112.06 C 47.98 113.79 44.05 118.97 47.61 120.42 C 57.72 127.14 61.47 138.89 72.13 145.63 C 73.21 145.34 74.26 144.99 75.31 144.59 C 70.89 149.51 82.67 152.09 78.92 157.31 C 63.38 147.05 42.58 133.45 38.45 114.01 C 38.83 112.49 41.02 102.43 37.07 106.65 C 38.21 102.74 36.54 99.80 36.05 96.01 Z" id="p109" />
<path d="M 124.99 95.98 C 121.17 98.61 116.60 100.29 112.02 100.95 C 115.92 98.42 120.41 96.74 124.99 95.98 Z" id="p110" />
<path d="M 90.44 102.05 C 90.00 103.09 89.57 104.13 89.15 105.17 C 89.02 101.27 87.35 97.02 86.46 103.97 C 86.23 101.99 86.02 100.01 85.90 98.02 C 91.13 95.71 89.53 97.95 90.44 102.05 Z" id="p111" />
<path d="M 85.90 98.02 C 86.02 100.01 86.23 101.99 86.46 103.97 C 86.29 104.49 85.88 104.93 85.21 105.29 C 84.78 103.14 84.26 101.01 83.78 98.87 C 84.49 98.59 85.19 98.30 85.90 98.02 Z" id="p112" />
<path d="M 92.02 98.20 C 94.67 98.33 97.34 98.16 99.98 98.08 C 97.47 99.36 94.83 100.28 92.15 101.12 C 92.09 100.15 92.05 99.17 92.02 98.20 Z" id="p113" />
<path d="M 83.78 98.87 C 84.26 101.01 84.78 103.14 85.21 105.29 C 85.13 106.81 85.09 108.32 85.11 109.84 C 85.10 112.99 85.07 116.10 84.35 119.19 C 83.88 115.13 83.98 111.13 83.91 107.06 C 84.39 105.36 84.49 104.20 83.07 102.95 C 82.97 101.18 81.05 99.26 83.78 98.87 Z" id="p114" />
<path d="M 259.29 99.76 C 261.74 102.16 268.58 97.93 266.68 102.55 C 261.91 103.07 254.43 110.03 257.95 114.86 C 263.55 121.61 256.71 122.21 252.67 125.94 C 252.31 125.28 251.96 124.61 251.62 123.94 C 251.10 117.95 250.55 110.82 246.91 105.85 C 246.67 103.91 246.55 101.96 246.47 100.01 C 249.82 99.22 255.66 99.65 259.29 99.76 Z" id="p115" />
<path d="M 89.15 105.17 L 89.22 105.91 L 88.20 106.18 C 85.73 106.77 86.85 109.03 88.95 109.09 C 88.60 111.00 88.51 112.56 89.94 114.06 C 89.54 117.85 87.82 114.85 87.53 112.93 C 86.83 111.83 85.93 110.85 85.11 109.84 C 85.09 108.32 85.13 106.81 85.21 105.29 C 85.88 104.93 86.29 104.49 86.46 103.97 C 87.35 97.02 89.02 101.27 89.15 105.17 Z" id="p116" />
<path d="M 137.97 100.00 C 135.56 101.88 132.93 103.14 130.06 104.14 C 131.94 101.26 134.74 100.47 137.97 100.00 Z" id="p117" />
<path d="M 158.23 99.67 C 159.70 103.37 158.86 103.73 156.07 105.94 C 149.80 108.14 143.50 110.33 137.18 112.41 C 135.29 112.11 133.47 111.70 131.65 111.08 C 140.58 107.16 149.33 103.65 158.23 99.67 Z" id="p118" />
<path d="M 112.02 100.95 C 109.97 103.82 105.28 104.21 102.09 105.17 C 104.91 102.60 108.39 101.74 112.02 100.95 Z" id="p119" />
<path d="M 183.70 104.96 C 183.58 106.35 183.36 107.74 183.17 109.12 C 182.79 109.89 182.42 110.66 182.04 111.42 C 180.30 109.74 178.72 105.98 176.31 109.30 C 176.03 114.40 175.92 118.05 172.13 121.89 C 170.81 121.64 169.51 121.32 168.21 120.96 C 168.41 118.19 163.02 117.23 167.08 115.46 C 168.21 108.29 173.90 110.73 175.54 104.44 C 178.47 100.27 181.64 99.54 183.70 104.96 Z" id="p120" />
<path d="M 35.44 106.68 C 33.33 107.44 31.27 108.21 29.29 109.26 C 29.93 113.48 33.20 111.58 36.28 111.71 L 36.86 112.31 L 36.91 114.02 C 31.09 115.99 25.85 114.64 20.02 114.05 C 13.90 114.29 8.03 113.14 1.96 112.67 C 4.62 111.20 7.38 110.35 10.17 109.12 C 11.10 108.75 12.01 108.37 12.93 107.97 C 16.97 107.42 20.67 106.26 24.17 104.15 L 25.76 103.76 C 30.59 103.81 35.90 98.67 35.44 106.68 Z" id="p121" />
<path d="M 90.44 102.05 C 90.84 103.39 91.36 104.64 91.06 106.07 L 89.22 105.91 L 89.15 105.17 C 89.57 104.13 90.00 103.09 90.44 102.05 Z" id="p122" />
<path d="M 275.00 101.87 L 275.00 126.08 L 274.14 126.23 C 270.52 126.43 267.11 127.03 264.02 129.05 C 260.88 128.99 258.05 129.38 255.00 130.11 C 254.17 128.75 253.42 127.35 252.67 125.94 C 256.71 122.21 263.55 121.61 257.95 114.86 C 257.44 105.75 268.18 103.53 275.00 101.87 Z" id="p123" />
<path d="M 83.07 102.95 C 84.49 104.20 84.39 105.36 83.91 107.06 C 82.49 105.84 82.64 104.62 83.07 102.95 Z" id="p124" />
<path d="M 24.17 104.15 C 20.67 106.26 16.97 107.42 12.93 107.97 C 16.27 105.63 20.13 104.49 24.17 104.15 Z" id="p125" />
<path d="M 223.07 104.82 C 221.17 105.28 219.33 105.26 217.40 105.01 C 218.52 102.71 221.41 103.76 223.07 104.82 Z" id="p126" />
<path d="M 128.16 105.12 C 120.13 109.54 110.62 114.34 101.85 116.89 C 109.39 112.53 119.85 107.28 128.16 105.12 Z" id="p127" />
<path d="M 208.11 105.14 C 210.71 104.26 209.92 109.45 210.78 111.06 C 210.86 116.10 212.88 120.35 205.77 119.39 C 204.82 115.08 205.46 110.59 204.18 106.39 C 208.12 105.47 206.73 110.99 207.15 113.20 C 207.49 114.99 205.97 117.49 208.88 116.84 C 209.18 114.76 208.86 112.79 208.33 110.78 C 208.12 108.90 207.98 107.03 208.11 105.14 Z" id="p128" />
<path d="M 216.32 105.58 C 215.57 106.17 214.82 106.77 214.07 107.37 C 211.65 108.80 214.14 109.63 215.16 110.86 C 217.60 112.36 217.64 116.15 216.00 118.22 C 214.73 117.94 213.48 117.84 212.26 117.93 C 212.05 115.52 214.81 116.41 215.12 114.04 C 213.93 112.80 212.25 111.94 210.78 111.06 C 211.32 105.40 209.60 104.05 216.32 105.58 Z" id="p129" />
<path d="M 217.40 105.01 C 219.33 105.26 221.17 105.28 223.07 104.82 C 222.52 105.44 222.14 106.11 221.93 106.84 C 221.68 107.56 221.46 108.29 221.28 109.03 C 220.50 111.49 220.36 113.78 221.86 116.01 C 221.16 120.66 219.52 116.08 219.66 114.02 C 220.25 111.80 220.84 109.82 219.20 107.88 L 218.73 107.21 C 218.28 106.58 217.74 106.02 217.08 105.53 L 217.40 105.01 Z" id="p130" />
<path d="M 223.07 104.82 L 223.78 105.07 C 223.92 106.00 223.96 106.93 223.91 107.88 C 223.24 107.55 222.57 107.21 221.93 106.84 C 222.14 106.11 222.52 105.44 223.07 104.82 Z" id="p131" />
<path d="M 223.78 105.07 C 225.25 105.00 226.72 104.96 228.19 104.96 C 229.27 109.39 229.81 115.30 227.96 119.54 C 221.68 119.02 224.70 112.07 223.91 107.88 C 223.96 106.93 223.92 106.00 223.78 105.07 Z M 226.24 116.19 C 228.69 119.24 228.44 112.19 227.45 111.05 C 227.07 109.87 227.23 107.75 226.13 107.02 C 225.85 110.06 225.91 113.15 226.24 116.19 Z" id="p132" />
<path d="M 228.19 104.96 C 229.18 105.01 230.06 105.26 230.84 105.70 C 229.29 109.80 230.12 114.91 230.28 119.24 L 230.14 120.10 C 229.40 119.94 228.67 119.75 227.96 119.54 C 229.81 115.30 229.27 109.39 228.19 104.96 Z" id="p133" />
<path d="M 88.20 106.18 C 88.48 107.14 88.73 108.11 88.95 109.09 C 86.85 109.03 85.73 106.77 88.20 106.18 Z" id="p134" />
<path d="M 88.20 106.18 L 89.22 105.91 L 91.06 106.07 C 90.98 108.76 91.03 111.46 91.10 114.15 C 91.08 115.42 91.08 116.68 91.08 117.95 L 90.18 118.24 C 85.62 119.08 84.34 115.05 87.53 112.93 C 87.82 114.85 89.54 117.85 89.94 114.06 C 90.38 112.13 90.61 110.51 88.95 109.09 C 88.73 108.11 88.48 107.14 88.20 106.18 Z" id="p135" />
<path d="M 203.43 106.46 C 204.24 110.82 203.46 115.28 205.02 119.34 C 203.25 120.34 199.44 122.64 198.91 119.22 C 199.10 115.68 198.45 112.31 197.75 108.86 C 199.51 107.10 201.00 106.62 203.43 106.46 Z M 200.57 116.24 C 202.73 123.68 201.94 111.62 201.68 109.81 C 199.28 106.18 199.91 115.09 200.57 116.24 Z" id="p136" />
<path d="M 216.32 105.58 L 217.08 105.53 C 217.74 106.02 218.28 106.58 218.73 107.21 C 217.09 107.63 215.73 107.97 214.07 107.37 C 214.82 106.77 215.57 106.17 216.32 105.58 Z" id="p137" />
<path d="M 230.84 105.70 C 231.70 108.43 232.56 111.15 233.19 113.94 C 233.09 115.02 232.97 116.09 232.84 117.17 C 232.36 115.78 231.89 114.39 231.36 113.02 C 231.03 115.10 230.73 117.18 230.28 119.24 C 230.12 114.91 229.29 109.80 230.84 105.70 Z" id="p138" />
<path d="M 230.84 105.70 C 235.25 107.29 233.73 110.15 234.05 113.91 L 233.19 113.94 C 232.56 111.15 231.70 108.43 230.84 105.70 Z" id="p139" />
<path d="M 246.91 105.85 C 250.55 110.82 251.10 117.95 251.62 123.94 C 250.15 127.38 248.00 128.04 251.88 130.71 C 247.48 129.45 248.13 133.57 252.10 132.60 C 247.75 135.54 243.92 145.47 251.20 146.87 C 255.74 147.91 247.52 148.34 248.06 150.71 C 249.90 150.95 251.78 151.02 253.62 151.33 C 254.40 155.49 255.80 159.00 254.88 163.17 C 254.24 163.86 253.60 164.55 252.95 165.23 C 251.93 160.12 247.73 157.22 246.74 152.17 C 246.23 150.26 245.24 148.63 244.11 147.03 C 243.71 142.39 242.28 135.03 246.89 132.38 C 241.12 132.22 244.10 129.65 244.67 126.09 C 244.14 121.76 242.94 116.54 239.66 113.44 C 238.41 112.83 241.78 110.99 239.87 111.04 C 236.76 110.87 239.51 109.46 240.10 108.03 C 242.39 107.35 244.65 106.61 246.91 105.85 Z" id="p140" />
<path d="M 35.44 106.68 C 35.72 108.36 35.99 110.04 36.28 111.71 C 33.20 111.58 29.93 113.48 29.29 109.26 C 31.27 108.21 33.33 107.44 35.44 106.68 Z" id="p141" />
<path d="M 191.47 110.03 C 190.52 112.67 190.43 114.44 191.71 116.97 C 192.33 118.78 190.95 123.77 193.99 122.99 C 195.07 123.02 196.09 122.86 197.04 122.54 C 197.52 121.38 197.89 120.19 198.15 118.94 L 198.91 119.22 C 199.44 122.64 203.25 120.34 205.02 119.34 L 205.77 119.39 C 212.88 120.35 210.86 116.10 210.78 111.06 C 212.25 111.94 213.93 112.80 215.12 114.04 C 214.81 116.41 212.05 115.52 212.26 117.93 C 211.96 119.74 215.50 119.65 216.00 118.22 C 217.64 116.15 217.60 112.36 215.16 110.86 C 214.14 109.63 211.65 108.80 214.07 107.37 C 215.73 107.97 217.09 107.63 218.73 107.21 L 219.20 107.88 C 218.66 110.14 218.49 111.93 219.66 114.02 C 219.52 116.08 221.16 120.66 221.86 116.01 C 222.30 113.51 222.59 111.33 221.28 109.03 C 221.46 108.29 221.68 107.56 221.93 106.84 C 222.57 107.21 223.24 107.55 223.91 107.88 C 224.70 112.07 221.68 119.02 227.96 119.54 C 228.67 119.75 229.40 119.94 230.14 120.10 L 230.98 120.27 C 233.70 120.68 233.78 120.59 234.88 123.27 C 235.14 125.56 236.06 127.56 236.84 129.70 C 235.90 130.13 231.90 129.57 232.20 130.97 C 231.91 133.61 231.93 136.30 231.84 138.96 C 230.29 140.77 230.32 142.17 231.70 144.07 C 236.23 149.74 233.51 151.62 231.78 157.67 C 231.27 160.18 233.68 163.29 234.23 165.81 C 233.95 169.96 233.88 174.08 234.30 178.23 C 234.11 179.82 233.95 181.41 233.77 183.00 L 184.92 183.00 C 185.80 177.95 187.26 172.38 186.77 167.29 C 184.21 164.92 180.40 163.67 177.13 162.57 C 175.46 167.13 175.65 171.41 177.31 175.93 C 178.27 174.24 179.04 172.45 180.04 170.80 C 183.24 172.93 182.93 179.58 182.97 183.00 L 176.03 183.00 C 175.36 178.24 174.00 173.65 173.09 168.95 C 171.95 161.43 179.62 159.16 174.77 152.18 C 175.43 150.24 173.58 143.10 177.36 145.64 C 180.38 145.96 177.31 150.39 178.57 152.34 C 180.19 152.54 182.33 152.84 183.77 151.94 C 182.82 147.24 179.06 144.02 177.60 139.38 C 175.67 135.59 175.06 142.89 174.27 144.13 C 174.04 142.19 173.50 140.44 172.74 138.65 C 173.44 134.04 174.13 129.49 175.28 124.98 C 176.23 120.06 177.93 115.47 178.15 110.45 C 179.37 111.07 180.56 111.72 181.77 112.33 C 182.07 116.77 181.66 114.70 184.74 115.21 C 185.92 112.41 186.69 106.23 189.27 112.16 C 189.13 109.36 190.94 103.69 191.47 110.03 Z M 212.26 133.78 C 212.29 137.56 211.09 142.60 212.80 146.06 C 213.80 147.14 221.17 146.04 219.96 143.00 C 220.43 136.97 219.69 131.07 218.67 125.14 C 216.20 124.96 213.58 125.68 211.22 126.34 C 210.60 129.01 211.66 131.22 212.26 133.78 Z M 191.22 175.33 C 189.27 176.37 190.35 180.03 190.53 181.87 C 194.31 183.97 193.52 174.54 191.22 175.33 Z" id="p142" />
<path d="M 203.43 106.46 L 204.18 106.39 C 205.46 110.59 204.82 115.08 205.77 119.39 L 205.02 119.34 C 203.46 115.28 204.24 110.82 203.43 106.46 Z" id="p143" />
<path d="M 226.13 107.02 C 227.23 107.75 227.07 109.87 227.45 111.05 C 227.02 112.75 226.62 114.47 226.24 116.19 C 225.91 113.15 225.85 110.06 226.13 107.02 Z" id="p144" />
<path d="M 182.04 111.42 L 181.77 112.33 C 180.56 111.72 179.37 111.07 178.15 110.45 C 177.93 115.47 176.23 120.06 175.28 124.98 C 174.69 123.24 175.33 122.17 173.03 122.07 L 172.13 121.89 C 175.92 118.05 176.03 114.40 176.31 109.30 C 178.72 105.98 180.30 109.74 182.04 111.42 Z" id="p145" />
<path d="M 197.06 108.70 C 196.93 112.24 196.79 115.59 198.15 118.94 C 197.89 120.19 197.52 121.38 197.04 122.54 C 196.11 121.07 196.52 116.53 194.17 117.13 C 193.99 119.08 193.99 121.04 193.99 122.99 C 190.95 123.77 192.33 118.78 191.71 116.97 C 192.21 114.63 192.34 112.49 191.99 110.12 C 194.84 109.82 193.37 113.35 194.70 115.00 C 195.23 113.79 194.44 107.18 197.06 108.70 Z" id="p146" />
<path d="M 219.20 107.88 C 220.84 109.82 220.25 111.80 219.66 114.02 C 218.49 111.93 218.66 110.14 219.20 107.88 Z" id="p147" />
<path d="M 236.79 108.04 C 237.89 108.04 239.00 108.03 240.10 108.03 C 239.51 109.46 236.76 110.87 239.87 111.04 C 241.78 110.99 238.41 112.83 239.66 113.44 C 242.94 116.54 244.14 121.76 244.67 126.09 C 244.10 129.65 241.12 132.22 246.89 132.38 C 242.28 135.03 243.71 142.39 244.11 147.03 C 242.06 143.07 241.58 138.33 240.42 134.04 C 243.10 129.69 239.43 127.43 239.16 122.95 C 238.67 121.10 239.30 119.49 237.13 118.74 C 237.00 115.89 237.20 113.20 236.03 110.52 C 236.28 109.69 236.54 108.87 236.79 108.04 Z" id="p148" />
<path d="M 10.17 109.12 C 7.38 110.35 4.62 111.20 1.96 112.67 C 8.03 113.14 13.90 114.29 20.02 114.05 C 25.85 114.64 31.09 115.99 36.91 114.02 L 36.96 116.00 C 24.52 117.08 12.15 113.87 0.00 114.82 L 0.00 111.14 C 3.42 110.32 6.60 109.13 10.17 109.12 Z" id="p149" />
<path d="M 88.95 109.09 C 90.61 110.51 90.38 112.13 89.94 114.06 C 88.51 112.56 88.60 111.00 88.95 109.09 Z" id="p150" />
<path d="M 197.06 108.70 L 197.75 108.86 C 198.45 112.31 199.10 115.68 198.91 119.22 L 198.15 118.94 C 196.79 115.59 196.93 112.24 197.06 108.70 Z" id="p151" />
<path d="M 201.68 109.81 C 201.21 111.95 200.85 114.08 200.57 116.24 C 199.91 115.09 199.28 106.18 201.68 109.81 Z" id="p152" />
<path d="M 221.28 109.03 C 222.59 111.33 222.30 113.51 221.86 116.01 C 220.36 113.78 220.50 111.49 221.28 109.03 Z" id="p153" />
<path d="M 85.11 109.84 C 85.93 110.85 86.83 111.83 87.53 112.93 C 84.34 115.05 85.62 119.08 90.18 118.24 C 89.19 118.31 84.03 120.89 84.35 119.19 C 85.07 116.10 85.10 112.99 85.11 109.84 Z" id="p154" />
<path d="M 191.47 110.03 L 191.99 110.12 C 192.34 112.49 192.21 114.63 191.71 116.97 C 190.43 114.44 190.52 112.67 191.47 110.03 Z" id="p155" />
<path d="M 201.68 109.81 C 201.94 111.62 202.73 123.68 200.57 116.24 C 200.85 114.08 201.21 111.95 201.68 109.81 Z" id="p156" />
<path d="M 131.65 111.08 C 133.47 111.70 135.29 112.11 137.18 112.41 C 134.29 113.35 131.25 114.50 128.22 114.79 C 125.25 112.41 130.02 111.92 131.65 111.08 Z" id="p157" />
<path d="M 208.33 110.78 C 208.86 112.79 209.18 114.76 208.88 116.84 C 205.97 117.49 207.49 114.99 207.15 113.20 C 207.54 112.39 207.94 111.59 208.33 110.78 Z" id="p158" />
<path d="M 227.45 111.05 C 228.44 112.19 228.69 119.24 226.24 116.19 C 226.62 114.47 227.02 112.75 227.45 111.05 Z" id="p159" />
<path d="M 236.03 110.52 C 237.20 113.20 237.00 115.89 237.13 118.74 C 237.04 123.35 238.52 127.32 239.56 131.71 L 238.24 132.09 C 236.24 131.58 234.25 131.18 232.20 130.97 C 231.90 129.57 235.90 130.13 236.84 129.70 C 236.06 127.56 235.14 125.56 234.88 123.27 C 236.60 119.81 236.05 117.39 234.86 113.91 C 235.23 112.77 235.61 111.64 236.03 110.52 Z" id="p160" />
<path d="M 36.86 112.31 C 37.40 112.87 37.93 113.43 38.45 114.01 C 42.58 133.45 63.38 147.05 78.92 157.31 C 83.53 162.86 84.54 168.98 91.00 173.35 C 94.53 176.84 97.15 181.67 102.85 179.00 C 102.87 180.34 102.88 181.67 102.89 183.00 L 41.13 183.00 C 40.81 179.63 39.69 176.52 38.74 173.30 C 43.07 172.14 36.28 165.54 40.98 167.97 C 42.57 168.66 44.05 169.15 45.81 168.90 C 46.96 162.38 43.87 156.81 45.28 150.27 C 47.83 148.23 49.89 150.22 49.84 152.95 C 48.47 158.83 50.49 164.83 50.20 170.88 C 57.75 173.04 54.31 161.98 54.96 157.98 C 53.86 153.51 53.33 150.16 53.39 145.63 C 51.37 141.73 50.94 145.88 50.67 147.91 C 49.89 145.59 49.40 143.98 47.19 142.62 C 45.68 140.40 37.35 139.75 41.41 136.42 C 42.45 135.71 40.08 133.67 39.79 132.86 C 38.46 129.57 37.90 126.62 37.79 123.07 C 38.39 121.40 38.54 120.22 37.13 118.93 C 37.07 117.96 37.02 116.98 36.96 116.00 L 36.91 114.02 L 36.86 112.31 Z M 59.91 158.12 C 58.91 161.48 63.73 162.69 62.58 158.73 C 62.62 157.07 62.45 155.63 61.82 154.07 C 59.91 154.97 60.18 156.29 59.91 158.12 Z" id="p161" />
<path d="M 49.63 112.06 C 50.86 117.61 52.28 122.01 57.59 124.87 C 57.84 123.49 57.06 122.37 58.71 121.79 C 64.49 126.48 69.02 133.25 73.37 139.26 C 68.13 140.15 68.51 133.49 65.13 133.15 C 64.27 138.20 72.45 141.45 75.31 144.59 C 74.26 144.99 73.21 145.34 72.13 145.63 C 61.47 138.89 57.72 127.14 47.61 120.42 C 44.05 118.97 47.98 113.79 49.63 112.06 Z" id="p162" />
<path d="M 92.24 112.67 C 93.14 115.15 93.06 116.78 92.40 119.29 L 91.08 117.95 C 91.08 116.68 91.08 115.42 91.10 114.15 L 92.24 112.67 Z" id="p163" />
<path d="M 231.36 113.02 C 231.89 114.39 232.36 115.78 232.84 117.17 C 232.85 118.73 232.00 119.28 230.98 120.27 L 230.14 120.10 L 230.28 119.24 C 230.73 117.18 231.03 115.10 231.36 113.02 Z" id="p164" />
<path d="M 36.96 116.00 C 37.02 116.98 37.07 117.96 37.13 118.93 C 36.62 120.62 36.52 121.73 37.79 123.07 C 37.90 126.62 38.46 129.57 39.79 132.86 C 37.40 136.67 35.70 140.50 34.72 144.90 C 33.61 146.28 33.63 147.39 34.02 149.06 C 33.86 154.12 34.83 158.92 35.99 163.82 C 23.94 167.66 12.29 174.41 0.00 177.14 L 0.00 114.82 C 12.15 113.87 24.52 117.08 36.96 116.00 Z" id="p165" />
<path d="M 233.19 113.94 L 234.05 113.91 L 234.86 113.91 C 236.05 117.39 236.60 119.81 234.88 123.27 C 233.78 120.59 233.70 120.68 230.98 120.27 C 232.00 119.28 232.85 118.73 232.84 117.17 C 232.97 116.09 233.09 115.02 233.19 113.94 Z" id="p166" />
<path d="M 194.17 117.13 C 196.52 116.53 196.11 121.07 197.04 122.54 C 196.09 122.86 195.07 123.02 193.99 122.99 C 193.99 121.04 193.99 119.08 194.17 117.13 Z" id="p167" />
<path d="M 99.74 118.23 C 106.57 121.02 113.39 119.09 120.24 120.76 C 113.55 121.11 104.11 121.57 97.89 119.17 C 95.61 117.52 98.76 118.52 99.74 118.23 Z" id="p168" />
<path d="M 133.10 117.99 C 131.06 120.82 125.97 120.63 122.81 120.79 C 126.19 119.33 129.46 118.48 133.10 117.99 Z" id="p169" />
<path d="M 157.89 118.03 C 157.16 120.29 156.56 122.58 155.99 124.89 C 146.64 120.88 141.66 126.91 133.02 129.09 C 128.31 131.06 123.37 132.51 118.78 134.72 C 112.13 136.98 105.56 139.52 98.99 142.00 C 96.98 142.68 97.17 144.36 96.66 146.10 C 96.13 144.43 96.06 142.79 95.89 141.06 C 110.73 135.00 125.73 128.88 140.99 123.94 C 146.59 121.38 151.61 118.68 157.89 118.03 Z" id="p170" />
<path d="M 157.89 118.03 L 158.72 117.93 C 161.81 119.17 164.95 120.25 168.21 120.96 C 169.51 121.32 170.81 121.64 172.13 121.89 L 173.03 122.07 C 172.02 125.84 168.94 125.17 170.40 129.63 C 170.59 131.85 172.02 133.80 169.24 131.37 C 168.86 137.24 165.22 140.82 163.27 146.17 C 162.06 150.97 162.93 155.38 163.70 160.16 C 165.00 167.92 162.41 175.12 162.85 183.00 L 155.69 183.00 C 154.80 176.15 152.34 170.02 152.97 163.00 C 153.38 154.49 151.84 144.20 155.16 136.21 C 156.67 132.88 155.83 128.48 155.99 124.89 C 156.56 122.58 157.16 120.29 157.89 118.03 Z" id="p171" />
<path d="M 212.26 117.93 C 213.48 117.84 214.73 117.94 216.00 118.22 C 215.50 119.65 211.96 119.74 212.26 117.93 Z" id="p172" />
<path d="M 37.13 118.93 C 38.54 120.22 38.39 121.40 37.79 123.07 C 36.52 121.73 36.62 120.62 37.13 118.93 Z" id="p173" />
<path d="M 237.13 118.74 C 239.30 119.49 238.67 121.10 239.16 122.95 C 239.43 127.43 243.10 129.69 240.42 134.04 C 241.58 138.33 242.06 143.07 244.11 147.03 C 244.00 148.04 243.87 149.03 243.72 150.03 C 239.97 145.55 239.28 137.67 238.24 132.09 L 239.56 131.71 C 238.52 127.32 237.04 123.35 237.13 118.74 Z" id="p174" />
<path d="M 92.19 121.98 C 93.66 123.93 93.36 125.79 92.77 128.01 C 91.38 126.03 91.64 124.20 92.19 121.98 Z" id="p175" />
<path d="M 173.03 122.07 C 175.33 122.17 174.69 123.24 175.28 124.98 L 173.41 125.42 C 171.25 136.96 168.97 148.05 168.20 159.78 C 166.32 167.68 167.66 175.18 164.62 183.00 L 162.85 183.00 C 162.41 175.12 165.00 167.92 163.70 160.16 C 162.93 155.38 162.06 150.97 163.27 146.17 C 165.22 140.82 168.86 137.24 169.24 131.37 C 172.02 133.80 170.59 131.85 170.40 129.63 C 168.94 125.17 172.02 125.84 173.03 122.07 Z" id="p176" />
<path d="M 155.99 124.89 C 155.83 128.48 156.67 132.88 155.16 136.21 C 149.32 137.47 144.43 135.41 138.83 134.22 C 136.27 133.68 135.05 136.88 132.18 135.79 C 127.06 133.87 124.14 133.83 118.78 134.72 C 123.37 132.51 128.31 131.06 133.02 129.09 C 141.66 126.91 146.64 120.88 155.99 124.89 Z" id="p177" />
<path d="M 251.62 123.94 C 251.96 124.61 252.31 125.28 252.67 125.94 C 253.42 127.35 254.17 128.75 255.00 130.11 L 255.79 131.43 C 260.66 142.10 260.17 152.98 261.46 164.03 C 259.22 163.10 257.27 162.99 254.88 163.17 C 255.80 159.00 254.40 155.49 253.62 151.33 C 251.78 151.02 249.90 150.95 248.06 150.71 C 247.52 148.34 255.74 147.91 251.20 146.87 C 243.92 145.47 247.75 135.54 252.10 132.60 C 248.13 133.57 247.48 129.45 251.88 130.71 C 248.00 128.04 250.15 127.38 251.62 123.94 Z" id="p178" />
<path d="M 173.41 125.42 L 175.28 124.98 C 174.13 129.49 173.44 134.04 172.74 138.65 C 171.57 144.72 170.83 150.82 170.95 157.02 C 170.21 165.72 168.19 174.39 166.72 183.00 L 164.62 183.00 C 167.66 175.18 166.32 167.68 168.20 159.78 C 168.97 148.05 171.25 136.96 173.41 125.42 Z" id="p179" />
<path d="M 218.67 125.14 C 219.69 131.07 220.43 136.97 219.96 143.00 C 221.17 146.04 213.80 147.14 212.80 146.06 C 212.93 142.04 213.54 137.62 212.26 133.78 C 211.66 131.22 210.60 129.01 211.22 126.34 C 213.58 125.68 216.20 124.96 218.67 125.14 Z M 214.88 134.99 C 215.66 136.76 213.58 145.23 216.81 143.83 C 216.85 139.02 218.04 132.67 215.72 128.31 C 212.41 126.54 215.24 133.47 214.88 134.99 Z" id="p180" />
<path d="M 274.14 126.23 C 271.02 128.13 267.61 128.73 264.02 129.05 C 267.11 127.03 270.52 126.43 274.14 126.23 Z" id="p181" />
<path d="M 274.14 126.23 L 275.00 126.08 L 275.00 183.00 L 266.16 183.00 C 264.47 178.41 264.13 170.85 258.67 169.31 C 254.96 167.63 252.14 172.15 251.07 175.05 C 251.09 177.70 251.73 180.36 252.02 183.00 L 233.77 183.00 C 233.95 181.41 234.11 179.82 234.30 178.23 C 235.24 174.28 235.59 169.69 234.23 165.81 C 233.68 163.29 231.27 160.18 231.78 157.67 C 233.51 151.62 236.23 149.74 231.70 144.07 C 232.27 142.17 232.31 140.88 231.84 138.96 C 231.93 136.30 231.91 133.61 232.20 130.97 C 234.25 131.18 236.24 131.58 238.24 132.09 C 239.28 137.67 239.97 145.55 243.72 150.03 C 243.87 149.03 244.00 148.04 244.11 147.03 C 245.24 148.63 246.23 150.26 246.74 152.17 C 247.73 157.22 251.93 160.12 252.95 165.23 C 253.06 166.07 253.18 166.90 253.33 167.73 C 257.59 167.13 259.20 167.63 262.93 169.68 C 262.43 167.80 261.91 165.93 261.46 164.03 C 260.17 152.98 260.66 142.10 255.79 131.43 C 258.64 130.94 261.38 130.22 264.02 129.05 C 267.61 128.73 271.02 128.13 274.14 126.23 Z" id="p182" />
<path d="M 215.72 128.31 C 218.04 132.67 216.85 139.02 216.81 143.83 C 213.58 145.23 215.66 136.76 214.88 134.99 C 215.24 133.47 212.41 126.54 215.72 128.31 Z" id="p183" />
<path d="M 264.02 129.05 C 261.38 130.22 258.64 130.94 255.79 131.43 L 255.00 130.11 C 258.05 129.38 260.88 128.99 264.02 129.05 Z" id="p184" />
<path d="M 39.79 132.86 C 40.08 133.67 42.45 135.71 41.41 136.42 C 37.35 139.75 45.68 140.40 47.19 142.62 C 45.48 143.98 45.45 146.02 43.07 144.62 C 41.21 152.30 40.72 160.09 40.98 167.97 C 36.28 165.54 43.07 172.14 38.74 173.30 C 37.98 170.89 37.37 168.45 36.66 166.03 C 36.44 165.29 36.22 164.55 35.99 163.82 C 34.83 158.92 33.86 154.12 34.02 149.06 C 35.61 147.89 35.36 146.54 34.72 144.90 C 35.70 140.50 37.40 136.67 39.79 132.86 Z" id="p185" />
<path d="M 65.13 133.15 C 68.51 133.49 68.13 140.15 73.37 139.26 C 76.78 142.00 80.21 144.69 83.42 147.66 C 85.33 153.74 77.26 144.89 75.31 144.59 C 72.45 141.45 64.27 138.20 65.13 133.15 Z" id="p186" />
<path d="M 132.18 135.79 C 135.05 136.88 136.27 133.68 138.83 134.22 C 144.43 135.41 149.32 137.47 155.16 136.21 C 151.84 144.20 153.38 154.49 152.97 163.00 C 152.34 170.02 154.80 176.15 155.69 183.00 L 102.89 183.00 C 102.88 181.67 102.87 180.34 102.85 179.00 C 104.41 175.72 104.70 176.53 107.93 176.60 C 108.14 175.01 107.30 174.19 106.46 172.99 C 105.40 168.07 109.18 175.68 110.88 174.82 C 111.57 171.30 109.66 169.09 107.27 166.87 C 105.41 163.28 102.66 160.52 100.37 157.22 C 99.46 153.39 98.04 149.77 96.66 146.10 C 97.17 144.36 96.98 142.68 98.99 142.00 C 105.56 139.52 112.13 136.98 118.78 134.72 C 124.14 133.83 127.06 133.87 132.18 135.79 Z" id="p187" />
<path d="M 212.26 133.78 C 213.54 137.62 212.93 142.04 212.80 146.06 C 211.09 142.60 212.29 137.56 212.26 133.78 Z" id="p188" />
<path d="M 177.60 139.38 C 179.06 144.02 182.82 147.24 183.77 151.94 C 182.33 152.84 180.19 152.54 178.57 152.34 C 177.31 150.39 180.38 145.96 177.36 145.64 C 173.58 143.10 175.43 150.24 174.77 152.18 C 173.53 149.52 174.06 146.95 174.27 144.13 C 175.06 142.89 175.67 135.59 177.60 139.38 Z" id="p189" />
<path d="M 172.74 138.65 C 173.50 140.44 174.04 142.19 174.27 144.13 C 174.06 146.95 173.53 149.52 174.77 152.18 C 179.62 159.16 171.95 161.43 173.09 168.95 C 174.00 173.65 175.36 178.24 176.03 183.00 L 166.72 183.00 C 168.19 174.39 170.21 165.72 170.95 157.02 C 170.83 150.82 171.57 144.72 172.74 138.65 Z" id="p190" />
<path d="M 231.84 138.96 C 232.31 140.88 232.27 142.17 231.70 144.07 C 230.32 142.17 230.29 140.77 231.84 138.96 Z" id="p191" />
<path d="M 47.19 142.62 C 49.40 143.98 49.89 145.59 50.67 147.91 C 50.94 145.88 51.37 141.73 53.39 145.63 C 53.33 150.16 53.86 153.51 54.96 157.98 C 54.31 161.98 57.75 173.04 50.20 170.88 C 50.49 164.83 48.47 158.83 49.84 152.95 C 49.89 150.22 47.83 148.23 45.28 150.27 C 43.87 156.81 46.96 162.38 45.81 168.90 C 44.05 169.15 42.57 168.66 40.98 167.97 C 40.72 160.09 41.21 152.30 43.07 144.62 C 45.45 146.02 45.48 143.98 47.19 142.62 Z" id="p192" />
<path d="M 34.72 144.90 C 35.36 146.54 35.61 147.89 34.02 149.06 C 33.63 147.39 33.61 146.28 34.72 144.90 Z" id="p193" />
<path d="M 75.31 144.59 C 77.26 144.89 85.33 153.74 83.42 147.66 C 89.18 152.03 92.19 157.07 100.37 157.22 C 102.66 160.52 105.41 163.28 107.27 166.87 C 103.65 166.84 103.30 162.46 100.03 162.97 C 97.31 163.07 96.50 164.43 95.47 166.69 C 93.62 164.45 93.97 163.06 90.59 163.49 C 90.15 160.54 88.11 158.94 86.42 156.57 C 83.96 156.42 81.37 157.09 78.92 157.31 C 82.67 152.09 70.89 149.51 75.31 144.59 Z" id="p194" />
<path d="M 61.82 154.07 C 62.45 155.63 62.62 157.07 62.58 158.73 C 61.69 158.49 60.81 158.29 59.91 158.12 C 60.18 156.29 59.91 154.97 61.82 154.07 Z" id="p195" />
<path d="M 86.42 156.57 C 88.11 158.94 90.15 160.54 90.59 163.49 C 93.97 163.06 93.62 164.45 95.47 166.69 C 96.50 164.43 97.31 163.07 100.03 162.97 C 103.30 162.46 103.65 166.84 107.27 166.87 C 109.66 169.09 111.57 171.30 110.88 174.82 C 109.18 175.68 105.40 168.07 106.46 172.99 C 103.84 173.63 100.76 167.93 98.83 166.37 C 96.25 167.22 95.30 170.86 92.67 170.45 C 90.66 170.03 91.45 172.08 91.00 173.35 C 84.54 168.98 83.53 162.86 78.92 157.31 C 81.37 157.09 83.96 156.42 86.42 156.57 Z" id="p196" />
<path d="M 59.91 158.12 C 60.81 158.29 61.69 158.49 62.58 158.73 C 63.73 162.69 58.91 161.48 59.91 158.12 Z" id="p197" />
<path d="M 177.13 162.57 C 180.40 163.67 184.21 164.92 186.77 167.29 C 187.26 172.38 185.80 177.95 184.92 183.00 L 182.97 183.00 C 182.93 179.58 183.24 172.93 180.04 170.80 C 179.04 172.45 178.27 174.24 177.31 175.93 C 175.65 171.41 175.46 167.13 177.13 162.57 Z" id="p198" />
<path d="M 254.88 163.17 C 257.27 162.99 259.22 163.10 261.46 164.03 C 261.91 165.93 262.43 167.80 262.93 169.68 C 259.20 167.63 257.59 167.13 253.33 167.73 C 253.18 166.90 253.06 166.07 252.95 165.23 C 253.60 164.55 254.24 163.86 254.88 163.17 Z" id="p199" />
<path d="M 35.99 163.82 C 36.22 164.55 36.44 165.29 36.66 166.03 C 24.25 170.14 12.42 176.00 0.00 180.09 L 0.00 177.14 C 12.29 174.41 23.94 167.66 35.99 163.82 Z" id="p200" />
<path d="M 36.66 166.03 C 37.37 168.45 37.98 170.89 38.74 173.30 C 39.69 176.52 40.81 179.63 41.13 183.00 L 0.00 183.00 L 0.00 180.09 C 12.42 176.00 24.25 170.14 36.66 166.03 Z" id="p201" />
<path d="M 98.83 166.37 C 100.76 167.93 103.84 173.63 106.46 172.99 C 107.30 174.19 108.14 175.01 107.93 176.60 C 104.70 176.53 104.41 175.72 102.85 179.00 C 97.15 181.67 94.53 176.84 91.00 173.35 C 91.45 172.08 90.66 170.03 92.67 170.45 C 95.30 170.86 96.25 167.22 98.83 166.37 Z" id="p202" />
<path d="M 234.23 165.81 C 235.59 169.69 235.24 174.28 234.30 178.23 C 233.88 174.08 233.95 169.96 234.23 165.81 Z" id="p203" />
<path d="M 258.67 169.31 C 264.13 170.85 264.47 178.41 266.16 183.00 L 259.22 183.00 C 257.78 178.45 257.51 172.64 251.07 175.05 C 252.14 172.15 254.96 167.63 258.67 169.31 Z" id="p204" />
<path d="M 259.22 183.00 L 258.30 183.00 C 257.11 180.66 253.45 178.55 253.66 183.00 L 252.02 183.00 C 251.73 180.36 251.09 177.70 251.07 175.05 C 257.51 172.64 257.78 178.45 259.22 183.00 Z" id="p205" />
<path d="M 191.22 175.33 C 193.52 174.54 194.31 183.97 190.53 181.87 C 190.35 180.03 189.27 176.37 191.22 175.33 Z" id="p206" />
<path d="M 258.30 183.00 L 253.66 183.00 C 253.45 178.55 257.11 180.66 258.30 183.00 Z" id="p207" />
</defs>
<g stroke-width="10pt">
<use stroke="#9e777c" xlink:href="#p0" />
<use stroke="#a75b68" xlink:href="#p1" />
<use stroke="#a53549" xlink:href="#p2" />
<use stroke="#883245" xlink:href="#p3" />
<use stroke="#8d4d60" xlink:href="#p4" />
<use stroke="#75293a" xlink:href="#p5" />
<use stroke="#a58185" xlink:href="#p6" />
<use stroke="#a58b8f" xlink:href="#p7" />
<use stroke="#33242b" xlink:href="#p8" />
<use stroke="#b09da4" xlink:href="#p9" />
<use stroke="#181317" xlink:href="#p10" />
<use stroke="#7b6681" xlink:href="#p11" />
<use stroke="#897d93" xlink:href="#p12" />
<use stroke="#9c8fa5" xlink:href="#p13" />
<use stroke="#654964" xlink:href="#p14" />
<use stroke="#553940" xlink:href="#p15" />
<use stroke="#ac9398" xlink:href="#p16" />
<use stroke="#88666a" xlink:href="#p17" />
<use stroke="#583e3d" xlink:href="#p18" />
<use stroke="#b69fa2" xlink:href="#p19" />
<use stroke="#8a7378" xlink:href="#p20" />
<use stroke="#bfafb3" xlink:href="#p21" />
<use stroke="#5d5366" xlink:href="#p22" />
<use stroke="#9e8b8e" xlink:href="#p23" />
<use stroke="#bfacae" xlink:href="#p24" />
<use stroke="#b8a8ab" xlink:href="#p25" />
<use stroke="#5e4141" xlink:href="#p26" />
<use stroke="#ac9ea2" xlink:href="#p27" />
<use stroke="#a99aa2" xlink:href="#p28" />
<use stroke="#201b1d" xlink:href="#p29" />
<use stroke="#7b5957" xlink:href="#p30" />
<use stroke="#98888b" xlink:href="#p31" />
<use stroke="#c2b7c0" xlink:href="#p32" />
<use stroke="#805b58" xlink:href="#p33" />
<use stroke="#824a4f" xlink:href="#p34" />
<use stroke="#9d665c" xlink:href="#p35" />
<use stroke="#62484b" xlink:href="#p36" />
<use stroke="#968688" xlink:href="#p37" />
<use stroke="#ac8076" xlink:href="#p38" />
<use stroke="#7c7271" xlink:href="#p39" />
<use stroke="#885f58" xlink:href="#p40" />
<use stroke="#554852" xlink:href="#p41" />
<use stroke="#572f29" xlink:href="#p42" />
<use stroke="#4f2823" xlink:href="#p43" />
<use stroke="#362c32" xlink:href="#p44" />
<use stroke="#7d4c3d" xlink:href="#p45" />
<use stroke="#62242d" xlink:href="#p46" />
<use stroke="#4d3b40" xlink:href="#p47" />
<use stroke="#85797a" xlink:href="#p48" />
<use stroke="#bfaab1" xlink:href="#p49" />
<use stroke="#7a514e" xlink:href="#p50" />
<use stroke="#342e2e" xlink:href="#p51" />
<use stroke="#8b605a" xlink:href="#p52" />
<use stroke="#a78788" xlink:href="#p53" />
<use stroke="#8a787c" xlink:href="#p54" />
<use stroke="#926d73" xlink:href="#p55" />
<use stroke="#c9b4b4" xlink:href="#p56" />
<use stroke="#7d72a3" xlink:href="#p57" />
<use stroke="#573d41" xlink:href="#p58" />
<use stroke="#411917" xlink:href="#p59" />
<use stroke="#91848e" xlink:href="#p60" />
<use stroke="#9d716b" xlink:href="#p61" />
<use stroke="#665463" xlink:href="#p62" />
<use stroke="#9f9abe" xlink:href="#p63" />
<use stroke="#828995" xlink:href="#p64" />
<use stroke="#d0bbbc" xlink:href="#p65" />
<use stroke="#9f8a93" xlink:href="#p66" />
<use stroke="#c27a74" xlink:href="#p67" />
<use stroke="#211c27" xlink:href="#p68" />
<use stroke="#6c413b" xlink:href="#p69" />
<use stroke="#372c36" xlink:href="#p70" />
<use stroke="#ad4450" xlink:href="#p71" />
<use stroke="#552b1a" xlink:href="#p72" />
<use stroke="#a98a89" xlink:href="#p73" />
<use stroke="#624f5d" xlink:href="#p74" />
<use stroke="#544c57" xlink:href="#p75" />
<use stroke="#a88990" xlink:href="#p76" />
<use stroke="#480b17" xlink:href="#p77" />
<use stroke="#8f645b" xlink:href="#p78" />
<use stroke="#6e5d71" xlink:href="#p79" />
<use stroke="#67454e" xlink:href="#p80" />
<use stroke="#977881" xlink:href="#p81" />
<use stroke="#886879" xlink:href="#p82" />
<use stroke="#4c4245" xlink:href="#p83" />
<use stroke="#32192a" xlink:href="#p84" />
<use stroke="#b29fa0" xlink:href="#p85" />
<use stroke="#523640" xlink:href="#p86" />
<use stroke="#74616d" xlink:href="#p87" />
<use stroke="#a77d77" xlink:href="#p88" />
<use stroke="#9c8489" xlink:href="#p89" />
<use stroke="#96797a" xlink:href="#p90" />
<use stroke="#5a4345" xlink:href="#p91" />
<use stroke="#a27f92" xlink:href="#p92" />
<use stroke="#cebaba" xlink:href="#p93" />
<use stroke="#b5999b" xlink:href="#p94" />
<use stroke="#361928" xlink:href="#p95" />
<use stroke="#3c1f31" xlink:href="#p96" />
<use stroke="#906b70" xlink:href="#p97" />
<use stroke="#735162" xlink:href="#p98" />
<use stroke="#523441" xlink:href="#p99" />
<use stroke="#9a7e83" xlink:href="#p100" />
<use stroke="#533b48" xlink:href="#p101" />
<use stroke="#a8715c" xlink:href="#p102" />
<use stroke="#523a45" xlink:href="#p103" />
<use stroke="#6a505b" xlink:href="#p104" />
<use stroke="#9b7b81" xlink:href="#p105" />
<use stroke="#9b7d86" xlink:href="#p106" />
<use stroke="#9ca5af" xlink:href="#p107" />
<use stroke="#583e45" xlink:href="#p108" />
<use stroke="#684645" xlink:href="#p109" />
<use stroke="#947f84" xlink:href="#p110" />
<use stroke="#d4d1dc" xlink:href="#p111" />
<use stroke="#7c7c85" xlink:href="#p112" />
<use stroke="#99858e" xlink:href="#p113" />
<use stroke="#cfd0d7" xlink:href="#p114" />
<use stroke="#c3afae" xlink:href="#p115" />
<use stroke="#14131e" xlink:href="#p116" />
<use stroke="#928088" xlink:href="#p117" />
<use stroke="#aa9399" xlink:href="#p118" />
<use stroke="#977f8b" xlink:href="#p119" />
<use stroke="#965c46" xlink:href="#p120" />
<use stroke="#413041" xlink:href="#p121" />
<use stroke="#867e8b" xlink:href="#p122" />
<use stroke="#372834" xlink:href="#p123" />
<use stroke="#7e7d81" xlink:href="#p124" />
<use stroke="#897681" xlink:href="#p125" />
<use stroke="#867484" xlink:href="#p126" />
<use stroke="#998288" xlink:href="#p127" />
<use stroke="#dec3d2" xlink:href="#p128" />
<use stroke="#e8d0e0" xlink:href="#p129" />
<use stroke="#eed7e7" xlink:href="#p130" />
<use stroke="#7b5f72" xlink:href="#p131" />
<use stroke="#e0c9d6" xlink:href="#p132" />
<use stroke="#553c49" xlink:href="#p133" />
<use stroke="#7e7d89" xlink:href="#p134" />
<use stroke="#d9d6df" xlink:href="#p135" />
<use stroke="#e1c6d4" xlink:href="#p136" />
<use stroke="#907085" xlink:href="#p137" />
<use stroke="#ead1e1" xlink:href="#p138" />
<use stroke="#a894a7" xlink:href="#p139" />
<use stroke="#d1cfdb" xlink:href="#p140" />
<use stroke="#a2929f" xlink:href="#p141" />
<use stroke="#131217" xlink:href="#p142" />
<use stroke="#765867" xlink:href="#p143" />
<use stroke="#361c2b" xlink:href="#p144" />
<use stroke="#633d34" xlink:href="#p145" />
<use stroke="#e0c6d3" xlink:href="#p146" />
<use stroke="#8f7988" xlink:href="#p147" />
<use stroke="#b8b5c1" xlink:href="#p148" />
<use stroke="#92848e" xlink:href="#p149" />
<use stroke="#827e85" xlink:href="#p150" />
<use stroke="#856a78" xlink:href="#p151" />
<use stroke="#8c6d7c" xlink:href="#p152" />
<use stroke="#aa97a4" xlink:href="#p153" />
<use stroke="#7d7f87" xlink:href="#p154" />
<use stroke="#645661" xlink:href="#p155" />
<use stroke="#2a0f1a" xlink:href="#p156" />
<use stroke="#7e6874" xlink:href="#p157" />
<use stroke="#644755" xlink:href="#p158" />
<use stroke="#8b727e" xlink:href="#p159" />
<use stroke="#747079" xlink:href="#p160" />
<use stroke="#121014" xlink:href="#p161" />
<use stroke="#7c6062" xlink:href="#p162" />
<use stroke="#948a8e" xlink:href="#p163" />
<use stroke="#957f8c" xlink:href="#p164" />
<use stroke="#d3c4c6" xlink:href="#p165" />
<use stroke="#493c47" xlink:href="#p166" />
<use stroke="#543543" xlink:href="#p167" />
<use stroke="#89757e" xlink:href="#p168" />
<use stroke="#9f8b91" xlink:href="#p169" />
<use stroke="#756669" xlink:href="#p170" />
<use stroke="#ded8e2" xlink:href="#p171" />
<use stroke="#836c79" xlink:href="#p172" />
<use stroke="#6f6364" xlink:href="#p173" />
<use stroke="#9d99a2" xlink:href="#p174" />
<use stroke="#83787c" xlink:href="#p175" />
<use stroke="#bdb8c3" xlink:href="#p176" />
<use stroke="#d0bfbd" xlink:href="#p177" />
<use stroke="#dedce7" xlink:href="#p178" />
<use stroke="#958e97" xlink:href="#p179" />
<use stroke="#c1c0c8" xlink:href="#p180" />
<use stroke="#847a7d" xlink:href="#p181" />
<use stroke="#cababa" xlink:href="#p182" />
<use stroke="#0e0c19" xlink:href="#p183" />
<use stroke="#8d8381" xlink:href="#p184" />
<use stroke="#202025" xlink:href="#p185" />
<use stroke="#5d4a4c" xlink:href="#p186" />
<use stroke="#d9ccce" xlink:href="#p187" />
<use stroke="#8e8e95" xlink:href="#p188" />
<use stroke="#38373c" xlink:href="#p189" />
<use stroke="#d0c6cb" xlink:href="#p190" />
<use stroke="#847c79" xlink:href="#p191" />
<use stroke="#34343c" xlink:href="#p192" />
<use stroke="#7b7277" xlink:href="#p193" />
<use stroke="#7c5e63" xlink:href="#p194" />
<use stroke="#c3b2c2" xlink:href="#p195" />
<use stroke="#6c4a4b" xlink:href="#p196" />
<use stroke="#736876" xlink:href="#p197" />
<use stroke="#35353f" xlink:href="#p198" />
<use stroke="#84666c" xlink:href="#p199" />
<use stroke="#51444c" xlink:href="#p200" />
<use stroke="#cbbdc1" xlink:href="#p201" />
<use stroke="#513534" xlink:href="#p202" />
<use stroke="#958f93" xlink:href="#p203" />
<use stroke="#936b6c" xlink:href="#p204" />
<use stroke="#7d4e4f" xlink:href="#p205" />
<use stroke="#bdb4c0" xlink:href="#p206" />
<use stroke="#bf8c8e" xlink:href="#p207" />
</g>
<g>
<use fill="#9e777c" xlink:href="#p0" />
<use fill="#a75b68" xlink:href="#p1" />
<use fill="#a53549" xlink:href="#p2" />
<use fill="#883245" xlink:href="#p3" />
<use fill="#8d4d60" xlink:href="#p4" />
<use fill="#75293a" xlink:href="#p5" />
<use fill="#a58185" xlink:href="#p6" />
<use fill="#a58b8f" xlink:href="#p7" />
<use fill="#33242b" xlink:href="#p8" />
<use fill="#b09da4" xlink:href="#p9" />
<use fill="#181317" xlink:href="#p10" />
<use fill="#7b6681" xlink:href="#p11" />
<use fill="#897d93" xlink:href="#p12" />
<use fill="#9c8fa5" xlink:href="#p13" />
<use fill="#654964" xlink:href="#p14" />
<use fill="#553940" xlink:href="#p15" />
<use fill="#ac9398" xlink:href="#p16" />
<use fill="#88666a" xlink:href="#p17" />
<use fill="#583e3d" xlink:href="#p18" />
<use fill="#b69fa2" xlink:href="#p19" />
<use fill="#8a7378" xlink:href="#p20" />
<use fill="#bfafb3" xlink:href="#p21" />
<use fill="#5d5366" xlink:href="#p22" />
<use fill="#9e8b8e" xlink:href="#p23" />
<use fill="#bfacae" xlink:href="#p24" />
<use fill="#b8a8ab" xlink:href="#p25" />
<use fill="#5e4141" xlink:href="#p26" />
<use fill="#ac9ea2" xlink:href="#p27" />
<use fill="#a99aa2" xlink:href="#p28" />
<use fill="#201b1d" xlink:href="#p29" />
<use fill="#7b5957" xlink:href="#p30" />
<use fill="#98888b" xlink:href="#p31" />
<use fill="#c2b7c0" xlink:href="#p32" />
<use fill="#805b58" xlink:href="#p33" />
<use fill="#824a4f" xlink:href="#p34" />
<use fill="#9d665c" xlink:href="#p35" />
<use fill="#62484b" xlink:href="#p36" />
<use fill="#968688" xlink:href="#p37" />
<use fill="#ac8076" xlink:href="#p38" />
<use fill="#7c7271" xlink:href="#p39" />
<use fill="#885f58" xlink:href="#p40" />
<use fill="#554852" xlink:href="#p41" />
<use fill="#572f29" xlink:href="#p42" />
<use fill="#4f2823" xlink:href="#p43" />
<use fill="#362c32" xlink:href="#p44" />
<use fill="#7d4c3d" xlink:href="#p45" />
<use fill="#62242d" xlink:href="#p46" />
<use fill="#4d3b40" xlink:href="#p47" />
<use fill="#85797a" xlink:href="#p48" />
<use fill="#bfaab1" xlink:href="#p49" />
<use fill="#7a514e" xlink:href="#p50" />
<use fill="#342e2e" xlink:href="#p51" />
<use fill="#8b605a" xlink:href="#p52" />
<use fill="#a78788" xlink:href="#p53" />
<use fill="#8a787c" xlink:href="#p54" />
<use fill="#926d73" xlink:href="#p55" />
<use fill="#c9b4b4" xlink:href="#p56" />
<use fill="#7d72a3" xlink:href="#p57" />
<use fill="#573d41" xlink:href="#p58" />
<use fill="#411917" xlink:href="#p59" />
<use fill="#91848e" xlink:href="#p60" />
<use fill="#9d716b" xlink:href="#p61" />
<use fill="#665463" xlink:href="#p62" />
<use fill="#9f9abe" xlink:href="#p63" />
<use fill="#828995" xlink:href="#p64" />
<use fill="#d0bbbc" xlink:href="#p65" />
<use fill="#9f8a93" xlink:href="#p66" />
<use fill="#c27a74" xlink:href="#p67" />
<use fill="#211c27" xlink:href="#p68" />
<use fill="#6c413b" xlink:href="#p69" />
<use fill="#372c36" xlink:href="#p70" />
<use fill="#ad4450" xlink:href="#p71" />
<use fill="#552b1a" xlink:href="#p72" />
<use fill="#a98a89" xlink:href="#p73" />
<use fill="#624f5d" xlink:href="#p74" />
<use fill="#544c57" xlink:href="#p75" />
<use fill="#a88990" xlink:href="#p76" />
<use fill="#480b17" xlink:href="#p77" />
<use fill="#8f645b" xlink:href="#p78" />
<use fill="#6e5d71" xlink:href="#p79" />
<use fill="#67454e" xlink:href="#p80" />
<use fill="#977881" xlink:href="#p81" />
<use fill="#886879" xlink:href="#p82" />
<use fill="#4c4245" xlink:href="#p83" />
<use fill="#32192a" xlink:href="#p84" />
<use fill="#b29fa0" xlink:href="#p85" />
<use fill="#523640" xlink:href="#p86" />
<use fill="#74616d" xlink:href="#p87" />
<use fill="#a77d77" xlink:href="#p88" />
<use fill="#9c8489" xlink:href="#p89" />
<use fill="#96797a" xlink:href="#p90" />
<use fill="#5a4345" xlink:href="#p91" />
<use fill="#a27f92" xlink:href="#p92" />
<use fill="#cebaba" xlink:href="#p93" />
<use fill="#b5999b" xlink:href="#p94" />
<use fill="#361928" xlink:href="#p95" />
<use fill="#3c1f31" xlink:href="#p96" />
<use fill="#906b70" xlink:href="#p97" />
<use fill="#735162" xlink:href="#p98" />
<use fill="#523441" xlink:href="#p99" />
<use fill="#9a7e83" xlink:href="#p100" />
<use fill="#533b48" xlink:href="#p101" />
<use fill="#a8715c" xlink:href="#p102" />
<use fill="#523a45" xlink:href="#p103" />
<use fill="#6a505b" xlink:href="#p104" />
<use fill="#9b7b81" xlink:href="#p105" />
<use fill="#9b7d86" xlink:href="#p106" />
<use fill="#9ca5af" xlink:href="#p107" />
<use fill="#583e45" xlink:href="#p108" />
<use fill="#684645" xlink:href="#p109" />
<use fill="#947f84" xlink:href="#p110" />
<use fill="#d4d1dc" xlink:href="#p111" />
<use fill="#7c7c85" xlink:href="#p112" />
<use fill="#99858e" xlink:href="#p113" />
<use fill="#cfd0d7" xlink:href="#p114" />
<use fill="#c3afae" xlink:href="#p115" />
<use fill="#14131e" xlink:href="#p116" />
<use fill="#928088" xlink:href="#p117" />
<use fill="#aa9399" xlink:href="#p118" />
<use fill="#977f8b" xlink:href="#p119" />
<use fill="#965c46" xlink:href="#p120" />
<use fill="#413041" xlink:href="#p121" />
<use fill="#867e8b" xlink:href="#p122" />
<use fill="#372834" xlink:href="#p123" />
<use fill="#7e7d81" xlink:href="#p124" />
<use fill="#897681" xlink:href="#p125" />
<use fill="#867484" xlink:href="#p126" />
<use fill="#998288" xlink:href="#p127" />
<use fill="#dec3d2" xlink:href="#p128" />
<use fill="#e8d0e0" xlink:href="#p129" />
<use fill="#eed7e7" xlink:href="#p130" />
<use fill="#7b5f72" xlink:href="#p131" />
<use fill="#e0c9d6" xlink:href="#p132" />
<use fill="#553c49" xlink:href="#p133" />
<use fill="#7e7d89" xlink:href="#p134" />
<use fill="#d9d6df" xlink:href="#p135" />
<use fill="#e1c6d4" xlink:href="#p136" />
<use fill="#907085" xlink:href="#p137" />
<use fill="#ead1e1" xlink:href="#p138" />
<use fill="#a894a7" xlink:href="#p139" />
<use fill="#d1cfdb" xlink:href="#p140" />
<use fill="#a2929f" xlink:href="#p141" />
<use fill="#131217" xlink:href="#p142" />
<use fill="#765867" xlink:href="#p143" />
<use fill="#361c2b" xlink:href="#p144" />
<use fill="#633d34" xlink:href="#p145" />
<use fill="#e0c6d3" xlink:href="#p146" />
<use fill="#8f7988" xlink:href="#p147" />
<use fill="#b8b5c1" xlink:href="#p148" />
<use fill="#92848e" xlink:href="#p149" />
<use fill="#827e85" xlink:href="#p150" />
<use fill="#856a78" xlink:href="#p151" />
<use fill="#8c6d7c" xlink:href="#p152" />
<use fill="#aa97a4" xlink:href="#p153" />
<use fill="#7d7f87" xlink:href="#p154" />
<use fill="#645661" xlink:href="#p155" />
<use fill="#2a0f1a" xlink:href="#p156" />
<use fill="#7e6874" xlink:href="#p157" />
<use fill="#644755" xlink:href="#p158" />
<use fill="#8b727e" xlink:href="#p159" />
<use fill="#747079" xlink:href="#p160" />
<use fill="#121014" xlink:href="#p161" />
<use fill="#7c6062" xlink:href="#p162" />
<use fill="#948a8e" xlink:href="#p163" />
<use fill="#957f8c" xlink:href="#p164" />
<use fill="#d3c4c6" xlink:href="#p165" />
<use fill="#493c47" xlink:href="#p166" />
<use fill="#543543" xlink:href="#p167" />
<use fill="#89757e" xlink:href="#p168" />
<use fill="#9f8b91" xlink:href="#p169" />
<use fill="#756669" xlink:href="#p170" />
<use fill="#ded8e2" xlink:href="#p171" />
<use fill="#836c79" xlink:href="#p172" />
<use fill="#6f6364" xlink:href="#p173" />
<use fill="#9d99a2" xlink:href="#p174" />
<use fill="#83787c" xlink:href="#p175" />
<use fill="#bdb8c3" xlink:href="#p176" />
<use fill="#d0bfbd" xlink:href="#p177" />
<use fill="#dedce7" xlink:href="#p178" />
<use fill="#958e97" xlink:href="#p179" />
<use fill="#c1c0c8" xlink:href="#p180" />
<use fill="#847a7d" xlink:href="#p181" />
<use fill="#cababa" xlink:href="#p182" />
<use fill="#0e0c19" xlink:href="#p183" />
<use fill="#8d8381" xlink:href="#p184" />
<use fill="#202025" xlink:href="#p185" />
<use fill="#5d4a4c" xlink:href="#p186" />
<use fill="#d9ccce" xlink:href="#p187" />
<use fill="#8e8e95" xlink:href="#p188" />
<use fill="#38373c" xlink:href="#p189" />
<use fill="#d0c6cb" xlink:href="#p190" />
<use fill="#847c79" xlink:href="#p191" />
<use fill="#34343c" xlink:href="#p192" />
<use fill="#7b7277" xlink:href="#p193" />
<use fill="#7c5e63" xlink:href="#p194" />
<use fill="#c3b2c2" xlink:href="#p195" />
<use fill="#6c4a4b" xlink:href="#p196" />
<use fill="#736876" xlink:href="#p197" />
<use fill="#35353f" xlink:href="#p198" />
<use fill="#84666c" xlink:href="#p199" />
<use fill="#51444c" xlink:href="#p200" />
<use fill="#cbbdc1" xlink:href="#p201" />
<use fill="#513534" xlink:href="#p202" />
<use fill="#958f93" xlink:href="#p203" />
<use fill="#936b6c" xlink:href="#p204" />
<use fill="#7d4e4f" xlink:href="#p205" />
<use fill="#bdb4c0" xlink:href="#p206" />
<use fill="#bf8c8e" xlink:href="#p207" />
</g>
</svg>