<?xml version="1.0" encoding="UTF-8" standalone="no"?>
<!DOCTYPE svg PUBLIC "-//W3C//DTD SVG 1.1//EN" "http://www.w3.org/Graphics/SVG/1.1/DTD/svg11.dtd">
<svg xmlns="http://www.w3.org/2000/svg" version="1.1" viewBox="0 0 200 200" xmlns:xlink="http://www.w3.org/1999/xlink">
<defs>
<path d="M 0.00 0.00 L 1.05 0.00 C 0.97 21.98 0.95 43.98 1.06 65.97 L 1.09 67.73 C 1.02 70.24 0.94 72.74 0.95 75.25 L 0.96 77.09 C 0.97 79.33 1.01 81.58 1.08 83.82 C 1.10 85.45 1.14 87.08 1.22 88.71 C 0.75 101.07 1.10 113.48 1.01 125.85 C 0.97 130.87 0.99 135.89 1.04 140.91 C 0.62 146.98 1.69 152.99 1.16 159.03 C 0.99 161.28 1.05 163.53 1.20 165.77 C 1.14 168.46 1.02 171.16 1.02 173.85 C 1.61 178.15 -1.10 186.13 4.17 187.88 C 6.79 189.90 7.11 184.75 10.81 186.09 C 10.89 188.68 12.34 194.40 8.00 193.90 C 5.04 194.73 0.18 192.22 1.02 197.03 C 0.96 198.02 0.90 199.01 0.86 200.00 L 0.00 200.00 L 0.00 0.00 Z" id="p0" />
<path d="M 1.05 0.00 L 200.00 0.00 L 200.00 38.71 C 193.85 44.34 191.42 42.77 184.40 48.45 C 180.81 49.88 180.13 55.32 176.17 53.89 C 170.77 50.39 164.78 49.44 158.49 48.86 C 162.14 44.53 154.00 46.65 152.11 47.03 C 149.55 30.72 141.84 19.35 127.06 11.86 C 121.19 8.84 117.39 8.67 111.32 10.89 C 103.57 5.95 98.99 12.78 91.80 15.64 C 83.02 22.37 77.32 34.71 72.42 44.51 C 69.96 48.60 69.43 55.26 65.10 57.58 C 64.17 55.82 63.32 54.02 62.47 52.22 C 59.22 56.15 60.85 61.58 58.08 64.55 C 54.87 65.97 53.34 66.19 49.95 65.00 C 50.17 62.75 53.69 62.45 55.23 61.05 C 53.18 59.38 49.56 59.43 47.05 58.62 C 49.60 54.89 55.92 55.56 57.18 51.26 C 55.58 51.48 47.86 56.36 49.09 52.22 C 51.78 49.48 59.11 44.85 50.11 48.10 C 42.45 46.90 50.42 40.80 43.86 38.09 C 37.12 36.76 44.02 42.06 37.31 44.13 C 33.58 43.48 31.63 43.42 27.88 44.91 C 23.11 43.37 19.19 43.43 24.31 48.65 C 22.54 50.96 18.56 48.97 16.06 49.01 C 21.33 50.88 22.11 56.15 27.79 56.50 C 26.56 62.06 25.11 66.74 32.64 68.26 C 33.89 69.78 28.94 68.47 28.27 68.63 C 24.23 62.95 24.30 71.02 18.42 71.06 C 21.72 68.27 13.57 61.65 11.51 65.48 C 5.04 70.41 7.08 67.49 1.06 65.97 C 0.95 43.98 0.97 21.98 1.05 0.00 Z" id="p1" />
<path d="M 111.32 10.89 C 117.79 18.15 96.98 12.77 99.52 17.28 C 104.74 18.85 98.44 24.03 95.82 24.73 C 91.54 25.26 90.12 29.51 86.08 29.96 C 85.43 23.37 89.53 20.97 91.80 15.64 C 98.99 12.78 103.57 5.95 111.32 10.89 Z" id="p2" />
<path d="M 127.06 11.86 C 125.25 12.96 116.10 11.94 121.03 15.01 C 123.18 16.99 120.69 21.62 122.59 24.89 C 119.74 25.92 116.94 27.05 114.18 28.29 C 123.36 34.66 125.64 48.04 126.62 58.40 C 129.18 66.87 117.12 59.53 112.83 62.78 C 105.49 64.75 104.58 79.49 112.84 82.14 C 119.64 88.32 121.28 85.03 128.58 83.00 C 128.38 86.93 127.80 86.16 131.50 87.13 C 125.67 99.35 119.83 104.31 109.83 112.84 C 105.63 118.48 118.87 116.47 115.23 122.16 C 111.21 128.19 107.15 130.66 107.16 138.87 L 106.20 137.93 C 106.00 133.58 103.96 131.66 100.82 129.15 C 94.36 125.00 92.31 115.86 89.26 109.05 C 93.28 106.83 98.50 109.43 101.01 103.91 C 100.83 100.55 94.65 99.66 93.04 96.33 C 96.11 95.77 98.91 96.35 101.29 94.00 C 100.18 92.12 92.92 90.40 98.42 89.47 C 104.19 88.41 95.05 84.90 100.41 82.44 C 104.01 78.60 109.67 67.49 104.33 63.17 C 110.40 57.71 114.99 63.50 120.67 55.67 C 125.12 47.33 114.94 40.71 110.81 34.19 C 106.61 29.42 96.03 23.06 91.23 30.23 C 86.20 34.80 81.49 37.49 80.99 45.05 C 78.29 51.62 72.73 57.92 73.04 64.97 C 73.10 70.18 72.34 75.16 71.28 80.24 C 71.23 71.80 69.52 72.51 67.79 79.74 C 65.09 78.24 60.67 82.94 62.05 78.03 C 64.62 71.12 62.13 64.57 65.10 57.58 C 69.43 55.26 69.96 48.60 72.42 44.51 C 77.32 34.71 83.02 22.37 91.80 15.64 C 89.53 20.97 85.43 23.37 86.08 29.96 C 90.12 29.51 91.54 25.26 95.82 24.73 C 98.44 24.03 104.74 18.85 99.52 17.28 C 96.98 12.77 117.79 18.15 111.32 10.89 C 117.39 8.67 121.19 8.84 127.06 11.86 Z" id="p3" />
<path d="M 127.06 11.86 C 141.84 19.35 149.55 30.72 152.11 47.03 C 152.40 49.03 152.63 51.04 152.91 53.04 C 154.86 60.59 154.78 72.35 158.73 78.01 C 156.59 88.91 159.23 99.27 158.81 110.01 C 151.79 105.00 143.01 98.19 145.44 88.41 C 144.03 81.58 146.75 72.83 143.12 66.91 C 144.25 75.31 143.83 83.47 141.68 91.70 C 143.98 106.04 153.20 105.36 160.92 115.83 C 164.82 119.55 160.54 120.26 157.15 120.03 C 150.06 116.41 147.47 110.03 141.86 104.63 C 136.37 109.60 138.74 93.77 135.25 95.32 C 132.72 100.33 134.56 107.47 134.00 113.00 C 132.45 117.66 131.03 122.33 130.16 127.17 C 126.66 131.84 125.20 135.91 126.23 141.83 C 127.34 150.02 108.28 145.36 107.16 138.87 C 107.15 130.66 111.21 128.19 115.23 122.16 C 118.87 116.47 105.63 118.48 109.83 112.84 C 119.83 104.31 125.67 99.35 131.50 87.13 C 127.80 86.16 128.38 86.93 128.58 83.00 C 121.28 85.03 119.64 88.32 112.84 82.14 C 104.58 79.49 105.49 64.75 112.83 62.78 C 117.12 59.53 129.18 66.87 126.62 58.40 C 125.64 48.04 123.36 34.66 114.18 28.29 C 116.94 27.05 119.74 25.92 122.59 24.89 C 120.69 21.62 123.18 16.99 121.03 15.01 C 116.10 11.94 125.25 12.96 127.06 11.86 Z" id="p4" />
<path d="M 110.81 34.19 C 114.94 40.71 125.12 47.33 120.67 55.67 C 114.99 63.50 110.40 57.71 104.33 63.17 C 109.67 67.49 104.01 78.60 100.41 82.44 C 95.05 84.90 104.19 88.41 98.42 89.47 C 92.92 90.40 100.18 92.12 101.29 94.00 C 98.91 96.35 96.11 95.77 93.04 96.33 C 94.65 99.66 100.83 100.55 101.01 103.91 C 98.50 109.43 93.28 106.83 89.26 109.05 C 92.31 115.86 94.36 125.00 100.82 129.15 C 103.96 131.66 106.00 133.58 106.20 137.93 C 99.99 141.82 97.36 134.86 90.05 141.07 C 93.59 136.61 89.32 133.32 90.86 128.01 C 92.40 121.75 88.17 108.37 81.19 107.03 C 80.75 114.62 81.61 121.85 79.19 129.26 C 79.02 127.09 78.81 124.92 78.65 122.75 C 80.06 116.28 80.50 109.75 79.78 103.15 C 77.77 98.26 73.54 95.58 72.94 89.92 C 76.73 95.71 75.42 93.42 75.86 88.43 C 79.29 91.57 80.81 87.38 77.80 85.22 C 73.93 82.32 78.14 79.03 79.35 75.82 C 85.49 78.42 76.65 83.96 82.36 88.71 C 90.00 89.23 82.55 84.66 90.51 81.48 C 93.88 74.03 105.34 69.20 101.94 60.01 C 102.04 57.49 99.73 57.84 97.98 56.94 C 96.71 56.49 95.43 56.05 94.14 55.69 C 89.66 54.45 84.61 55.11 79.99 54.95 C 89.63 50.65 97.03 56.40 106.35 54.72 C 110.68 59.12 114.34 48.71 113.48 47.67 C 107.69 50.59 109.97 46.07 113.06 44.15 C 111.16 37.87 104.27 26.47 95.65 29.65 C 90.89 34.92 84.25 38.71 80.99 45.05 C 81.49 37.49 86.20 34.80 91.23 30.23 C 96.03 23.06 106.61 29.42 110.81 34.19 Z M 90.28 94.42 C 92.11 93.70 94.05 93.19 95.93 92.56 C 90.83 88.04 85.26 86.96 82.10 94.21 C 77.77 102.46 84.36 109.92 92.85 103.89 C 99.73 99.51 87.40 99.92 90.28 94.42 Z" id="p5" />
<path d="M 113.06 44.15 C 109.97 46.07 107.69 50.59 113.48 47.67 C 114.34 48.71 110.68 59.12 106.35 54.72 C 97.03 56.40 89.63 50.65 79.99 54.95 C 73.77 59.87 74.07 70.31 79.35 75.82 C 78.14 79.03 73.93 82.32 77.80 85.22 C 80.81 87.38 79.29 91.57 75.86 88.43 C 75.42 93.42 76.73 95.71 72.94 89.92 C 72.21 86.77 71.42 83.47 71.28 80.24 C 72.34 75.16 73.10 70.18 73.04 64.97 C 72.73 57.92 78.29 51.62 80.99 45.05 C 84.25 38.71 90.89 34.92 95.65 29.65 C 104.27 26.47 111.16 37.87 113.06 44.15 Z" id="p6" />
<path d="M 43.86 38.09 C 50.42 40.80 42.45 46.90 50.11 48.10 C 48.11 49.35 46.16 50.24 43.87 50.84 C 43.77 51.09 48.03 39.08 42.73 42.86 C 36.70 48.32 35.00 45.92 27.88 44.91 C 31.63 43.42 33.58 43.48 37.31 44.13 C 44.02 42.06 37.12 36.76 43.86 38.09 Z" id="p7" />
<path d="M 200.00 38.71 L 200.00 41.61 C 196.95 45.67 183.41 46.45 182.33 54.21 C 179.26 55.67 175.24 55.28 181.89 56.29 C 178.45 58.88 175.88 59.67 171.53 58.78 C 172.42 52.97 164.82 58.83 166.23 53.43 C 166.97 52.92 171.96 52.72 168.76 52.05 C 162.95 48.75 164.24 56.89 157.49 55.78 C 156.39 51.36 157.07 52.16 152.91 53.04 C 152.63 51.04 152.40 49.03 152.11 47.03 C 154.00 46.65 162.14 44.53 158.49 48.86 C 164.78 49.44 170.77 50.39 176.17 53.89 C 180.13 55.32 180.81 49.88 184.40 48.45 C 191.42 42.77 193.85 44.34 200.00 38.71 Z" id="p8" />
<path d="M 43.87 50.84 C 46.16 50.24 48.11 49.35 50.11 48.10 C 59.11 44.85 51.78 49.48 49.09 52.22 C 47.86 56.36 55.58 51.48 57.18 51.26 C 55.92 55.56 49.60 54.89 47.05 58.62 C 49.56 59.43 53.18 59.38 55.23 61.05 C 53.69 62.45 50.17 62.75 49.95 65.00 C 57.03 69.73 44.91 66.57 43.67 71.58 C 42.08 76.93 56.25 77.22 54.07 73.20 C 45.17 72.64 55.08 71.10 58.05 71.46 C 62.09 71.82 57.73 66.50 58.08 64.55 C 60.85 61.58 59.22 56.15 62.47 52.22 C 63.32 54.02 64.17 55.82 65.10 57.58 C 62.13 64.57 64.62 71.12 62.05 78.03 C 60.67 82.94 65.09 78.24 67.79 79.74 C 67.34 82.18 67.00 84.63 66.51 87.06 C 64.91 84.99 66.56 82.70 64.29 80.92 C 63.40 84.06 65.64 89.61 60.91 89.83 C 56.99 91.65 60.99 81.42 57.15 85.15 C 52.84 87.18 57.03 89.89 58.72 91.93 C 56.65 92.51 53.09 90.73 54.79 94.19 C 54.98 98.10 59.24 93.41 60.96 93.07 C 61.29 95.60 59.34 96.63 57.98 98.42 C 62.89 97.34 60.70 101.49 60.06 104.36 C 58.13 102.25 46.29 93.58 48.53 101.50 C 39.68 105.52 44.06 94.68 36.24 99.29 C 36.45 104.86 35.15 111.17 37.33 116.35 C 36.36 117.63 35.37 118.88 34.38 120.14 C 33.64 112.52 32.04 123.02 28.64 119.44 C 24.76 116.12 24.42 120.97 23.09 123.74 C 26.49 123.28 35.64 127.31 34.33 120.97 C 35.33 123.15 34.82 126.74 38.20 125.27 C 38.06 125.97 37.91 126.68 37.75 127.38 C 31.27 126.68 24.81 127.35 18.36 126.76 C 18.78 118.32 16.30 121.70 10.84 120.41 C 9.87 120.15 8.90 119.95 7.92 119.82 C 3.05 121.67 9.81 126.81 1.01 125.85 C 1.10 113.48 0.75 101.07 1.22 88.71 C 3.38 92.07 2.78 95.16 7.12 96.82 C 11.58 96.07 3.41 91.61 4.80 88.25 C 6.03 92.80 22.81 90.34 16.04 86.43 C 10.34 90.34 6.94 86.38 1.08 83.82 C 1.01 81.58 0.97 79.33 0.96 77.09 C 3.76 78.22 6.83 76.82 6.58 80.85 C 10.53 82.71 13.19 75.28 12.36 72.62 C 8.53 70.01 5.26 77.12 0.95 75.25 C 0.94 72.74 1.02 70.24 1.09 67.73 C 4.89 67.52 4.40 73.97 7.08 70.15 C 10.38 65.33 17.53 70.19 20.47 73.28 C 19.65 75.94 18.28 78.44 17.33 81.05 C 24.04 83.34 22.73 73.03 22.99 71.19 C 28.84 77.00 23.55 69.31 28.27 68.63 C 28.94 68.47 33.89 69.78 32.64 68.26 C 32.18 64.72 28.71 62.55 34.53 63.92 C 33.02 61.08 33.99 60.16 34.95 57.40 C 32.96 57.30 31.03 57.37 29.12 56.71 C 33.82 55.68 30.80 51.46 27.21 51.70 C 29.07 50.65 30.90 50.09 32.01 48.11 C 29.80 46.31 26.96 48.50 24.31 48.65 C 19.19 43.43 23.11 43.37 27.88 44.91 C 35.00 45.92 36.70 48.32 42.73 42.86 C 48.03 39.08 43.77 51.09 43.87 50.84 Z M 28.88 84.33 C 24.49 88.03 29.47 89.89 32.82 90.77 C 33.02 87.17 33.29 83.60 33.65 80.00 C 30.04 79.90 30.12 81.71 28.88 84.33 Z M 45.00 85.74 C 38.29 84.25 40.73 89.00 45.36 88.53 C 46.74 84.75 49.88 87.16 52.91 86.86 C 55.80 80.12 30.85 77.08 45.00 85.74 Z M 26.94 99.26 C 28.67 99.36 36.35 103.45 33.23 98.71 C 29.50 97.17 25.71 96.41 22.13 94.28 C 16.64 99.24 23.35 98.75 26.94 99.26 Z" id="p9" />
<path d="M 200.00 41.61 L 200.00 87.12 C 196.14 84.62 192.16 89.21 194.98 92.79 C 196.68 91.81 197.92 90.56 200.00 90.57 L 200.00 127.43 C 197.75 127.41 190.85 129.88 192.49 125.58 C 192.80 120.50 188.80 131.87 186.33 126.74 C 189.86 123.93 188.04 115.18 188.44 109.78 C 182.76 101.19 189.81 101.92 187.79 92.97 C 186.39 90.07 191.05 85.20 186.28 84.67 C 178.34 85.54 175.52 84.28 169.96 78.91 C 164.11 81.85 165.54 93.85 167.03 98.96 C 167.87 102.97 166.90 104.82 170.68 107.60 C 170.55 112.20 169.13 110.59 166.05 109.39 C 163.76 111.83 160.63 112.00 160.92 115.83 C 153.20 105.36 143.98 106.04 141.68 91.70 C 143.83 83.47 144.25 75.31 143.12 66.91 C 146.75 72.83 144.03 81.58 145.44 88.41 C 143.01 98.19 151.79 105.00 158.81 110.01 C 159.23 99.27 156.59 88.91 158.73 78.01 C 154.78 72.35 154.86 60.59 152.91 53.04 C 157.07 52.16 156.39 51.36 157.49 55.78 C 164.24 56.89 162.95 48.75 168.76 52.05 C 171.96 52.72 166.97 52.92 166.23 53.43 C 164.82 58.83 172.42 52.97 171.53 58.78 C 175.88 59.67 178.45 58.88 181.89 56.29 C 175.24 55.28 179.26 55.67 182.33 54.21 C 183.41 46.45 196.95 45.67 200.00 41.61 Z M 163.22 70.70 C 165.55 68.39 166.39 67.63 165.98 64.08 C 160.98 65.40 157.54 71.26 163.07 73.95 C 166.81 73.94 160.41 78.87 164.89 77.89 C 166.46 77.94 167.51 68.13 163.22 70.70 Z M 181.24 76.52 C 178.67 77.24 173.80 76.11 173.90 79.91 C 177.80 84.68 183.25 83.94 184.94 77.98 C 185.60 75.17 182.88 76.68 181.24 76.52 Z M 191.29 84.39 C 189.44 85.03 188.50 98.66 192.78 95.86 C 192.67 94.07 194.41 82.36 191.29 84.39 Z" id="p10" />
<path d="M 32.01 48.11 C 30.90 50.09 29.07 50.65 27.21 51.70 C 30.80 51.46 33.82 55.68 29.12 56.71 C 31.03 57.37 32.96 57.30 34.95 57.40 C 33.99 60.16 33.02 61.08 34.53 63.92 C 28.71 62.55 32.18 64.72 32.64 68.26 C 25.11 66.74 26.56 62.06 27.79 56.50 C 22.11 56.15 21.33 50.88 16.06 49.01 C 18.56 48.97 22.54 50.96 24.31 48.65 C 26.96 48.50 29.80 46.31 32.01 48.11 Z" id="p11" />
<path d="M 79.99 54.95 C 84.61 55.11 89.66 54.45 94.14 55.69 C 91.36 56.66 76.69 57.85 85.90 62.18 C 89.10 66.44 78.26 67.49 81.90 70.38 C 84.36 68.64 85.99 71.97 84.64 73.95 C 93.48 78.44 106.13 63.39 97.98 56.94 C 99.73 57.84 102.04 57.49 101.94 60.01 C 105.34 69.20 93.88 74.03 90.51 81.48 C 82.55 84.66 90.00 89.23 82.36 88.71 C 76.65 83.96 85.49 78.42 79.35 75.82 C 74.07 70.31 73.77 59.87 79.99 54.95 Z" id="p12" />
<path d="M 94.14 55.69 C 95.43 56.05 96.71 56.49 97.98 56.94 C 106.13 63.39 93.48 78.44 84.64 73.95 C 85.99 71.97 84.36 68.64 81.90 70.38 C 78.26 67.49 89.10 66.44 85.90 62.18 C 76.69 57.85 91.36 56.66 94.14 55.69 Z" id="p13" />
<path d="M 18.42 71.06 C 24.30 71.02 24.23 62.95 28.27 68.63 C 23.55 69.31 28.84 77.00 22.99 71.19 C 22.73 73.03 24.04 83.34 17.33 81.05 C 18.28 78.44 19.65 75.94 20.47 73.28 C 17.53 70.19 10.38 65.33 7.08 70.15 C 4.40 73.97 4.89 67.52 1.09 67.73 L 1.06 65.97 C 7.08 67.49 5.04 70.41 11.51 65.48 C 13.57 61.65 21.72 68.27 18.42 71.06 Z" id="p14" />
<path d="M 58.08 64.55 C 57.73 66.50 62.09 71.82 58.05 71.46 C 55.08 71.10 45.17 72.64 54.07 73.20 C 56.25 77.22 42.08 76.93 43.67 71.58 C 44.91 66.57 57.03 69.73 49.95 65.00 C 53.34 66.19 54.87 65.97 58.08 64.55 Z" id="p15" />
<path d="M 165.98 64.08 C 166.39 67.63 165.55 68.39 163.22 70.70 C 167.51 68.13 166.46 77.94 164.89 77.89 C 160.41 78.87 166.81 73.94 163.07 73.95 C 157.54 71.26 160.98 65.40 165.98 64.08 Z" id="p16" />
<path d="M 12.36 72.62 C 13.19 75.28 10.53 82.71 6.58 80.85 C 6.83 76.82 3.76 78.22 0.96 77.09 L 0.95 75.25 C 5.26 77.12 8.53 70.01 12.36 72.62 Z" id="p17" />
<path d="M 71.28 80.24 C 71.42 83.47 72.21 86.77 72.94 89.92 C 73.54 95.58 77.77 98.26 79.78 103.15 C 80.50 109.75 80.06 116.28 78.65 122.75 C 77.82 126.76 78.12 130.82 77.39 134.85 C 74.37 135.89 66.23 148.55 66.64 138.83 C 67.74 138.86 68.31 138.35 68.37 137.27 C 68.97 134.09 69.87 129.93 67.92 127.06 C 65.23 128.24 63.28 130.08 61.03 131.89 C 57.32 131.14 55.39 131.31 51.87 132.61 C 51.14 128.32 60.26 121.60 53.25 119.61 C 54.43 110.83 51.15 118.95 46.07 115.55 C 52.65 115.96 47.64 107.42 52.67 110.29 C 54.54 111.82 55.64 108.03 56.82 106.98 C 58.53 108.46 59.51 105.57 60.06 104.36 C 60.70 101.49 62.89 97.34 57.98 98.42 C 59.34 96.63 61.29 95.60 60.96 93.07 C 59.24 93.41 54.98 98.10 54.79 94.19 C 53.09 90.73 56.65 92.51 58.72 91.93 C 57.03 89.89 52.84 87.18 57.15 85.15 C 60.99 81.42 56.99 91.65 60.91 89.83 C 65.64 89.61 63.40 84.06 64.29 80.92 C 66.56 82.70 64.91 84.99 66.51 87.06 C 67.00 84.63 67.34 82.18 67.79 79.74 C 69.52 72.51 71.23 71.80 71.28 80.24 Z" id="p18" />
<path d="M 181.24 76.52 C 182.88 76.68 185.60 75.17 184.94 77.98 C 183.25 83.94 177.80 84.68 173.90 79.91 C 173.80 76.11 178.67 77.24 181.24 76.52 Z" id="p19" />
<path d="M 169.96 78.91 C 175.52 84.28 178.34 85.54 186.28 84.67 C 191.05 85.20 186.39 90.07 187.79 92.97 C 184.53 92.27 184.35 92.85 183.50 89.24 C 177.83 89.55 174.41 95.96 169.39 91.57 C 165.10 87.34 167.64 96.84 167.03 98.96 C 165.54 93.85 164.11 81.85 169.96 78.91 Z" id="p20" />
<path d="M 33.65 80.00 C 33.29 83.60 33.02 87.17 32.82 90.77 C 29.47 89.89 24.49 88.03 28.88 84.33 C 30.12 81.71 30.04 79.90 33.65 80.00 Z" id="p21" />
<path d="M 52.91 86.86 C 49.88 87.16 46.74 84.75 45.36 88.53 C 40.73 89.00 38.29 84.25 45.00 85.74 C 30.85 77.08 55.80 80.12 52.91 86.86 Z" id="p22" />
<path d="M 1.08 83.82 C 6.94 86.38 10.34 90.34 16.04 86.43 C 22.81 90.34 6.03 92.80 4.80 88.25 C 3.41 91.61 11.58 96.07 7.12 96.82 C 2.78 95.16 3.38 92.07 1.22 88.71 C 1.14 87.08 1.10 85.45 1.08 83.82 Z" id="p23" />
<path d="M 191.29 84.39 C 194.41 82.36 192.67 94.07 192.78 95.86 C 188.50 98.66 189.44 85.03 191.29 84.39 Z" id="p24" />
<path d="M 200.00 87.12 L 200.00 90.57 C 197.92 90.56 196.68 91.81 194.98 92.79 C 192.16 89.21 196.14 84.62 200.00 87.12 Z" id="p25" />
<path d="M 95.93 92.56 C 94.05 93.19 92.11 93.70 90.28 94.42 C 87.40 99.92 99.73 99.51 92.85 103.89 C 84.36 109.92 77.77 102.46 82.10 94.21 C 85.26 86.96 90.83 88.04 95.93 92.56 Z" id="p26" />
<path d="M 183.50 89.24 C 184.35 92.85 184.53 92.27 187.79 92.97 C 189.81 101.92 182.76 101.19 188.44 109.78 C 186.12 116.26 187.83 124.42 182.56 128.33 C 176.61 126.95 181.07 130.34 181.85 133.18 C 178.01 128.57 172.78 132.19 166.93 130.17 C 161.30 129.23 159.33 131.42 160.50 136.90 C 154.67 132.22 157.27 139.63 158.08 142.90 C 160.97 150.54 167.19 156.18 169.79 164.13 C 156.24 155.65 155.53 142.33 150.18 129.77 C 155.87 122.91 161.28 122.37 169.63 124.91 C 170.14 117.68 168.32 117.54 175.87 119.99 C 176.57 113.80 175.43 114.58 170.13 113.57 C 170.95 110.13 175.04 110.97 170.68 107.60 C 166.90 104.82 167.87 102.97 167.03 98.96 C 167.64 96.84 165.10 87.34 169.39 91.57 C 174.41 95.96 177.83 89.55 183.50 89.24 Z" id="p27" />
<path d="M 22.13 94.28 C 25.71 96.41 29.50 97.17 33.23 98.71 C 36.35 103.45 28.67 99.36 26.94 99.26 C 23.35 98.75 16.64 99.24 22.13 94.28 Z" id="p28" />
<path d="M 135.25 95.32 C 138.74 93.77 136.37 109.60 141.86 104.63 C 147.47 110.03 150.06 116.41 157.15 120.03 C 151.43 122.05 150.73 114.25 147.47 117.32 C 144.90 117.18 134.68 106.49 134.00 113.00 C 134.56 107.47 132.72 100.33 135.25 95.32 Z" id="p29" />
<path d="M 48.53 101.50 C 46.29 93.58 58.13 102.25 60.06 104.36 C 59.51 105.57 58.53 108.46 56.82 106.98 C 56.21 102.55 54.48 107.69 52.76 108.63 C 50.32 108.37 47.99 106.45 45.91 105.24 C 46.87 108.38 48.47 110.47 46.70 113.74 C 41.48 116.08 45.82 105.69 43.01 105.16 C 40.57 105.28 43.80 113.60 39.96 112.97 C 36.06 113.32 42.38 115.92 37.33 116.35 C 35.15 111.17 36.45 104.86 36.24 99.29 C 44.06 94.68 39.68 105.52 48.53 101.50 Z" id="p30" />
<path d="M 43.01 105.16 C 45.82 105.69 41.48 116.08 46.70 113.74 C 48.47 110.47 46.87 108.38 45.91 105.24 C 47.99 106.45 50.32 108.37 52.76 108.63 C 54.48 107.69 56.21 102.55 56.82 106.98 C 55.64 108.03 54.54 111.82 52.67 110.29 C 47.64 107.42 52.65 115.96 46.07 115.55 C 51.15 118.95 54.43 110.83 53.25 119.61 C 60.26 121.60 51.14 128.32 51.87 132.61 C 55.39 131.31 57.32 131.14 61.03 131.89 C 57.61 138.40 46.95 138.52 41.19 144.10 C 41.44 143.14 41.66 142.16 41.84 141.18 C 33.20 140.72 24.63 141.33 15.99 140.48 C 10.70 140.01 12.46 147.56 17.38 147.64 C 19.43 153.56 19.89 155.04 24.09 149.15 C 28.17 148.64 31.46 150.72 36.07 148.11 C 31.97 152.11 29.57 155.82 27.29 161.06 C 25.73 152.23 22.63 162.19 18.57 157.46 C 17.07 156.48 14.54 157.54 12.87 157.77 C 12.75 153.68 14.44 149.20 10.50 146.52 C 7.24 144.62 3.81 143.76 1.04 140.91 C 0.99 135.89 0.97 130.87 1.01 125.85 C 9.81 126.81 3.05 121.67 7.92 119.82 C 7.19 125.07 3.31 132.67 9.10 136.18 C 12.43 132.47 10.66 125.08 10.84 120.41 C 16.30 121.70 18.78 118.32 18.36 126.76 C 24.81 127.35 31.27 126.68 37.75 127.38 C 37.91 126.68 38.06 125.97 38.20 125.27 C 44.57 130.39 41.22 120.63 41.56 117.10 C 35.64 118.16 37.91 120.72 38.20 125.27 C 34.82 126.74 35.33 123.15 34.33 120.97 L 34.38 120.14 C 35.37 118.88 36.36 117.63 37.33 116.35 C 42.38 115.92 36.06 113.32 39.96 112.97 C 43.80 113.60 40.57 105.28 43.01 105.16 Z" id="p31" />
<path d="M 81.19 107.03 C 88.17 108.37 92.40 121.75 90.86 128.01 C 89.32 133.32 93.59 136.61 90.05 141.07 C 87.20 143.59 87.10 139.29 85.17 137.82 C 82.20 135.00 78.96 134.10 79.19 129.26 C 81.61 121.85 80.75 114.62 81.19 107.03 Z" id="p32" />
<path d="M 170.68 107.60 C 175.04 110.97 170.95 110.13 170.13 113.57 C 175.43 114.58 176.57 113.80 175.87 119.99 C 168.32 117.54 170.14 117.68 169.63 124.91 C 161.28 122.37 155.87 122.91 150.18 129.77 C 144.00 129.73 142.26 144.74 139.45 135.24 C 138.96 136.21 138.51 137.21 138.01 138.18 C 135.30 130.39 135.30 142.37 129.67 139.61 C 127.92 138.47 130.17 131.27 131.36 129.40 C 135.26 128.03 138.99 128.49 142.99 128.87 C 139.77 125.32 135.56 123.65 133.25 119.22 C 132.50 122.08 132.12 124.82 130.16 127.17 C 131.03 122.33 132.45 117.66 134.00 113.00 C 134.68 106.49 144.90 117.18 147.47 117.32 C 150.73 114.25 151.43 122.05 157.15 120.03 C 160.54 120.26 164.82 119.55 160.92 115.83 C 160.63 112.00 163.76 111.83 166.05 109.39 C 169.13 110.59 170.55 112.20 170.68 107.60 Z" id="p33" />
<path d="M 188.44 109.78 C 188.04 115.18 189.86 123.93 186.33 126.74 C 188.80 131.87 192.80 120.50 192.49 125.58 C 190.85 129.88 197.75 127.41 200.00 127.43 L 200.00 159.65 C 197.28 156.18 197.43 155.41 198.25 151.32 C 193.67 145.99 192.21 139.92 185.83 136.21 C 184.48 135.23 183.12 134.27 181.85 133.18 C 181.07 130.34 176.61 126.95 182.56 128.33 C 187.83 124.42 186.12 116.26 188.44 109.78 Z" id="p34" />
<path d="M 34.38 120.14 L 34.33 120.97 C 35.64 127.31 26.49 123.28 23.09 123.74 C 24.42 120.97 24.76 116.12 28.64 119.44 C 32.04 123.02 33.64 112.52 34.38 120.14 Z" id="p35" />
<path d="M 41.56 117.10 C 41.22 120.63 44.57 130.39 38.20 125.27 C 37.91 120.72 35.64 118.16 41.56 117.10 Z" id="p36" />
<path d="M 133.25 119.22 C 135.56 123.65 139.77 125.32 142.99 128.87 C 138.99 128.49 135.26 128.03 131.36 129.40 C 130.17 131.27 127.92 138.47 129.67 139.61 C 135.30 142.37 135.30 130.39 138.01 138.18 C 132.32 141.35 135.20 142.66 133.21 148.23 C 125.19 152.64 127.44 158.51 128.01 166.07 C 125.35 159.49 124.76 150.77 128.16 144.35 C 129.18 142.93 127.02 142.68 126.23 141.83 C 125.20 135.91 126.66 131.84 130.16 127.17 C 132.12 124.82 132.50 122.08 133.25 119.22 Z" id="p37" />
<path d="M 7.92 119.82 C 8.90 119.95 9.87 120.15 10.84 120.41 C 10.66 125.08 12.43 132.47 9.10 136.18 C 3.31 132.67 7.19 125.07 7.92 119.82 Z" id="p38" />
<path d="M 78.65 122.75 C 78.81 124.92 79.02 127.09 79.19 129.26 C 78.96 134.10 82.20 135.00 85.17 137.82 C 87.10 139.29 87.20 143.59 90.05 141.07 C 97.36 134.86 99.99 141.82 106.20 137.93 L 107.16 138.87 C 108.28 145.36 127.34 150.02 126.23 141.83 C 127.02 142.68 129.18 142.93 128.16 144.35 C 124.76 150.77 125.35 159.49 128.01 166.07 C 130.81 172.26 133.77 177.96 134.27 184.89 C 135.01 188.12 137.83 184.17 139.02 186.76 C 133.66 188.63 139.33 196.04 139.21 200.00 L 115.57 200.00 C 115.87 195.31 116.18 193.13 113.98 189.15 C 119.67 190.73 113.84 195.29 121.86 192.99 C 123.12 191.95 120.20 184.50 120.64 181.94 C 119.18 184.84 119.94 188.91 119.72 192.08 C 116.49 188.15 119.84 186.68 113.64 185.66 C 114.08 180.15 117.26 169.78 116.83 164.90 C 113.89 167.97 115.24 180.58 111.22 181.88 C 111.06 176.31 114.62 171.72 113.89 165.92 C 112.00 168.99 110.26 182.15 109.71 170.98 C 106.30 182.09 107.83 164.54 105.12 175.15 C 100.63 174.61 97.92 172.58 94.94 177.32 C 89.97 177.48 93.67 165.33 94.58 173.37 C 94.34 172.91 96.24 159.94 90.13 164.62 C 90.24 160.84 90.38 157.15 89.83 153.39 C 88.47 152.32 89.16 158.12 88.77 158.98 C 87.51 156.34 84.74 153.35 86.84 150.43 C 89.56 151.95 91.20 152.70 93.12 149.58 C 89.82 149.06 86.39 149.11 83.04 148.76 C 88.66 142.51 82.85 138.12 77.39 134.85 C 78.12 130.82 77.82 126.76 78.65 122.75 Z" id="p39" />
<path d="M 67.92 127.06 C 69.87 129.93 68.97 134.09 68.37 137.27 C 66.05 133.73 66.06 131.46 61.03 131.89 C 63.28 130.08 65.23 128.24 67.92 127.06 Z" id="p40" />
<path d="M 150.18 129.77 C 155.53 142.33 156.24 155.65 169.79 164.13 C 167.19 156.18 160.97 150.54 158.08 142.90 C 157.27 139.63 154.67 132.22 160.50 136.90 C 159.33 131.42 161.30 129.23 166.93 130.17 C 172.78 132.19 178.01 128.57 181.85 133.18 C 183.12 134.27 184.48 135.23 185.83 136.21 C 184.11 142.01 191.78 153.52 185.19 155.91 C 184.17 154.33 183.69 143.85 180.47 148.05 C 182.55 153.31 183.67 157.48 181.60 163.01 C 178.61 158.93 178.23 148.70 174.01 147.07 C 177.30 161.09 175.54 172.00 171.26 185.15 C 169.48 180.10 158.33 180.45 159.16 186.96 C 160.48 191.78 160.48 195.03 159.78 200.00 L 158.80 200.00 C 157.57 194.11 158.42 188.16 156.86 182.29 C 151.56 190.81 151.04 178.49 149.57 174.59 C 148.10 173.03 150.33 182.98 147.37 180.56 C 142.72 172.88 142.40 164.42 141.13 157.27 C 139.09 173.58 147.52 185.11 150.17 200.00 L 139.21 200.00 C 139.33 196.04 133.66 188.63 139.02 186.76 C 137.83 184.17 135.01 188.12 134.27 184.89 C 133.77 177.96 130.81 172.26 128.01 166.07 C 127.44 158.51 125.19 152.64 133.21 148.23 C 135.20 142.66 132.32 141.35 138.01 138.18 C 138.51 137.21 138.96 136.21 139.45 135.24 C 142.26 144.74 144.00 129.73 150.18 129.77 Z" id="p41" />
<path d="M 61.03 131.89 C 66.06 131.46 66.05 133.73 68.37 137.27 C 67.32 137.20 66.74 137.72 66.64 138.83 C 62.49 152.94 57.91 168.89 52.22 182.29 C 45.66 183.95 42.95 193.20 43.90 200.00 L 18.81 200.00 C 20.83 191.42 20.47 182.68 21.98 174.16 C 23.90 169.80 24.86 165.21 27.29 161.06 C 29.57 155.82 31.97 152.11 36.07 148.11 C 37.70 146.68 39.39 145.32 41.19 144.10 C 46.95 138.52 57.61 138.40 61.03 131.89 Z" id="p42" />
<path d="M 77.39 134.85 C 82.85 138.12 88.66 142.51 83.04 148.76 C 86.39 149.11 89.82 149.06 93.12 149.58 C 91.20 152.70 89.56 151.95 86.84 150.43 C 84.74 153.35 87.51 156.34 88.77 158.98 C 89.16 158.12 88.47 152.32 89.83 153.39 C 90.38 157.15 90.24 160.84 90.13 164.62 C 96.24 159.94 94.34 172.91 94.58 173.37 C 93.67 165.33 89.97 177.48 94.94 177.32 C 90.95 181.72 89.11 182.76 83.57 179.99 C 84.07 187.42 81.43 176.65 77.65 178.27 C 73.30 178.28 67.18 183.45 64.99 187.10 C 68.50 194.04 73.30 193.72 79.39 189.81 C 77.82 197.88 83.47 190.74 88.01 192.40 C 93.46 192.67 94.75 178.00 95.36 188.64 C 106.10 191.20 109.60 184.82 105.12 175.15 C 107.83 164.54 106.30 182.09 109.71 170.98 C 110.26 182.15 112.00 168.99 113.89 165.92 C 114.62 171.72 111.06 176.31 111.22 181.88 C 115.24 180.58 113.89 167.97 116.83 164.90 C 117.26 169.78 114.08 180.15 113.64 185.66 C 119.84 186.68 116.49 188.15 119.72 192.08 C 119.94 188.91 119.18 184.84 120.64 181.94 C 120.20 184.50 123.12 191.95 121.86 192.99 C 113.84 195.29 119.67 190.73 113.98 189.15 C 116.18 193.13 115.87 195.31 115.57 200.00 L 43.90 200.00 C 42.95 193.20 45.66 183.95 52.22 182.29 C 57.91 168.89 62.49 152.94 66.64 138.83 C 66.23 148.55 74.37 135.89 77.39 134.85 Z" id="p43" />
<path d="M 185.83 136.21 C 192.21 139.92 193.67 145.99 198.25 151.32 C 197.43 155.41 197.28 156.18 200.00 159.65 L 200.00 200.00 L 159.78 200.00 C 160.48 195.03 160.48 191.78 159.16 186.96 C 158.33 180.45 169.48 180.10 171.26 185.15 C 175.54 172.00 177.30 161.09 174.01 147.07 C 178.23 148.70 178.61 158.93 181.60 163.01 C 183.67 157.48 182.55 153.31 180.47 148.05 C 183.69 143.85 184.17 154.33 185.19 155.91 C 191.78 153.52 184.11 142.01 185.83 136.21 Z" id="p44" />
<path d="M 68.37 137.27 C 68.31 138.35 67.74 138.86 66.64 138.83 C 66.74 137.72 67.32 137.20 68.37 137.27 Z" id="p45" />
<path d="M 15.99 140.48 C 24.63 141.33 33.20 140.72 41.84 141.18 C 41.66 142.16 41.44 143.14 41.19 144.10 C 39.39 145.32 37.70 146.68 36.07 148.11 C 31.46 150.72 28.17 148.64 24.09 149.15 C 19.89 155.04 19.43 153.56 17.38 147.64 C 12.46 147.56 10.70 140.01 15.99 140.48 Z" id="p46" />
<path d="M 1.04 140.91 C 3.81 143.76 7.24 144.62 10.50 146.52 C 14.44 149.20 12.75 153.68 12.87 157.77 C 9.06 158.67 5.04 158.40 1.16 159.03 C 1.69 152.99 0.62 146.98 1.04 140.91 Z" id="p47" />
<path d="M 18.57 157.46 C 22.63 162.19 25.73 152.23 27.29 161.06 C 24.86 165.21 23.90 169.80 21.98 174.16 C 20.16 169.20 15.66 171.20 15.01 175.81 C 10.57 185.82 12.95 160.63 8.30 170.04 C 9.61 179.24 6.13 168.26 2.32 171.66 C 1.91 169.70 1.58 167.73 1.20 165.77 C 1.05 163.53 0.99 161.28 1.16 159.03 C 5.04 158.40 9.06 158.67 12.87 157.77 C 14.54 157.54 17.07 156.48 18.57 157.46 Z" id="p48" />
<path d="M 141.13 157.27 C 142.40 164.42 142.72 172.88 147.37 180.56 C 150.33 182.98 148.10 173.03 149.57 174.59 C 151.04 178.49 151.56 190.81 156.86 182.29 C 158.42 188.16 157.57 194.11 158.80 200.00 L 150.17 200.00 C 147.52 185.11 139.09 173.58 141.13 157.27 Z" id="p49" />
<path d="M 1.20 165.77 C 1.58 167.73 1.91 169.70 2.32 171.66 C 6.13 168.26 9.61 179.24 8.30 170.04 C 12.95 160.63 10.57 185.82 15.01 175.81 C 15.66 171.20 20.16 169.20 21.98 174.16 C 20.47 182.68 20.83 191.42 18.81 200.00 L 0.86 200.00 C 0.90 199.01 0.96 198.02 1.02 197.03 C 3.19 196.46 7.37 198.49 4.37 195.01 C 8.46 194.91 12.59 195.17 16.67 194.90 C 16.04 192.71 16.73 190.22 13.70 190.30 C 10.80 188.66 13.68 171.99 7.52 177.75 C 7.85 173.69 4.13 173.34 1.02 173.85 C 1.02 171.16 1.14 168.46 1.20 165.77 Z" id="p50" />
<path d="M 7.52 177.75 C 13.68 171.99 10.80 188.66 13.70 190.30 C 16.73 190.22 16.04 192.71 16.67 194.90 C 12.59 195.17 8.46 194.91 4.37 195.01 C 7.37 198.49 3.19 196.46 1.02 197.03 C 0.18 192.22 5.04 194.73 8.00 193.90 C 12.34 194.40 10.89 188.68 10.81 186.09 C 7.11 184.75 6.79 189.90 4.17 187.88 C -1.10 186.13 1.61 178.15 1.02 173.85 C 4.13 173.34 7.85 173.69 7.52 177.75 Z" id="p51" />
<path d="M 105.12 175.15 C 109.60 184.82 106.10 191.20 95.36 188.64 C 94.75 178.00 93.46 192.67 88.01 192.40 C 83.47 190.74 77.82 197.88 79.39 189.81 C 73.30 193.72 68.50 194.04 64.99 187.10 C 67.18 183.45 73.30 178.28 77.65 178.27 C 81.43 176.65 84.07 187.42 83.57 179.99 C 89.11 182.76 90.95 181.72 94.94 177.32 C 97.92 172.58 100.63 174.61 105.12 175.15 Z" id="p52" />
</defs>
<g stroke-width="10pt">
<use stroke="#ecf2f2" xlink:href="#p0" />
<use stroke="#99caf6" xlink:href="#p1" />
<use stroke="#453339" xlink:href="#p2" />
<use stroke="#7a544c" xlink:href="#p3" />
<use stroke="#1c1317" xlink:href="#p4" />
<use stroke="#d6ad9e" xlink:href="#p5" />
<use stroke="#f7e1d1" xlink:href="#p6" />
<use stroke="#507c9e" xlink:href="#p7" />
<use stroke="#5f83a2" xlink:href="#p8" />
<use stroke="#2c3b4a" xlink:href="#p9" />
<use stroke="#364049" xlink:href="#p10" />
<use stroke="#4d7396" xlink:href="#p11" />
<use stroke="#a15f4e" xlink:href="#p12" />
<use stroke="#4d1715" xlink:href="#p13" />
<use stroke="#527398" xlink:href="#p14" />
<use stroke="#5a7ca3" xlink:href="#p15" />
<use stroke="#7798b6" xlink:href="#p16" />
<use stroke="#8097b8" xlink:href="#p17" />
<use stroke="#2b2123" xlink:href="#p18" />
<use stroke="#789ab4" xlink:href="#p19" />
<use stroke="#6d8bac" xlink:href="#p20" />
<use stroke="#7e91a5" xlink:href="#p21" />
<use stroke="#7c94b2" xlink:href="#p22" />
<use stroke="#7b8393" xlink:href="#p23" />
<use stroke="#a4bad5" xlink:href="#p24" />
<use stroke="#839fba" xlink:href="#p25" />
<use stroke="#f9e3d4" xlink:href="#p26" />
<use stroke="#aac1de" xlink:href="#p27" />
<use stroke="#91a1af" xlink:href="#p28" />
<use stroke="#58413d" xlink:href="#p29" />
<use stroke="#a5bdd7" xlink:href="#p30" />
<use stroke="#676d7f" xlink:href="#p31" />
<use stroke="#f5e1d6" xlink:href="#p32" />
<use stroke="#78778b" xlink:href="#p33" />
<use stroke="#7d8291" xlink:href="#p34" />
<use stroke="#6f8eaa" xlink:href="#p35" />
<use stroke="#abcde7" xlink:href="#p36" />
<use stroke="#a5b4c4" xlink:href="#p37" />
<use stroke="#b4b3bb" xlink:href="#p38" />
<use stroke="#407578" xlink:href="#p39" />
<use stroke="#8d858a" xlink:href="#p40" />
<use stroke="#e8ecf1" xlink:href="#p41" />
<use stroke="#f1f3f6" xlink:href="#p42" />
<use stroke="#528d8b" xlink:href="#p43" />
<use stroke="#9da8c3" xlink:href="#p44" />
<use stroke="#737f84" xlink:href="#p45" />
<use stroke="#323340" xlink:href="#p46" />
<use stroke="#b5bfc9" xlink:href="#p47" />
<use stroke="#323037" xlink:href="#p48" />
<use stroke="#adbacc" xlink:href="#p49" />
<use stroke="#5d5f67" xlink:href="#p50" />
<use stroke="#99999d" xlink:href="#p51" />
<use stroke="#d7daad" xlink:href="#p52" />
</g>
<g>
<use fill="#ecf2f2" xlink:href="#p0" />
<use fill="#99caf6" xlink:href="#p1" />
<use fill="#453339" xlink:href="#p2" />
<use fill="#7a544c" xlink:href="#p3" />
<use fill="#1c1317" xlink:href="#p4" />
<use fill="#d6ad9e" xlink:href="#p5" />
<use fill="#f7e1d1" xlink:href="#p6" />
<use fill="#507c9e" xlink:href="#p7" />
<use fill="#5f83a2" xlink:href="#p8" />
<use fill="#2c3b4a" xlink:href="#p9" />
<use fill="#364049" xlink:href="#p10" />
<use fill="#4d7396" xlink:href="#p11" />
<use fill="#a15f4e" xlink:href="#p12" />
<use fill="#4d1715" xlink:href="#p13" />
<use fill="#527398" xlink:href="#p14" />
<use fill="#5a7ca3" xlink:href="#p15" />
<use fill="#7798b6" xlink:href="#p16" />
<use fill="#8097b8" xlink:href="#p17" />
<use fill="#2b2123" xlink:href="#p18" />
<use fill="#789ab4" xlink:href="#p19" />
<use fill="#6d8bac" xlink:href="#p20" />
<use fill="#7e91a5" xlink:href="#p21" />
<use fill="#7c94b2" xlink:href="#p22" />
<use fill="#7b8393" xlink:href="#p23" />
<use fill="#a4bad5" xlink:href="#p24" />
<use fill="#839fba" xlink:href="#p25" />
<use fill="#f9e3d4" xlink:href="#p26" />
<use fill="#aac1de" xlink:href="#p27" />
<use fill="#91a1af" xlink:href="#p28" />
<use fill="#58413d" xlink:href="#p29" />
<use fill="#a5bdd7" xlink:href="#p30" />
<use fill="#676d7f" xlink:href="#p31" />
<use fill="#f5e1d6" xlink:href="#p32" />
<use fill="#78778b" xlink:href="#p33" />
<use fill="#7d8291" xlink:href="#p34" />
<use fill="#6f8eaa" xlink:href="#p35" />
<use fill="#abcde7" xlink:href="#p36" />
<use fill="#a5b4c4" xlink:href="#p37" />
<use fill="#b4b3bb" xlink:href="#p38" />
<use fill="#407578" xlink:href="#p39" />
<use fill="#8d858a" xlink:href="#p40" />
<use fill="#e8ecf1" xlink:href="#p41" />
<use fill="#f1f3f6" xlink:href="#p42" />
<use fill="#528d8b" xlink:href="#p43" />
<use fill="#9da8c3" xlink:href="#p44" />
<use fill="#737f84" xlink:href="#p45" />
<use fill="#323340" xlink:href="#p46" />
<use fill="#b5bfc9" xlink:href="#p47" />
<use fill="#323037" xlink:href="#p48" />
<use fill="#adbacc" xlink:href="#p49" />
<use fill="#5d5f67" xlink:href="#p50" />
<use fill="#99999d" xlink:href="#p51" />
<use fill="#d7daad" xlink:href="#p52" />
</g>
</svg>