<?xml version="1.0" encoding="UTF-8" standalone="no"?>
<!DOCTYPE svg PUBLIC "-//W3C//DTD SVG 1.1//EN" "http://www.w3.org/Graphics/SVG/1.1/DTD/svg11.dtd">
<svg xmlns="http://www.w3.org/2000/svg" version="1.1" viewBox="0 0 150 150" xmlns:xlink="http://www.w3.org/1999/xlink">
<defs>
<path d="M 0.00 0.00 L 150.00 0.00 L 150.00 30.76 C 144.74 31.45 137.64 36.98 133.75 40.90 C 128.41 40.20 118.26 34.68 113.11 36.02 C 112.16 23.79 105.01 12.74 93.17 8.67 C 84.39 5.83 68.56 6.50 63.98 16.11 C 62.67 17.68 61.34 19.06 60.33 20.77 C 55.48 27.72 53.53 37.40 48.10 43.58 C 45.43 34.93 46.78 42.34 43.78 44.91 C 46.02 49.94 40.01 46.66 43.16 51.43 C 42.00 51.52 40.92 51.52 39.78 51.24 C 32.23 46.10 46.06 46.08 36.00 44.79 C 32.09 41.59 43.34 42.34 42.12 38.35 C 39.78 39.33 37.56 40.45 35.04 40.96 C 36.31 38.39 38.97 37.18 40.90 34.92 C 39.16 34.79 33.21 38.68 33.34 35.12 C 35.01 31.64 34.32 31.56 31.93 28.77 C 30.42 32.40 28.56 35.42 24.07 33.97 C 21.65 33.65 11.66 31.43 17.68 36.29 C 23.89 38.66 18.40 37.60 15.24 38.14 C 17.36 41.93 20.90 43.84 25.22 43.71 C 23.98 45.19 21.75 45.45 19.99 46.12 C 16.56 47.32 28.27 52.63 22.07 51.83 C 18.34 50.82 18.74 49.85 15.72 52.80 C 11.52 56.45 11.89 44.82 8.52 49.51 C 3.11 53.64 4.85 52.59 0.00 49.35 L 0.00 0.00 Z" id="p0" />
<path d="M 93.17 8.67 C 85.66 11.74 96.94 18.49 87.45 22.25 C 92.19 30.29 95.69 38.22 94.47 47.84 C 91.25 47.46 88.09 46.84 84.84 46.74 C 92.53 45.35 94.18 37.14 89.38 31.66 C 83.68 24.51 73.35 14.28 64.67 23.67 C 60.39 27.92 64.04 17.45 63.98 16.11 C 68.56 6.50 84.39 5.83 93.17 8.67 Z" id="p1" />
<path d="M 93.17 8.67 C 105.01 12.74 112.16 23.79 113.11 36.02 C 115.08 42.80 115.20 54.14 119.28 58.70 C 116.11 62.77 118.50 70.32 118.69 75.18 C 119.95 78.48 117.35 83.60 119.69 86.05 C 126.57 91.55 112.13 91.08 111.50 86.47 C 108.62 80.25 103.43 85.97 101.41 80.64 C 100.82 78.00 103.13 75.61 100.19 73.96 C 99.88 78.66 100.27 83.25 99.19 87.89 C 97.59 96.27 92.24 100.17 94.98 109.00 C 86.85 110.93 84.63 110.25 79.10 104.20 C 79.48 102.57 79.85 100.94 80.20 99.31 C 82.91 95.02 92.26 88.03 81.22 87.46 C 84.33 78.28 96.06 77.55 96.82 64.39 C 95.60 57.32 92.57 66.61 88.59 64.48 C 84.15 62.37 78.93 58.80 79.74 53.17 C 79.93 48.51 80.81 48.32 84.84 46.74 C 88.09 46.84 91.25 47.46 94.47 47.84 C 95.69 38.22 92.19 30.29 87.45 22.25 C 96.94 18.49 85.66 11.74 93.17 8.67 Z" id="p2" />
<path d="M 63.98 16.11 C 64.04 17.45 60.39 27.92 64.67 23.67 C 73.35 14.28 83.68 24.51 89.38 31.66 C 94.18 37.14 92.53 45.35 84.84 46.74 C 80.81 48.32 79.93 48.51 79.74 53.17 L 79.21 52.57 C 77.63 46.49 73.34 55.66 70.96 56.95 C 66.03 59.93 72.79 63.01 75.70 60.89 C 75.09 62.30 74.42 63.68 73.80 65.09 C 71.58 61.94 63.75 59.73 65.08 65.74 C 63.52 67.17 61.80 68.45 60.12 69.74 C 59.28 65.88 58.57 62.54 59.15 58.63 C 55.33 53.15 54.02 46.35 59.32 41.30 C 62.92 40.59 66.60 40.84 70.17 41.63 C 68.10 42.63 55.15 43.42 62.31 46.72 C 67.33 48.95 56.50 51.01 60.01 55.91 C 67.43 60.10 82.17 48.90 71.01 41.79 C 76.53 42.85 77.25 41.89 76.17 47.93 C 80.40 41.78 90.05 44.44 87.88 35.13 C 84.08 29.83 79.50 20.96 72.12 21.00 C 68.09 24.52 61.80 27.86 60.25 33.20 C 58.02 28.44 61.71 25.28 60.33 20.77 C 61.34 19.06 62.67 17.68 63.98 16.11 Z" id="p3" />
<path d="M 60.33 20.77 C 61.71 25.28 58.02 28.44 60.25 33.20 C 56.30 41.93 53.57 45.92 53.20 56.08 C 49.84 54.90 49.95 66.48 49.01 61.01 C 48.99 56.40 45.59 63.24 45.57 58.83 C 48.66 53.56 46.43 49.36 48.10 43.58 C 53.53 37.40 55.48 27.72 60.33 20.77 Z" id="p4" />
<path d="M 72.12 21.00 C 79.50 20.96 84.08 29.83 87.88 35.13 C 90.05 44.44 80.40 41.78 76.17 47.93 C 77.25 41.89 76.53 42.85 71.01 41.79 L 70.17 41.63 C 66.60 40.84 62.92 40.59 59.32 41.30 C 54.02 46.35 55.33 53.15 59.15 58.63 C 58.57 62.54 59.28 65.88 60.12 69.74 C 61.80 68.45 63.52 67.17 65.08 65.74 C 63.75 59.73 71.58 61.94 73.80 65.09 C 76.42 68.11 71.64 66.55 69.93 67.35 C 70.49 68.80 77.76 70.08 74.95 71.02 C 72.18 71.05 69.61 70.92 67.07 72.22 C 68.46 74.40 71.13 75.47 73.22 77.04 C 70.28 78.78 66.47 79.64 63.96 81.94 C 68.22 88.16 69.68 94.52 69.15 101.99 C 74.86 96.86 74.28 98.04 78.41 103.94 C 73.47 104.74 70.13 103.52 65.39 106.35 C 63.39 104.08 61.49 101.78 59.13 99.86 C 56.94 90.44 62.63 79.59 55.35 70.66 C 52.64 66.08 52.70 61.21 53.20 56.08 C 53.57 45.92 56.30 41.93 60.25 33.20 C 61.80 27.86 68.09 24.52 72.12 21.00 Z" id="p5" />
<path d="M 31.93 28.77 C 34.32 31.56 35.01 31.64 33.34 35.12 C 33.21 38.68 39.16 34.79 40.90 34.92 C 38.97 37.18 36.31 38.39 35.04 40.96 C 37.56 40.45 39.78 39.33 42.12 38.35 C 43.34 42.34 32.09 41.59 36.00 44.79 C 46.06 46.08 32.23 46.10 39.78 51.24 C 37.02 50.68 32.40 51.14 32.44 54.78 C 31.96 59.78 46.25 55.11 37.94 54.78 C 35.20 52.55 47.16 55.26 43.16 51.43 C 40.01 46.66 46.02 49.94 43.78 44.91 C 46.78 42.34 45.43 34.93 48.10 43.58 C 46.43 49.36 48.66 53.56 45.57 58.83 C 45.59 63.24 48.99 56.40 49.01 61.01 C 49.95 66.48 49.84 54.90 53.20 56.08 C 52.70 61.21 52.64 66.08 55.35 70.66 C 62.63 79.59 56.94 90.44 59.13 99.86 C 54.93 103.10 51.00 106.60 47.78 110.85 C 48.94 106.34 54.22 92.20 44.18 99.79 C 41.67 99.08 34.61 104.28 37.91 98.91 C 41.48 94.55 41.88 85.83 34.34 87.98 C 37.58 93.75 31.31 87.93 31.67 95.53 C 29.85 95.52 32.28 87.70 30.05 86.37 C 25.84 84.60 31.55 85.77 30.95 82.95 C 30.86 79.43 32.43 70.64 26.23 74.29 C 26.13 78.55 27.13 82.77 27.07 87.05 C 26.40 89.59 26.08 92.18 25.63 94.75 C 21.68 95.18 17.42 95.32 13.49 94.66 C 14.84 91.04 1.52 87.83 3.96 93.01 C 4.34 95.94 1.61 93.73 0.00 93.79 L 0.00 58.23 C 2.73 58.96 5.02 56.74 4.46 60.88 C 8.68 61.92 7.87 58.04 8.76 55.22 C 6.92 52.21 2.35 56.65 0.00 57.28 L 0.00 49.35 C 4.85 52.59 3.11 53.64 8.52 49.51 C 11.89 44.82 11.52 56.45 15.72 52.80 C 18.74 49.85 18.34 50.82 22.07 51.83 C 28.27 52.63 16.56 47.32 19.99 46.12 C 21.75 45.45 23.98 45.19 25.22 43.71 C 20.90 43.84 17.36 41.93 15.24 38.14 C 18.40 37.60 23.89 38.66 17.68 36.29 C 11.66 31.43 21.65 33.65 24.07 33.97 C 28.56 35.42 30.42 32.40 31.93 28.77 Z M 23.95 63.87 C 26.84 54.52 17.20 64.70 21.72 67.26 C 24.63 69.34 23.29 65.50 23.95 63.87 Z M 30.03 60.19 C 28.25 63.47 41.66 67.73 38.73 62.36 C 35.94 61.30 32.98 60.58 30.03 60.19 Z M 15.15 71.08 C 14.00 75.73 18.15 73.48 21.00 73.89 C 19.17 72.44 17.71 70.75 15.15 71.08 Z M 35.90 77.60 C 30.73 73.56 32.11 83.29 32.18 85.97 C 35.79 85.63 38.86 78.66 43.07 80.33 C 46.52 78.02 32.03 69.31 35.90 77.60 Z" id="p6" />
<path d="M 150.00 30.76 L 150.00 96.10 C 145.09 94.75 137.22 99.38 140.27 91.70 C 141.90 85.04 136.94 78.87 140.49 73.66 C 142.41 64.97 135.07 72.72 141.00 64.88 C 137.84 62.01 130.61 65.67 126.67 60.15 C 122.67 61.19 124.31 72.80 125.23 76.42 C 124.87 80.05 131.51 82.62 126.00 84.17 C 123.30 80.06 122.28 84.30 119.69 86.05 C 117.35 83.60 119.95 78.48 118.69 75.18 C 118.50 70.32 116.11 62.77 119.28 58.70 C 115.20 54.14 115.08 42.80 113.11 36.02 C 118.26 34.68 128.41 40.20 133.75 40.90 C 137.64 36.98 144.74 31.45 150.00 30.76 Z M 121.26 53.73 C 122.53 51.86 124.02 50.51 124.03 48.07 C 121.88 49.12 120.14 50.69 118.47 52.39 C 120.49 54.76 122.90 55.40 122.53 58.99 C 124.29 57.08 125.64 52.14 121.26 53.73 Z M 134.24 57.53 C 129.47 57.21 128.04 61.29 133.02 62.04 C 137.71 63.86 140.26 55.20 134.24 57.53 Z M 142.18 63.17 C 142.32 64.84 140.63 73.25 143.82 71.83 C 143.68 70.16 145.37 61.75 142.18 63.17 Z" id="p7" />
<path d="M 70.17 41.63 L 71.01 41.79 C 82.17 48.90 67.43 60.10 60.01 55.91 C 56.50 51.01 67.33 48.95 62.31 46.72 C 55.15 43.42 68.10 42.63 70.17 41.63 Z" id="p8" />
<path d="M 124.03 48.07 C 124.02 50.51 122.53 51.86 121.26 53.73 C 125.64 52.14 124.29 57.08 122.53 58.99 C 122.90 55.40 120.49 54.76 118.47 52.39 C 120.14 50.69 121.88 49.12 124.03 48.07 Z" id="p9" />
<path d="M 79.21 52.57 C 77.88 55.28 76.85 58.11 75.70 60.89 C 72.79 63.01 66.03 59.93 70.96 56.95 C 73.34 55.66 77.63 46.49 79.21 52.57 Z" id="p10" />
<path d="M 39.78 51.24 C 40.92 51.52 42.00 51.52 43.16 51.43 C 47.16 55.26 35.20 52.55 37.94 54.78 C 46.25 55.11 31.96 59.78 32.44 54.78 C 32.40 51.14 37.02 50.68 39.78 51.24 Z" id="p11" />
<path d="M 79.21 52.57 L 79.74 53.17 C 78.93 58.80 84.15 62.37 88.59 64.48 C 92.57 66.61 95.60 57.32 96.82 64.39 C 96.06 77.55 84.33 78.28 81.22 87.46 C 92.26 88.03 82.91 95.02 80.20 99.31 C 76.69 94.52 71.34 95.25 69.89 89.03 C 68.47 86.89 70.94 83.71 68.21 83.11 C 67.50 79.77 75.04 82.70 76.13 77.99 C 73.57 73.65 68.10 75.19 74.95 71.02 C 77.76 70.08 70.49 68.80 69.93 67.35 C 71.64 66.55 76.42 68.11 73.80 65.09 C 74.42 63.68 75.09 62.30 75.70 60.89 C 76.85 58.11 77.88 55.28 79.21 52.57 Z" id="p12" />
<path d="M 8.76 55.22 C 7.87 58.04 8.68 61.92 4.46 60.88 C 5.02 56.74 2.73 58.96 0.00 58.23 L 0.00 57.28 C 2.35 56.65 6.92 52.21 8.76 55.22 Z" id="p13" />
<path d="M 134.24 57.53 C 140.26 55.20 137.71 63.86 133.02 62.04 C 128.04 61.29 129.47 57.21 134.24 57.53 Z" id="p14" />
<path d="M 23.95 63.87 C 23.29 65.50 24.63 69.34 21.72 67.26 C 17.20 64.70 26.84 54.52 23.95 63.87 Z" id="p15" />
<path d="M 30.03 60.19 C 32.98 60.58 35.94 61.30 38.73 62.36 C 41.66 67.73 28.25 63.47 30.03 60.19 Z" id="p16" />
<path d="M 126.67 60.15 C 130.61 65.67 137.84 62.01 141.00 64.88 C 135.07 72.72 142.41 64.97 140.49 73.66 C 136.94 78.87 141.90 85.04 140.27 91.70 C 137.25 96.87 135.91 94.73 133.79 97.79 C 127.17 99.85 121.29 94.41 117.44 102.42 C 116.33 109.71 124.28 116.34 126.72 123.16 C 116.56 117.42 115.37 106.04 112.23 96.81 C 115.99 92.61 121.40 91.29 126.62 93.51 C 127.33 91.01 125.36 86.73 129.47 89.49 C 136.24 89.05 127.28 85.41 126.00 84.17 C 131.51 82.62 124.87 80.05 125.23 76.42 C 124.31 72.80 122.67 61.19 126.67 60.15 Z M 130.34 65.33 C 127.66 65.83 123.03 68.31 128.58 69.41 C 134.10 68.88 143.17 63.35 130.34 65.33 Z" id="p17" />
<path d="M 142.18 63.17 C 145.37 61.75 143.68 70.16 143.82 71.83 C 140.63 73.25 142.32 64.84 142.18 63.17 Z" id="p18" />
<path d="M 130.34 65.33 C 143.17 63.35 134.10 68.88 128.58 69.41 C 123.03 68.31 127.66 65.83 130.34 65.33 Z" id="p19" />
<path d="M 15.15 71.08 C 17.71 70.75 19.17 72.44 21.00 73.89 C 18.15 73.48 14.00 75.73 15.15 71.08 Z" id="p20" />
<path d="M 74.95 71.02 C 68.10 75.19 73.57 73.65 76.13 77.99 C 75.04 82.70 67.50 79.77 68.21 83.11 C 70.94 83.71 68.47 86.89 69.89 89.03 C 71.34 95.25 76.69 94.52 80.20 99.31 C 79.85 100.94 79.48 102.57 79.10 104.20 L 78.41 103.94 C 74.28 98.04 74.86 96.86 69.15 101.99 C 69.68 94.52 68.22 88.16 63.96 81.94 C 66.47 79.64 70.28 78.78 73.22 77.04 C 71.13 75.47 68.46 74.40 67.07 72.22 C 69.61 70.92 72.18 71.05 74.95 71.02 Z" id="p21" />
<path d="M 30.95 82.95 C 31.55 85.77 25.84 84.60 30.05 86.37 C 29.06 86.59 28.06 86.82 27.07 87.05 C 27.13 82.77 26.13 78.55 26.23 74.29 C 32.43 70.64 30.86 79.43 30.95 82.95 Z" id="p22" />
<path d="M 43.07 80.33 C 38.86 78.66 35.79 85.63 32.18 85.97 C 32.11 83.29 30.73 73.56 35.90 77.60 C 32.03 69.31 46.52 78.02 43.07 80.33 Z" id="p23" />
<path d="M 100.19 73.96 C 103.13 75.61 100.82 78.00 101.41 80.64 C 103.43 85.97 108.62 80.25 111.50 86.47 C 112.13 91.08 126.57 91.55 119.69 86.05 C 122.28 84.30 123.30 80.06 126.00 84.17 C 127.28 85.41 136.24 89.05 129.47 89.49 C 125.36 86.73 127.33 91.01 126.62 93.51 C 121.40 91.29 115.99 92.61 112.23 96.81 C 107.36 98.08 106.18 108.93 103.52 101.49 C 102.45 102.98 101.35 103.97 99.85 105.01 C 92.11 106.60 97.21 94.04 103.37 96.59 C 111.05 97.54 98.11 91.11 99.19 87.89 C 100.27 83.25 99.88 78.66 100.19 73.96 Z" id="p24" />
<path d="M 30.05 86.37 C 32.28 87.70 29.85 95.52 31.67 95.53 C 31.31 87.93 37.58 93.75 34.34 87.98 C 41.88 85.83 41.48 94.55 37.91 98.91 C 34.61 104.28 41.67 99.08 44.18 99.79 C 41.70 103.56 35.98 104.29 32.22 106.70 C 25.31 105.53 18.08 105.99 11.05 105.12 C 7.92 104.01 9.27 109.46 8.64 111.24 C 6.20 108.49 2.56 108.16 0.00 105.45 L 0.00 93.79 C 1.61 93.73 4.34 95.94 3.96 93.01 C 1.52 87.83 14.84 91.04 13.49 94.66 C 17.42 95.32 21.68 95.18 25.63 94.75 C 26.08 92.18 26.40 89.59 27.07 87.05 C 28.06 86.82 29.06 86.59 30.05 86.37 Z" id="p25" />
<path d="M 99.19 87.89 C 98.11 91.11 111.05 97.54 103.37 96.59 C 97.21 94.04 92.11 106.60 99.85 105.01 C 100.00 110.24 101.03 111.02 96.03 113.55 C 97.81 113.30 102.94 116.02 98.17 115.66 C 93.31 114.17 95.51 118.08 94.65 121.24 C 93.41 117.11 93.91 113.08 94.98 109.00 C 92.24 100.17 97.59 96.27 99.19 87.89 Z" id="p26" />
<path d="M 140.27 91.70 C 137.22 99.38 145.09 94.75 150.00 96.10 L 150.00 121.76 C 147.65 114.34 146.46 108.15 139.10 102.85 C 137.37 101.12 135.61 99.42 133.79 97.79 C 135.91 94.73 137.25 96.87 140.27 91.70 Z" id="p27" />
<path d="M 47.78 110.85 C 43.18 119.95 43.07 134.60 34.12 140.11 C 31.45 143.10 32.00 146.29 31.83 150.00 L 13.86 150.00 C 13.88 148.75 13.90 147.51 13.93 146.26 C 14.98 131.68 18.25 114.50 32.22 106.70 C 35.98 104.29 41.70 103.56 44.18 99.79 C 54.22 92.20 48.94 106.34 47.78 110.85 Z" id="p28" />
<path d="M 112.23 96.81 C 115.37 106.04 116.56 117.42 126.72 123.16 C 124.28 116.34 116.33 109.71 117.44 102.42 C 121.29 94.41 127.17 99.85 133.79 97.79 C 135.61 99.42 137.37 101.12 139.10 102.85 C 137.71 106.63 142.93 115.04 139.08 116.77 C 137.10 117.37 137.82 104.44 135.27 111.04 C 135.78 115.10 136.45 118.97 135.73 123.08 C 133.32 119.48 133.42 113.70 130.11 110.95 C 131.89 121.18 130.99 129.48 127.57 138.84 C 127.02 134.46 122.01 137.37 119.14 137.33 C 119.38 141.71 119.83 145.64 118.79 150.00 L 117.89 150.00 C 117.73 146.27 118.21 142.03 116.96 138.46 C 113.32 142.31 111.47 130.48 111.58 139.04 C 106.88 133.75 106.99 124.36 105.07 119.25 C 103.74 129.73 110.10 139.70 112.14 150.00 L 104.05 150.00 C 99.62 145.34 106.73 137.24 100.38 139.60 C 99.56 133.04 96.42 127.49 94.65 121.24 C 95.51 118.08 93.31 114.17 98.17 115.66 C 102.94 116.02 97.81 113.30 96.03 113.55 C 101.03 111.02 100.00 110.24 99.85 105.01 C 101.35 103.97 102.45 102.98 103.52 101.49 C 106.18 108.93 107.36 98.08 112.23 96.81 Z" id="p29" />
<path d="M 59.13 99.86 C 61.49 101.78 63.39 104.08 65.39 106.35 C 70.13 103.52 73.47 104.74 78.41 103.94 L 79.10 104.20 C 84.63 110.25 86.85 110.93 94.98 109.00 C 93.91 113.08 93.41 117.11 94.65 121.24 C 96.42 127.49 99.56 133.04 100.38 139.60 C 106.73 137.24 99.62 145.34 104.05 150.00 L 31.83 150.00 C 32.00 146.29 31.45 143.10 34.12 140.11 C 43.07 134.60 43.18 119.95 47.78 110.85 C 51.00 106.60 54.93 103.10 59.13 99.86 Z M 59.62 141.96 C 54.30 148.63 69.23 143.98 69.38 140.44 C 72.29 134.97 69.31 143.12 73.76 141.81 C 81.72 144.12 80.99 131.21 75.77 131.37 C 70.55 130.22 71.17 135.53 66.57 136.44 C 63.07 136.17 60.05 134.85 57.01 133.20 C 54.05 135.33 48.93 137.24 48.01 141.03 C 52.92 146.23 53.67 145.14 59.62 141.96 Z" id="p30" />
<path d="M 139.10 102.85 C 146.46 108.15 147.65 114.34 150.00 121.76 L 150.00 150.00 L 118.79 150.00 C 119.83 145.64 119.38 141.71 119.14 137.33 C 122.01 137.37 127.02 134.46 127.57 138.84 C 130.99 129.48 131.89 121.18 130.11 110.95 C 133.42 113.70 133.32 119.48 135.73 123.08 C 136.45 118.97 135.78 115.10 135.27 111.04 C 137.82 104.44 137.10 117.37 139.08 116.77 C 142.93 115.04 137.71 106.63 139.10 102.85 Z" id="p31" />
<path d="M 11.05 105.12 C 18.08 105.99 25.31 105.53 32.22 106.70 C 18.25 114.50 14.98 131.68 13.93 146.26 L 12.98 146.42 C 8.18 141.78 8.72 136.99 6.55 131.05 C 4.94 138.37 4.89 125.27 0.00 130.84 L 0.00 118.91 C 4.25 119.13 7.82 119.53 11.39 116.77 C 10.30 114.99 9.22 113.28 8.64 111.24 C 9.27 109.46 7.92 104.01 11.05 105.12 Z" id="p32" />
<path d="M 0.00 105.45 C 2.56 108.16 6.20 108.49 8.64 111.24 C 9.22 113.28 10.30 114.99 11.39 116.77 C 7.82 119.53 4.25 119.13 0.00 118.91 L 0.00 105.45 Z" id="p33" />
<path d="M 105.07 119.25 C 106.99 124.36 106.88 133.75 111.58 139.04 C 111.47 130.48 113.32 142.31 116.96 138.46 C 118.21 142.03 117.73 146.27 117.89 150.00 L 112.14 150.00 C 110.10 139.70 103.74 129.73 105.07 119.25 Z" id="p34" />
<path d="M 6.55 131.05 C 8.72 136.99 8.18 141.78 12.98 146.42 C 8.71 146.77 4.35 145.59 0.00 145.87 L 0.00 130.84 C 4.89 125.27 4.94 138.37 6.55 131.05 Z" id="p35" />
<path d="M 75.77 131.37 C 80.99 131.21 81.72 144.12 73.76 141.81 C 69.31 143.12 72.29 134.97 69.38 140.44 C 69.23 143.98 54.30 148.63 59.62 141.96 C 53.67 145.14 52.92 146.23 48.01 141.03 C 48.93 137.24 54.05 135.33 57.01 133.20 C 60.05 134.85 63.07 136.17 66.57 136.44 C 71.17 135.53 70.55 130.22 75.77 131.37 Z" id="p36" />
<path d="M 0.00 145.87 C 4.35 145.59 8.71 146.77 12.98 146.42 L 13.93 146.26 C 13.90 147.51 13.88 148.75 13.86 150.00 L 0.00 150.00 L 0.00 145.87 Z" id="p37" />
</defs>
<g stroke-width="10pt">
<use stroke="#98caf6" xlink:href="#p0" />
<use stroke="#634746" xlink:href="#p1" />
<use stroke="#1d1417" xlink:href="#p2" />
<use stroke="#b07665" xlink:href="#p3" />
<use stroke="#715452" xlink:href="#p4" />
<use stroke="#f1d7c8" xlink:href="#p5" />
<use stroke="#2f3946" xlink:href="#p6" />
<use stroke="#394652" xlink:href="#p7" />
<use stroke="#551c18" xlink:href="#p8" />
<use stroke="#83a3c4" xlink:href="#p9" />
<use stroke="#f4ddcf" xlink:href="#p10" />
<use stroke="#5c80a9" xlink:href="#p11" />
<use stroke="#794d42" xlink:href="#p12" />
<use stroke="#819cbe" xlink:href="#p13" />
<use stroke="#7aa3c2" xlink:href="#p14" />
<use stroke="#8ba4bc" xlink:href="#p15" />
<use stroke="#89a6c6" xlink:href="#p16" />
<use stroke="#a6bedd" xlink:href="#p17" />
<use stroke="#b8d3f0" xlink:href="#p18" />
<use stroke="#3d5978" xlink:href="#p19" />
<use stroke="#b3c2cf" xlink:href="#p20" />
<use stroke="#bc8f80" xlink:href="#p21" />
<use stroke="#bed7ee" xlink:href="#p22" />
<use stroke="#96b1cf" xlink:href="#p23" />
<use stroke="#767181" xlink:href="#p24" />
<use stroke="#737888" xlink:href="#p25" />
<use stroke="#acb8ca" xlink:href="#p26" />
<use stroke="#7d8392" xlink:href="#p27" />
<use stroke="#f2f4f6" xlink:href="#p28" />
<use stroke="#eaedf3" xlink:href="#p29" />
<use stroke="#498283" xlink:href="#p30" />
<use stroke="#9ca7c3" xlink:href="#p31" />
<use stroke="#41434d" xlink:href="#p32" />
<use stroke="#b2beca" xlink:href="#p33" />
<use stroke="#a6b4c9" xlink:href="#p34" />
<use stroke="#ababb0" xlink:href="#p35" />
<use stroke="#dcddae" xlink:href="#p36" />
<use stroke="#5a5f5d" xlink:href="#p37" />
</g>
<g>
<use fill="#98caf6" xlink:href="#p0" />
<use fill="#634746" xlink:href="#p1" />
<use fill="#1d1417" xlink:href="#p2" />
<use fill="#b07665" xlink:href="#p3" />
<use fill="#715452" xlink:href="#p4" />
<use fill="#f1d7c8" xlink:href="#p5" />
<use fill="#2f3946" xlink:href="#p6" />
<use fill="#394652" xlink:href="#p7" />
<use fill="#551c18" xlink:href="#p8" />
<use fill="#83a3c4" xlink:href="#p9" />
<use fill="#f4ddcf" xlink:href="#p10" />
<use fill="#5c80a9" xlink:href="#p11" />
<use fill="#794d42" xlink:href="#p12" />
<use fill="#819cbe" xlink:href="#p13" />
<use fill="#7aa3c2" xlink:href="#p14" />
<use fill="#8ba4bc" xlink:href="#p15" />
<use fill="#89a6c6" xlink:href="#p16" />
<use fill="#a6bedd" xlink:href="#p17" />
<use fill="#b8d3f0" xlink:href="#p18" />
<use fill="#3d5978" xlink:href="#p19" />
<use fill="#b3c2cf" xlink:href="#p20" />
<use fill="#bc8f80" xlink:href="#p21" />
<use fill="#bed7ee" xlink:href="#p22" />
<use fill="#96b1cf" xlink:href="#p23" />
<use fill="#767181" xlink:href="#p24" />
<use fill="#737888" xlink:href="#p25" />
<use fill="#acb8ca" xlink:href="#p26" />
<use fill="#7d8392" xlink:href="#p27" />
<use fill="#f2f4f6" xlink:href="#p28" />
<use fill="#eaedf3" xlink:href="#p29" />
<use fill="#498283" xlink:href="#p30" />
<use fill="#9ca7c3" xlink:href="#p31" />
<use fill="#41434d" xlink:href="#p32" />
<use fill="#b2beca" xlink:href="#p33" />
<use fill="#a6b4c9" xlink:href="#p34" />
<use fill="#ababb0" xlink:href="#p35" />
<use fill="#dcddae" xlink:href="#p36" />
<use fill="#5a5f5d" xlink:href="#p37" />
</g>
</svg>